<svg xmlns="http://www.w3.org/2000/svg" viewBox="0 0 512 512"><path d="M256 448c-4.422 0-8-3.582-8-8V264c0-4.418 3.578-8 8-8s8 3.582 8 8v176c0 4.418-3.578 8-8 8z" fill="#b9bbc1"/><path d="M328 432H184c-13.234 0-24 10.766-24 24v32c0 13.234 10.766 24 24 24h144c13.234 0 24-10.766 24-24v-32c0-13.235-10.766-24-24-24z" fill="#8b8996"/><path d="M123.312 372.687a7.97 7.97 0 0 1-5.656-2.344 7.996 7.996 0 0 1 0-11.312l100.687-100.687c3.125-3.125 8.188-3.125 11.312 0s3.125 8.188 0 11.312L128.969 370.344a7.978 7.978 0 0 1-5.657 2.343zm265.375 0a7.97 7.97 0 0 1-5.656-2.344l-92.687-92.687c-3.125-3.125-3.125-8.187 0-11.312s8.188-3.125 11.312 0l92.687 92.687a7.996 7.996 0 0 1 0 11.312 7.97 7.97 0 0 1-5.656 2.344z" fill="#b9bbc1"/><path d="M112 352H24c-13.234 0-24 10.766-24 24v32c0 13.234 10.766 24 24 24h88c13.234 0 24-10.766 24-24v-32c0-13.235-10.766-24-24-24z" fill="#d8dce1"/><path d="M216 480h-24c-4.422 0-8-3.582-8-8s3.578-8 8-8h24c4.422 0 8 3.582 8 8s-3.578 8-8 8zm104 0h-72c-4.422 0-8-3.582-8-8s3.578-8 8-8h72c4.422 0 8 3.582 8 8s-3.578 8-8 8zm-216-80H88c-4.422 0-8-3.582-8-8s3.578-8 8-8h16c4.422 0 8 3.582 8 8s-3.578 8-8 8zm-40 0H32c-4.422 0-8-3.582-8-8s3.578-8 8-8h32c4.422 0 8 3.582 8 8s-3.578 8-8 8z" fill="#b9bbc1"/><path d="M256 192c-18.629 0-35.531-7.994-48.002-20.914-.009 7.743-.291 18.92-2.344 27.074 1.347.823 2.392 2.174 2.596 3.856C210.911 223.672 231.437 240 256 240c24.557 0 45.083-16.331 47.75-37.984.207-1.684 1.229-3.033 2.597-3.854-2.053-8.155-2.335-19.333-2.345-27.076C291.531 184.006 274.629 192 256 192z" fill="#fdc88e"/><path d="M302.96 172.069C290.594 184.387 274.132 192 256 192c-18.629 0-35.531-7.994-48.002-20.914-.009 7.743-.291 18.92-2.344 27.074 1.347.823 2.392 2.174 2.596 3.856 1.176 9.573 5.852 18.096 12.815 24.636 32.112-4.523 68.559-36.231 81.895-54.583z" fill="#ffb980"/><path d="M353.344 203.919a4.952 4.952 0 0 0-.646-.138l-42.573-6.388c-.26-.039-.818-.06-1.083-.06a5.331 5.331 0 0 0-5.292 4.682C301.083 223.669 280.557 240 256 240c-24.562 0-45.089-16.328-47.75-37.984-.333-2.753-2.812-4.823-5.427-4.68a4.572 4.572 0 0 0-.948.057l-42.573 6.388a4.952 4.952 0 0 0-.646.138C138.531 209.555 128 229.357 128 246.005v20.661c0 8.797 7.833 15.953 17.464 15.953h221.073c9.63 0 17.464-7.156 17.464-15.953v-20.661c-.001-16.648-10.532-36.45-30.657-42.086z" fill="#ff4f19"/><path d="M304 58.667h-90.667c-14.703 0-26.667 11.964-26.667 26.667v32C186.667 158.505 217.771 192 256 192s69.333-33.495 69.333-74.667V80c0-11.763-9.568-21.333-21.333-21.333z" fill="#ffe1b2"/><path d="M293.333 0H224c-10.031 0-18.464 6.958-20.734 16.299-18.359 2.333-32.599 18.052-32.599 37.034V80c0 13.745 5.835 26.567 16 35.68V85.333c0-14.703 11.964-26.667 26.667-26.667H304c11.766 0 21.333 9.57 21.333 21.333v35.674c10.167-9.111 16-21.933 16-35.674V48c0-26.466-21.531-48-48-48z" fill="#7e5449"/><path d="M400 352h88c13.234 0 24 10.766 24 24v32c0 13.234-10.766 24-24 24h-88c-13.234 0-24-10.766-24-24v-32c0-13.235 10.765-24 24-24z" fill="#d8dce1"/><path d="M408 400h16c4.422 0 8-3.582 8-8s-3.578-8-8-8h-16c-4.422 0-8 3.582-8 8s3.578 8 8 8zm40 0h32c4.422 0 8-3.582 8-8s-3.578-8-8-8h-32c-4.422 0-8 3.582-8 8s3.578 8 8 8z" fill="#b9bbc1"/></svg>