<?xml version="1.0" encoding="iso-8859-1"?>
<!-- Generator: Adobe Illustrator 19.1.0, SVG Export Plug-In . SVG Version: 6.00 Build 0)  -->
<svg version="1.1" id="Capa_1" xmlns="http://www.w3.org/2000/svg" xmlns:xlink="http://www.w3.org/1999/xlink" x="0px" y="0px"
	 viewBox="0 0 245.698 245.698" style="enable-background:new 0 0 245.698 245.698;" xml:space="preserve">
<g>
	<g>
		<path d="M17.551,165.485c-2.693-2.686-6.041-7.59-6.761-15.636L0.121,29.731c-0.739-8.252,2.076-16.228,7.731-21.883
			s13.625-8.471,21.89-7.731l120.111,10.681c8.034,0.707,12.931,4.075,15.617,6.767c7.307,7.301,9.023,20.36-1.832,31.215
			l-41.53,41.53l117.013,117.001c8.76,8.766,8.76,23.04,0,31.806c-8.773,8.773-23.047,8.773-31.819,0.006L90.296,122.117
			L48.76,163.653C37.918,174.495,24.852,172.792,17.551,165.485z M156.383,26.646c-1.183-1.189-3.477-2.68-7.667-3.059
			L28.605,12.912c-4.454-0.405-8.702,1.06-11.658,4.017c-2.95,2.95-4.415,7.198-4.017,11.658l10.662,120.118
			c0.386,4.197,1.864,6.498,3.053,7.68c2.577,2.584,7.552,3.644,13.034-1.838l50.624-50.618l126.088,126.088
			c3.766,3.76,9.878,3.76,13.644,0c3.753-3.76,3.753-9.872,0-13.631L103.934,90.31l50.618-50.618
			C160.053,34.191,158.973,29.236,156.383,26.646z"/>
	</g>
</g>
<g>
</g>
<g>
</g>
<g>
</g>
<g>
</g>
<g>
</g>
<g>
</g>
<g>
</g>
<g>
</g>
<g>
</g>
<g>
</g>
<g>
</g>
<g>
</g>
<g>
</g>
<g>
</g>
<g>
</g>
</svg>
