<svg xmlns="http://www.w3.org/2000/svg" xmlns:xlink="http://www.w3.org/1999/xlink" style="max-width: 100%; max-height: 320px;" version="1.1" viewBox="0 0 24 24" xml:space="preserve"><style type="text/css">
	.st0{display:none;}
</style><g class="st0" id="grid"></g><g id="icon"><path d="M23.643,6.598C23.874,6.367,24,6.061,24,5.734s-0.127-0.632-0.357-0.861l-2.155-2.155c-0.475-0.475-1.248-0.475-1.724,0   l-5.248,5.248c-0.111,0.109-0.198,0.111-0.31,0L8.958,2.717C8.482,2.244,7.709,2.243,7.234,2.718L5.08,4.873   c-0.23,0.229-0.357,0.536-0.357,0.862c0,0.325,0.126,0.632,0.357,0.862l5.248,5.247c0.085,0.086,0.085,0.225,0,0.311l-5.248,5.247   c-0.23,0.23-0.356,0.537-0.356,0.862c0,0.326,0.127,0.633,0.357,0.862l2.155,2.155c0.475,0.475,1.248,0.475,1.724,0l5.247-5.248   c0.113-0.112,0.199-0.11,0.311,0l5.248,5.249c0.238,0.236,0.55,0.354,0.862,0.354c0.313,0,0.625-0.118,0.862-0.355l2.154-2.154   c0.23-0.23,0.357-0.536,0.358-0.862s-0.126-0.633-0.357-0.863l-5.247-5.247c-0.085-0.086-0.085-0.225,0-0.311L23.643,6.598z    M17.688,12.862l5.247,5.247C22.992,18.166,23,18.231,23,18.266c0,0.033-0.008,0.099-0.064,0.154l-2.154,2.155   c-0.086,0.084-0.226,0.086-0.311,0l-5.247-5.248c-0.23-0.23-0.537-0.357-0.863-0.357c-0.326,0-0.632,0.127-0.862,0.357   l-5.247,5.247c-0.085,0.086-0.225,0.088-0.311,0.001L5.786,18.42c-0.055-0.056-0.063-0.121-0.063-0.155s0.008-0.1,0.064-0.155   l5.248-5.247c0.23-0.23,0.357-0.537,0.357-0.862s-0.127-0.632-0.357-0.862L5.787,5.891C5.73,5.835,5.722,5.77,5.722,5.735   s0.008-0.1,0.064-0.155L7.94,3.425c0.086-0.084,0.226-0.086,0.311,0l5.247,5.248c0.461,0.461,1.265,0.461,1.725,0l5.247-5.247   c0.086-0.085,0.226-0.087,0.311-0.001l2.155,2.156C22.992,5.636,23,5.701,23,5.734c0,0.034-0.008,0.1-0.064,0.156l-5.247,5.247   c-0.23,0.23-0.357,0.537-0.357,0.862S17.458,12.632,17.688,12.862z" style="fill: rgb(204, 0, 0);"></path><path d="M16.06,20.575c-0.086,0.084-0.225,0.086-0.311,0l-1.034-1.035c-0.195-0.195-0.512-0.195-0.707,0s-0.195,0.512,0,0.707   l1.035,1.036c0.238,0.236,0.55,0.355,0.862,0.355c0.313,0,0.625-0.119,0.862-0.356c0.196-0.194,0.196-0.512,0.001-0.707   C16.571,20.38,16.254,20.38,16.06,20.575z" style="fill: rgb(204, 0, 0);"></path><path d="M3.53,20.574c-0.084,0.086-0.225,0.088-0.311,0.001l-2.155-2.156C1.008,18.364,1,18.299,1,18.266   c0-0.034,0.008-0.1,0.064-0.156l5.247-5.247c0.476-0.476,0.476-1.249,0-1.725L1.064,5.891C1.008,5.834,1,5.769,1,5.734   C1,5.701,1.008,5.636,1.064,5.58l2.154-2.155C3.304,3.342,3.444,3.34,3.53,3.426C3.726,3.62,4.042,3.621,4.237,3.424   c0.195-0.195,0.194-0.512-0.001-0.707C3.76,2.244,2.987,2.243,2.512,2.718L0.358,4.872C0.127,5.103,0,5.408,0,5.734   s0.126,0.633,0.357,0.863l5.247,5.247c0.085,0.086,0.085,0.225,0,0.311l-5.247,5.247C0.126,17.633,0,17.939,0,18.266   s0.127,0.632,0.357,0.861l2.155,2.155c0.237,0.237,0.549,0.356,0.862,0.356c0.312,0,0.624-0.119,0.862-0.355   c0.195-0.195,0.196-0.512,0.001-0.707C4.042,20.38,3.726,20.38,3.53,20.574z" style="fill: rgb(204, 0, 0);"></path><path d="M15.042,2.718l-1.034,1.035c-0.195,0.195-0.195,0.512,0,0.707c0.098,0.098,0.226,0.146,0.354,0.146   s0.256-0.049,0.354-0.146l1.034-1.034c0.087-0.086,0.227-0.084,0.312-0.001c0.194,0.195,0.512,0.195,0.707,0   c0.195-0.195,0.195-0.513-0.001-0.707C16.291,2.243,15.517,2.243,15.042,2.718z" style="fill: rgb(204, 0, 0);"></path></g></svg>