<svg id="Layer_1" data-name="Layer 1" xmlns="http://www.w3.org/2000/svg" xmlns:xlink="http://www.w3.org/1999/xlink" viewBox="0 0 1600 1400"><defs><style>.cls-1{fill:none;stroke:#231f20;stroke-miterlimit:10;stroke-width:2px}.cls-12,.cls-21,.cls-6,.cls-9{fill:#131829}.cls-6{opacity:.3}.cls-12{opacity:.6}.cls-13{fill:#e6e6e6}.cls-14,.cls-21{opacity:.21}.cls-15{fill:#231f20}.cls-44{fill:#fff}.cls-31{fill:#ef4164}.cls-44{opacity:.34}.cls-59{fill:#d32f56}</style><linearGradient id="linear-gradient" x1="465.66" y1="-20.9" x2="1028.72" y2="1187.73" gradientUnits="userSpaceOnUse"><stop offset="0" stop-color="#7d7cbb" stop-opacity=".3"/><stop offset=".09" stop-color="#7473b2" stop-opacity=".38"/><stop offset=".68" stop-color="#403e7f" stop-opacity=".83"/><stop offset="1" stop-color="#2c2a6b"/></linearGradient><linearGradient id="linear-gradient-2" x1="342.69" y1="36.39" x2="905.74" y2="1245.02" gradientTransform="rotate(83.47 442.393 250.422)" xlink:href="#linear-gradient"/><linearGradient id="linear-gradient-3" x1="1129.73" y1="725.15" x2="1109.04" y2="932.1" gradientUnits="userSpaceOnUse"><stop offset="0" stop-color="#8a7ebb"/><stop offset=".03" stop-color="#8378b5"/><stop offset=".2" stop-color="#645c9a"/><stop offset=".38" stop-color="#4b4685"/><stop offset=".56" stop-color="#3a3677"/><stop offset=".76" stop-color="#2f2d6e"/><stop offset="1" stop-color="#2c2a6b"/></linearGradient><linearGradient id="linear-gradient-4" x1="1225.17" y1="689.76" x2="1207.99" y2="861.56" gradientUnits="userSpaceOnUse"><stop offset="0" stop-color="#fff" stop-opacity=".5"/><stop offset=".18" stop-color="#fff" stop-opacity=".48"/><stop offset=".39" stop-color="#fff" stop-opacity=".43"/><stop offset=".61" stop-color="#fff" stop-opacity=".34"/><stop offset=".83" stop-color="#fff" stop-opacity=".21"/><stop offset="1" stop-color="#fff" stop-opacity=".1"/></linearGradient><linearGradient id="linear-gradient-5" x1="1378.15" y1="826.42" x2="1278.44" y2="1023.96" gradientUnits="userSpaceOnUse"><stop offset=".05" stop-color="#f1666e"/><stop offset=".28" stop-color="#eb606b"/><stop offset=".58" stop-color="#db5161"/><stop offset=".91" stop-color="#c03751"/><stop offset="1" stop-color="#b82f4c"/></linearGradient><linearGradient id="linear-gradient-6" x1="1169.11" y1="887.17" x2="971.56" y2="991.58" xlink:href="#linear-gradient-3"/><linearGradient id="linear-gradient-7" x1="861.67" y1="1057.29" x2="970.32" y2="1019.2" xlink:href="#linear-gradient-4"/><linearGradient id="linear-gradient-8" x1="966.14" y1="939.92" x2="1028.54" y2="932.39" xlink:href="#linear-gradient-4"/><linearGradient id="linear-gradient-9" x1="619.91" y1="307.31" x2="666" y2="734.38" xlink:href="#linear-gradient-3"/><linearGradient id="linear-gradient-10" x1="505.1" y1="464.9" x2="781.59" y2="464.9" xlink:href="#linear-gradient-4"/><linearGradient id="linear-gradient-11" x1="1130.77" y1="598.26" x2="1175.92" y2="879.52" xlink:href="#linear-gradient-3"/><linearGradient id="linear-gradient-12" x1="1152.86" y1="637.87" x2="1245.04" y2="826.95" xlink:href="#linear-gradient-4"/><linearGradient id="linear-gradient-13" x1="1279.02" y1="499.1" x2="1364.31" y2="699.15" xlink:href="#linear-gradient-3"/><linearGradient id="linear-gradient-14" x1="1258.17" y1="430.67" x2="1373.87" y2="718.52" gradientUnits="userSpaceOnUse"><stop offset=".06" stop-color="#f4d248"/><stop offset=".96" stop-color="#f1bd45"/></linearGradient><linearGradient id="linear-gradient-15" x1="1349.3" y1="507.21" x2="1350.55" y2="683.43" xlink:href="#linear-gradient-4"/><linearGradient id="linear-gradient-16" x1="1325.49" y1="507.38" x2="1326.74" y2="683.6" xlink:href="#linear-gradient-4"/><linearGradient id="linear-gradient-17" x1="1101.34" y1="371.14" x2="1102.59" y2="662.75" xlink:href="#linear-gradient-3"/><linearGradient id="linear-gradient-18" x1="598.26" y1="234.71" x2="1181.48" y2="612.86" gradientUnits="userSpaceOnUse"><stop offset=".11" stop-color="#b2decd"/><stop offset=".23" stop-color="#a2d4c9"/><stop offset=".45" stop-color="#7ababe"/><stop offset=".76" stop-color="#3991ad"/><stop offset="1" stop-color="#016e9f"/></linearGradient><linearGradient id="linear-gradient-19" x1="597.87" y1="234.79" x2="1181.09" y2="612.95" gradientUnits="userSpaceOnUse"><stop offset="0" stop-color="#f3d266"/><stop offset=".14" stop-color="#f3d259"/><stop offset=".4" stop-color="#f4d148"/><stop offset=".67" stop-color="#f4d13d"/><stop offset="1" stop-color="#f4d13a"/></linearGradient><linearGradient id="linear-gradient-20" x1="809.33" y1="296.63" x2="1122.57" y2="645.15" gradientUnits="userSpaceOnUse"><stop offset="0" stop-color="#2b2b6a"/><stop offset=".07" stop-color="#292964"/><stop offset=".45" stop-color="#1d2044"/><stop offset=".78" stop-color="#161a30"/><stop offset="1" stop-color="#131829"/></linearGradient><linearGradient id="linear-gradient-21" x1="1181.21" y1="450.56" x2="1003.42" y2="535.23" xlink:href="#linear-gradient-18"/><linearGradient id="linear-gradient-22" x1="833.48" y1="212.73" x2="968" y2="406.51" xlink:href="#linear-gradient-4"/><linearGradient id="linear-gradient-23" x1="1029.35" y1="458.99" x2="1117.81" y2="514.35" xlink:href="#linear-gradient-14"/><linearGradient id="linear-gradient-24" x1="906.03" y1="428.05" x2="999.18" y2="486.34" gradientTransform="rotate(6.93 929.517 536.89)" xlink:href="#linear-gradient-14"/><linearGradient id="linear-gradient-25" x1="947.35" y1="508.71" x2="1035.43" y2="563.82" xlink:href="#linear-gradient-14"/><linearGradient id="linear-gradient-26" x1="786.07" y1="408.36" x2="816.64" y2="452.4" gradientTransform="rotate(90 848.435 477.915)" xlink:href="#linear-gradient-4"/><linearGradient id="linear-gradient-27" x1="702.34" y1="490.52" x2="736.77" y2="540.12" gradientTransform="rotate(90 760.615 551.925)" xlink:href="#linear-gradient-4"/><linearGradient id="linear-gradient-28" x1="722.73" y1="305.77" x2="805.23" y2="482.82" xlink:href="#linear-gradient-3"/><linearGradient id="linear-gradient-29" x1="769.36" y1="377.57" x2="777.95" y2="389.33" gradientTransform="rotate(74.04 776.483 387.323)" xlink:href="#linear-gradient-18"/><linearGradient id="linear-gradient-30" x1="648.08" y1="359.24" x2="729.61" y2="638.94" xlink:href="#linear-gradient-3"/><linearGradient id="linear-gradient-31" x1="628.68" y1="275.67" x2="708.77" y2="550.45" xlink:href="#linear-gradient-4"/><linearGradient id="linear-gradient-32" x1="761.34" y1="287.84" x2="765.73" y2="361.21" gradientUnits="userSpaceOnUse"><stop offset=".4" stop-color="#f1666e"/><stop offset=".54" stop-color="#eb606b"/><stop offset=".73" stop-color="#db5161"/><stop offset=".94" stop-color="#c03751"/><stop offset="1" stop-color="#b82f4c"/></linearGradient><linearGradient id="linear-gradient-33" x1="756.33" y1="288.13" x2="760.72" y2="361.51" xlink:href="#linear-gradient-32"/><linearGradient id="linear-gradient-34" x1="751.3" y1="288.44" x2="755.69" y2="361.81" xlink:href="#linear-gradient-32"/><linearGradient id="linear-gradient-35" x1="747.19" y1="288.68" x2="751.58" y2="362.05" xlink:href="#linear-gradient-32"/><linearGradient id="linear-gradient-36" x1="484.25" y1="587.92" x2="1106.98" y2="1142.92" xlink:href="#linear-gradient-18"/><linearGradient id="linear-gradient-37" x1="433.16" y1="645.25" x2="1055.89" y2="1200.25" xlink:href="#linear-gradient-19"/><linearGradient id="linear-gradient-38" x1="570.37" y1="508.85" x2="890.2" y2="744.01" gradientTransform="rotate(70.98 856.377 719.168)" xlink:href="#linear-gradient-18"/><linearGradient id="linear-gradient-39" x1="795.63" y1="717.03" x2="917.13" y2="717.03" xlink:href="#linear-gradient-18"/><linearGradient id="linear-gradient-40" x1="623.88" y1="538.8" x2="707.48" y2="659.23" gradientTransform="rotate(90 663.635 718.395)" xlink:href="#linear-gradient-4"/><linearGradient id="linear-gradient-41" x1="554.94" y1="314.32" x2="601.03" y2="741.39" xlink:href="#linear-gradient-3"/><linearGradient id="linear-gradient-42" x1="715.76" y1="749.56" x2="980.93" y2="985.9" xlink:href="#linear-gradient-5"/><linearGradient id="linear-gradient-43" x1="782.98" y1="1025.4" x2="533.38" y2="922.55" xlink:href="#linear-gradient-3"/><linearGradient id="linear-gradient-44" x1="680.08" y1="923.05" x2="705.06" y2="961.9" xlink:href="#linear-gradient-4"/><linearGradient id="linear-gradient-45" x1="409.14" y1="486.89" x2="525.67" y2="890.14" xlink:href="#linear-gradient-3"/><linearGradient id="linear-gradient-46" x1="283.33" y1="529.02" x2="270.16" y2="653.82" xlink:href="#linear-gradient-18"/><linearGradient id="linear-gradient-47" x1="55.12" y1="538.28" x2="279.01" y2="736.76" xlink:href="#linear-gradient-18"/><linearGradient id="linear-gradient-48" x1="-37.22" y1="514.02" x2="224.91" y2="746.41" xlink:href="#linear-gradient-19"/><linearGradient id="linear-gradient-49" x1="105.8" y1="584.44" x2="236.63" y2="584.44" gradientTransform="rotate(12.38 171.23 584.476)" xlink:href="#linear-gradient-18"/><linearGradient id="linear-gradient-50" x1="286.69" y1="553.81" x2="28.94" y2="622.17" gradientTransform="rotate(12.38 171.23 584.476)" xlink:href="#linear-gradient-3"/><linearGradient id="linear-gradient-51" x1="112.67" y1="503.98" x2="182.28" y2="610.59" xlink:href="#linear-gradient-32"/><linearGradient id="linear-gradient-52" x1="82.66" y1="527.33" x2="111.12" y2="576.95" gradientTransform="rotate(19.82 93.089 545.485)" xlink:href="#linear-gradient-32"/><linearGradient id="linear-gradient-53" x1="351.69" y1="564.89" x2="382.26" y2="632.14" xlink:href="#linear-gradient-4"/></defs><path class="cls-1" d="M1357.12 569.92c11.85 72.72 41.23 446.17-542.16 530.83S404.53 879.53 257.85 861.27s-120.28-139.12-77.08-209.13S288 545.24 197.7 461.78s144-190.68 346.17-164c280.37 37 418.4 1.5 398.27-68.11s-91.61-154.27 58-146.75 298.76 112.88 266.5 191.9 74.49 197 90.48 295.1z"/><ellipse class="cls-1" cx="421.27" cy="213.31" rx="44.45" ry="140.57" transform="rotate(-83.47 421.294 213.307)"/><g opacity=".59"><path d="M1378.23 607c11.85 72.72 41.24 446.17-542.16 530.83S425.65 916.62 279 898.35s-120.32-139.12-77.12-209.13 107.24-106.9 16.93-190.36 144-190.68 346.17-164c280.38 37 418.4 1.5 398.28-68.11s-91.62-154.27 58-146.75S1320 232.9 1287.71 311.92s74.53 196.98 90.52 295.08z" fill="url(#linear-gradient)" opacity=".18"/><ellipse cx="442.38" cy="250.4" rx="44.45" ry="140.57" transform="rotate(-83.47 442.417 250.388)" fill="url(#linear-gradient-2)" opacity=".18"/></g><g id="MAIL"><path d="M946.26 950.08a22.1 22.1 0 0 1-.36-44.19c1.49 0 118.55-2.41 182.33-32.07 14.85-6.91 28.78-14.34 42.26-21.52 38.6-20.57 69.1-36.81 97-27.75 13.59 4.42 24.18 14.26 31.47 29.25a22.09 22.09 0 1 1-39.73 19.32c-1.27-2.6-3.23-5.84-5.4-6.55-10-3.26-39.14 12.26-62.54 24.73-13.35 7.11-28.47 15.17-44.41 22.58-72.41 33.67-195 36.11-200.22 36.19z" fill="url(#linear-gradient-3)"/><path class="cls-6" d="M1276.18 867.83c-20-35.94-42.69-13.59-97.87 9.57-43.69 18.33-187.15 29.09-245.08 32.77a22.08 22.08 0 0 0 13 39.91h.38c5.19-.08 127.81-2.52 200.22-36.19 15.94-7.41 31.06-15.47 44.41-22.58 23.4-12.47 52.52-28 62.54-24.73 2.17.71 4.13 3.95 5.4 6.55a21.93 21.93 0 0 0 10.37 10.27c6.45-5.98 9.02-11.27 6.63-15.57z"/><path d="M1298.94 853.8c-7.29-15-17.88-24.83-31.47-29.25-27.88-9.06-58.38 7.18-97 27.75-13.48 7.18-27.41 14.61-42.26 21.52-4.9 2.27-10.11 4.39-15.56 6.35 16.71-5.38 113.29-49.76 142.92-50.39 21.18-.45 37.51 24.07 45.1 38.1a22 22 0 0 0-1.73-14.08z" fill="url(#linear-gradient-4)"/><path class="cls-9" d="M1213 831.17l-16.27 57.23c7-3.7 14.28-7.52 21.3-10.93l13.9-52.86a140.55 140.55 0 0 0-18.93 6.56zm-110.66 52.48c-9.18 2.87-18.85 5.37-28.7 7.55-1.09 19.39-2.1 37.73-2.1 38.61 0 .5 2.43 2.92 5.89 5.74 7.65-1.6 15.27-3.39 22.75-5.37-.79-13.7.72-32.72 2.16-46.53z" opacity=".6"/><path d="M1259.38 886.28l133.29 2.27a17.13 17.13 0 0 1 16.61 19.94l-12.71 76.6a17.13 17.13 0 0 1-16.9 14.33h-132.9a17.14 17.14 0 0 1-16.93-19.78l12.32-78.87a17.14 17.14 0 0 1 17.22-14.49z" fill="url(#linear-gradient-5)"/><path d="M1323.3 954.07a21.14 21.14 0 0 1-13.31-4.69l-60.61-49a1.16 1.16 0 0 1 1.46-1.81l60.61 49a18.91 18.91 0 0 0 22.79.69l65.08-46.4a1.16 1.16 0 1 1 1.35 1.89l-65.08 46.4a21.12 21.12 0 0 1-12.29 3.92zm59.13 31.46a1.15 1.15 0 0 1-.89-.42l-23.83-28.84a1.16 1.16 0 1 1 1.79-1.48l23.83 28.84a1.17 1.17 0 0 1-.9 1.9zm-136.71 0a1.14 1.14 0 0 1-.82-.34 1.16 1.16 0 0 1 0-1.64l31.34-31.45a1.16 1.16 0 0 1 1.64 0 1.15 1.15 0 0 1 0 1.64l-31.34 31.45a1.13 1.13 0 0 1-.82.34z" fill="#72142e"/><path class="cls-12" d="M1278.72 930.56s7.41 18.3 29.63 9l6.59 8.15s14 2.17 20.46-4.87c0 0 12.7 4.71 20-4.93 0 0 14 6.82 19.52-10.23s2.49-30.94 2.49-30.94z"/><path class="cls-13" d="M1259.38 886.28l22.85.39s3.31 26.91-2.57 38.67 14.58 16.93 19.29 12.93a58.39 58.39 0 0 0 6.82-6.58s-1.65 11 7.52 15.28 21.17-11.05 21.17-11.05 0 5.62 5.41 6.93 16-8.57 16-8.57 6.82 3.76 13.4-.71 12.08-38 4.94-49c-2.59-4-9.4-2.93-9.4-2.93s-8-9.17-16.47-5.88c0 0-12.93-12.7-27-7.76 0 0-10.35-12.47-23.28-9.64s-40.38 11.21-38.68 27.92z"/><g class="cls-14"><path class="cls-9" d="M1260.34 879.58a14 14 0 0 0-1 6.7l22.85.39s-11.92-7.82-21.85-7.09zm104.66 2.33a3.9 3.9 0 0 0-.24-.31c.12.1.24.21.24.31z"/><path class="cls-9" d="M1299 938.27a58.39 58.39 0 0 0 6.82-6.58s-1.65 11 7.52 15.28 21.17-11.05 21.17-11.05 0 5.62 5.41 6.93 16-8.57 16-8.57 6.82 3.76 13.4-.71c6.31-4.28 11.61-35.25 5.77-47.52-.06.36-2.49 16.42-4.71 15.07-1.47-.89-1.79-4.2-1.84-6.39v-2.02c-.16-4.21-1.16-8-3.43-10.8.63.94 2.32 4.1 2.32 10.91-.07 1.31-1.08 15.21-10.37 18.23-9.76 3.18-11.26-3.23-9.61-8.55.9-2.73 1.67-5.28 2.22-7.46 3.39-13.4-1.27-19.28-1.27-19.28 2.66 4.3.79 15.22-2.33 26.59-.1.33-4 12.41-13 15.66s-19.35-.69-14.54-15v-.06a105.23 105.23 0 0 0 4.41-14.37c3.41-16.22-1.57-20.61-1.57-20.61s2.59 3.88.23 16c-1.46 7.55-5.41 19.51-9 29.56-.65 1.78-5.27 13.18-17.19 15.2-12.93 2.19-16.18 2-14.47-6.37a21.64 21.64 0 0 1-1.22 3c-5.94 11.74 14.52 16.91 19.28 12.91z"/></g><path class="cls-15" d="M1314 843.67a1.75 1.75 0 0 1-1.72-1.44c-7.16-40.13-49.21-42.6-51-42.69a1.74 1.74 0 0 1-1.66-1.82 1.71 1.71 0 0 1 1.82-1.66c.47 0 46.62 2.66 54.27 45.56a1.74 1.74 0 0 1-1.41 2z"/></g><g id="ARM_2" data-name="ARM 2"><path d="M993.07 1070.07c-19.15 0-42.21-4.19-70-14.68-43.06-16.27-78.48-40.58-80-41.6a23.26 23.26 0 0 1 26.44-38.28c22.79 15.7 80.92 48 123.19 48.06 15 0 28-4.07 36.69-14.39 9.16-10.84 12.91-21.83 11.47-33.58-3.38-27.46-33.54-54.68-44.88-62.85a23.26 23.26 0 0 1 27.05-37.84c5.86 4.18 57.37 42.3 64 94.79 3.11 24.7-4.53 48.73-22.06 69.49-13.32 15.81-35.58 30.88-71.9 30.88z" fill="url(#linear-gradient-6)"/><path class="cls-6" d="M1069.68 1033.21c14.18-19.34 20.2-41.15 17.39-63.51-6.59-52.49-58.1-90.61-64-94.79a23.29 23.29 0 0 0-32.46 5.42 23 23 0 0 0-2.26 3.95c18.92 16.81 63.6 61.44 52.69 99.56-.79 8.71-4.62 17.07-11.61 25.34-8.72 10.32-21.7 14.39-36.69 14.39-42.27 0-100.4-32.36-123.19-48.06a23.24 23.24 0 0 0-35.47 25.85c17 6.59 38.8 16.27 66.69 29.57 119.23 56.88 164.87 7.07 168.91 2.28z"/><path d="M843.15 1013.79c1.49 1 36.91 25.33 80 41.6 27.74 10.49 50.8 14.68 70 14.68 36.32 0 58.58-15.07 71.94-30.88 1.65-2 3.19-4 4.67-6-4 4.83-49.66 54.6-168.87-2.28-27.89-13.3-49.73-23-66.69-29.57a23.12 23.12 0 0 0 8.95 12.45z" fill="url(#linear-gradient-7)"/><path class="cls-12" d="M1087.07 969.7c-4-31.48-24.06-57.79-40.79-74.71-.69 6.39-8.17 79.8 11.62 104.25a61.73 61.73 0 0 0 21.9 16.82 84.52 84.52 0 0 0 7.27-46.36z"/><path d="M988.39 884.28a23.22 23.22 0 0 0 7.67 28.47c11.34 8.17 41.5 35.39 44.88 62.85a39.24 39.24 0 0 1 .14 8.24c10.92-38.12-33.77-82.75-52.69-99.56z" fill="url(#linear-gradient-8)"/><path class="cls-15" d="M1014.55 1089.9a1.74 1.74 0 0 1-.32-3.46c61.86-11.54 70.92-50.69 71-51.09a1.74 1.74 0 0 1 3.41.72c-.09.44-2.33 10.71-12.62 22.54-9.41 10.81-27.66 25-61.15 31.26z"/></g><g id="ARM_1" data-name="ARM 1"><path d="M623.19 789.71a23.1 23.1 0 0 1-7.82-1.37c-34.87-12.45-80.74-46.08-104.9-103.09-15.79-37.25-27.17-98 8.25-176.13 28.31-62.39 81-103.35 152.43-118.43 52.45-11.08 96.61-4.2 98.46-3.9a23.26 23.26 0 0 1-7.35 45.93c-.89-.14-39-5.79-82.86 3.77-56.44 12.29-96.25 43.19-118.32 91.85-22.85 50.36-25.47 97-7.79 138.76 18.32 43.21 53.32 68.72 77.73 77.44a23.26 23.26 0 0 1-7.83 45.17z" fill="url(#linear-gradient-9)"/><path class="cls-6" d="M570.73 510c23.2-38.19 59.67-62.91 108.68-73.58 43.9-9.56 82-3.91 82.86-3.77a23.23 23.23 0 0 0 18.83-5.35c-10.26-18.15-18.35-30.82-18.35-30.82S606.58 418.55 570.73 510z"/><path d="M577.53 441.53c61.33-52.8 183.51-49.85 204.06-49a23.21 23.21 0 0 0-12-5.78c-1.85-.3-46-7.18-98.46 3.9-71.41 15.08-124.12 56-152.43 118.43a282.15 282.15 0 0 0-13.62 36.27c7.26-22.06 26.11-63.93 72.45-103.82z" fill="url(#linear-gradient-10)"/><path class="cls-15" d="M495.37 498.86a1.72 1.72 0 0 1-.66-.13 1.75 1.75 0 0 1-.95-2.28 241.29 241.29 0 0 1 33.66-54.15c20.93-25.56 56.48-57.61 106.92-65.14a1.74 1.74 0 0 1 .51 3.45c-49.3 7.36-84.13 38.77-104.67 63.82-22.33 27.24-33.09 53.09-33.19 53.35a1.76 1.76 0 0 1-1.62 1.08z"/></g><g id="NOTEPAD"><path class="cls-21" d="M1277.74 715.85s47.31-9 70.83-56.49-86.63 9.51-70.83 56.49z"/><path d="M1124.54 1015c-26.39 0-42.85-11.62-52.19-21.75-26.19-28.43-32.33-79.87-19.91-166.8 2.06-14.43 2.55-33.48-6.83-42.28-9-8.48-27.12-7.05-32.74-5.88h.16l-10.13-45.39c4.6-1 45.73-9.26 74.2 17.08 19.49 18 26.68 46 21.38 83.09-12.26 85.82-2.37 117.36 8.08 128.71 3.22 3.49 8.49 7.4 20.81 6.66.06 0 6-1.28 14.58-22.45 8.21-20.17 15-49 22.27-79.43 18-75.94 38.44-162 96-194.71a23.25 23.25 0 0 1 23 40.45c-40 22.69-58.71 101.6-73.75 165-7.65 32.26-14.88 62.74-24.45 86.23-5 12.18-20 49.25-54.86 51.34-1.92.13-3.79.13-5.62.13z" fill="url(#linear-gradient-11)"/><g opacity=".3"><path class="cls-9" d="M1012.87 778.33c5.62-1.17 23.72-2.6 32.74 5.88 9.38 8.8 8.89 27.85 6.83 42.28-12.42 86.93-6.28 138.37 19.91 166.8 9.34 10.13 25.8 21.75 52.19 21.75 1.83 0 3.7 0 5.62-.17 34.81-2.09 49.9-39.16 54.86-51.34 9.57-23.49 16.8-54 24.45-86.23 15-63.4 33.76-142.31 73.75-165a23.23 23.23 0 0 0 11.38-24.42c-68 11.15-109.58 275.65-167.23 280.56s-33-99.72-38.74-168.13c-4.27-51.16-56.14-53.16-82.05-50.92l6.45 28.9z"/><path class="cls-9" d="M1012.87 778.33c5.62-1.17 23.72-2.6 32.74 5.88 9.38 8.8 8.89 27.85 6.83 42.28-12.42 86.93-6.28 138.37 19.91 166.8 9.34 10.13 25.8 21.75 52.19 21.75 1.83 0 3.7 0 5.62-.17 34.81-2.09 49.9-39.16 54.86-51.34 9.57-23.49 16.8-54 24.45-86.23 15-63.4 33.76-142.31 73.75-165a23.23 23.23 0 0 0 11.38-24.42c-68 11.15-109.58 275.65-167.23 280.56s-33-99.72-38.74-168.13c-4.27-51.16-56.14-53.16-82.05-50.92l6.45 28.9z"/></g><path d="M1205.12 755.59c19.18-53.56 61.22-77 77.29-84.17a23.19 23.19 0 0 0-22.14.43c-57.61 32.69-78 118.77-96 194.71q-2.16 9.12-4.29 18s21.15-61.99 45.14-128.97z" fill="url(#linear-gradient-12)"/><path class="cls-9" d="M1453.47 574.21l-2.38-14.21-16.29 3.36-9.41 4.69-57.6-6.41a11.72 11.72 0 0 0-8.79 2.64l-111.29 92.39-39.28 19.59 2.24 13.82h.06a4.31 4.31 0 0 0 3.9 3.72l83.71 8a4.38 4.38 0 0 0 3.17-1L1452 578.46a4.28 4.28 0 0 0 1.47-4.25z"/><path d="M1296 687.71l-83.71-8a4.37 4.37 0 0 1-2.37-7.71l146.74-121.82a11.72 11.72 0 0 1 8.79-2.64l81.88 9.12a4.37 4.37 0 0 1 2.28 7.73l-150.44 122.4a4.38 4.38 0 0 1-3.17.92z" fill="url(#linear-gradient-13)"/><path d="M1301.79 678.92l-76.14-7.3a4 4 0 0 1-2.16-7L1357 553.79a10.67 10.67 0 0 1 8-2.4l74.49 8.29a4 4 0 0 1 2.07 7l-136.88 111.37a4 4 0 0 1-2.89.87z" fill="url(#linear-gradient-14)"/><path d="M1441.52 566.72a3.92 3.92 0 0 0 1.35-4l-185.66 111.9 23.3 2.24 152.75-103.45z" fill="url(#linear-gradient-15)"/><path d="M1406.93 556.06L1264.2 630.8l-40.71 33.8a4 4 0 0 0 2.16 7l17.15 1.64 187.64-114.58z" fill="url(#linear-gradient-16)"/><ellipse class="cls-9" cx="1255.6" cy="679.33" rx="7.06" ry="2.45"/></g><g id="EXCLAMATIOn"><path d="M943.12 764.86a23.26 23.26 0 0 1-19.61-35.73c4.58-7.21 113.32-177.13 212.26-230.82 39.28-21.32 73.59-26 102-13.78 35.84 15.38 46.29 50.82 47.36 54.81l-44.91 12.09.07.25c-.06-.18-5.47-18-21.21-24.55-14.42-6-35.55-1.82-61.1 12-88.35 48-194.14 213.24-195.2 214.9a23.24 23.24 0 0 1-19.66 10.83z" fill="url(#linear-gradient-17)"/><path class="cls-6" d="M923.51 729.13a23.25 23.25 0 1 0 39.25 25c1.06-1.66 106.85-167 195.2-214.9 25.55-13.87 46.68-18 61.1-12 15.74 6.53 21.15 24.37 21.21 24.55l-.07-.25 35.87-9.65a55.22 55.22 0 0 0 6.16-10.68 94.61 94.61 0 0 0-10.13-18.39c-19.27-15.11-45.06-14.82-99.44-15.59-27.81-.4-69.54 25.87-108.07 55.92C990.74 624 927 723.65 923.51 729.13z"/><path class="cls-21" d="M1317.49 631.93s-6.31 6-14.9 6 .98-9.21 14.9-6z"/><path class="cls-13" d="M1255 518s-17.86 5.78-20 18.49 5.81 26.31 8.79 30.17S1259 587.23 1260 595.5s8.57 12.6 13.37 11.26 6.84-17.71 5.1-22.17-4-15.58-1.2-14.49 13.51 28.5 15.46 34.39 5.71 23.68 11.09 27.75 14.07 1.61 13.88-1.07-5.38-38.14-6.15-41.22-2.09-18.14-2.31-22.8a45.91 45.91 0 0 0-9.11-23.41c-6.45-8.09-19.91-34.74-45.13-25.74z"/><path class="cls-21" d="M1304.67 627.54c-2.75-3.65-7-12-11.42-21.32 2.07 7.07 5.63 22.29 10.56 26s12.41 2 13.68-.31c-3.58.63-8.86.87-12.82-4.37zm-31.31-20.78c4.8-1.34 6.84-17.71 5.1-22.17s-4-15.58-1.2-14.49c0 0-4.89-1.83-4 6.17s8.5 32-5.07 30.1a8.49 8.49 0 0 0 5.17.39z"/><path class="cls-9" d="M1316 637.64a1.16 1.16 0 0 1-.21-2.31c.28-.06 6.11-1.38 4.85-13a1.17 1.17 0 0 1 2.32-.25c1.51 13.94-6.42 15.48-6.76 15.54z"/><path class="cls-15" d="M1333.12 543.88l-15.01-35.83h-27.69V405.06h85.28v102.99h-29.05l-13.53 35.83z"/><path fill="#fff" d="M1292.74 505.73h26.92l13.35 31.86 12.04-31.86h28.33v-98.35h-80.64v98.35z"/><path class="cls-31" d="M1333.06 475.28a5.38 5.38 0 0 1-5.61-5.11v-47.55a5.63 5.63 0 0 1 11.22 0v47.55a5.38 5.38 0 0 1-5.61 5.11z"/><circle class="cls-31" cx="1333.18" cy="489.29" r="5.94"/><path class="cls-15" d="M1327.45 551.31a1.17 1.17 0 0 1-.93-.48l-10.06-13.64a1.16 1.16 0 0 1 1.87-1.38l10.06 13.64a1.17 1.17 0 0 1-.94 1.86zm11.22 0a1.17 1.17 0 0 1-1-1.77l8.33-13.64a1.16 1.16 0 0 1 2 1.21l-8.36 13.64a1.16 1.16 0 0 1-.97.56z"/></g><g id="HEAD"><path d="M1008.33 307.87c-152.67-52.73-243.47 64.88-292 168.67a18.56 18.56 0 0 0-2 4.22v.05C704 514 789.85 570.52 906.18 607s219.08 39.11 229.49 5.89c.12-.36.21-.73.3-1.1l.21-1c23.61-110.3 20.31-251.74-127.85-302.92z" fill="url(#linear-gradient-18)"/><path d="M1030.13 316.43c-7-3.15-14.27-6.08-22-8.75-152.67-52.74-243.47 64.87-292 168.66a18.76 18.76 0 0 0-1.95 4.22v.05c-3.85 12.29 5.49 27.77 24.66 44.24a21.24 21.24 0 0 1 1.82-3.63c50.61-108.32 141.45-229.77 289.47-204.79z" fill="url(#linear-gradient-19)"/><path class="cls-9" d="M1007.63 364.69c-1.51-28.77-8.12-49.91-19.69-63.09-1.42-.36-2.82-.7-4.22-1 31.19 30.63 23.39 110.52 10.56 174.62-14 69.91-36.64 135.58-40 145.05l2.29.55c3.63-10.35 26.06-75.64 40-145.12 8.88-44.35 12.6-81.7 11.06-111.01z"/><path class="cls-21" d="M1135.46 612.69c.12-.37.21-.74.3-1.11l.21-1c17.13-80 20.07-176.41-36.15-242.85 4.54 35.85 7.74 108.2-34.78 134.59-57.47 35.68-250.26-5.22-250.26-5.22s16.73 48 73.17 73.66c23.91 10.89 35.12 27.29 40.11 42.59 106.94 30.11 197.65 30.43 207.4-.66z"/><path d="M1025.43 366.65c-109.22-37.73-174.18 46.41-208.87 120.66a13.3 13.3 0 0 0-1.39 3c-7.45 23.76 54 64.18 137.2 90.27s156.73 28 164.18 4.21c.08-.26.14-.53.21-.79l.15-.7c16.87-78.85 14.51-180.04-91.48-216.65z" fill="url(#linear-gradient-20)"/><path d="M1073.73 392.73c55 47.11 53.91 124.88 40.34 188.27l-.15.71c-.07.26-.13.53-.21.79-7.46 23.76-81 21.88-164.18-4.21-50.35-15.79-92.72-36.82-116.69-56.23 23.37 20.05 67.12 42.15 119.51 58.58 83.22 26.09 156.73 28 164.18 4.21.08-.26.14-.53.21-.79l.15-.7c13.8-64.47 14.74-143.79-43.16-190.63z" fill="url(#linear-gradient-21)"/><path d="M914 390.8c14.79-8.88 53.61-22.58 97.83-11.29s57.77 32.45 54.28 40.92-106.49-23.05-152.11 0-25.89-14.11 0-29.63z" fill="url(#linear-gradient-22)"/><path d="M1081.1 454.77c-18.21-5.09-32.54 10.41-41.61 36.16a12.57 12.57 0 0 0 9.52 16.56l26.44 4.94a16.1 16.1 0 0 0 19-14.88c1.04-16.55-.12-39.09-13.35-42.78z" fill="url(#linear-gradient-23)"/><path d="M972.61 428.25c-18.48-7.67-35.43 8.08-47.74 35.25a8.7 8.7 0 0 0 5.31 11.89l37.63 11.88a8.69 8.69 0 0 0 11.07-6.27c3.7-15.58 8.88-46.46-6.27-52.75z" fill="url(#linear-gradient-24)"/><path d="M973.47 510l47.74 26.34s-16.64 19.28-40.07 11.29-7.67-37.63-7.67-37.63z" fill="url(#linear-gradient-25)"/><ellipse cx="871.73" cy="447.67" rx="14.11" ry="8.94" transform="rotate(-56.49 871.807 447.664)" fill="url(#linear-gradient-26)"/><ellipse cx="769.93" cy="529.81" rx="7.64" ry="22.45" transform="rotate(-62.82 769.938 529.814)" fill="url(#linear-gradient-27)"/></g><g id="PHONE"><path class="cls-9" d="M816 372.55l-5 9.38-29.14 5.73L769.39 462l-17.91 40.08 7.92 6.34a7.65 7.65 0 0 0 4.71 1.69l37.74.41a7.23 7.23 0 0 0 7.2-6l21-119.8a5.69 5.69 0 0 0-2.84-6z"/><path d="M818.15 377.18l-21.42 122.47a4.5 4.5 0 0 1-4.43 3.72h-37.67a4.5 4.5 0 0 1-4.43-5.24l19.21-114.61a4.49 4.49 0 0 1 3.57-3.67l39.88-7.85a4.49 4.49 0 0 1 5.29 5.18z" fill="url(#linear-gradient-28)"/><ellipse class="cls-9" cx="776.34" cy="387.33" rx="3.88" ry="3.53" transform="rotate(-74.04 776.325 387.332)"/><ellipse cx="776.49" cy="387.33" rx="3.55" ry="3.23" transform="rotate(-74.04 776.48 387.334)" fill="url(#linear-gradient-29)"/><ellipse class="cls-44" cx="776.1" cy="387.06" rx="2.26" ry="2.05" transform="rotate(-74.04 776.085 387.058)"/><ellipse class="cls-44" cx="777.5" cy="386.17" rx="1.26" ry="1.15" transform="rotate(-74.04 777.486 386.18)"/><path d="M796.16 449.83c-12.93 4.52-37.68 20.68-41.93 24.26l-1.81 10.81c6.39-1.36 43.86-9.17 47.85-5.48l5.19-29.68a12.94 12.94 0 0 0-9.3.09z" opacity=".38" fill="#131829"/><path class="cls-13" d="M740.68 424.83s18.55-19.43 31.72-23.32 30.6-6.95 37.4-5.51 22.34 1.88 23 11.76-.94 19.63-4.23 20c0 0 6.35 15-2.35 24.87 0 0-1.65 19.28-9.64 23.28s-6.59-11.05-37.87-4.23-23.24 10.3-36.31 0-1.72-46.85-1.72-46.85z"/><path class="cls-21" d="M818.22 444.42c-3.85-.63-10.36-1.49-15.22-2.11 11.72 2.54 23.26 10.34 23.26 10.34 8.7-9.88 2.35-24.87 2.35-24.87 1.96 13.14-3.69 17.74-10.39 16.64zM803 442.31a33.49 33.49 0 0 0-6.3-.78s2.7.32 6.3.78zm5.24-21.64a35.73 35.73 0 0 0-6.68-.71s2.84.38 6.68.71z"/><path class="cls-21" d="M742.44 471.68c13.07 10.32 5 6.84 36.31 0s29.87 8.23 37.87 4.23 9.64-23.28 9.64-23.28c-5.57 24.69-13.88 12.93-28.62 9.48s-40.91 18.5-38.36-2.19-6.86-29.27-6.86-29.27c-8.09 3.52-14.07 18.17-14.74 33.62a15.05 15.05 0 0 0 4.76 7.41zm65.8-51.01c10 1.92 20.37 7.11 20.37 7.11 3.29-.42 4.94-10.17 4.23-20a.77.77 0 0 0 0-.15c-.77 3.91-2.54 7.67-3.82 10.81-1.37 3.3-13.1 2.88-20.78 2.23z"/><path class="cls-9" d="M741.54 424.93s20.29 4.44 17.74 30.31c-1.69 17.16-16.84 16.44-16.84 16.44z"/><path d="M670.8 667.07a23.23 23.23 0 0 1-21.09-13.46c-1.69-3.64-41-90-8-158.64 16.91-35.16 48.48-59.79 94.61-69.89 8.25-1.81 19.09 4.2 22.14 16.67s-2.67 26.18-11.09 28.5c-31.87 8.75-52.94 22.49-63.7 44.75-23.53 48.68 7.94 118.39 8.26 119.08a23.28 23.28 0 0 1-21.13 33z" fill="url(#linear-gradient-30)"/><path class="cls-6" d="M649.71 653.61a23.26 23.26 0 0 0 42.22-19.53c-.32-.69-31.79-70.4-8.26-119.08 10.76-22.26 31.83-36 63.69-44.75 7.08-1.95 12.25-11.94 11.9-22.49A290.81 290.81 0 0 1 721 466.91c-19.9 7.92-69.67 45.69-54.71 90.7s-14.45 70.24-26.37 52.39c-10.27-15.41-11.82-49.27-10.86-65.92-4.21 54.92 19.35 106.73 20.65 109.53z"/><path d="M736.31 425.08c-46.13 10.1-77.7 34.73-94.61 69.89-9 18.78-12.64 38.89-13.09 58.28 21.45-116.61 108.61-117.88 127.94-116.69-4.39-8.9-13.24-13.02-20.24-11.48z" fill="url(#linear-gradient-31)"/><ellipse cx="765.92" cy="364.46" rx="6.64" ry="5.33" fill="url(#linear-gradient-32)"/><path d="M748.17 364a3.26 3.26 0 0 1-1.14-.2 3.49 3.49 0 0 1-2.15-4.44c2.7-7.73 11.35-13.13 21-13.13a25.85 25.85 0 0 1 7.67 1.14 3.49 3.49 0 0 1-2.06 6.67 18.73 18.73 0 0 0-5.61-.84c-6.77 0-12.71 3.48-14.45 8.46a3.49 3.49 0 0 1-3.26 2.34z" fill="url(#linear-gradient-33)"/><path d="M735 359.83a3.6 3.6 0 0 1-1.31-.26 3.48 3.48 0 0 1-1.91-4.55c4.9-12 18.61-20.14 34.11-20.14a43.58 43.58 0 0 1 9.51 1.05 3.48 3.48 0 1 1-1.52 6.8 36.56 36.56 0 0 0-8-.87c-12.69 0-23.8 6.35-27.65 15.79a3.5 3.5 0 0 1-3.23 2.18z" fill="url(#linear-gradient-34)"/><path d="M722.89 353.36a3.39 3.39 0 0 1-1.62-.41 3.48 3.48 0 0 1-1.46-4.71c7.92-15 26-24.76 46.11-24.76a61.11 61.11 0 0 1 12.28 1.23 3.49 3.49 0 0 1-1.4 6.84 53.83 53.83 0 0 0-10.88-1.09c-17.53 0-33.21 8.25-39.94 21a3.49 3.49 0 0 1-3.09 1.9z" fill="url(#linear-gradient-35)"/></g><g id="BODY"><path d="M727 1094.62c-256.45-88.4-79.28-447.42-79.28-447.42l417.4 143.87S983.4 1183 727 1094.62z" fill="url(#linear-gradient-36)"/><path class="cls-21" d="M701.66 1066c-25.27-8.71-47.17-19.14-66.1-30.93 21.27 24.94 50.93 45.63 91.39 59.58 118.94 41 200.28-21.34 253.32-100-57.99 69.03-146.54 116.84-278.61 71.35z"/><path d="M686.9 660.72l-39.23-13.52s-129.73 262.9-6.46 394.14C597.36 919 655.79 740.5 686.9 660.72z" fill="url(#linear-gradient-37)"/><path class="cls-21" d="M962.13 755.59c-10.79 45.73-88.79 341-295.67 308.06 16.78 12.3 36.78 22.79 60.49 31 256.45 88.35 338.12-303.58 338.12-303.58z"/><ellipse class="cls-9" cx="856.37" cy="719.14" rx="63.04" ry="220.75" transform="rotate(-70.98 856.4 719.142)"/><path class="cls-9" d="M926.45 1003.73c-43.19-2.33-97.63-14.17-153.27-33.35S667.36 927 631.91 902.2c-21.55-15.07-36.21-29.51-42.92-41.92-.1 1.42-.19 2.85-.27 4.28 7.49 12 21.63 25.41 41.86 39.55 35.62 24.9 86 49.22 141.84 68.47s110.5 31.13 153.9 33.47q7.74.42 14.78.41c12.89 0 24-1 33.11-3.07.7-1 1.4-2 2.09-3-12.58 3.26-29.46 4.43-49.85 3.34z"/><ellipse cx="856.37" cy="719.14" rx="55.39" ry="193.96" transform="rotate(-70.98 856.4 719.142)" fill="url(#linear-gradient-38)"/><ellipse class="cls-9" cx="856.37" cy="719.14" rx="18.26" ry="63.96" transform="rotate(-70.98 856.4 719.142)"/><path d="M862.32 701.87c-33.39-11.51-63.13-13.11-66.41-3.57a5.59 5.59 0 0 0-.26 2.35c6.69-7.21 34.36-5 65.17 5.59s53.94 26 54.77 35.75a5.66 5.66 0 0 0 1.24-2c3.29-9.55-21.11-26.61-54.51-38.12z" fill="url(#linear-gradient-39)"/><g class="cls-14"><path class="cls-9" d="M920.63 676.12c10.81 12.55 15.35 24 12.11 33.43-11.34 32.91-114 27.39-229.23-12.34a766.842 766.842 0 0 1-43.72-16.57c27.09 31.49 93.63 69.69 176 98.09 115.26 39.73 217.89 45.26 229.24 12.34 9.89-28.58-52.36-76.75-144.4-114.95z"/></g><path class="cls-9" d="M894.66 793a716.42 716.42 0 0 1-29.8 83.08c-14 32.25-33.72 70.4-60 104.45l2.39.7C833.4 947.18 853.1 909.16 867 877a721.37 721.37 0 0 0 29.82-83.11zM589 860.53v-.25.25z"/><circle class="cls-9" cx="809.82" cy="1003.8" r="3.79"/><circle class="cls-9" cx="779.37" cy="995.45" r="3.79"/><circle class="cls-9" cx="749.86" cy="985.04" r="3.79"/><ellipse cx="716.75" cy="766.44" rx="17.56" ry="55.19" transform="rotate(-65.93 716.766 766.445)" fill="url(#linear-gradient-40)"/><g class="cls-14"><path class="cls-9" d="M615.4 918.12s-11.86 7.33-24 15.24c1.24 8 2.84 16 4.85 23.85 8.18-9.86 19.12-20.77 19.12-20.77zm18 117.59c.75-.17 1.49-.38 2.24-.57l-.17-.21c-1.34.52-2.07.78-2.07.78zm239.19-80.3l10.66 12 64.21-65.91L814 834.17s-56.35 133.44-140.71 184.7c30.88-14.27 73.15-36.64 102.25-63.34.04 0 61.3 10.75 97.05-.12z"/></g></g><path d="M615.37 788.34a23.26 23.26 0 1 0 15.63-43.8c-11.14-4-24.48-11.46-37.44-22.52l-34 32c18.64 16.82 38.57 28.16 55.81 34.32z" fill="url(#linear-gradient-41)"/><path class="cls-6" d="M510.47 685.25c24.16 57 70 90.64 104.9 103.09a23.21 23.21 0 0 0 29.73-14.07 23.36 23.36 0 0 0 1-3.93c-10.28.11-24-4.16-30.7-7C604.49 758.6 481 734.51 499 570.66c-9 48.82.11 87.8 11.47 114.59z"/><g id="FOLDER_HAND" data-name="FOLDER HAND"><ellipse class="cls-9" cx="599.53" cy="918.12" rx="23.67" ry="24.7"/><path d="M719.73 848.44l156.15 122.3L950.09 899a7.65 7.65 0 0 0-.06-11.05l-57.69-54.53 2-15.13a8.34 8.34 0 0 0-3-7.57l-65.76-53.41a4.91 4.91 0 0 0-6.42.19z" fill="url(#linear-gradient-42)"/><path class="cls-59" d="M719.73 848.44l60.57-103.83a6.06 6.06 0 0 1 9-1.67l24.34 19.53z"/><path class="cls-59" d="M789.33 742.94a6.06 6.06 0 0 0-9 1.67l-60.6 103.83 93.94-86z"/><path class="cls-21" d="M882.31 931.41c-2.51-6.27-35.91 3.76-36.06 1.25s24-12.54 29.63-16.3 16.15-15.52 6.27-22.76-50.17 20.56-52.84 19 7.22-13.17 13.33-20.23 13.8-18.19 2.51-23.52-27.28 11.61-35.43 19c-5.49 5-20.07 7.34-29 8.37l75.62 59.22a76.16 76.16 0 0 0 10.13-2.44c12.53-4.19 18.34-15.32 15.84-21.59z"/><path d="M742.94 914.31s-4.84-23.51 6.06-42.93l24.29 19s28.25-1.68 36.41-9 24.14-24.3 35.43-19 3.61 16.46-2.51 23.52-16 18.66-13.33 20.22 43-26.24 52.84-19-.63 19-6.27 22.77-29.79 13.79-29.63 16.3 33.55-7.52 36.06-1.25-3.3 17.4-15.84 21.63-67.41 11.29-91.24-2-32.27-30.26-32.27-30.26z" fill="#e6e7e8"/><path d="M849.93 950h.19z" fill="none"/><path class="cls-21" d="M849.93 950c-10.59 1.28-57.23.62-64.36-15.62-7.37-16.8-17.57-21.09-17.57-21.09-7.06 8.8-6.7 17.76-.63 26.37 2.42 1.66 5 3.3 7.88 4.88 17.75 9.95 52.81 8.54 74.68 5.46zm.5-.1l-.31.05z"/><path class="cls-9" d="M776 918.66c-8.39-9.64-21.52-11.94-29.32-5.14a15.22 15.22 0 0 0-2.55 2.84c3 4.9 12.28 17.65 31.11 28.18a37.46 37.46 0 0 0 3.76 1.82c5.69-7.19 4.61-18.95-3-27.7z"/><path d="M596.45 1047.63c-18 0-33.9-4.94-47.49-14.82-26.52-19.27-30.89-40.7-29.89-55.29 1.4-20.38 13.94-40.49 37.3-59.78a209.68 209.68 0 0 1 31-21.14 23.26 23.26 0 0 1 22 41c-17.85 9.64-43 30-43.92 43.13-.35 5.2 5.7 10.74 10.83 14.46 23.87 17.35 69.6-7.26 94.73-23.46 37.88-24.43 68.58-54.59 68.89-54.9a23.25 23.25 0 0 1 32.67 33.1c-1.38 1.37-34.47 33.88-76.35 60.88-25.55 16.48-49.25 27.55-70.43 32.92a119.93 119.93 0 0 1-29.34 3.9z" fill="url(#linear-gradient-43)"/><path class="cls-6" d="M566.05 984a7.73 7.73 0 0 1-.58-3.31c.88-13.14 26.07-33.49 43.92-43.13a23.25 23.25 0 0 0 9.49-31.46l-.13-.21c-20.83 11.69-72.61 44.97-52.7 78.11zM549 1032.81c13.59 9.88 29.49 14.83 47.49 14.82a119.93 119.93 0 0 0 29.36-3.91c21.18-5.37 44.88-16.44 70.43-32.92 41.88-27 75-59.51 76.35-60.88a23.24 23.24 0 0 0 5.6-24.21c-1.62 1.61-176.17 175.53-255.88 74.3 3.87 10.56 11.77 21.99 26.65 32.8z"/><path d="M745 915.9a7 7 0 0 0-1.51 1.1c-7.07 6.5-66.94 61.07-99.44 73 0 0 54.56-22.58 104.89-66.55 9.31-8.17 5.16-12.51-3.94-7.55z" fill="url(#linear-gradient-44)"/><path class="cls-15" d="M568.43 1071.71a1.78 1.78 0 0 1-.59-.1c-42-15.14-58.3-41.83-64.6-61.54-6.84-21.37-3.76-38.91-3.62-39.64a1.74 1.74 0 0 1 3.43.62 87.23 87.23 0 0 0 3.56 38.11c8.85 27.51 29.85 47.42 62.42 59.17a1.74 1.74 0 0 1-.6 3.38z"/></g><g id="MUG"><ellipse class="cls-9" cx="615.4" cy="829.64" rx="19.2" ry="23.13"/><path class="cls-13" d="M333.74 599c.63 9.56-4.61 17.07-12.7 19.44s-24.15-3.13-24.15-3.13-7.92-3.22-9.33 9 10.35 55 10.35 55 43.2 5.24 44.76-49.46a53.12 53.12 0 0 0-8.93-30.85z"/><ellipse class="cls-9" cx="338.28" cy="632.5" rx="13.52" ry="23.57"/><path d="M581.58 855.05a220.41 220.41 0 0 1-42.64-4C483.1 839.93 445 807.14 428.82 756.2c-32.36-101.8-52.55-101.8-86-101.8-12 0-16.53-10.88-16.53-23.73s4.5-22.78 16.53-22.78c25 0 51.21 3.16 74.16 26.09 19.52 19.51 35.4 51.59 53.1 107.27C496.87 825.5 606.9 806.88 608 806.69c11.87-2.13 23.1 6.43 25.08 19.1s-6 24.65-17.89 26.77a207.9 207.9 0 0 1-33.61 2.49z" fill="url(#linear-gradient-45)"/><path class="cls-6" d="M438.68 780c19.47 37.38 53.67 61.75 100.26 71a220.41 220.41 0 0 0 42.64 4 207.9 207.9 0 0 0 33.62-2.49c11.87-2.12 19.88-14.1 17.89-26.77 0 .05-140.09 40.36-194.41-45.74zm-95.86-125.6c27.69 0 46.3 0 70.24 57.77s-23.75-65.29-48.21-72.92-36.68-3.64-36.68-3.64l2 11.89a14.07 14.07 0 0 0 12.65 6.9z"/><path class="cls-21" d="M303.24 676.65c3.65-.71 3.32-8 3.32-8l-2.87-7a18.87 18.87 0 0 0 2-16.92l-4.3-1.87s1.29-.35 2.23-5.17c2.71-13.88-6.74-16.57-6.74-16.57-1.9.85-4.84 10.36-7.39 22 3 16.49 8.45 36.19 8.45 36.19s26.67 3.23 38.86-21.93c-7.89 13.92-33.56 19.27-33.56 19.27z"/><path d="M261.52 726.35L259.07 715l33.63-7.26a5.13 5.13 0 0 0 4-5.72l-14.58-101.76a5.12 5.12 0 0 0-5.92-4.32l-41 6.91-1.94-11.46 41-6.92a16.75 16.75 0 0 1 19.37 14.14l14.56 101.74a16.8 16.8 0 0 1-13 18.74z" fill="url(#linear-gradient-46)"/><path class="cls-13" d="M333.74 599a42.01 42.01 0 0 0-2.29-3.06c-4.85-5.88-10.82-9.78-17-10.42-15.05-1.57-25.4-27.28-31-20.38s-7.53 42 13.48 50.17c0 0 16.05 5.51 24.15 3.13s13.29-9.88 12.66-19.44z"/><path d="M236.47 569.86l29.86 171a15.2 15.2 0 0 1-5.64 14.66c-12.7 9.84-41.47 27.29-78.86 20.19a21.64 21.64 0 0 1-16.34-13.81L106 599.42z" fill="url(#linear-gradient-47)"/><path d="M133 593.32l-27 6.1 59.47 162.45a21.49 21.49 0 0 0 8.6 10.72c-8.93-17.57-16.46-51.15-29.9-93-10.48-32.59-12.02-64.15-11.17-86.27z" fill="url(#linear-gradient-48)"/><ellipse cx="171.21" cy="584.44" rx="66.86" ry="17.41" transform="rotate(-12.38 171.222 584.49)" fill="url(#linear-gradient-49)"/><ellipse cx="171.21" cy="584.44" rx="64.22" ry="16.73" transform="rotate(-12.38 171.222 584.49)" fill="url(#linear-gradient-50)"/><path d="M149.92 579.71c-3.16-1.83-5.78-3.28-8-4.43-12.37-6.48-11.32-3.33-16.72-1.53-6.34 2.11-11-20.07-23.51-9.8-9.19 7.57-1.67 24.56 7.41 35.76l.87 1c6.71 6.61 33.77 6.83 64.81 0 24.25-5.32 44.48-13.52 53.77-21.06s-57.7 12.13-78.63.06z" fill="url(#linear-gradient-51)"/><path class="cls-21" d="M260.69 755.49a15.2 15.2 0 0 0 5.64-14.66L245.09 619.2c-3.67 15.26-11.26 51.41-11.79 90.8-.49 36.86-25.16 59.48-45.76 66.57 34.6 4.43 61.1-11.75 73.15-21.08z"/><ellipse cx="93.1" cy="545.54" rx="7.64" ry="11.29" transform="rotate(-19.82 93.095 545.512)" fill="url(#linear-gradient-52)"/><path class="cls-13" d="M298.65 658.19s6.82-1.88 7.3-10.59c.39-7.33-6.88-8.06-9.18-8.11l.56-.24c5.33-2.56 5.53-8.42 3.9-14.22-1.24-4.39-7.86-5-16.34-5.4l-1.16-8.12s-19.85 6.43-23 12.15c-4 5.86 1.46 15.49 3.89 17.35a22.55 22.55 0 0 0-1.78 11.64c.82 6.35 5.29 8.23 5.29 8.23s1.77 12.23 8.12 13.64 26.57 2.35 29.63-3.17-4.29-13.05-7.23-13.16z"/><path class="cls-21" d="M272.55 660.42l26.1-2.23s-14.22-1.53-24-2.9-8.11-14-8.11-14l30.21-1.76s-21.75-3.88-29.16-5.41-4.7-11.59-5.59-12.12a7.25 7.25 0 0 0-1.32 1.64c-4 5.86 1.46 15.49 3.89 17.35a22.55 22.55 0 0 0-1.78 11.64c.82 6.35 5.29 8.23 5.29 8.23s1.77 12.23 8.12 13.64a70.29 70.29 0 0 0 14.58 1.06c-16.93-1.56-18.23-15.14-18.23-15.14z"/><path d="M442.38 683s-19.91-71.81-95.63-73c0 0-8.56-.47-10 4.58s26.91 4.12 35.26 5.76S421.84 632 442.38 683z" fill="url(#linear-gradient-53)"/><path class="cls-15" d="M176.48 764a1.17 1.17 0 0 1-1.09-.77l-50.33-141.68a1.17 1.17 0 0 1 .71-1.49 1.16 1.16 0 0 1 1.48.71l50.33 141.68a1.16 1.16 0 0 1-.71 1.48 1.07 1.07 0 0 1-.39.07zm-13.43-74.78a1.17 1.17 0 0 1-1.09-.76l-25.13-66.9a1.16 1.16 0 0 1 2.17-.81l25.14 66.89a1.17 1.17 0 0 1-.68 1.5 1.19 1.19 0 0 1-.41.08z"/></g><ellipse cx="751.48" cy="1243.99" rx="191.24" ry="30.1" fill="#bcbec0"/></svg>