<svg xmlns="http://www.w3.org/2000/svg" viewBox="0 0 1920 1080"><style>.st0{fill:#866694}.st2{fill:#f4e8d8}.st5{fill:#7a4630}.st6{fill:#a86243}.st7{fill:#29ace4}.st8{fill:#13161f}.st9{fill:none;stroke:#29ace4;stroke-width:2;stroke-linecap:round;stroke-linejoin:round;stroke-miterlimit:10}.st10{fill:#feed7f}.st11{fill:#f6be4a}.st14{fill:#3d4c6d}.st15{fill:#a96344}.st17{fill:#273150}.st18{fill:#102342}.st19{fill:none;stroke:#273150;stroke-linecap:round;stroke-linejoin:round;stroke-miterlimit:10}.st21{fill:#c93f37}.st22{fill:#f6874e}.st23{fill:#ce6d3e}.st24{fill:#972b28}.st25{fill:#1d2436}.st26{fill:#ec6141}.st27{fill:#48598b}.st28{opacity:.5;fill:#f6be4a}.st34{fill:#ec5e4d}.st35{fill:#992c29}.st36{fill:#f4864d}.st37{fill:#ee5d4f}.st38{fill:#f7bc4b}.st39{fill:#1d2538}</style><g id="floor"><path class="st0" d="M454.48 892.13l-65.41 31.93 181.16 61.3 193.14-20.1 2.12-31.16 107.07-59.45-87.61-42.59zm670.48 10.63l-250.82-51.43-63.29-30.07 107.6-36.39-22.15-15.43 314.5-83.08-33.23-11.87 118.68-24.34L1481 655.9l95.34 18.59-24.92 30.86-37.19 9.1 45.5 11.08-41.54 73.58-168.53 16.62v23.73zm367.91-45.1l-76.75 5.54-52.22-15.87-225.74 65.49s100.05 19.56 151.37 34.76l118.68-6.61 84.66-83.31z"/><path d="M1382.4 755.2l-53.62-.68-17.73 21.7 56.39 2.67zm-25.11-21.91l-33.67-.42-11.13 13.62 35.41 1.68zm133.47-75.02l-16.42 2.18-25.25 21.56 117.76 1.39zm-262.58 47.91l-58.92 15.79-29.19 22.83 123.22-15.15zm-175.22 56.53l-96.93 23.74 38.18 39.76 154.48-44.51z" fill="#634874"/></g><g id="door_x2F_clouds"><path class="st2" d="M1561.49 624.29s16.34-47.3 51.52-60.77c35.19-13.47 37.7 12.67 37.7 12.67s11.31-63.38 42.72-85.23c31.42-21.84 26.39 21.08 16.34 35.84 0 0 49.01-10.48 38.96 20.38-10.05 30.86-83.47 78.82-138.76 93.67-55.29 14.86-48.48-16.56-48.48-16.56zm-134 7.08c-33.23-1.58-126.59-23.74-115.52-93.36s50.64-33.23 72.79 0c22.15 33.23 3.16 45.89 3.16 45.89s7.91-25.32 30.07-22.15 55.88 49.05 55.88 49.05-13.15 22.16-46.38 20.57zm-611.7-179.21c-67.12-64.2-67.4-107.03 11.42-112.28 28.55-1.9 75.78-7.51 85.68 35.14 3.14 13.53 3.05 16.33 3.05 16.33s17.98-8.44 47.82 4.65c25.49 11.18 26.36 46.6 24.1 57.53 0 0 63.51 0 105.39 2.7 23.92 1.54-74.69 25.75-127.01 32.43-60.26 7.69-106.68 5.37-150.45-36.5zm187.43 179.13s-72.45-13.83-82.6-13.06c-10.19.77-14.92-4.79-19.53-12.37-4.64-7.6-52.2-25.29-52.2-25.29L809 597.47s-38.76-78.36-69.64-102.46c-31.42-24.52-67.58-5.96-67.58-5.96l-8.4 14.1s20.76-32.93 26.59-64.05c5.85-31.25-21.84-101.97-43.69-132.35-22.16-30.82-96.98-109.99-217.27-91.02-125.16 19.74-195.13 46.61-213.82 106.91-18.59 60 7.15 182.31 60.35 224.17 0 0-100.74 57.21-101.74 96.56-1.72 68.11 50.52 111.48 112.08 113.81 60.19 2.28 329.84-46.1 428.84-74.01 95.88-27.03 288.5-51.88 288.5-51.88zm-272.6-361.5s-25.18-29.53-43.42-30.39c0 0-10.42-39.08-96.39-33.87 0 0 45.16 26.05 64.26 39.08 19.1 13.02 75.55 25.18 75.55 25.18zm4.81-184.97s1.18 13 32.11 35.43c7.32 5.31 26.37 20.92 71.81 37.62 45.44 16.69 97.74 35.65 108.74 42.17 11 6.52-19.8-27.11-39.73-30.21-19.94-3.11-29.94-12.54-22.15-21.47s3.89-18.08-14.18-28.9-60.72-18-71.16-12.69c-10.43 5.3-48.77 4.67-65.44-21.95zm410.1 183.78s-30.07-20.57-34.02-26.11-7.91-22.95-15.82-26.9c-7.91-3.96-11.08-3.96-11.08-3.96s-3.96-14.24-18.99-15.82-21.36 13.45-21.36 13.45-10.29-3.16-9.49 1.58c.79 4.75 12.66 12.66 30.07 15.03 17.41 2.37 33.23 15.82 48.26 25.32 15.02 9.5 32.43 17.41 32.43 17.41z"/><linearGradient id="SVGID_1_" gradientUnits="userSpaceOnUse" x1="1380.354" y1="188.382" x2="1380.354" y2="659.422"><stop offset=".115" stop-color="#29ace4"/><stop offset=".771" stop-color="#866694"/></linearGradient><path fill="url(#SVGID_1_)" d="M1299.68 197.53l139.39-16.35 21.96 468.39-158.48-5.54z"/><path transform="rotate(49.202 1339.847 501.393)" class="st0" d="M1336.8 498.37h5.96v5.96h-5.96z"/><path transform="rotate(49.202 1345.495 494.521)" class="st0" d="M1343.94 492.99h2.99v2.99h-2.99z"/><path transform="rotate(49.202 1347.347 551.106)" class="st0" d="M1343.69 547.47h7.19v7.19h-7.19z"/><path transform="rotate(49.202 1394.497 595.23)" class="st0" d="M1386.31 587.07h16.24v16.24h-16.24z"/><path transform="rotate(49.202 1419.104 427.434)" class="st0" d="M1415.7 424.06h6.69v6.69h-6.69z"/><path transform="rotate(49.202 1406.508 411.527)" class="st0" d="M1402.14 407.19h8.61v8.61h-8.61z"/><path transform="rotate(49.202 1406.143 580.25)" class="st0" d="M1401.13 575.25h9.91v9.91h-9.91z"/><path transform="rotate(49.202 1398.382 551.107)" class="st0" d="M1396.58 549.33h3.47v3.47h-3.47z"/><path transform="rotate(49.202 1391.919 468.285)" class="st0" d="M1387.42 463.82h8.86v8.86h-8.86z"/><path transform="rotate(49.202 1378.98 464.572)" class="st0" d="M1374.49 460.11h8.86v8.86h-8.86z"/><path transform="rotate(49.202 1405.201 332.937)" class="st0" d="M1400.81 328.58h8.66v8.66h-8.66z"/><path transform="rotate(49.202 1362.664 369.677)" class="st0" d="M1360.52 367.57h4.16v4.16h-4.16z"/><path transform="rotate(49.202 1349.671 381.42)" class="st0" d="M1348.19 379.97h2.84v2.84h-2.84z"/><path transform="rotate(49.202 1363.122 404.63)" class="st0" d="M1361.64 403.18h2.84v2.84h-2.84z"/><path transform="rotate(49.202 1386.743 508.826)" class="st0" d="M1384.47 506.58h4.42V511h-4.42z"/><path transform="rotate(49.202 1388.662 324.107)" class="st0" d="M1386.31 321.79h4.58v4.58h-4.58z"/><path transform="rotate(49.202 1434.943 614.953)" class="st0" d="M1432.91 612.94h3.94v3.94h-3.94z"/><path transform="rotate(49.202 1430.885 620.793)" class="st0" d="M1429.84 619.76h1.97v1.97h-1.97z"/><path class="st2" d="M1637.66 234.98c-11.87 3.96-35.6 16.62-37.98 45.1 0 0-21.36-3.96-33.23 17.41s-24.53 34.02-24.53 34.02-4.75 3.96 24.53-13.45c19.36-11.51 121.05-83.08 140.04-97.32s-26.11 4.75-47.47 23.74c10.29-20.58-9.49-13.46-21.36-9.5z"/><path class="st0" d="M1369.88 275.21l-61.36-62.78 1.97-1.98"/><path d="M1314.05 267.42l28.49 32.17m-13.45-7.38l21.1 23.21m-8.44 275.87l15.82-11.34m-41.14 37.45l35.6-25.59m27.7-336.79l9.89 12m6.33-1.18l7.12 8.7m7.91 16.22l15.43 17.8m-23.34-21.76l4.74 5.15m-45.1-64.09l28.49 32.17" fill="none" stroke="#866694" stroke-miterlimit="10"/></g><g id="m_left_arm"><path class="st5" d="M1305.85 419.35s9.29 3.48 6.65 5.71-4.82.53-6.33 1.83c-1.92 1.65-3.76 2.23-3.76 2.23s-4.73-1.28-5.86-4.23c-1.14-2.94-.94-7.33 9.3-5.54z"/><path class="st6" d="M1223.51 380.85c.87-8.84 6.44-18.11 19.21-4.38 3.71 3.99 12.55 14.92 16.48 18.07 8.01 6.4 11.45 10.66 10.81 15.56-.87 6.63-4.2 13.16-10.81 12.92-11.94-.42-36.56-33.33-35.69-42.17z"/><path class="st5" d="M1223.51 380.85c.87-8.84 6.44-18.11 19.21-4.38 3.71 3.99 5.69 26 9.63 29.14 8.01 6.4 13.47 17.64 6.86 17.41-11.95-.42-36.57-33.33-35.7-42.17z"/><path class="st6" d="M1290.71 416.07s-18.74-11.29-22.54-13.36c-9.38-5.1-16.44 19.31-6.86 21.1 9.6 1.79 20.41 5.95 25.75 5.29 5.94-.72 7.48-9.51 3.65-13.03z"/><path class="st5" d="M1269.95 419.33l-12.58-8.78c-1.74 5.69-1.11 12.24 3.68 13.13 9.6 1.79 20.68 6.08 26.01 5.43 5.94-.73-17.11-9.78-17.11-9.78z"/><path class="st6" d="M1286.44 416.29l10.32-2.85c6.18 1.12 18.09 9.37 20.65 9.38 2.56.01 3.76 3.84 1.41 5.16s-9.64-4.72-14.12-4.95c-4.48-.23-5.84 6.62-5.63 7.95.07.45 2.31-1.13 3.26-.92 1.88.42 2.96 2.58 1.97 4.49-1.02 1.96-4.39 3.37-6.01 3.65a2.95 2.95 0 0 1-2.18-.48c-2.13-1.48-7.47-5.25-10.98-8.38-4.47-4 1.31-13.05 1.31-13.05z"/><path class="st5" d="M1283.4 425.26s16.51 12.65 14.9 12.93a2.95 2.95 0 0 1-2.18-.48c-2.13-1.48-7.47-5.25-10.98-8.38-4.48-3.99-1.74-4.07-1.74-4.07z"/></g><g id="m_legs"><path class="st7" d="M1150.23 717.53c-.15.05-.29.11-.43.18-2.14 1.07-19.55 9.65-21.63 12.01-1.7 1.93-1.02 9.23-.61 12.53.13 1.02.81 1.88 1.79 2.24 3.97 1.47 14.45 5.4 24.86 4.66 13.09-.93 12.89-5.74 22.79-10.01 6.49-2.8 10.45-4.61 12.41-5.53.94-.44 1.38-1.34 1.47-2.34l.94-11.06c.12-1.38-.63-2.63-2.02-2.94-6.44-1.42-24.52-4.61-39.57.26z"/><path class="st8" d="M1157.48 713.52s-27.28 12.75-29.46 15.07c-2.19 2.32-.51 10.61-.51 10.61s13.8 5.56 26.81 4.81c13.05-.75 13.17-4.69 23.01-8.58 7.63-3.02 11.74-4.77 13.21-5.41.39-.17.65-.52.69-.91l.87-9.78c.08-.89-.57-1.71-1.54-1.93-5.71-1.27-17.41-8.57-33.08-3.88z"/><path class="st9" d="M1140.25 722.32s9.93-3.14 19.36 1.39m-12.08-5.33s9.94-3.14 19.39 1.38"/><path class="st7" d="M1259.18 698.25c11.64 4.17 28.66 8.35 29.36 13.44.7 5.06 1.15 10.41.64 12.29-.38 1.43-1.03 2.27-2.19 2.71-2.94 1.13-8.83 3.87-20.59 4.72-5.07.37-16.07-2.52-22.66-7.5-5.22-3.94-11.46-8.52-13.8-10.23-.61-.44-1-1.11-1.09-1.84l-.68-5.67c-.14-1.16.5-2.29 1.6-2.79 5.14-2.37 19.96-8.51 29.41-5.13z"/><path class="st8" d="M1258.67 693.35c10.15 3.47 29.41 11.27 30.07 16.31.6 4.56.85 7.06.66 8.8-.09.85-2.49 1.21-3.67 1.62-2.99 1.03-8.98 3.51-20.92 4.33-5.15.35-15.16-1.14-21.83-5.58-5.53-3.68-12.21-7.98-14.29-9.32-.41-.27-.69-.67-.76-1.11l-.68-4.4c-.29-1.89.29-10.02 2.39-10.64 7.66-2.27 20.04-3.09 29.03-.01z"/><path class="st9" d="M1257.21 706.52s9.77-8.18 20.51-4.78m-27.02.66s10.15-7.36 20.86-3.98"/><path class="st10" d="M1251.29 497.64c6.27 21.53 13.43 65.65 17.79 94.02 2.38 15.44-6.77 92.93-5.91 101.46.11 1.12-.82 2.09-2 2.08-2.71-.02-5.95.25-15.26 1.35-9.27 1.09-11.78 3.93-16.58 4.38-4.79.45-3.6-5.86-3.6-5.86s-1.28-3.22.96-16.29c.66-3.86-1.39-59.94-2.29-74.24-1.54-24.42-17.72-59.2-18.9-78.57-2.81-46.3 37.64-56.3 45.79-28.33z"/><path class="st10" d="M1163.35 508.75s-2.73 52.3-4.82 76.05c-1.51 17.19-2.63 128.43-2.63 128.43s6.69-.53 20.5.19l11.14 2.58s3.43 2.9 4.63 2.27c1.2-.63 4.53-3.6 5.11-10.98 1.83-23.36 8.02-103.09 7.78-106.75-.21-3.3 3.19-49.37 6.75-77.08 1.55-12.07-6.9-35.58-23.72-35.34-13.28.18-23.8 8.64-24.74 20.63z"/><path class="st11" d="M1237.31 526.93c1.58-10.29 13.98-29.29 13.98-29.29-8.15-27.97-51.96 22.17-51.96 22.17s23.54 60.31 25.08 84.73c.9 14.29 2.95 70.38 2.29 74.24-2.24 13.08-.96 16.29-.96 16.29s-1.19 6.31 3.6 5.86c.1-.01.21-.16.33-.41 10.67-12.97 10.01-43.83 10.01-43.83-1.34 3.45-3.43 7.83-5.22 11.42 3.64-32.14 7.59-76.3 7.59-76.3s-6.32-54.59-4.74-64.88z"/><path class="st11" d="M1163.35 508.75s-2.73 52.3-4.82 76.05c-1.51 17.19-2.63 128.43-2.63 128.43s6.69-.53 20.5.19l11.14 2.58s3.43 2.9 4.63 2.27c1.2-.63-7.67-13.84-7.09-21.22 1.83-23.36 5.77-75.46 5.54-79.12-.21-3.3 18.59-72 18.59-72s-4.3-58.05-21.12-57.81c-13.28.18-23.8 8.64-24.74 20.63z"/><path class="st11" d="M1189.84 668.56s-3.16-9.49-12.66-23.74c0 0-.79 37.19 7.91 56.18 8.7 18.99 4.75-32.44 4.75-32.44zm14.8-154.04c-24.99.23-44.89 6.32-40.42-13.94 4.44-20.14 48.8-22.94 75.18-18.03 24.61 4.58-9.58 31.74-34.76 31.97z"/><path class="st11" d="M1203.68 519.81c-24.99.23-43.93 1.02-39.47-19.24 4.44-20.14 48.8-22.94 75.18-18.03 24.62 4.59-10.53 37.04-35.71 37.27z"/><path d="M1209.28 495.07c1.41-6.49-3.82-2.37-7.84-.17-2.97 1.63-5.32 2.85-2.67 4.65 4.26 2.9 9.6-.25 10.51-4.48zm.79-.8s5.45 5.99 10.53 6.72c5.09.74 4.47-6.38 1.1-7.65-3.36-1.27-9.58-1.19-11.63.93zm.3-.52s6.85 6.36 6.83 15.34m-8.42-2.3s1.05-9.89 1.59-13.04" fill="none" stroke="#feed7f" stroke-width="3" stroke-miterlimit="10"/></g><g id="M_torso"><path class="st7" d="M1170.01 369.68s-2.75 4.27-3.63 18.19c-.39 6.2-3.31 25.9-2.79 45.7.12 4.44-.32 25.97-1.33 33.94-2.37 18.72-4.57 23.46-.45 28.48s29.13-7.9 49.46-7.02c28.88 1.24 35.57 6.93 40.29 6.15 4.72-.78.9-30.86.07-40.09-.83-9.23-2.46-33.92-5.17-50.6-3.55-21.91-8.74-27.79-9.32-29.87-1.28-4.56-7.84-7.99-17.75-9.42-14.5-2.09-38.82 3.02-49.38 4.54z"/><path d="M1170.01 369.68s-2.75 4.27-3.63 18.19c-.39 6.2-3.31 25.9-2.79 45.7.12 4.44-.32 25.97-1.33 33.94-2.37 18.72-4.57 23.46-.45 28.48s29.13-7.9 49.46-7.02c28.88 1.24 35.57 6.93 40.29 6.15 4.72-.78-45.87-19.08-46.7-28.32-.83-9.23-8.7-35.6-3.96-53.8 4.75-18.2 28.4-46.42 18.48-47.86-14.49-2.09-38.81 3.02-49.37 4.54z" opacity=".5" fill="#29ace4"/><path class="st14" d="M1169.26 400.47s40.85-12.15 76.15-1.87l1.65 9.28s-37.42-15.06-78.71 1.56l.91-8.97z"/><path class="st14" d="M1167.04 411.52s44.75-12.37 80.05-2.09l1.19 9.28s-40.37-14.12-81.66 2.5l.42-9.69z"/><path class="st5" d="M1185.29 367.17c-.94.1-.81 1.48-.81 1.48 4.87 4.3 16.51 10.06 26.37 10.07 9.73.02 17.91-.58 19.82-6.82.82-2.69-4.68-5.39-4.68-5.39s-6.69-2.19-15.6-2.48c-8.71-.29-24.44 3.07-25.1 3.14z"/><path class="st5" d="M1203.21 369.96c-7.83-.26-7.97-.92-8.04-4.72l.56-17.75c-.05-3.01 3.02-5.5 7.89-5.34l8.41.15c4.73.15 7.14 2.76 7.66 5.68 0 0 1.81 13.04 1.46 17.11-.35 4.12-10.1 5.13-17.94 4.87z"/><path class="st15" d="M1203.21 369.96c-7.83-.26 15.96-24.9 16.49-21.98 0 0 1.81 13.04 1.46 17.11-.36 4.12-10.11 5.13-17.95 4.87z"/><path class="st5" d="M1162.85 394.7s.65 28.58 4.3 25.09c13.3-12.72 8.48-37.7 7.22-44.08s-3.62-7.43-7.65-4.67c-6.19 4.24-3.87 23.66-3.87 23.66z"/><path class="st7" d="M1166.63 420.12c.01 6.35-.03 12.7-.12 19.05-.03 6.35-.18 12.71-.52 19.06-.36 6.35-.92 12.68-1.7 18.99l-.65 4.72c-.12.79-.2 1.57-.34 2.37-.14.79-.31 1.57-.48 2.35-.35 1.55-.73 3.09-1 4.65-.13.78-.24 1.56-.27 2.35-.03.78-.02 1.59.25 2.34-.6-1.5-.41-3.17-.25-4.73.19-1.58.49-3.15.77-4.71.15-.78.29-1.56.4-2.33.11-.77.17-1.57.26-2.36l.5-4.73c.68-6.3 1.15-12.63 1.52-18.96.41-6.33.57-12.67.81-19.01.24-6.36.5-12.71.82-19.05z" opacity=".5"/><path class="st7" d="M1235.73 486.58s-19.1-5.01-30.53-11.25c0 0 17.35 2.61 25.07.41 7.72-2.21 15.07 10.47 5.46 10.84z"/></g><g id="m_right_arm"><path class="st5" d="M1172.17 372.81c-1.33-8-19.28 3.01-23.44 8.71-6.47 8.86-3.96 12.41-8.52 17.66-8.02 9.24-27.04 37.75-16.49 43.71 10.82 6.11 20.4-5.69 28.12-15.37 5.68-7.13 14.55-15.33 19.51-25.66 2.11-4.37 2.52-18.8.82-29.05z"/><path class="st6" d="M1148.3 418.93c-8.02 9.24-35.12 18-24.57 23.95 10.82 6.11 20.4-5.69 28.12-15.37 5.68-7.13 14.55-15.33 19.51-25.66 2.1-4.36-18.51 11.83-23.06 17.08z"/><path class="st5" d="M1115.08 441.95c6.53-14.14 6.37-15.31 14.95-13.83 14.33 2.47 13.25 11.59 9.95 21.37-3.16 9.39-5.3 10.63-8.66 19.28-3.3 8.5-6.54 22.76-6.54 22.76s-.49 4.61-7.33 3.24c-6.97-1.4-7.51-3.84-7.88-9.27-.55-7.97 2.99-38.1 5.51-43.55z"/><path class="st6" d="M1126.14 471.15s-.3-37.54 6.81-41.19c7.69-3.94 11.97 7.83 7.03 19.53-3.88 9.18-5.3 10.63-8.66 19.28-3.3 8.5-6.54 22.76-6.54 22.76l1.36-20.38z"/></g><g id="m_head"><path class="st17" d="M1235.23 323.41c-.88 22.35-5.56 29.35-20.42 29.57-11.25.17-20.34-13.3-20.31-29.65.03-16.35 9.18-29.59 20.42-29.57 11.25.02 21.1 9.53 20.31 29.65z"/><path class="st5" d="M1228.91 318.93c-.04-15.05-1.6-23.66-17.81-24.87-8.46-.63-16.8.16-21.72 2.77-4.45 2.36-7.14 6.04-8.74 15.91-1.2 7.44-2.9 20.3-.53 32.75 1.52 7.98 11.48 10.99 20.27 11.61 22.7 1.6 26.21-4.6 27.68-15.58 1.98-14.87.86-16.42.85-22.59z"/><path class="st15" d="M1228.21 303.02c-3.56-9.49-11.38-6.59-10.15-.26 2.37 12.26 3.82 27.56.26 39.43-3.92 13.06-15.03 11.87-15.03 11.87s2.76.93 7.91 1.19c13.29.67 15.59-6.54 16.88-17.67 1.1-9.48 2.32-28.72.13-34.56z"/><path class="st17" d="M1185.9 296.48c-1.36.82-1.89 1.63-2.86 6.87-.2 1.1 1.84-3.16 3.67-4.82s1.41.57 10.99.36c9.59-.22 23.19-1.83 23.19-1.83l1.31 13.25 4.93 11.52 3-6.35c.47-11.28-1.55-17.85-8.95-20.36-13.55-4.59-30.29-1.65-35.28 1.36z"/><path class="st18" d="M1209.88 314.74c-.18 2.24-1.24 2.42-2.37 2.33-1.13-.09-1.93-.41-1.78-2.65.15-2.26 1.22-4.05 2.38-3.96 1.15.09 1.95 2.02 1.77 4.28z"/><path class="st19" d="M1205.85 303.46s4.65-.24 6.53 2.03"/><path class="st18" d="M1193.84 315.27c-.08 2.11-1 2.19-2.07 2.1-1.07-.08-1.88-.3-1.83-2.41.06-2.13.98-3.81 2.07-3.72 1.09.09 1.91 1.9 1.83 4.03z"/><path class="st19" d="M1194.21 304.14s-3.28-1.41-6.52 1.18"/><path class="st15" d="M1236.21 327.94c-1.5 6.04-5.79 10.28-9.63 9.65 0 0 .15-13.71.1-16.32-.03-1.64.92-6.7 5.01-6.03 4.07.67 6.07 6.45 4.52 12.7z"/><path d="M1234.04 332.25c-.22 1.46-1.6 2.53-3.1 2.4-1.49-.12-2.55-1.4-2.35-2.85.2-1.47 1.58-2.57 3.1-2.44 1.51.12 2.57 1.42 2.35 2.89z" fill="#e2d6c9"/></g><g id="k_jacket-back"><path class="st2" d="M1460.78 522.69s-1.24 1.48-2.25 1.73-7.79.81-9.18-.22-1.43-5.81 2.26-6.93c3.7-1.12 13.53 3.66 13.53 3.66l-.34 3.28-4.02-1.52zm82.49-27.21s-16.4 14.73-29.47 18.96l.05 2.62c-1.37 3.61 11.26 1.46 21.07-6.48 7.59-6.14 11.61-11.76 11.82-13.9.2-2.13-3.47-1.2-3.47-1.2z"/><path class="st21" d="M1545.57 494.82s-2.57 4.91-14.42 13.9c-9.76 7.42-35.67 12.18-62.53 13.55-5.23.27-17.82.25-18.16-2.63-2.45-20.74 14.34-33.42 39.21-37.58 52.31-8.73 55.9 12.76 55.9 12.76z"/></g><g id="k_right_arm"><path class="st22" d="M1425.24 543.32s.24 6.06.79 7.69c.55 1.63 3.32 4.41 3.91 4.97.59.55 2.29-.7 2.29-.7l-6.99-11.96z"/><path class="st23" d="M1437.84 534.09s4.99 8.33 3.18 11.07c-.65.75-1.36-.46-2.49-1.7-1.16-1.28-2.72-2.61-2.72-2.61-.64 1.71-1.84 6.26-2.73 11.11-.37 2.03 2.17 3.15.3 5.05-1.16 1.18-6.77-7.58-6.77-7.58s-4.08-10.21 2.19-15.53c6.24-5.3 9.04.19 9.04.19z"/><path class="st21" d="M1435.51 481.84s-2.45 1-4.1 6.13c-1.66 5.17-8.85 35.52-6.26 41.44 1.37 3.15 7.97 2.86 13.49 1.84 5.4-1 2.55-8.22 3.76-14.68 1.2-6.41 6.27-23.86 5.17-29.19-1.09-5.31-12.06-5.54-12.06-5.54z"/><path class="st24" d="M1436.3 484.14s1.25 20.05-.4 25.19c-1.66 5.17-7.12 13.05-4.95 17.21 1.59 3.04 2.16 5.73 7.68 4.71 5.4-1 2.55-8.22 3.76-14.68 1.2-6.41 6.27-23.86 5.17-29.19-1.08-5.31-11.26-3.24-11.26-3.24z"/><path class="st21" d="M1428.91 523.64c.53.13.79 2.37 7.12 3.82 0 0-4.09 1.58-7.12 0s-.53-3.95 0-3.82z"/><path class="st2" d="M1427.22 530.78s-.73 2.19.82 2.51c1.2.25 6.77-1.12 10.29-.18.76.2 1.42-.55 1.51-1.23l.14-.97c.07-.47-.35-.9-.9-.93-2.74-.12-10.1-.33-11.86.8z"/><path class="st23" d="M1435.17 542.28l.22 7.53c0 .14.03.28.08.41l1.23 3c.22.53 0 1.2-.52 1.58-.6.43-1.37.3-1.68-.29l-3.13-5.92c-.18-.35-.17-.79.05-1.18l1.64-2.96c.64-1.11 2.08-3.37 2.11-2.17z"/><path class="st25" d="M1449.02 447.42s-9.36 16.39-10.89 22.98c-1.55 6.65-5.4 7.98-4.4 12.42.5 2.23 4.26 1.97 7.12 3.16 4.75 1.98 5.76 4.73 8.35 2.26 5.14-4.92 9.15-20.63 10.71-28.52 1.55-7.84-2.92-21.51-10.89-12.3z"/><path class="st17" d="M1449.02 447.42s-9.36 16.39-10.89 22.98c-1.55 6.65-5.4 7.98-4.4 12.42.24 1.08 1.26 1.58 2.56 1.94 0 0-.06-2.8 1.72-7.94 1.78-5.14 6-7.45 9.36-13.58 3.85-7.01 9.62-25.03 1.65-15.82z"/><path class="st17" d="M1448.56 460.34s-2.9 7.91-2.64 13.45c0 0-2.64-1.95-2.64-7.38.01-5.15 5.28-6.07 5.28-6.07z"/></g><g id="k_left_leg"><path class="st26" d="M1505.38 661.43s-4.8 11.79-3.18 16.93c1.62 5.14 15.78 4.59 25.62 3.51 9.83-1.08 12.68-9.31 5.81-19.36-6.87-10.06-28.25-1.08-28.25-1.08z"/><path class="st8" d="M1505.52 657.81s-4.8 11.79-3.18 16.93 15.78 4.59 25.62 3.51c9.83-1.08 12.68-9.31 5.81-19.36-6.88-10.07-28.25-1.08-28.25-1.08z"/><path class="st27" d="M1485.71 538.32s3.28 20.56 6.67 35.85c2.35 10.6 4.25 39.07 8.4 62.21 1.98 11.05-6.42 9.5 2.11 20.57 3.61 4.69 7.97-3.67 17.93-2.11 10.11 1.58 11.64 4.83 14.39-.52 4.65-9.04-3.95-12.05-5.31-25.12-1.57-15.02-3.77-40.44-8.96-56.28-3.42-10.45-2.74-29.27-4.38-46.48-.87-9.19.7-16.47-3.38-18.2-11.58-4.91-37.04-17.14-27.47 30.08z"/><path class="st17" d="M1485.71 538.32l8.35 18.28c2.35 10.6 7.59 56.91 11.74 80.04 1.98 11.05-6.68 7.13 1.85 18.2 3.61 4.69 3.22-1.56 13.19 0 10.11 1.58 11.64 4.83 14.39-.52 4.65-9.04-3.95-12.05-5.31-25.12-1.57-15.02-3.77-40.44-8.96-56.28-3.42-10.45-2.74-29.27-4.38-46.48-.87-9.19.7-16.47-3.38-18.2-11.6-4.91-37.06-17.14-27.49 30.08z"/></g><g id="k_right_leg"><path class="st26" d="M1443.65 662.96s-9.39 2-10.34 7.88c-1.01 6.22.17 8.83 2.99 9.72 2.9.92 7.52 2.51 13.71 2.1 11.56-.77 10.97-.97 20.29-10.09 9.05-8.86 1.92-12.09 1.13-13.59-.77-1.49-27.78 3.98-27.78 3.98z"/><path class="st8" d="M1451.99 657.22s-18.02 7.44-18.86 12.79c-.88 5.63 1.68 8.52 16.88 8.18 11.39-.26 10.79-2.52 19.82-10.7 8.83-8 2.49-9.09 1.7-10.46-.77-1.35-19.54.19-19.54.19z"/><path class="st27" d="M1456.41 515.51s-5.57 62.83-4.68 70.55c.86 7.48-.02 24.51-.92 27.64-.89 3.09-1.52 35.36-2.19 39.04-.66 3.61-1.45 3.26-.37 5.21 1.07 1.94 6.61-.39 11.84-.27 11.74.26 12.75 4.77 14.24 2.77 1.5-2.03.47-8 1.01-10.48.55-2.51 1.17-10.44.67-13.2-.5-2.8 2.9-43.43 2.6-49.88-.32-6.63 3.44-34.71 4.57-41.78 1.16-7.27 6.15-39.56-8.13-42.97-14.31-3.42-16.9.12-18.64 13.37z"/><path class="st17" d="M1456.41 515.51l-2.05 23.56s8.18 7.91 10.29 11.87c.83 1.56 2.99 61.16 3.58 76.09.2 5.13-5.69 22.81-5.69 22.81l3.38-.94c-3.12 8.95-7.39 8.75-5.82 8.79 11.74.26 12.75 4.77 14.24 2.77 1.5-2.03.47-8 1.01-10.48.55-2.51 1.17-10.44.67-13.2-.5-2.8 2.9-43.43 2.6-49.88-.32-6.63 3.44-34.71 4.57-41.78 1.16-7.27 10.89-40.27-3.39-43.68-14.33-3.43-21.65.82-23.39 14.07z"/><path class="st27" d="M1456.95 543.93s4.09 2.57 7.03 5.95c2.94 3.38 5.91 15.31 5.91 15.31l-12.94-21.26z"/><path class="st17" d="M1453.31 588.55s3.16 2.47 6.33 2.47c3.16 0-1.91 3.4-4.55 2.08-2.64-1.32-1.78-4.55-1.78-4.55z"/></g><g id="K_torso"><path class="st11" d="M1492.12 424.08s-33.6 9.48-36.15 17.76c-1.53 4.94-2.6 46.62-1.73 65.44.59 12.71 1.55 12.55 1.55 12.55s12.53-5.32 28.26-6.67c17.51-1.5 29.02-.01 33.49-.34.71-.05 3.98-3.65 3.82-4.35-2.49-10.98-19.24-86.4-29.24-84.39z"/><path class="st28" d="M1465.4 446.47s-6.88-12.92-9.44-4.63c-1.53 4.94-2.6 46.62-1.73 65.44.59 12.71 1.55 12.55 1.55 12.55s8.7-8.96 24.43-10.31c17.51-1.5 32.85 3.63 37.32 3.3.71-.05 3.98-3.65 3.82-4.35-1.24-5.49-43.91-33.76-43.91-33.76l-12.04-28.24z"/><path d="M1470.47 430.05s-1.13 1.7-.87 3.54c1.04 7.39 3.81 26.36 6.6 26.32 2.84-.04 4.07-.85 6.39-12.71.49-2.53 6.04-21.75 3.52-23.1" fill="none" stroke="#913636" stroke-miterlimit="10"/><ellipse transform="rotate(-5.975 1476.948 462.758)" class="st7" cx="1477.03" cy="462.78" rx="1.5" ry="3.43"/><path class="st23" d="M1467.18 418.47l2.84 10.24s-.06 7.35 6.15 6.61c6.17-.74 6.09-3.76 6.43-7.69.25-2.88-2.92-13.7-2.92-13.7l-12.5 4.54z"/><path class="st22" d="M1467.18 418.47l2.84 10.24s-.06 7.35 6.15 6.61l-2.55-6.23-6.44-10.62z"/><path class="st24" d="M1465.4 446.47s.28 34.22-1.82 41.1 5.13 17.56 1.87 19.29c-5.11 2.73-17.24 16.2-17.55 14.29-1.02-15.61 4.38-40.56 2.75-51.22-1.63-10.67-.5-21.58.4-23.72 2.59-6.19 10.62-12.28 12.26-10.88 1.63 1.4 2.09 11.14 2.09 11.14z"/><path class="st2" d="M1468.94 433.85c-.1-.86.01-3.26-.75-3.08-2.13.49-8.74 3.17-8.59 6.92.21 5.16 5.77 32.76 5.77 32.76s5.68-19.08 3.57-36.6zm-15.19 59.14l1.51 3.96s-4.61 6.14-6.5 5.94l.43-4.47c-.01.01 2.64-2.59 4.56-5.43z"/><path class="st24" d="M1487.82 428.84c-.66 4.27 1.2 21.71 2.76 39.17 1.67 18.81 12.77 32.87 16.21 35.01 33.62-16.81 39.54-7.07 39.54-7.07s-.47-18.14-6.74-26.11c-8.4-10.69-9.11-4.43-18.2-30.1-3.66-10.32-13.16-25.97-20.29-22.16-6.56 3.5-12.62 6.99-13.28 11.26z"/><path class="st21" d="M1487.82 428.84c-.66 4.27 1.2 21.71 2.76 39.17 1.67 18.81 12.77 32.87 16.21 35.01 21.68-8.78 9.03-13 9.03-13l-11.6-2.64 6.86-1.85-8.7-6.86c-3.67-10.32-13.9-54.1-14.56-49.83z"/><path class="st2" d="M1484.13 424.88c-1.83 3.04-.25 30.71 6.05 38.67 0 0 4.42-37.32 3.4-40.36-1.02-3.05-7.63-1.35-9.45 1.69zm21.87 48.56l-.28 4.21s13.82 6.89 18.45 4.2l-1.48-3.99c-5.27 1.37-16.69-4.42-16.69-4.42zm1.55 28.1c-1.16.52-1.52 2.21-.59 3.11.2.19.42.32.67.33 1.13.04 18.75-9.34 27.87-10.21 6.36-.61 9.6.35 8.91 2.51-.21.67 2.27-.24 2.36-.97l-.08.15c.12-.97.05-1.75-.54-2.48-1.27-1.57-5.14-4.32-12.1-2.62-7.46 1.84-21.55 7.98-26.5 10.18z"/><path d="M1519.2 438.82s3.33 17.61 9.15 23.26c5.82 5.66 11.8 16.06 12.85 28.95" fill="none" stroke="#c93f37" stroke-width=".25" stroke-miterlimit="10"/><path class="st2" d="M1465.45 506.87l1.14 2.96s-12.48 9.96-14.24 12.39c-1.76 2.44-4.87 1.78-4.45-1.06.43-2.84 15.88-14.36 17.55-14.29z"/><path class="st28" d="M1492.87 483.81s-3.94-5.13-7.25-7.78c-1.32-1.05-6.86-2.51-6.86-2.51s2.51 2.37 6.73 5.67c4.21 3.3 7.38 4.62 7.38 4.62z"/><path d="M1458.85 449.4l-5.01 16.88-.26 40.35s-5.36 16.44-5.67 14.54c-1.02-15.61 4.38-40.56 2.75-51.22-1.63-10.67-.5-21.58.4-23.72 2.59-6.19 10.62-12.28 12.26-10.88 1.62 1.38-4.47 14.05-4.47 14.05z" opacity=".5" fill="#972b28"/></g><g id="k_left_arm"><path class="st21" d="M1504.48 392.15c-3.48-2.14-.38-4.84-.13-5.95.43-1.92-1.02-1.17-.66-3.7.34-2.34-2.88-20.43-4.82-25.52-1.94-5.09-1.55-11.46 4.94-13 10.39-2.47 10.4-.98 12.62 5.07 2.91 7.93 6.56 19.47 8.15 26.95 1.33 6.28 3.17 15.16-1.45 17.39-4.64 2.22-15.72.56-18.65-1.24z"/><path class="st24" d="M1512.34 393.85c-3.48-2.14-.38-4.84-.13-5.95.43-1.92-1.02-1.17-.66-3.7.34-2.34-3.5-28.13-5.45-33.22-1.94-5.09-8.79-5.47-2.3-7.01 10.39-2.47 10.4-.98 12.62 5.07 2.91 7.93 6.56 19.47 8.15 26.95 1.33 6.28 3.17 15.16-1.45 17.39-4.63 2.23-7.85 2.27-10.78.47z"/><path class="st17" d="M1521.29 435.55s3.68-16.11 2.86-22.92c-.81-6.81 2.9-19.05 1.82-21.87-1.46-3.84-7.66 2.31-12.5 1.82-7.81-.78-9.97-.79-10.66 3.46-1.16 7.26-3.05 22.17-4.32 25.05-1.26 2.89 13.87 16.63 18.37 17.78 4.08 1.04 4.43-3.32 4.43-3.32z"/><path class="st25" d="M1521.29 435.55s3.68-16.11 2.86-22.92c-.81-6.81 2.9-19.05 1.82-21.87-1.46-3.84-7.66 2.31-12.5 1.82-3.17.16-1.62 17.06-4.78 20.82-3.16 3.76-4.88 2.9-10.19 7.7-.43 1.23 1.74 4.22 4.9 7.46 4.5 4.62 10.83 9.65 13.47 10.32 4.07 1.03 4.42-3.33 4.42-3.33z"/><path class="st22" d="M1503.53 345.24a.495.495 0 0 1-.13-.04c-.63-.22-3.66.48-5.55-1.56-1.5-1.62-7.41-5.75-8.07-9.1l-.58-2.94c-.05-.26 0-.53.14-.76l.03-.06c.39-.64 1.29-.7 1.76-.12l3.38 3.08 2.37-.5-.19-5.48-3.17-6.71c-.06-.17-.08-.35-.05-.52l.39-2.74c.06-.42.36-.76.76-.88l.28-.08c.16-.05.31-.13.43-.24l.31-.29a1.07 1.07 0 0 1 1.62.19l.24.36c.31.45.9.61 1.39.35l.29-.15c.17-.09.35-.13.54-.12l.98.04c.42.02.79.27.95.66l2.87 6.82c.43 1.03 1.96.79 2.06-.32.11-1.19.22-2.26.31-2.62.05-.2.09-.42.12-.65.12-.81 1.07-1.2 1.73-.7.22.17.37.41.42.69l1.99 11.87c.01.07.02.13.01.2-.02.95-.26 8.64-2.36 10.77-2.04 2.04-4.79 1.64-5.27 1.55z"/><path class="st2" d="M1509.06 345.51c-1.18.27-6.25 1.41-9.08 1.52-.42.02-.81-.22-1-.6l-.24-.48c-.33-.66.1-1.45.83-1.53 2.27-.26 6.45-.85 7.88-1.77 1.03-.66 1.89-1.13 2.49-1.42.5-.25 1.1-.06 1.39.42l.35.6c.26.45.17 1.01-.23 1.35l-1.95 1.68a.98.98 0 0 1-.44.23z"/></g><g id="k_head"><path class="st25" d="M1489 406.7c-3.56 12.41-8.02 14.3-8.02 14.3-19.08 4.81-30.28-4.87-30.67-16.08-.84-11.3 1.1-15.77 14.19-18.44 18.62-3.79 27.63 9.33 24.5 20.22z"/><path class="st14" d="M1488.46 403.41c-3.03 10.51-18.64 5.74-18.64 5.74-3.13-1.18-13.99-4.59-15.45-10.76-1.25-5.26-2.98-11.21 13.19-12.6 14.72-1.27 23.56 8.37 20.9 17.62z"/><path class="st23" d="M1464.76 387.77s-11.27 1.75-12.72 3.75c-1.45 2.01 1.52 26.28 5.48 31.87 3.97 5.61 24.84-.75 29.03-5.98 3.42-4.28 2.16-6 2.07-12.11-.09-6.36-5.35-9.57-6.21-11.85-1.47-3.87-17.65-5.68-17.65-5.68z"/><path class="st22" d="M1452.52 401.66c-1.45 2.01 1.04 16.14 5 21.74 2.65 3.72 16.61 1.52 13.86-4.59-1.08-2.39-3.34-11.62-8.57-15.03-6.31-4.12-9.5-3.21-10.29-2.12z"/><path d="M1460.16 403.82c.18 1.48-.48 2.22-1.25 2.32-.77.1-1.38-.48-1.55-1.96-.17-1.48.31-2.76 1.08-2.86.78-.1 1.55 1.02 1.72 2.5zm12.75-4.07c.18 1.48-.48 2.22-1.25 2.32-.77.1-1.38-.48-1.55-1.96-.18-1.48.31-2.76 1.08-2.86.78-.09 1.55 1.02 1.72 2.5z" fill="#34273a"/><path d="M1471.29 394.57s-1.66-.59-3 .41m-9.57 3.29c-1.55.39-2.5 1.64-2.5 1.64" fill="none" stroke="#34273a" stroke-linecap="round" stroke-linejoin="round" stroke-miterlimit="10"/><path class="st23" d="M1490.68 402.01c-.31 3.67-2.36 6.69-4.58 6.75-2.22.06-3.76-2.88-3.44-6.55.32-3.66 2.37-6.67 4.58-6.72 2.21-.05 3.75 2.87 3.44 6.52z"/><path class="st25" d="M1471.68 386.14s-1.28 4.09-10.63 8.65c-4.7 2.29-7.92 5.79-10.46 6.48-6.27 1.71-1.59-12.37 7.85-17.23 9.39-4.83 13.24 2.1 13.24 2.1z"/><path class="st14" d="M1472.25 387.01s-.14 1.31-4 3.33c-6.68 3.5-13.86 5.78-17.03 6.64-5.02 1.36-.18-8.89 7.23-13.06 7.88-4.45 13.8 3.09 13.8 3.09z"/><path class="st25" d="M1464.95 388.19s-5.65 6.8-10.99 8.6c0 0 12.62-4.02 10.99-8.6z"/><path class="st14" d="M1480.41 389.94s.31 9.12 1.87 11.61l3.22 3.57-1.06-12.99-4.03-2.19z"/></g><g id="s_hair"><path class="st17" d="M1017.37 298.98s-9.62-13.29-23.36-12.83c-13.74.46-21.07 9.16-9.62 13.74 11.45 4.59 28.4 6.42 32.98-.91z"/><path class="st17" d="M999.5 302.19s-23.36-2.29-21.53 6.41c1.83 8.7 17.41 5.5 20.61 3.21 3.21-2.29.92-9.62.92-9.62z"/><path class="st17" d="M1009.58 290.28c9.62-2.75 35.92-9.54 48.1 13.29s2.29 33.9 2.29 33.9 10.99 10.99 5.04 28.86-38.69 14.24-38.69 14.24-42.04 34.42-63.01-9.66c-6.89-14.48 11.45-24.74 11.45-24.74s-15.46-1.5-12.37-16.49c3.21-15.58 26.57-19.7 26.57-19.7 8.71-8.25 11-16.95 20.62-19.7z"/></g><path class="st34" d="M894.1 561.58c-.03 5.32 20.11 7.11 25.46 14.14 7.72 10.14 1.35 10.74 69.72 13.79 55.31 2.47 101.02-17.34 100.87-20.7-1.02-11.06-71.13-39.75-112.76-38.53-28.98.85-60.02 14.56-74.97 23.97-6.56 4.12-8.3 3.89-8.32 7.33z" id="s_skirt"/><g id="s_left_leg"><path class="st17" d="M1041.35 513.3c-8.84 6-11.92 20.59-8.42 36.37 3.5 15.77 3.36 53.49 7.84 60.4 4.47 6.91 17.95 9.23 27.61 4.06 11.37-6.09 11.67-19.81 11.77-33.29.1-13.48 1.82-36.09-1.02-53.58-2.85-17.49-28.94-19.96-37.78-13.96z"/><path class="st17" d="M1043.08 602.6c-3.47 5.36-4.46 17.34-5.69 25.96-1.66 11.6-1.19 20.06 1.34 35.05 2.57 15.23 39.4-8.08 40.64-20.24 1.24-12.16.28-31.27-.5-41.8s-26.53-13.27-35.79 1.03z"/><path class="st27" d="M1061.49 623.2c-1.66 11.6-.11 17.35 2.42 32.34 2.57 15.23 14.22 0 15.45-12.15 1.24-12.16.49-24.14-.3-34.67-.78-10.53-16.34 5.85-17.57 14.48z"/><path class="st22" d="M1036.49 639.52c-1.85 12.02 2.45 38.49 11.73 73.74 5.64 21.46 3.44 37.76 13.41 37.17s11.72-.56 12.22-12.5c.51-12.1 5.15-86.75 5.9-99.34 0 0-13.8-.71-25.58-.51-10.19.18-17.68 1.44-17.68 1.44z"/><path class="st23" d="M1036.49 639.52c-1.85 12.02 2.45 38.49 11.73 73.74 5.64 21.46 3.44 37.76 13.41 37.17s11.72-.56 12.22-12.5c.19-4.51-5.47-12.56-8.72-43.82-2.36-22.7-3.89-55.99-3.89-55.99-12.42-.58-24.75 1.4-24.75 1.4z"/><path class="st23" d="M1053.62 738.09c-1.35 3.11-2.24 8.31-5.67 16.8-2.94 7.28 12.07 10.08 17.51 15.25-4.57-2.41 39.15 8.7 48.25 7.74 20.57-2.17-21.63-23.28-9.95-16.85 0 0-24.45-12.41-27.93-22.33s-20.86-3.72-22.21-.61z"/><path class="st35" d="M1048.95 748.77c.65-1.2 1.81-2.26 2-1.09.19 1.17 2.06 5.63 4.66 6.93 2.6 1.31 32.3 15.66 42.8 12.53 6.41-1.9 2.34-6.25-2.43-9.77-3.16-2.33-8.66-6.56-8.66-6.56s12.62 8.07 18.74 11.21c6.12 3.14 18.92 14.14 20.1 18.56 1.18 4.42-41.92 4.06-48.58 1.35-6.66-2.71-16.01-7.6-20.2-10.09-3.31-1.96-7.35-1.47-8.59-2.79-2.82-2.97-1.79-16.68.16-20.28z"/></g><g id="s_right_leg"><path class="st17" d="M971.21 569.34s1.98-46.99 4.96-60.6c2.99-13.61 53.53-19.56 55.24 4.72 1.71 24.28-6.76 60.08-11.49 76.28-4.72 16.2-6.98 26.12-31.1 23-24.79-3.22-18.95-12.63-17.61-43.4z"/><path class="st17" d="M997.41 582.4c-12.64-1.47-27.42 2.49-28.5 17.31-.76 10.44-8.55 18.21-14.95 38.77s45.99 32.37 49.89 6.43c3.89-25.94 18.44-59.61-6.44-62.51z"/><path class="st27" d="M1000.98 613.31s-6.99 19.5-13.4 40.06c-6.41 20.56 12.36 17.48 16.26-8.46 1.44-9.58 4.33-20.21 6.15-29.96 3.12-16.65-9.01-1.64-9.01-1.64z"/><path class="st22" d="M1003.84 644.91c-3.9 25.94-31.02 95.59-33.43 108.57-2.42 12.99-10.44 21.22-10.44 21.22s-12.64 6.28-13.13-22.82c-.37-22.23.71-92.85 7.12-113.41 0 0 14.72-3.98 26.05-1.35 11.32 2.65 23.83 7.79 23.83 7.79z"/><path class="st23" d="M973.78 710.35c-4.36 18.87-5.7 30.41-8.12 43.4-2.42 12.99-5.69 20.96-5.69 20.96s-12.64 6.28-13.13-22.82c-.37-22.23.71-92.85 7.12-113.41 0 0 14.72-3.98 26.05-1.35 2.99.69 11.64 3.52 11.64 3.52s-5.15 14.62-17.87 69.7z"/><path class="st23" d="M961.97 747.88c-11-.29-14.93 12.92-14.93 12.92s-7.52 12.42-6.43 16.83c.69 2.67 3.61 9.44 3.61 9.44s4.12 21.11 4.9 23.9c1.18 4.17 42.17 12.3 45.02 13.27 2.86.98-1.9-22.97-1.9-22.97s-15.34-21.53-19.01-30.98c-3.62-9.27-5.79-22.27-11.26-22.41z"/><path class="st35" d="M947.28 760.46c.13-.21-.11-.46-.33-.33-1.37.79-3.24 2.42-3.62 3.5-1.98 5.68-3.62 11.02-2.99 14.34.24 1.29 1.6 4.57 3.08 10.83 1.64 6.89 1.06 19.42 5.07 24.56 4.01 5.14 37.22 15.55 44.48 13.96 7.26-1.59 2.47-22.97 1.78-27.18-.73-4.44-17.29-24.09-24.4-38.75 0 0 .05 1.63 1.23 5.31 2.76 8.62 11.48 25.83 1.4 27.58-9.65 1.68-24.1-11.57-24.88-18.19-.77-6.53-1.99-11.73-1.85-13.08.09-.84.63-1.87 1.03-2.55z"/></g><g id="s_left_arm"><path class="st22" d="M1070.36 415.87s6.29 14.46 12.54 25.07c5.6 9.5 30.01 38.23 32.68 42.4 5.64 8.81-1.74 12.13-9.5 9.83-4.14-1.23-29.52-29.37-37.67-40.1-6.78-8.93-13.51-22.49-15.71-26.35-4.88-8.55 5.95-25.06 17.66-10.85z"/><path class="st23" d="M1070.36 415.87s1.31 26.33 7.51 36.88c5.55 9.45 24.58 28.8 27.24 32.97 5.62 8.8 9.5 10.33 1.74 8.03-4.14-1.23-30.28-29.96-38.44-40.69-6.78-8.93-13.51-22.49-15.71-26.35-5.36-9.38 6.56-24.3 17.66-10.84z"/><path class="st34" d="M1072.41 419.02s-16.87-29.06-27.56-30.07c-10.52-1-10.49 8.54-6.79 18.3 5.39 14.24 19.88 32.88 19.88 32.88s4.47-15.97 14.47-21.11z"/><path class="st5" d="M1119.01 470.53l-7.29 2.32c-.32.1-.61.27-.86.48l-7.18 6.28a7.704 7.704 0 0 0-2.47 4.21l.3 8.19c-.08.38-.07.77.03 1.14l1.26 8.07c.29 1.06 3.26 1.98 4.35 1.98 0 0 2.41 2.44 4.15 2.77 1.75.33 4.09-.92 4.55-1.29.46-.36-1.45-3.2-1.45-3.2s2.31 3.47 3.03 3.64 6.86.08 6.33-1.14l-.4-4.95c-.35-.8-1.72-.79-1.19-1.48l4.24-7.07c1-1.3 5.07-2.05 5.99-.69l1.02 1.51c1.11 2.3.34 2.53 1.14 2.53l4.58-2.14c1.33 0-.49-7.62-.49-7.62l-3.82-4.88s-1.89-2.14-2.7-2.55l-11.32-5.98c-.55-.27-1.2-.32-1.8-.13z"/><path class="st23" d="M1132.14 484.86c4.3 1.23 4.9 4.19 4.28 5.42-.61 1.23-.2 5.93-.2 5.93l-.92 3.16s-6.36 5.67-7.32 5.93c-.96.27-4.42-2.08-4.42-2.08s-3.86-2.95-4.05-3.76 2.14-3.13 2.14-3.13-.75-.7-.92-1.45-.04-1.63.58-1.97c.81-.45 2.02-.65 2.02-.65s-.33-.56-.58-.85c-.25-.29-.83-2.74.77-2.78 0 0 3.38-.39 4.31-.27s3.47.66 1.02-.28c-2.27-.87-3.27-.92-3.34-2.25-.17-2.77 2.33-2.2 6.63-.97z"/></g><g id="s_torso"><path class="st11" d="M1034.53 386.73s4.67 1.1 9.02 3.88c7.82 4.99 17.09 9.94 17.31 21.6.18 9.29-1.55 23.12-2.77 36.79-.59 6.61-4.47 12.68-11.08 15.43-20.13 8.38-34.23 11.75-45.1 4.75-4.04-2.6-4.12.08-9.1-15.56-3.69-11.6-6.34-16.33-10.02-26.9-11.14-31.97 13.14-37.07 26.64-38.63 11.65-1.35 25.1-1.36 25.1-1.36z"/><path class="st28" d="M1049.81 448.74s-37.02 27.44-47.89 20.44c-4.04-2.6-4.12.08-9.1-15.56-3.69-11.6-6.34-16.33-10.02-26.9-11.14-31.97 12.1 24.37 22.09 8.1 6.6-10.76 17.34-15.62 27.1-17.06 11.28-1.67 23.95 4.76 24.66 8.44 1.96 10.2-6.84 22.54-6.84 22.54z"/><path class="st11" d="M1057.7 434.36s-4.75-8.31-14.64-9.49c0 0 7.52-2.77 14.64 3.96v5.53z"/><path class="st22" d="M1029.75 399.29c-3.69 1.05-16.97-3.32-16.87-7.62l.55-23.29c.1-4.3 3.67-7.71 7.98-7.61l2.4.06c4.3.1 7.71 3.67 7.61 7.98l3.86 22.31c-.1 4.29-1.84 7.11-5.53 8.17z"/><path class="st23" d="M1024.08 383.33c-2.78.17-11.13 2.09-11.03-2.21l.55-23.29c.1-4.3 3.67-7.71 7.98-7.61l2.4.06c4.3.1 8.24 17.28 8.14 21.59 0-.01-5.27 11.29-8.04 11.46z"/><path class="st34" d="M973.33 546.36l-17.61 16.48c-1.85 1.55-4.53.46-4.22-1.75 1.09-7.57 4.55-20.41 21.83-14.73z"/><path class="st11" d="M1051.46 454.7c3.13 5.53 30.99 49.43 38.69 114.11 0 0-47.35-22.62-79.29-20.46-55.92 3.79-52.25 7.8-53.53 11.94-.85 2.75-3.76 4.25-6.51 3.4-.71-.22-1.51-.49-2.39-.81-12.48-4.55-34.14-11.36-53.88-3.69 0 0 48.17-32.75 83.29-74.99 30.2-36.33 70.49-35.03 73.62-29.5z"/><path class="st28" d="M1056.6 512.63c-8.12 14.62-26.74 34.44-45.74 35.73-55.92 3.79-52.25 7.8-53.53 11.94-.85 2.75-3.76 4.25-6.51 3.4-.71-.22-1.51-.49-2.39-.81-12.48-4.55-34.14-11.36-53.88-3.69 0 0 48.17-32.75 83.29-74.99 22.62-27.21 50.89-33.31 64.98-32.34 4.72.32 21.9 46.14 13.78 60.76z"/><path class="st28" d="M955.79 557.84s4.01-37.08 16.48-48.75c0 0-4.86 8.87-4.66 15.54l6.03-4.29s-6.09 9.61-10.19 19.3c-3.59 8.5-5.05 17.16-7.66 18.2zm104.87-48.46s1.62 8.93-10.56 19.49l-12.18 10.56s16.24-3.25 19.49-8.93c3.25-5.69 3.25-21.12 3.25-21.12z"/></g><g id="s_right_arm"><path class="st22" d="M963.46 412.29s-25.02 22.48-28.9 28.3c-3.91 5.87-3.3 6.43.5 11.96 3.78 5.51 15.03 9.56 21.94 3.41 6.82-6.08 27.39-24.8 30.33-28.25 2.92-3.44 2.8-11.82-1.17-15.86-3.99-4.05-15.03-4.97-22.7.44z"/><path class="st23" d="M963.46 412.29s-34.3 29.76-29.73 30.79c4.57 1.04 7.02-3.06 11.5-6.79 9.81-8.16 21.19-20.64 21.19-20.64s4.71-8.77-2.96-3.36z"/><path class="st34" d="M981.81 435.07s26.66-24.91 20.09-35.41c-6.28-10.03-15.47-7.53-26.19-.06-10.95 7.64-16.01 15.23-16.01 15.23s11.34 4.43 22.11 20.24z"/><path class="st21" d="M986.5 400.29c3.74-1.25 15.4-.63 15.4-.63-6.28-10.03-15.47-7.53-26.19-.06-10.95 7.64-16.01 15.23-16.01 15.23s1.13.66 4.14 2.52c.76.48 18.92-15.81 22.66-17.06z"/><path class="st36" d="M887.63 497.02s20.03-7.98 29.07-14.46c7.97-5.71 22.33-11.39 30.75-18.7 12.34-10.71 4.42-18.23-1.59-23.23-5.07-4.22-13.01.62-21.35 6.73-8.31 6.09-42.75 28.44-49.65 36.74-6.86 8.24.13 22.84 12.77 12.92z"/><path class="st23" d="M900.36 469.54c7.51-6.29 41.83-30.5 41.83-30.5-2.91-1.87-9.34 2.21-17.68 8.33-7 5.13-32.59 21.83-44.58 31.92-2.24 1.87 10.04-4.21 20.43-9.75z"/><path class="st36" d="M890.1 488.43c-.79-4.72-6.73-13.45-16.62-12.66-9.89.79-27.69 1.98-33.23 5.93-5.54 3.96-2.77 6.33-.4 7.12s11.87-.79 16.22-.79 1.58 8.7-5.54 14.64c-7.12 5.93-11.87 20.18-14.64 27.3-2.77 7.12-1.19 8.7 1.58 8.31 2.77-.4 8.31-12.26 11.47-17.01 3.16-4.75-5.93 13.05-5.93 16.62 0 3.56 4.75 3.16 4.75 3.16l8.7-16.22s-3.1 9.43-1.91 10.22 5.93-.4 5.93-.4l4.29-9.43 3.96-8.7s.79 12.26 2.37 12.26 5.14-5.54 5.14-5.54 1.79-8.63 4.35-12.66c2.78-4.35 10.7-15.03 9.51-22.15z"/></g><g id="s_head"><path class="st22" d="M1053.39 329.31c6.72 32.3-6.46 43.31-29.25 42.6-17.12-.53-31.15-11.38-32.28-32.81-1.13-21.44 7.9-39.02 24.81-41.85 22.33-3.74 32.35 11.08 36.72 32.06z"/><path class="st23" d="M1050.98 335.07c1.58 28.68-17.85 34.65-28.48 34.42-14.89-.33-29.09-9.12-30.07-28.09-.98-18.97 9.41-36.67 24.13-39.16 34.29-5.81 33.8 21.56 34.42 32.83z"/><ellipse transform="rotate(-8.795 991.356 342.934)" class="st23" cx="991.08" cy="342.86" rx="7.08" ry="12.28"/><path class="st11" d="M991.86 330.22l.76 3.26s-.2-17.96 19.58-24.92c17.61-6.2 34.81.4 34.81.4s-13.69-19.87-37.63-9.58c-20.02 8.61-17.52 30.84-17.52 30.84z"/><path class="st37" d="M1045.07 307.26s3.27 7.19 7.57 11.06c3.25 2.92 6.17 4.08 6.17 4.08l-.35-1.71 2.26-.94s-6.83-2.62-13.94-12.98l-1.71.49z"/><path class="st37" d="M1044.76 306.44s.61 7.88 3.32 12.98c2.05 3.85 4.4 5.95 4.4 5.95l.26-1.72 2.45-.11s-5.52-4.8-8.66-16.97l-1.77-.13z"/><path class="st37" d="M1046.83 311.07c1.88.17 6.15-8.95 1.94-10.3-3.97-1.27-8.66-1.98-8.72 1.25-.06 3.24 4.9 8.88 6.78 9.05z"/><path class="st38" d="M1049.83 306.04s.44-4.28-.86-4.53-.63 1.81-1.03 4.6c-.38 2.79 1.66 1.72 1.89-.07z"/><path class="st37" d="M1045.87 308.68s.24-1.96 3.48-3.05 5.6-1.52 7.06.03.78 6.49-.86 8.63c-1.65 2.14-7.28-1.33-8.58-2.65-1.3-1.31-1.1-2.96-1.1-2.96z"/><path class="st38" d="M1056.32 309.77s-.45 3.98-2.33 4.15c-2.79.25.76-6.57 1.21-7.68s2.31.91 1.12 3.53z"/><path class="st17" d="M1011.18 334.93c0 3.01-1.31 3.3-2.91 3.3-1.61 0-2.91-.3-2.91-3.3s1.31-5.44 2.91-5.44c1.61 0 2.91 2.43 2.91 5.44zm26.82-2.33c0 3.01-1.31 3.3-2.92 3.3-1.61 0-2.91-.3-2.91-3.3s1.31-5.44 2.91-5.44c1.62-.01 2.92 2.43 2.92 5.44z"/><path class="st19" d="M1031.56 315.39c3.96-.99 7.12 2.77 7.12 2.77m-27.69-.86c-3.36-.59-6.23 3.35-6.23 3.35"/></g><g id="dog"><path class="st35" d="M741.56 733.28s6.25 22.53 10.82 27.98l6.04-11.06c0 .01-6.19-11.9-16.86-16.92z"/><path class="st35" d="M744.15 742.91s-4.77 18.04-3.51 24.65l9.55-2.31c.01-.01.22-11.65-6.04-22.34z"/><path class="st39" d="M505.74 809.95s-6.83 50.19-5.48 62.03c1.35 11.84-7.5 24.8-12.84 32.16-5.38 7.4 4.88 22.92 4.88 22.92s13.96 5.28 28.07 1.53c12.33-3.28 9.96-10.59 2.64-14.65-7.39-4.1 16.56-32.72 16.56-32.72s13.89-54.35 15.39-62.41c1.51-8.06-39.81-34.96-49.22-8.86zm222.67-65.59c-12.24 1.63-57.88 12.53-64.9-10.93-7.06-23.6-19.86-57.71-20.28-72.8 0 0-5.71-11.1-10.47-24.43-4.78-13.39-2.07-15.35 5.18-11.22 7.19 4.09 20.26 18.5 20.26 18.5s18.91-11.49 43.92-11.76c24.25-.26 19.94-1.17 28.11 10.71l5.72 10.66s19.3-5.56 30.99-6c11.52-.43 17.13 3.68 18.95 17.62 1.82 13.92 1.12 20.91-2.26 28.36-3.4 7.49-14.47 21.18-26.29 31.05 0 .01-16.89 18.64-28.93 20.24z"/><path d="M782.47 653.18c3.94 6.09-5.17 11.92-9.16 5.8-4.01-6.15-16.16-9.26-8.77-11.36 5.09-1.44 13.97-.56 17.93 5.56z" fill="#121721"/><path class="st39" d="M690.49 638.81s-1.4-17.6-.66-30.66c.71-12.46 7.26-9.92 13.11.67 6.09 11.03 14.2 31.98 15.62 36.15 1.42 4.16-22.43 8.52-28.07-6.16z"/><path class="st17" d="M697.81 611.2c-1.48-12.65.65-8.72 6.49 1.85 6.08 11 11.21 22.54 12.62 26.72 1.42 4.16-17.79-17.33-19.11-28.57zm-2.19 282.28c-1.36-4.89-10.06-5.7-10.33-6.92-4.51-20.7-4.55-41.38-5.01-46.24-.95-9.98 5.96-28.71 4.05-50.2-1.84-20.71-37.72-3.64-36.11 20.97.93 14.21 7.04 62.33 8.82 75.41.25 1.85.9 3.61 1.9 5.21l12.19 13.1c2.15 4.08 4.74.94 13.9-1.06 9.03-1.97 12.43-3.64 10.59-10.27zm69.51 4.44c-2.24-10.69-17.54-9.08-17.54-9.08-1.04-1.34-4.3-3.76-4.76-5.17-3.45-10.7-5.24-36.01-6.29-40.81-2.18-9.99-2.82-40.77-7.31-63.86-4.51-23.2-35.38-.32-33.23 22.89 1.53 16.53 23 80.81 25.14 86.99 0 0 19.58 19.99 27.98 18.49 8.31-1.47 17.4-2.86 16.01-9.45z"/><path class="st39" d="M689.49 723.18s-18.39-7.52-64.93 8.08c-31.93 10.7-54.56 9.32-91.08 16.81-23.82 4.89-36.43 74.75-27.12 89.19 7.16 11.35 30.14 3.02 57.89 1.42 68.59-3.95 85.46 3.53 92.17 1.98 33.38-7.7 57.09-17.63 68.29-27.48 4.04-3.56 6.38-14.02 9.67-24.96 4.76-15.84 12.64-33.87 3.43-49.37-6.26-10.52-30.15-14.96-48.32-15.67z"/><path class="st17" d="M711.64 745.44l-17.68 27.94s-19.62 25.48-18.07 25.55l15.36 31.94s22.24-7.84 33.43-17.7c4.04-3.56 6.38-14.02 9.67-24.96 4.76-15.84 12.64-33.87 3.43-49.37l-26.14 6.6z"/><path class="st35" d="M656.21 712.46s-.89 3.66-.97 10.43c0 0 14.05 13.47 54.18 22.37 20.37 4.51 36.31 2.62 36.31 2.62l-.65-12.44c-.02.01-44.64 2.4-88.87-22.98z"/><path class="st17" d="M554.73 770.16c-1.8-4.56-14.57-27.69-15.82-38.22-1.25-10.54-3.09-35.43 11.11-43.85 0 0-15.71-4.97-31.45 23.64-16.09 29.25 9.58 67.97 11.75 71.18 9.62 14.25 29.53.25 24.41-12.75z"/><path class="st39" d="M554.73 770.16c-1.8-4.56-15.96-5.33-21.26-22.1-5.3-16.76-4.37-52.15 16.54-59.97 0 0-15.71-4.97-31.45 23.64-16.09 29.25 9.58 67.97 11.75 71.18 9.63 14.25 29.54.25 24.42-12.75zm9.17 43.77s13.43 66.64 18.28 77.57c4.83 10.87-7.84 23.1-11.2 30.89-3.38 7.84 10.16 26.92 10.16 26.92s23.48-1.49 27.03-1.95c3.53-.45 12.78-12.14 4.12-14.62-8.76-2.51 5.94-40.84 5.94-40.84s.47-69.57-.28-77.58c-.76-7.98-51.98-27.26-54.05-.39z"/></g></svg>