<svg xmlns="http://www.w3.org/2000/svg" viewBox="0 0 1920 1080"><style>.st0{fill:#f4e8d8}.st2{fill:#972d29}.st3{fill:#c83f37}.st4{fill:#ce6d3e}.st7{fill:#3e424b}.st9{fill:#102441}.st10{fill:#4d525b}.st12{fill:#f6cf4c}.st13{fill:#f5864e}.st14{fill:#634874}.st15{fill:#131620}.st16{fill:#d8a344}.st17{fill:none;stroke:#29abe3;stroke-width:3;stroke-linecap:round;stroke-linejoin:round;stroke-miterlimit:10}.st18{fill:#29abe3}.st19{fill:#273150}.st22{fill:#eb5e4d}.st27{fill:#7c4631}.st30{fill:#a96443}.st31{fill:none;stroke:#f6cf4c;stroke-width:3;stroke-linecap:round;stroke-linejoin:round;stroke-miterlimit:10}.st32{fill:#48598b}.st33{fill:#d77d5b}.st34{fill:#a76241}</style><g id="bg"><path class="st0" d="M796.51 572.59l-32.29-5.67c-1.06-9.91-3.21-19.54-6.4-28.77l26.82-18.81a4.008 4.008 0 0 0 .98-5.58l-37.24-53.06a3.978 3.978 0 0 0-5.57-.98l-26.82 18.82c-7.59-6.16-15.92-11.44-24.87-15.82l5.67-32.3c.38-2.15-1.09-4.24-3.26-4.62l-63.87-11.21c-2.17-.38-4.25 1.09-4.63 3.23l-5.67 32.3c-9.91 1.07-19.55 3.22-28.79 6.41l-18.81-26.83c-1.24-1.82-3.75-2.26-5.56-.98l-53.08 37.22a3.99 3.99 0 0 0-.98 5.58l18.82 26.82a131.19 131.19 0 0 0-15.81 24.88l-32.3-5.67a4.006 4.006 0 0 0-4.63 3.25l-11.21 63.87c-.38 2.16 1.09 4.27 3.25 4.65l32.3 5.67a130.17 130.17 0 0 0 6.4 28.76l-26.83 18.8a4.003 4.003 0 0 0-.98 5.59l37.24 53.07c1.27 1.8 3.78 2.24 5.56.98l26.82-18.8a133.38 133.38 0 0 0 24.89 15.8L570 731.46c-.38 2.16 1.08 4.24 3.25 4.62l63.87 11.21c2.17.38 4.26-1.08 4.63-3.24l5.66-32.27c9.9-1.07 19.54-3.23 28.77-6.39l18.82 26.8c1.26 1.79 3.77 2.23 5.57.98l53.08-37.22c1.81-1.26 2.25-3.76.98-5.58l-18.81-26.83c6.15-7.6 11.44-15.92 15.81-24.86l32.29 5.67c2.16.38 4.25-1.11 4.63-3.27l11.21-63.87a4.008 4.008 0 0 0-3.25-4.62zM621.8 646.96c-36.46-6.4-60.84-41.14-54.44-77.61 6.4-36.46 41.14-60.84 77.61-54.44 36.46 6.4 60.84 41.14 54.44 77.61-6.4 36.46-41.15 60.84-77.61 54.44z"/><path class="st0" d="M1236.07 246.56l-54.25 8.19c-6.96-15.15-15.49-29.3-25.47-42.25l32.54-44.13c2.2-2.96 1.56-7.19-1.42-9.38l-87.33-64.38c-2.97-2.22-7.18-1.58-9.35 1.41l-32.55 44.13c-15.32-5.74-31.36-9.69-47.88-11.87l-8.2-54.28c-.54-3.6-3.98-6.14-7.62-5.59L887.22 84.63c-3.64.55-6.17 3.99-5.62 7.59l8.2 54.28c-15.15 6.97-29.3 15.52-42.27 25.49l-44.13-32.55c-2.94-2.22-7.15-1.58-9.34 1.41l-64.42 87.3c-2.21 2.97-1.57 7.2 1.42 9.38l44.14 32.54a218.922 218.922 0 0 0-11.84 47.89l-54.26 8.2c-3.64.55-6.18 3.95-5.63 7.62l16.21 107.31c.55 3.62 3.99 6.2 7.63 5.65l54.26-8.2a218.31 218.31 0 0 0 25.45 42.23l-32.56 44.11a6.723 6.723 0 0 0 1.42 9.4l87.33 64.38c2.97 2.17 7.19 1.54 9.34-1.41l32.55-44.1c15.33 5.65 31.37 9.64 47.91 11.83l8.19 54.23c.55 3.62 3.98 6.16 7.61 5.61l107.31-16.21c3.64-.55 6.18-3.98 5.63-7.61l-8.19-54.23a222.739 222.739 0 0 0 42.25-25.45l44.12 32.52c2.95 2.18 7.17 1.54 9.35-1.41l64.42-87.31c2.2-2.96 1.57-7.17-1.42-9.38l-44.12-32.56c5.71-15.33 9.68-31.36 11.86-47.86l54.25-8.19c3.63-.55 6.15-4.02 5.6-7.64l-16.21-107.31c-.54-3.67-3.97-6.17-7.59-5.62zm-235.93 222.31c-67.52 10.2-130.52-36.27-140.72-103.78-10.2-67.52 36.27-130.52 103.78-140.72 67.52-10.2 130.52 36.27 140.72 103.78 10.2 67.52-36.26 130.52-103.78 140.72zm-445.65 51.65c1.93 0 1.93-3 0-3s-1.93 3 0 3z"/></g><g id="bird_house"><path fill="#702022" d="M796.78 507.64l30.02.12 44.94-27.71 92.25-66.79-93.94-.75z"/><path class="st2" d="M861.5 402.78l-74.47 90.75 9.81 14.23 75.45-92.16z"/><path class="st3" d="M861.5 402.78l92.68-1.25 9.81 11.73-91.7 2.34z"/><path class="st4" d="M926.76 473.92l-3.34 43.2-6.16 81.42 81.68-7.51 19.47-93.88z"/><path fill="#f2864f" d="M870.99 431.74l-50.43 58.78 14.62 103.81 85.37 1.44 11.28-95.12z"/><path class="st4" d="M870.99 431.74l-50.43 58.78 14.62 103.81 49.66.94 4.25-135.57z"/><path opacity=".5" fill="#c16840" d="M908.96 484.21l-37.97-52.47-14.15 16.49 7.29 146.51 37.97 1.82z"/><ellipse transform="rotate(-86.629 917.794 585.222)" class="st7" cx="917.81" cy="585.24" rx="2.48" ry="1.75"/><ellipse transform="rotate(-86.629 920.032 554.554)" class="st7" cx="920.04" cy="554.57" rx="2.48" ry="1.75"/><ellipse transform="rotate(-86.629 923.402 517.105)" class="st7" cx="923.42" cy="517.12" rx="2.48" ry="1.75"/><ellipse transform="rotate(-70.293 1006.303 529.678)" class="st7" cx="1006.21" cy="529.67" rx="2" ry="1.48"/><ellipse transform="rotate(-70.293 1000.03 557.581)" class="st7" cx="999.94" cy="557.57" rx="2" ry="1.48"/><ellipse transform="rotate(-70.293 993.758 588.48)" class="st7" cx="993.67" cy="588.47" rx="2" ry="1.48"/><ellipse transform="rotate(-86.629 834.148 560.048)" class="st7" cx="834.16" cy="560.07" rx="2.2" ry="1.55"/><ellipse transform="rotate(-86.629 830.3 524.887)" class="st7" cx="830.31" cy="524.91" rx="2.17" ry="1.53"/><ellipse transform="rotate(-86.629 825.433 494.64)" class="st7" cx="825.45" cy="494.66" rx="2.12" ry="1.5"/><ellipse transform="rotate(-86.629 845.51 467.672)" class="st7" cx="845.52" cy="467.69" rx="2.48" ry="1.75"/><ellipse transform="rotate(-86.629 866.857 444.828)" class="st7" cx="866.87" cy="444.84" rx="2.48" ry="1.75"/><ellipse transform="rotate(-86.629 837.893 588.51)" class="st7" cx="837.9" cy="588.53" rx="1.92" ry="1.36"/><ellipse transform="rotate(-86.629 872.822 587.444)" class="st7" cx="872.83" cy="587.46" rx="2.05" ry="1.45"/><path class="st2" d="M943.76 495.82l-10.54 17.41 87.25-2.44 9.62-17.01z"/><path class="st3" d="M872.55 416.07l89.94-1.81 67.6 79.52-86.33 2.04z"/><path class="st2" d="M861.92 429.14l71.3 84.09 10.55-17.42-71.22-79.74z"/><ellipse cx="871.08" cy="505.54" rx="20.67" ry="26.84" fill="#f6be4a"/><ellipse class="st9" cx="874.78" cy="505.54" rx="16.97" ry="24.99"/><ellipse transform="rotate(-62.953 883.852 421.567)" class="st10" cx="883.79" cy="421.55" rx="1.73" ry="2.73"/><ellipse transform="rotate(-62.953 946.012 492.336)" class="st10" cx="945.95" cy="492.32" rx="1.73" ry="2.73"/><ellipse transform="rotate(-62.953 1017.987 489.677)" class="st10" cx="1017.91" cy="489.66" rx="1.73" ry="2.73"/><ellipse transform="rotate(-62.953 965.595 409.186)" class="st10" cx="965.53" cy="409.17" rx="1.73" ry="2.73"/><path class="st10" d="M960.53 421.7l3.73-12.11 2.25.92-5.7 11.3c-.08.17-.33.07-.28-.11z"/><path d="M1023.97 486.63c-5.54 7.08-18.69 7.79-36.58.45-29.4-12.06-60.47-41.27-69.4-65.25-3.18-8.53-3.12-15.25-.41-19.82l36.6-.48 9.7 11.82-1.39.91 61.48 72.37z" opacity=".5" fill="#c83f37"/><path transform="rotate(-2.563 808.709 587.189)" class="st12" d="M773.86 581.65h71.25v11.88h-71.25z"/><ellipse transform="rotate(-2.563 773.216 588.778)" class="st13" cx="773.96" cy="589.19" rx="4.04" ry="5.95"/><ellipse transform="rotate(-2.563 844.029 585.628)" class="st12" cx="844.84" cy="586.03" rx="4.04" ry="5.95"/></g><g id="chair_wheels"><path class="st9" d="M992.07 970.23l-16.9 2.95-14.99-3.28-21.13-337.42h55.33z"/><path class="st14" d="M992.03 970.15l-17.36 3.03-3.16-202.59 22.23-58.51z"/><ellipse transform="rotate(-83.016 1143.475 974.904)" class="st15" cx="1143.46" cy="974.93" rx="15.43" ry="14.78"/><ellipse transform="rotate(-6.975 1284.994 970.058)" class="st15" cx="1284.97" cy="970.37" rx="14.78" ry="15.43"/><path class="st9" d="M1291.22 949.95c-12.35-.49-86.74-6.41-86.74-6.41s-54.29 5.37-64.7 4.97c-15.19-.6-15.52 14.66-14.39 18.45s11.75 3.4 14.43 2.37l9.46-1.87 56.16-6.85 70.2 6.52 9.46 1.87c2.68 1.03 8.89 2.12 11.57 1.09l4.9-.54c1.56-.6 1.64-8.28 1.68-9.95.13-5.25 1.58-9.1-12.03-9.65z"/></g><g id="right_leg"><path class="st16" d="M1145.11 603.11s31.95-20.65 49.41 22.27c17.54 43.11 7.41 41.39-29.83 57.37-20.92 8.98-55.9 23.89-87.46 32.56-24.21 6.65-80.79 33.11-96.14-1.96-9.17-20.95.33-39.41 17.53-47.78 17.25-8.39 146.49-62.46 146.49-62.46z"/><path class="st15" d="M1142.75 894.46c15.65 6.32 29.03 30.61 29.03 30.61s-34.39 30.79-50.4 41c-3.33 2.12-15.19 6.81-26.59 10.99-12.28 4.5-40.27 7.19-44.01 5.68-4.05-1.63-8.42-26.57 1.44-40.41 9.16-12.86 33.1-13.61 34.82-16.46 15.64-26.08 48.7-34.24 55.71-31.41z"/><path class="st17" d="M1087.76 924.5s4.65-.19 8.43 8.55m-28.12-1.9s4.27-1.37 8.87 7.28m3.02-10.53s5.17 1.56 7.01 7.16"/><path class="st18" d="M1049.9 981.93l.89 4.52c.29 1.46 1.34 2.68 2.58 2.97 8.72 2.02 35.81-3.15 46.21-7.11 10.24-3.9 16.39-6.37 25.34-13.13 13.26-10.03 50.3-35.66 50.3-35.66s.65-6.13-3.5-8.4c-1.48-.81-42.97 30.34-61.07 43.47-4.37 3.17-12.36 6.2-17.37 7.35-19.9 4.57-43.38 5.99-43.38 5.99z"/><path class="st16" d="M1090.28 923.2c.84.95 2.09 1.59 3.47 1.76 5.63.7 22.11.61 34.97-5.19 16.1-7.27 32.75-19.21 32.75-19.21l-20.14-35.15s-64.2-115.37-81.91-150.51c-12.89-25.58-31.35-45.69-58.35-37.11-25.33 8.05-28.07 23.72-15.71 50.99 8.64 19.05 60.95 113.43 60.95 113.43l32.65 65.72 11.32 15.27z"/><path class="st16" d="M1157.48 894.58l-17.83-28.67s-17.49-30.22-39.93-71.94c-6.38-11.86-12.02-10.64-14.57-2.2-.25.01-.39.02-.39.02s-5.95 10.88-6.07 23.28c0 0 1.49-7.17 5.03-13.22-.32 11.44 2.6 27.43 10.6 43.51 3.37 6.77 18.78 18.83 33.55 29.33-10-3.06-22.5-7.56-27.44-12.12 0 0 23.14 23.31 44.26 24.89.72.05 1.34.06 1.91.05 6.49 4.3 10.88 7.07 10.88 7.07z"/></g><g id="chair_and_stuff"><path class="st9" d="M1241.66 733.84l47.47 32.04 9.5-5.93-52.22-33.24z"/><path class="st9" d="M1286.13 761.76l5.25-5.89c1.66-1.87 4.46-2.22 6.76-.85l8.61 5.12c3.14 1.87 4.07 6.08 1.93 8.74l-4.75 5.91c-1.6 1.99-4.43 2.45-6.8 1.11l-9.1-5.14c-3.34-1.87-4.28-6.33-1.9-9zm-69.39-58.39h33.23v237.89h-33.23z"/><path class="st19" d="M1252.34 930.5c0 5.72-3.82 10.24-8.21 9.63-2.59-.36-5.8-.51-9.62-.19-4.95.41-9.27.93-12.62 1.4-4.02.56-7.52-3.51-7.52-8.74V784.87h37.98V930.5z"/><path fill="none" stroke="#273150" stroke-width="3" stroke-linecap="round" stroke-linejoin="round" stroke-miterlimit="10" d="M1243.64 765.88v12.66"/><path fill="#273150" stroke="#273150" stroke-width="5" stroke-miterlimit="10" d="M1242.85 809.79v107.47"/><path class="st3" d="M614.32 990.17l-17.54-13.97 46.65-145.36 19.09 10.72z"/><path class="st22" d="M643.43 830.84l100.54-2.12 20.53 9.62-101.98 3.22z"/><path class="st2" d="M764.5 838.34L722.72 979.3l-108.4 10.87 48.2-148.61z"/><path class="st19" d="M1137.89 721.52l55.78 5.74c13.54 1.39 25.44-7.73 25.44-19.5v-11.8c0-11.82-10.15-31.24-23.74-29.77l-57.63 16.35c-11.38 1.24-19.91 9.59-19.91 19.48.01 9.94 8.62 18.32 20.06 19.5z"/><path class="st14" d="M1318.23 721.06l-114.54 6.91c-15.45.93-28.49-11.35-28.49-26.83v-8.81c0-15.02 12.31-27.12 27.32-26.87l114.54 1.91c14.76.25 26.56 12.35 26.43 27.11-.12 14.11-11.16 25.73-25.26 26.58z"/><path class="st14" d="M1324.04 710.38s-52.58-5.82-63.47-20.06 46.2-10.29 46.2-10.29c14.87.25 24.82-11.01 31.06 3.75 5.96 14.13-.06 25.75-13.79 26.6z"/><circle class="st15" cx="1175.78" cy="981.69" r="18.36"/><circle class="st15" cx="1306.64" cy="976.24" r="21"/><path class="st9" d="M1180.6 980.29s-.12.95 7.71-1.18c8.24-2.24 10.88-3.37 11.14-4.95.33-1.97-1.01-6.66 1.85-7.71l25.12-8.51c4.27-1.25 8.68-3.03 13.05-2.18 0 0 50.52 13.55 56.27 14.56s3.76 7.45 6.69 8.24c5.13 1.4 11.83.97 11.83.97l2.4-19.87-91.31-21.08-45.39 25.51.64 16.2z"/><path class="st19" d="M1252.75 940.46s-54.33 20.74-64.05 23.33c-4.67 1.24-5.04 5.28-5.34 8.26l-.23 2.28c-.36 3.59-.51 6.74-4.08 6.26l-21.87-3.14a6.37 6.37 0 0 1-5.51-6.31c0-7.48 4.98-14.05 12.18-16.06 19.37-5.41 54.05-21.47 54.05-21.47l34.85 6.85z"/><path class="st19" d="M1216.04 942.64s75.36 18.08 85.32 19.51c4.98.71 8.71 5.07 10.27 8.49 1.56 3.42-.92 9.4 2.65 8.91l17.57-.74c3.16-.43 5.29-4.94 5.29-8.13 0-7.48-3.58-14.05-10.78-16.06-19.37-5.41-78.76-21.14-78.76-21.14l-31.56 9.16z"/><path fill="#aa4928" d="M657.5 996.14l-21.77-17.04 55.93-179.74 23.65 13.01z"/><path class="st12" d="M691.66 799.36l123.94-3.7 25.41 11.64-125.7 5.07z"/><path fill="#ee844e" d="M841.01 807.3l-49.98 174.24-133.53 14.6 57.81-183.77z"/><path class="st12" d="M677.54 1021.92l57.59-9.21-.38-11.88-57.59 9.21z"/><ellipse transform="rotate(-1.812 678.009 1016.456)" class="st13" cx="677.42" cy="1015.99" rx="4.04" ry="5.95"/><ellipse transform="rotate(-1.812 735.323 1007.24)" class="st12" cx="734.7" cy="1006.79" rx="4.04" ry="5.95"/><path class="st12" d="M629.59 1008.57l32.52 8.38 1.97-13.31-33.49-4.82z"/><path class="st12" d="M633.63 1003.35c-.25 2.73-2.05 5.1-3.99 5.24-1.92.14-3.23-1.96-2.93-4.66.29-2.66 2.04-4.93 3.92-5.11 1.91-.18 3.25 1.83 3 4.53z"/><path class="st13" d="M667.47 1009.88c.12 3.75-1.76 6.93-4.18 7.04-2.39.11-4.32-2.84-4.35-6.5-.03-3.59 1.79-6.6 4.09-6.78 2.33-.19 4.32 2.58 4.44 6.24z"/></g><g id="neck"><path d="M1208.78 380.1l-19.58 11.3c-7.38 4.26-17.07 1.3-21.64-6.61l-19.78-34.27c-4.57-7.91-2.29-17.78 5.09-22.05l25.67-24.19c7.38-4.26 10.98 11.58 15.55 19.5l19.78 34.27c4.57 7.92 2.29 17.79-5.09 22.05z" fill="#a76343"/><path d="M1209.03 365.82l-11.63 6.72c-4.39 2.53-11.42-1.44-15.71-8.87l-18.58-32.18c-4.29-7.43-9.7-18.55-5.32-21.08l22.15-12.66c4.39-2.53 7.58 12.61 11.87 20.04l17.38 29.99c4.3 7.43 4.22 15.51-.16 18.04z" fill="#aa6345"/><path class="st27" d="M1167.57 384.79l-19.78-34.27c-4.57-7.91-1.86-18.03 6.06-22.6l20.99-12.12c7.91-4.57-2.7 76.9-7.27 68.99z"/></g><g id="right_hand_hammer"><path class="st27" d="M1159.3 491.59s-28.61-24.71-48.11-33.81c-14.19-6.62-27.31 5.2-24.71 18.2 2.18 10.89 55.91 63.71 65.01 72.82 9.1 9.1 13 28.61 40.31 9.1 27.31-19.5-5.2-49.41-32.5-66.31z"/><path class="st27" d="M1109.72 471.59s0-24.04-3.61-32.46c-3.61-8.41-19.23-21.34-25.24-24.94-6.01-3.61-13.12 9.59-10.9 16.69 1.5 4.81 5.74 12.2 11.15 24.82 5.4 12.62 17.18 22.5 28.6 15.89z"/><path class="st13" d="M1112.2 499.65l-21.89 12.43-37.14-67.95-14.54-29.69-14.03-22.37 19.67-10.03 11.39 22.27 18.96 30.98z"/><ellipse transform="rotate(-29.923 1101.33 505.794)" class="st22" cx="1101.24" cy="505.74" rx="12.81" ry="3.65"/><path class="st27" d="M1041.96 430.74c-5.94.51-7.21 6.75-5.21 11.16s5.32 4.18 11.98 5.02c8.47 1.07 22.27 1.78 23.26-2.34.99-4.13-.6-6.35-10.66-10.52-3.45-1.43-13.43-3.83-19.37-3.32z"/><path class="st27" d="M1050.22 444.43c-3.56-.94-6.82 2.96-5.34 6.39 1.44 3.34 2.94 6.62 3.74 7.8 1.34 1.97 14.78 2.38 22.06 2.46 2.51.03 4.66-2.15 4.68-4.74l.02-1.96c.02-1.96-1.2-3.61-3.01-4.09l-22.15-5.86z"/><path class="st27" d="M1055.11 467.14l1.24 1.74c.99 1.39 2.47 2.11 3.9 1.9l13.59-1.98c2.54-.37 4-3.46 3.06-6.48-.68-2.17-2.43-3.64-4.29-3.62l-14.83.23c-3.45.07-5.02 4.91-2.67 8.21z"/><path class="st27" d="M1061.47 472.89l1.27 3.35a3.667 3.667 0 0 0 3.06 2.49s6.76.63 10.13.21c3.37-.42 4.84-2.32 3.57-6.32-1.27-4.01-4.85-4.64-9.28-4.22-4.42.42-8.42 1.05-8.75 4.49zm14.39-60.87c-8.32-1.91-14.53.99-27.11 6.05-7.83 3.15 2.59 13.65 9.89 12.92 7-.7 13.71-1.79 16.56-1.63 6.85.35 11.91-14.76.66-17.34z"/><path class="st9" d="M1021.22 350.86c9.51-4.15 34.94 4.03 46.19 8.03 1.85.66 2.86 2.61 2.35 4.52l-.94 3.46s-15.83-2.91-23.88-3.87c-5.48-.66-9.8 3.3-12 5.9l-11.72-18.04z"/><path class="st14" d="M986.05 375.27l13.27-8.3a4.262 4.262 0 0 0 1.95-2.91l1.18-7.13c.2-1.19.9-2.25 1.93-2.9 3.97-2.52 14.55-9.03 23.73-13.03 10.39-4.53 38.17 4.4 50.45 8.77 2.02.72 3.13 2.85 2.56 4.93l-1.02 3.78s-17.29-3.18-26.08-4.23c-5.99-.72-10.71 3.61-13.11 6.44-1.11 1.31-2.63 4.16-1.85 5.65l6.69 12.65c1.08 2.05 1.57 3.59-.53 4.67l-21.45 10.96c-1.83.93-1.53.76-2.74-.85l-7.16-9.61c-1.2-1.62-5.93-2.44-7.76-1.5l-12.27 6.27c-1.98 1.01-4.39.33-5.5-1.55l-3.76-6.42c-1.11-1.96-.47-4.47 1.47-5.69z"/><path class="st13" d="M1037.4 391.72c-5.29 2.97-10.46 3.99-11.54 2.28-1.08-1.71 2.83-4.51 8.13-7.48s9.97-4.97 11.04-3.27c1.08 1.71-2.34 5.5-7.63 8.47z"/><path class="st14" d="M967.22 386.1c.19 4.16 1.68 10.72 8.61 14.39 1.84.97 2.91 1.69 4.7.56l9.99-6.33c2.28-1.43 3.02-4.43 1.66-6.7l-6.81-11.35c-1.36-2.27-4.3-2.95-6.58-1.52l-9.89 6.27c-1.85 1.18-1.78 2.48-1.68 4.68z"/></g><g id="left_leg"><path class="st15" d="M1080.11 957.25c4.21 18.68 4.16 36.38 3.96 42.93a3.094 3.094 0 0 1-2.72 2.99c-11.11 1.48-54.57 7.15-69.92 7.6-12.87.38-45.81-1.3-55.9-4.29-4.64-1.37-6.88-14.41-8.1-22.52-1.61-10.68 2.86-20.34 21.16-26.43 18.25-6.07 43.92-2.37 43.92-2.37s66.13-4.44 67.6 2.09z"/><path class="st17" d="M991.06 952.8s7.5-.83 11.56 11.13m.04-10.7s10.28-1.67 13.34 11.09m-1.3-10.88s10.32-1.04 12.55 11.99"/><path class="st18" d="M955.52 1006.48s-.7 5.23 1.31 5.77c4.09 1.09 25.8 2.76 54.69 1.7 21.14-.78 23.05-1.85 34.43-1.52 19.94.58 35-2.1 35.95-2.26.95-.16 1.59-3.68.66-7.11-.34-1.24-24.27 4.95-73.73 6.24-37.71 1-53.31-2.82-53.31-2.82z"/><path class="st12" d="M1006.08 948.32s10.62 13.01 29.9 18.5c19.54 5.56 49.25 3.97 49.25 3.97l15.1-25.5 20.45-157.38s23.76-118.59-12.99-130.02c-24.78-7.7-50.83-10.48-57.66 17.93-4.9 20.36-30.74 135.84-30.74 135.84l-2.43 76.22s-15.16 42.3-15.34 43.8c-.61 4.83 4.46 16.64 4.46 16.64z"/><path d="M1281.05 595.04s40.58-19.61 52.22 27.17-30.85 48.79-30.85 48.79-70.41 14.32-113.01 18.6c-32.84 3.3-116.58 29.9-128.2-8.94-6.96-23.27 9.98-41.1 34.51-47.16s185.33-38.46 185.33-38.46z" fill="#feed7f"/><path class="st12" d="M1299.57 641.03c8.07-10.67 16.53-21.73 16.53-21.73 1.24-35.79-47.45-21.16-47.45-21.16s-128.26 22.16-180.58 37.32c-34.9 10.11-50.93 70.74 3.04 70.46 27.58-.14 148-22.75 148-22.75s59.77-23.77 72.47-45.01c1.55-2.6-5.89 2.63-12.01 2.87z"/></g><g id="torso"><path class="st18" d="M1186.75 353.27c8.13-5.17 33.27-10.35 42.88-6.65s60.66 73.57 79.51 120.14c10.05 24.83 27.51 131.77 27.51 142.86 0 11.09-71.01 20.6-71.01 20.6s-83.69-15.25-94.78-46.29c-4.48-12.54 3.86-19.78 2.22-33.27-2.43-19.9-14.07-46.8-18.48-70.6-7.39-39.92-20.02-71.94-7.89-92.9 8.13-14.05 31.91-28.72 40.04-33.89z"/><path d="M1186.75 353.27c2.93-1.86 43.25 17.37 43.25 17.37l19.22 22.92s42.03 63.44 48.53 94.34c8.13 42.28 20.33 132.12 20.33 132.12s-11.74 3.08-21.44 5.03c-10.99 2.21-31 5.17-31 5.17-10.48-1.99-36.8-7.6-58.61-18.02-16.12-7.71-29.37-18.11-34.08-31.3-4.48-12.54 1.77-16.75.12-30.24-2.43-19.9-14.07-46.8-18.48-70.6-7.39-39.92-20.02-71.94-7.89-92.9 8.14-14.05 31.92-28.72 40.05-33.89z" opacity=".5" fill="#209bc7"/><path class="st18" d="M1295.38 495.59l11.03 53.6s-9.7-14.42-10.93-27.72c-1.24-13.29-.1-25.88-.1-25.88z"/><path class="st30" d="M1173.81 369.9s20.7-5.91 31.05-2.96c10.35 2.96 31.79 36.22 39.92 61.36s3.7 36.96-13.31 40.66c-17 3.7-24.4 9.61-49.53-14.79-25.13-24.39-42.13-68-8.13-84.27z"/><path class="st27" d="M1217.98 434.4c6.65 3.7 22.36 38.26-7.21 37.52-13.48-.34-39.14-26.05-42.14-36.96-1.7-6.17-7.79-12.44-5.17-13.31 9.98-3.33 47.87 9.06 54.52 12.75z"/><path class="st19" d="M1136.85 405.39l10.72-12.32s5.17 41.15 17.37 57.79 44.36 37.33 44.36 37.33l35.48 74.67-1.37 44.6c-3.31 9.94-20.75 12.65-29.57 18.31l-82.06 28.76c-.86.54-13.31 56.92-13.31 56.92l-3.2 40.41s-16.86-.49-61.22-4.93c-44.36-4.44-93.04-19.22-93.04-19.22l31.05-122.72 178.8-21.07s-2.83-.47-4.41-7.37c-3.47-15.19-8.29-48.77-15.92-86.89-11.09-55.44-13.68-84.27-13.68-84.27z"/><path class="st31" d="M1144.22 396.06c7.05-28.19 42.82-45.53 74.69-54.49m4.74-.25s2.23-12.81 8.14-12.07c5.91.75 5.11 11.24-8.14 12.07z"/><path class="st31" d="M1220.83 342.88s6.49-7.11.93-11.32c-5.55-4.21-7.71 1.81-.93 11.32zm1.68-.87s10.79 5.33 11.72 14.35m-12.9-14.01s4.67 15.53-.71 23.51m19.73 196.74s43.62.25 85.76-6.41"/><path class="st31" d="M1323.88 556.2s-3.7 8.87 3.7 12.57 5.18-5.18-3.7-12.57z"/><path class="st31" d="M1340.15 560.39c.25-3.7-10.35-8.38-15.52-5.17-5.18 3.2 15.27 8.86 15.52 5.17zm-17.25-2.96s16.26 8.38 15.77 25.14m-13.55-24.89s4.19-6.41 13.06-5.91"/></g><g id="left_arm"><path class="st30" d="M1180.47 372.86s-29.57 0-35.48 22.18c-5.91 22.18-14.54 65.08-15.52 75.41-1.48 15.52-22.92 42.14-26.61 68.01-3.7 25.87 6.08 36.67 22.18 43.99 36.59 16.63 47.31-46.2 51.75-62.47 4.44-16.26 23.66-49.53 36.96-78.36s-.02-72.46-33.28-68.76z"/><path class="st33" d="M1125.02 582.44c36.59 16.63 47.31-46.2 51.75-62.47 4.44-16.26 23.66-49.53 36.96-78.36 7.63-16.54-20.38 34.08-46.28 79.59-5.9 10.37-47.19 59.08-42.43 61.24z"/><path class="st34" d="M1136.11 552.77c-5.21-14.48-27.77-21.87-47.66-23.21-19.29-1.31-55.65 10.57-107.18 11.51-16.06.29-25.51 34.28-.64 38.04 29.03 4.39 113.61 13.65 122.22 14.02 8.6.37 42.66-14.21 33.26-40.36z"/><path class="st33" d="M1154.29 551.75c-.9-2.16-3.23-4.95-4.79-6.27-1.18 1.56-13.68 21.68-26.42 27.28-18.48 8.13-44.99 10.84-44.99 10.84s-95.59-1.41-70.46-.54c29.34 1.02 109.68 13.25 118.27 12.62 8.58-.63 40.74-19.04 28.39-43.93z"/><path class="st34" d="M990.83 559.21c5.51-6.2-3.3-25.55-2.35-33.89s-8.37-16.53-14.42-26.17c-6.05-9.64-6.3-8.98-15.14-12.44-8.84-3.46-16.46-5.31-13.62 4.74 2.84 10.05 11.38 13.01 11.38 13.01s4.34 12.47 8.24 16.86c4.73 5.32-13.15 30.07-5.84 40.28 7.32 10.22 23.07 7.37 31.75-2.39z"/><path class="st34" d="M967.51 520.48s-19.8-1.31-23.6-2.64c-3.79-1.33-9.84-5.33-13.61-7.25-1.89-.96-8.43-14.09-12.46-15.36s-9.21 3.84-9.64 6.8c-.86 5.93 4.74 16.47 9.7 20.82 4.97 4.35 5.73 6.77 17.05 12.54 11.32 5.78 16.84 12.53 30.97 11.26s11.7-22.23 1.59-26.17z"/><path class="st34" d="M912.98 511.54c-6.6-.44-4.67 18.88-1.29 20.98 1.87 1.16 10.9 8.39 10.9 8.39l-2.92 3.87c-.73 1.72.33 5.2 1.74 6.51l6.56 6.11 3.52 14.83s6.35 6.09 21.12 6.13c17.93.05 26.86.97 30.51-11.41s-63.54-54.97-70.14-55.41z"/></g><g id="head"><path d="M1120.68 228.78c-14.67-3.49-46.99.4-53.29 27.76-4.28 18.61 17.08 82.49 27.1 97.52 14.24 21.36 28.88 15.43 54.75 4.93 26.92-10.92 38.37-31.92 34.19-54.08s-16.95-65.23-62.75-76.13z" fill="#7a462f"/><path class="st30" d="M1116.57 265.31c-5.98 26.48-6.05 40.7-.58 54.6 5.46 13.9 27.26 40.18 39.55 30.9 6.03-4.55 13.36-9.61 17.15-19.56 2.1-5.5-2.04-20.44-6.86-29.54-8.12-15.37-43.3-62.82-49.26-36.4z"/><path class="st19" d="M1066.93 258.45s8.35 7.79 50.9-10.81c.91-.4 6.33 34.81 20.79 45.4 5.28 3.87 2.52-16.39 9.15-11.37 11.01 8.34 19.11 21.35 19.11 21.35l8.7 28.48s43.52-11.08 29.72-55.74c-13.69-44.33-31.54-91.07-98.13-56.6-35.07 18.15-40.5 25.71-40.24 39.29z"/><path class="st32" d="M1130.06 230.99c2.1 7.72 28.51 21.57 28.51 21.57l30.66 24.53s11.39 49 15.12 13.1c2.03-19.58-15.45-69.62-43.27-78.73-14.77-4.84-37.02-2.53-31.02 19.53z"/><ellipse transform="rotate(-6.212 1153.14 285.662)" class="st30" cx="1152.97" cy="285.63" rx="14.27" ry="23.96"/><ellipse transform="rotate(-22.135 1087.568 295.968)" class="st9" cx="1087.62" cy="295.99" rx="4.43" ry="7.38"/><path d="M1078.28 278.77s7.42-3.14 14.55 1.77" fill="none" stroke="#102441" stroke-width="2" stroke-linecap="round" stroke-linejoin="round" stroke-miterlimit="10"/><path class="st32" d="M1130.75 237.11s19.2 14.25 26.71 16.09c0 0-12.97 3.04-26.71-16.09z"/><circle cx="1155.39" cy="305.18" r="6.37" fill="#f3e7d7"/></g><g id="table_1_"><path class="st19" d="M734.82 996.52l-15.07-5.3-10.18-365.16h25.25z"/><path class="st9" d="M734.82 843.42l-19.01-4.35-6.24-213.01h25.25z"/><path class="st14" d="M757.15 994.01l-22.33 2.51V624.25h28.9z"/><path class="st14" d="M757.15 994.01l-22.33 2.51v-153.1l25.66-40.75z"/><path class="st3" d="M736.47 632.96l8.12 50.63 139.83 7.92 123.64-5.44 5.6-59.44z"/><path class="st2" d="M736.47 632.96l8.01 50.63 137.83 7.92-2.73-61.85zm143.34.79l.99 22.68 130.58-6.17 2.02-23.63z"/><path class="st19" d="M846.45 1037.27l-24.43-6.87-20.67-404.1h39.17z"/><path class="st9" d="M841.7 837.88l-29.27-3.56-11.08-208.02h39.17z"/><path class="st14" d="M866.49 1035.11l-20.04 2.15-9.49-409.28h31.64z"/><path class="st14" d="M867.81 783.29l-26.11 54.59 4.75 199.38 20.04-2.15z"/><path class="st19" d="M1052.9 1025.13l-18.14-5.79-15.97-392.21 29.75-.82z"/><path class="st9" d="M1050.12 775.47l-25.65-3.79-5.68-144.55 29.75-.82z"/><path class="st14" d="M1075.11 1023.27l-22.21 1.66-4.36-398.62 29.29-1.34z"/><path class="st14" d="M1075.11 1023.27l-22.21 1.66-2.78-249.46 26.97-33.33z"/><path class="st19" d="M879.68 639.29l-214.36-6.27v-38.05l214.36-6.72z"/><path class="st14" d="M879.68 639.29l260.17-7.59v-44.32l-260.17.89z"/><path class="st14" d="M998.04 632.52l141.07-5.37.88-32.7-103.72 1.46z"/></g></svg>