<svg xmlns="http://www.w3.org/2000/svg" width="1920" height="1080"><circle fill="#FFEBCB" cx="960" cy="553.498" r="301.211"/><path fill="#AA918B" d="M807.498 546.281c-4.262 4.566-16.019 12.6-16.422 36.51-.402 23.908 34.181 105.643 41.405 137.865 5.218 23.273 48.373 22.871 51.854-10.164 2.755-26.15.711-82.721 1.323-113.861 1.259-63.943-62.425-67.222-78.16-50.35z"/><path fill="#AA918B" d="M747.832 532s-24.663 25.576-26 55.332c-1.046 23.277 28.759 50.197 64 46.002 28-3.334 44.835-7.652 68-13.334 35.333-8.666 34.704-59.908 19.333-86.667-18.001-31.334-92-38.667-125.333-1.333z"/><path fill="#9E8582" d="M851.165 642.666c0 15-.667 93.334-.667 93.334s-13.06 3.221-19.529-21.391c-6.471-24.609-18.427-54.572-28.034-83.635 0 0 35.563.357 52.896-32.977-1.999 12.003-3.999 27.337-4.666 44.669z"/><path fill="#AA918B" d="M740.253 558.811c-4.646 4.18-17.06 11.148-19.557 34.932-2.496 23.783 24.793 108.229 29.167 140.965 3.159 23.641 46.185 27.021 52.546-5.582 5.035-25.811 7.955-82.342 11.293-113.311 6.856-63.588-56.296-72.434-73.449-57.004z"/><path fill="#E4A445" d="M857.515 410.751c-1.451-7.996 4.372-14.199 11.938-15.964 6.58-1.535 16.042 1.052 20.549 8.713 5 8.5 8.62 20.262 19.966 35.882 5.883 8.1 13.271 17.057 23.211 26.913 18.578 18.422-2.94 34.872-19.063 25.862-21.028-11.748-50.208-46.185-56.601-81.406z"/><path fill="#9B949A" d="M944.646 456.854s-13.574 1.218-15.274 17.782c-1.701 16.568 8.596 25.067 16.433 21.229 8.639-4.229 11.338-9.899 11.189-20.578-.141-9.902-4.358-18.906-12.348-18.433z"/><path fill="#F0B39C" d="M945.229 493.295c8.627-3.702 28.793-14.096 40.211-33.654 7.529-12.9-1.461-25.602-18.236-13.918-14.358 10.001-30.833 14.394-39.525 17.75-17.767 6.865-13.646 24.779-7.74 29.237 6.186 4.673 15.411 4.825 25.29.585z"/><path fill="#DD917A" d="M944.597 493.55c-3.653-1.938-8.23-6.407-9.224-16.169-.874-8.599 2.69-14.869 6.288-18.896-5.514 2.046-10.411 3.607-13.983 4.988-17.767 6.865-13.646 24.779-7.739 29.237 6.054 4.573 15.019 4.805 24.658.84z"/><path fill="#E4A445" d="M944.953 457.282s-9.519 2.364-14.666 2.771c-6.782.538-12.207 3.147-15.488 6.338-5.771 5.614-7.898 20.222 1.12 26.86 13.854 10.199 29.141 2.887 29.141 2.887-.957.294-12.305-1.442-13.937-17.508-1.67-16.439 13.83-21.348 13.83-21.348z"/><path fill="#F2E4E4" d="M946.019 456.78s-.842-1.825-3.397-1.134c-2.335.632-5.183 2.719-6.918 2.739-1.406.019-3.57 1.709-4.508 2.348-4.979 4.807-7.348 10.429-7.102 19.047.199 6.97 3.454 15.558 7.781 18.883 2.418 1.313 3.838.74 5.242.007 2.142-1.117 4.436.597 7.288-1.394 1.312-.914.651-1.139.651-1.139-.955.294-12.304-1.442-13.936-17.508-1.667-16.438 14.899-21.849 14.899-21.849z"/><path fill="#F0B39C" d="M965.543 451.047s2.816-9.85 5.271-17.054c2.692-7.904 9.862-16.102 9.862-16.102s6.847 6.57 10.675 11.408c3.832 4.84 5.318 8.278 5.318 8.278s-2.544 4.307-4.01 9.666c-1.466 5.36-6.397 13.411-11.323 14.793"/><path fill="#DD917A" d="M983.5 426.063c.826-.113 2.241-.95 4.75-3.438 3.056-3.029 4.928-5.075 6.677-6.52 3.878-3.196-.067-8.264-5.885-6.053-3.087 1.172-6.518 4.539-9.417 9.07-1.961 3.069-1.81 7.738 3.875 6.941z"/><path fill="#DD917A" d="M987.379 414.108s.692 3.004 4.47 3.599c4.386.69 10.758 1.026 14.324.23 2.733-.61 3.499-3.124 2.955-4.894-.383-1.245-1.934-1.429-4.388-1.796-1.653-.25-6.785-1.078-9.304-1.547-4.302-.8-9.164-.005-8.057 4.408z"/><path fill="#F0B39C" d="M982.901 426.521c.835-.044 3.037-1.008 5.108-3.864 1.983-2.73 4.693-5.536 6.477-6.943 2.616-2.07 1.063-7.133-4.751-4.921-3.086 1.174-7.745 4.564-10.646 9.097-1.96 3.063-.216 6.834 3.812 6.631z"/><path fill="#F0B39C" d="M989.31 414.3s.43 2.377 3.295 2.665c3.952.397 10.952 1.255 13.944-.132 2.043-.945 2.071-3.975.438-4.499-.978-.312-9.102-1.455-11.349-1.917-3.843-.785-7.263-.187-6.328 3.883z"/><path fill="#DD917A" d="M993.353 429.431c5.084-1.762 10.039 1.021 10.039 1.021 1.316.798 1.767 1.649 1.862 4.787.04 1.261.154 2.252.461 3.588.616 2.666 1.206 3.501.831 4.696-.408 1.298-4.083 1.535-5.575-.708-1.515-2.278-3.104-5.967-3.354-7.118-1.353-.1-2.04-.047-2.725-.105 0 0-2.639-.913-3-2.806-.471-2.461 1.461-3.355 1.461-3.355z"/><path fill="#F0B39C" d="M1003.265 430.628s-4.828-2.959-9.912-1.197c0 0-2.243.697-1.887 3.178.299 2.088 3.24 2.343 3.24 2.343 1.234.104 4.698.268 6.234.508 2.209.346 5.158-2.711 2.325-4.832z"/><path fill="#F0B39C" d="M998.277 435.867s1.479 4.19 2.991 6.471c1.491 2.242 4.096 1.972 4.802.811.454-.749-.323-1.833-.77-4.531-.544-3.32-.735-5.249-.735-5.249s-.045-2.9-2.772-3.29c-2.722-.391-4.612 1.734-3.516 5.788z"/><path fill="#DD917A" d="M989.086 424.51c5.676-1.967 11.202 1.141 11.202 1.141 1.47.889 1.971 1.838 2.079 5.339.044 1.404.172 2.513.515 4.001.686 2.974 1.344 3.904.925 5.239-.454 1.447-4.555 1.716-6.217-.788-1.688-2.543-3.465-6.655-3.744-7.941-1.508-.109-2.276-.053-3.043-.118 0 0-2.938-1.017-3.345-3.131-.523-2.745 1.628-3.742 1.628-3.742z"/><path fill="#F0B39C" d="M1000.147 425.843s-5.388-3.3-11.063-1.333c0 0-2.5.777-2.104 3.542.336 2.331 3.614 2.616 3.614 2.616 1.376.115 5.243.298 6.958.566 2.467.388 5.76-3.024 2.595-5.391z"/><path fill="#F0B39C" d="M994.584 431.69s1.647 4.674 3.337 7.218c1.663 2.502 4.569 2.199 5.354.9.509-.835-.355-2.045-.853-5.056-.608-3.705-.826-5.854-.826-5.854s-.049-3.236-3.091-3.669c-3.037-.435-5.145 1.937-3.921 6.461z"/><path fill="#DD917A" d="M985.363 421.178c6.016-2.085 11.879 1.206 11.879 1.206 1.558.944 2.086 1.951 2.203 5.664.047 1.491.181 2.665.544 4.242.729 3.15 1.427 4.141.981 5.556-.48 1.536-4.831 1.818-6.594-.837-1.791-2.693-3.672-7.057-3.97-8.42-1.602-.114-2.416-.056-3.227-.124 0 0-3.117-1.08-3.547-3.317-.551-2.913 1.731-3.97 1.731-3.97z"/><path fill="#F0B39C" d="M997.092 422.594s-5.713-3.5-11.729-1.416c0 0-2.651.825-2.229 3.756.355 2.472 3.833 2.771 3.833 2.771 1.458.124 5.562.316 7.375.602 2.614.412 6.101-3.203 2.75-5.713z"/><path fill="#F0B39C" d="M991.192 428.791s1.748 4.959 3.539 7.653c1.764 2.651 4.842 2.332 5.679.958.536-.888-.382-2.169-.906-5.362-.646-3.928-.874-6.207-.874-6.207s-.055-3.43-3.279-3.89c-3.219-.462-5.455 2.05-4.159 6.848z"/><path fill="#DD917A" d="M975.521 433.688s2.929-.555 6.955-4.085c3.891-3.407 6.143-5.824 8.938-5.515 2.901.322 4.547 2.913 2.404 5.207-2.146 2.293-6.18 6.648-6.565 8.209-1.167 4.683-3.415 7.632-7.285 10.971"/><path fill="#F0B39C" d="M975.046 433.483s3.29.443 7.411-2.979c3.399-2.824 5.423-5.414 8.313-5.458 2.066-.029 4.359 2.067 2.219 4.359-2.146 2.295-6.178 6.647-6.567 8.211-1.166 4.684-3.881 8.376-6.809 12.427m-154.882-93.051s-6.227 24.243-16.104 28.673c0 0-33.771 8.395-43.22 20.315-20.574 25.961 10.725 87.663-29.519 148.295-10.97 16.529 87.973 52.691 121.979 16.457 0 0-12.937-41.335 3.577-83.705 2.425-6.225 19.853-7.87 18.241-30.942-1.011-14.492-.534-27.364 2.146-37.559 1.902-7.229-.457-24.123-13.951-26.828-13.493-2.704-24.115-.813-14.961-17.713"/><path fill="#D17C64" d="M850.05 380.517c.535-1.792 1.469-3.938 2.873-6.529l-28.191-16.994s-1.62 6.304-4.518 13.07c3.136 10.547 21.737 18.774 29.836 10.453z"/><path fill="#E7D8D8" d="M808.147 385.797s2.479 11.438 12.685 29.203c4.522 7.875 12.394 19.593 17 28.5 1.644 3.176 17.442-26.85 14.671-55.556 0 0 6.439 2.146 14.309 3.577 7.487 1.36 14.218 5.051 15.383 13.593 1.365 10.022-.018 32.157 1.072 44.354 1.787 20.031-5.545 27.216-13.234 33.981-7.691 6.765-8.001 67.624-7.154 71.542 5.725 26.469-18.601 50.078-72.972 43.639-32.984-3.904-63.177-28.988-56.52-43.639 5.366-11.807 9.501-28.18 12.914-39.449 8.959-29.594 4.911-54.73 5.151-71.262.537-37.022 13.73-41.14 25.463-46.866 11.731-5.726 31.232-11.617 31.232-11.617z"/><path fill="#DDD0D0" d="M883.266 449.469c-.193-2.188-.31-4.7-.376-7.398-1.823-11.238-3.188-18.702-2.755-30.774.302-8.453-.513-13.688-4.657-16.635a19.56 19.56 0 0 0-3.063-1.555 19.84 19.84 0 0 0-2.748-.772s2.5.333-4.5-.667c0 0 1.807 34.443-7.5 72.333-14 57-17.291 81.155-9.833 108 1.604 5.779 3.275 10.424 4.944 14.119 9.261-8.24 12.637-19.398 10.101-31.127-.847-3.918-.538-64.777 7.154-71.542 7.689-6.766 15.021-13.951 13.233-33.982z"/><path fill="#8CC4BA" d="M862.822 390.714c-5.942-1.313-10.319-2.771-10.319-2.771 2.772 28.706-13.027 58.73-14.671 55.556-4.606-8.907-12.478-20.625-17-28.5-10.205-17.767-12.685-29.203-12.685-29.203s-4.188 1.266-9.846 3.192c1.993 6.763 7.344 19.8 17.381 38.515 7.147 13.33 10.314 20.83 18.814 35.997 2.569 4.581 31.335-30.834 28.326-72.786z"/><path fill="#F9604B" d="M817.499 422.5c6.167 10.167 11.916 19.333 18.666 32.167 2.145 4.078 24.667-29 22.333-65-.141-.352-.792-.559-1.792-.917-1.072-.385-2.508-.914-3-1.063-1.183-.358-1.204.256-1.204.256 2.772 28.707-13.194 57.564-14.838 54.39-4.606-8.907-12.312-19.458-16.833-27.333-10.205-17.767-12.684-29.203-12.684-29.203s-.409-.491-1.629-.297c-1.651.264-4.275 1.308-4.563 2.063 1.526 5.261 5.128 17.765 15.544 34.937z"/><path fill="#DDD0D0" d="M813.736 488.355s17.259-9.931 34.323-.429c0 0 2.443 2.584.189 4.652-.592.542-2.268 1.177-3.778 1.129-4.188-.135-19.075-.555-27.315.833-11.084 1.871-7.242-4.27-3.419-6.185z"/><path fill="#FEBA4B" d="M863.165 390.666s7.307 35.443-2 73.333c-14 57-17.291 81.155-9.833 108 6.667 24 14.442 28.613 18.725 25.67 7.67-5.266 32.155-24.678 16.275-54.17-7-13-14.703-25.55-15-36-.199-7.012 1.045-11.44 4.294-18.785 5.494-12.418 14.738-19.604 12.29-36.742-2.503-17.525-4.828-25.396-4.281-40.678.409-11.471-1.214-17.034-10.469-18.962-.001.001-3.001-.666-10.001-1.666z"/><path fill="#E4A445" d="M865.499 493.666s3.391 7.784 5.854 18.098c-.485-7.618.752-15.09 4.273-23.049 1.057-2.387 2.251-4.58 3.475-6.688-4.603 6.973-6.603 7.973-13.602 11.639z"/><path fill="#FEBA4B" d="M806.701 387.41s9.658 33.624 6.438 65.815c-2.036 20.36-10.864 56.459-14.308 82.273-4.293 32.193.423 54.974 4 70 2.21 9.285-90.333 5.166-82.333-46.168 0 0 .421-14.604 17.333-37.333 21.333-28.667 12.234-63.982 12.726-83.62.715-28.613 17.278-46.128 56.144-50.967z"/><path fill="#E4A445" d="M781 518.5c-2.053-7.086-4.5-14-7.939-57.042.943-8.444 1.657-16.737 1.906-24.09.417-12.361-2.987-33.388-6.302-36.702-12 6.25-20.75 20.5-17.75 55 .998 18.478 1.232 47.097-13.083 66.333-16.913 22.727-17.333 37.333-17.333 37.333-4.795 30.77 26.529 44.57 51.923 48.695-7.401-17.2-10.689-37.001-8.948-67.549 5.859 7.932 13.066 15.393 20.168 16.844 14.979 3.061 3.335-18.215-2.642-38.822zm7.141-92.975s8.001 10.797 8.501 29.297c.338 12.479 1.834 22.5 4.5 52.5-21.017-53.228-13.001-81.797-13.001-81.797z"/><path fill="#E4A445" d="M801.466 599.543c-10.495 5.734-76.956-.172-81.228-38.174-.191 1.791-.824 2.547-1.324 4.297-.437 1.529-.275 2.691 0 4.25 7.028 39.85 85.938 44.08 83.917 35.584-.443-1.863-.905-3.85-1.365-5.957zm85.273-55.26c5.07 25.627-16.262 42.43-23.696 47.533a4.923 4.923 0 0 1-3.168.883c3.975 5.82 7.676 6.691 10.182 4.971 7.601-5.219 31.714-24.336 16.682-53.387zm-20.824-119.117s-2.25 27-3.75 34.75c1.5-1.25 3.667-4.583 5.667-15.583s3.333-17.417 6.833-17.917-8.75-1.25-8.75-1.25z"/><path fill="#FEC972" d="M860.665 381.666s5.833 31.583 5.156 42.108c-.204 3.173-.223 2.646.943 2.486 2.596-.354 7.151-.222 9.565 4.319 2.14 4.021 3.5 3.252 2.667-2.081-.647-4.141-.741-11.864-1.167-15.091-1-7.576-7.5-23.576-11.167-26.576-2.815-2.304-5.997-5.165-5.997-5.165z"/><path fill="#E4A445" d="M813.332 450.166s.833-14.333 4.833-33.5l-11.667-10 6.834 43.5z"/><path fill="#FEC972" d="M791.313 423.275s19.084-11.188 24.935-7.442c4.167 2.667 1.083-2.667 1.083-2.667s-9.992-20.418-7.5-28.167c2.493-7.749-1.477-8.364-2.821-6.911-1.344 1.453-8.428 5.162-11.221 7.328-2.793 2.167-4.476 37.859-4.476 37.859z"/><path fill="#472428" d="M876.665 326.833s.912 15.109 9.318 25.805c8.404 10.695 15.092 21.689 3.349 38.862-8.478 12.396-19.667 12.667-19.667 12.667s-1.861-5.167-8-10c-4.525-3.563-12-2.333-13.436-13.645-.393-3.092 2.479-7.847 3.205-10.979 1.749-31.772 25.231-42.71 25.231-42.71z"/><path fill="#DD917A" d="M876.875 330.375s2-2.75 4.25-.375-.458 19.667-7.958 19.667"/><path fill="#F0B39C" d="M882.373 316.339h-.013a35.708 35.708 0 0 0-.791-11.885c-4.575-19.241-23.881-31.13-43.122-26.554-17.834 4.241-29.341 21.14-27.286 38.909l-.19.001c-.203 17.698 6.882 38.058 9.697 44.307 3.714 8.252 26.045 16.651 34.775 14.271 5.383-1.467 9.378-3.845 13.335-7.854 5.693-5.774 7.572-12.146 8.583-19.048 1.581-10.813 4.854-30.761 4.979-31.947l.033-.2z"/><path fill="#D17C64" d="M855.457 341.875s4.708-.208 7.375 2.458c0 0 .5-1.833-.67-3.07-1.501-1.586-4.33-1.097-6.705.612z"/><path d="M869.206 328.413s-2.104.114-2 3.321c.104 3.185.179 4.794.289 6.372.127 1.79 2.839 2.901 3.762.118.741-2.222.884-5.406.508-7.071-.412-1.823-1.457-2.813-2.559-2.74zm-24.143.36s-2.104.113-2 3.32c.104 3.188.18 4.794.289 6.372.127 1.791 2.84 2.902 3.764.12.738-2.221.884-5.407.505-7.072-.41-1.823-1.455-2.811-2.558-2.74z" fill="#3A2D33"/><path d="M841.449 319.977c.104 1.874 4.494-.858 10.231-1.442 3.229-.329 2.688-2.786-.1-3.469-3.177-.781-6.698.521-8.794 2.489.002-.001-1.303 1.278-1.337 2.422zm31.888 2.464c-1.134-.64-2.854-1.285-5.898-2.343-3.229-1.118-3.34-4.179-.021-4.261 2.583-.063 5.917 2.217 7.245 4.16 1.27 1.858 1.041 3.776-1.326 2.444z" fill="#472428"/><path fill="#D17C64" d="M847.276 352.212s3.076 2.536 8.403 4.089c1.939.564 3.739.91 6.657.927 0 0-1.83 3.274-8.05 1.572-2.131-.584-4.282-1.973-5.481-3.499-1.447-1.843-1.529-3.089-1.529-3.089z"/><path fill="#472428" d="M819.319 328.748s31.162-9.857 30.679-36.583c0 0 4.699-32.369-28-22.333-20.699 6.353-28.572 27.058-23.29 52.355 5.284 25.3 20.611 6.561 20.611 6.561z"/><path fill="#472428" d="M797.665 313.666s-.367 8.373-12.4 7.768c0 0-.432 3.39 3.725 5.641 0 0-28.34 9.342-15.571 36.125 0 0-4.36 22.109 21.488 28.962 0 0 16.086 3.521 18.374 11.211 4.048-1.246 16.819-24.002 13.08-38.927 0 0 .609-9.612-9.193-18.777-12.354-11.546-6.469-20.726-5.5-24.5m80.431-23.765c-10.322-9.618-14.939-10.012-21.101-20.571-7-12-37.667-18-37.667 2 0 0-2.146 12.533 16 18.333 18.146 5.799 23.799 3.479 27.667 9.667 6.667 10.667 2.333 28.667 2.333 28.667s5.077-3.714 9.822-10.35c4.744-6.636 13.267-18.129 2.946-27.746z"/><path fill="#F0B39C" d="M822.954 330.511s-2.8-11.56-10.357-9.06c-7.035 2.326-6.291 20.109 7.428 24.707"/><path fill="#DD917A" d="M820.187 331.925c-.414-1.468-3.546-7.176-6.616-5.095-5.369 3.638.061 13.111 4.104 14.009 4.049.897 2.925-7.446 2.512-8.914z"/><path fill="#DD917A" d="M820.153 332.128s-.531-.54-1.183-1.313c-.34-.382-.706-.824-1.102-1.273-.39-.456-.81-.91-1.236-1.334-.204-.225-.44-.396-.645-.609-.234-.155-.438-.368-.666-.515-.232-.127-.437-.335-.667-.425-.229-.102-.437-.277-.655-.341-.217-.075-.423-.168-.614-.253-.197-.058-.372-.104-.515-.146-.297-.09-.485-.159-.485-.159s.152-.097.451-.235c.148-.064.336-.16.561-.226.223-.044.483-.092.775-.117.296-.051.606.015.949.044.35.022.67.177 1.029.289.351.132.666.337 1.005.534.298.231.616.466.882.737a7.315 7.315 0 0 1 1.297 1.768c.325.61.536 1.216.657 1.75.266 1.062.162 1.824.162 1.824z"/><path fill="#472428" d="M850.165 296.166s.056.843.03 2.309a45.182 45.182 0 0 1-.524 6.061c-.404 2.493-1.084 5.398-2.277 8.396a32.909 32.909 0 0 1-2.149 4.507c-.83 1.499-1.828 2.945-2.928 4.319a28.632 28.632 0 0 1-3.66 3.779l-.996.837c-.353.253-.699.505-1.045.755-.681.516-1.418.932-2.12 1.366-1.446.806-2.895 1.479-4.313 1.97a25.49 25.49 0 0 1-4.057 1.075c-1.271.241-2.445.334-3.479.397-1.036.042-1.94.001-2.676-.019-1.479-.122-2.306-.253-2.306-.253s.802-.306 2.173-.732l2.419-.888c.915-.372 1.938-.764 3.011-1.275.545-.226 1.088-.519 1.649-.805.57-.269 1.129-.6 1.705-.929 1.156-.649 2.302-1.435 3.455-2.26 1.123-.876 2.261-1.789 3.318-2.833 1.057-1.041 2.102-2.131 3.031-3.329 3.841-4.703 6.536-10.441 8.473-14.882l1.313-3.063c.394-.927.732-1.735 1.013-2.401.569-1.338.94-2.102.94-2.102z"/><path fill="#A86346" d="M1261.21 553.5c0 166.35-134.85 301.21-301.21 301.21-109.44 0-205.229-58.36-257.96-145.66a295.595 295.595 0 0 1-11.03-19.91c-.409-.81-.81-1.62-1.22-2.438-3.98-8.07-7.62-16.34-10.88-24.8 53.75 9.42 104.08 12.06 138.66 9.817 169.96-10.96 287.56-63.18 315.858-201.489.973-4.739 1.83-9.579 2.592-14.529 2.738-17.86 4.091-37.07 3.979-57.7-.061-11.21-1.88-26.521-5.32-42.44v-.01c-.578-2.67-1.197-5.35-1.869-8.03-5.141-20.738-12.938-41.538-23.061-54.858.59.32 1.4.6 2.4.85C1201.32 345.8 1261.21 442.65 1261.21 553.5z"/><path fill="#995D48" d="M1134.68 355.55v.01a125.82 125.82 0 0 1 4.61 7.842 141.07 141.07 0 0 1 8.04 17.43c1.34 3.46 2.62 7.2 3.8 11.188 1.2 3.99 2.301 8.23 3.23 12.7 1.897 8.94 3.21 18.79 3.688 29.262.49 10.47.16 21.56-1.12 32.93-1.277 11.37-3.46 23.04-6.697 34.6-1.632 5.78-3.513 11.54-5.73 17.17-2.24 5.61-4.75 11.2-7.96 16.2-.81 1.24-1.66 2.45-2.59 3.5-.23.271-.47.51-.71.76l-.66.62-.46.352-.12.09c-.01.01-.02.01-.02.02l-.021.012-.239.158-.961.66c-2.56 1.761-5.147 3.683-7.38 6.103-.54.64-1.108 1.18-1.608 1.93-.5.7-1.062 1.438-1.381 2.09l-.551 1-.068.12-.119.229-.12.262-.25.51-1 2.03a145.595 145.595 0 0 1-4.28 7.92c-2.95 5.02-6.16 9.938-9.89 14.08.938-2.063 1.87-4.11 2.79-6.15 4.77-10.51 9.229-20.79 13.01-30.71 3.771-9.899 7.09-19.46 9.729-28.29.671-2.22 1.342-4.33 1.972-6.52.56-2.16 1.17-4.261 1.647-6.33.961-4.15 1.73-8.12 2.271-11.892 1.12-7.51 1.39-14.158 1.35-19.619-.06-5.131-.47-9.221-.859-12.109-.76 4.95-1.618 9.79-2.59 14.53-.119 4.8-.568 10.42-1.511 16.659-.54 3.659-1.319 7.521-2.27 11.561-.472 2.02-1.091 4.06-1.643 6.17-.59 2.061-1.289 4.26-1.948 6.45-2.631 8.858-5.859 18.2-9.602 28.069-3.729 9.841-8.14 20.039-12.88 30.539-1.188 2.631-2.39 5.29-3.59 7.961-.142.319-.32.722-.46 1.109-.149.4-.29.8-.399 1.28a5.68 5.68 0 0 0-.12.818c-.011.329-.061.722.189 1.369.12.32.41.763.859 1.04.221.15.431.223.659.29.21.05.38.063.579.07.65-.01.95-.17 1.262-.29 1.068-.521 1.641-1.05 2.279-1.6.602-.54 1.159-1.11 1.689-1.683 4.16-4.6 7.47-9.71 10.58-15.01 1.54-2.65 2.988-5.37 4.369-8.12l1.021-2.08.25-.52.13-.263v-.02s.011 0 .011-.01v-.013l.069-.117.561-1c.359-.73.762-1.19 1.142-1.73.34-.54.891-1.07 1.34-1.6 1.92-2.103 4.29-3.881 6.78-5.603l.938-.64.23-.17.311-.22.459-.353c.33-.29.711-.63 1.03-.938.29-.312.59-.619.86-.931 1.1-1.26 2.02-2.569 2.89-3.91 3.431-5.368 5.97-11.08 8.261-16.84 2.271-5.77 4.17-11.64 5.819-17.52 3.28-11.761 5.47-23.61 6.76-35.16 1.28-11.55 1.603-22.82 1.091-33.47-.511-10.65-1.91-20.682-3.87-29.78a156.133 156.133 0 0 0-3.351-12.94 146.45 146.45 0 0 0-3.939-11.398 146.012 146.012 0 0 0-8.278-17.78c-2.602-4.78-4.98-8.34-6.562-10.78-1.66-2.398-2.541-3.68-2.541-3.68l-.079.06 1.872 8.036zM955.42 687.5c.03.88-.25 1.63-.57 2.25-.68 1.22-1.56 2.04-2.45 2.78-.89.729-1.818 1.35-2.76 1.91-1.89 1.117-3.85 2.05-5.79 2.867-1.97.82-3.97 1.593-5.96 2.271-8 2.76-16.148 4.72-24.27 6.399-16.25 3.289-32.45 5.271-48.141 6.658-15.689 1.36-30.899 2.092-45.33 2.433-7.209.188-14.229.25-21.011.27-6.79.04-13.37-.147-19.64-.24-12.57-.25-24.141-.88-34.34-1.607-2.551-.15-5.021-.37-7.4-.58s-4.68-.41-6.88-.61c-4.42-.39-8.45-.87-12.11-1.238-7.18-.819-12.84-1.529-16.729-2.012-.49-.8-.971-1.607-1.45-2.42.47.05.979.11 1.53.17 3.91.46 9.63 1.143 16.91 1.933 3.64.35 7.67.8 12.068 1.17 2.19.18 4.48.369 6.86.56 2.37.2 4.83.4 7.38.54 10.18.66 21.64 1.22 34.2 1.46 6.3.08 12.819.26 19.59.2 6.771-.03 13.771-.101 20.96-.3 14.37-.37 29.53-1.13 45.15-2.521 15.608-1.408 31.71-3.408 47.8-6.699 8.03-1.681 16.08-3.641 23.88-6.351 1.96-.67 3.85-1.399 5.74-2.2 1.908-.81 3.729-1.68 5.449-2.699.851-.511 1.671-1.061 2.399-1.658.72-.592 1.37-1.263 1.7-1.893.16-.3.23-.58.22-.76 0-.18-.06-.33-.22-.55-.09-.103-.2-.21-.33-.32-.07-.05-.14-.108-.2-.148-.06-.04-.13-.092-.26-.159l-.14-.08h-.021c0-.011-.09-.03-.148-.04-.15-.04-.36-.07-.58-.09-1.83-.143-3.95.04-5.98.229-2.05.21-4.109.48-6.16.78-4.108.6-8.21 1.33-12.29 2.13-4.079.8-8.14 1.67-12.17 2.6-4.03.96-8.108 1.893-12.17 2.7-8.13 1.62-16.25 2.95-24.36 3.813-4.05.409-8.1.729-12.198.67-1.03-.021-2.062-.063-3.11-.19-.529-.05-1.04-.13-1.62-.25-.659-.13-1.028-.26-1.58-.438-1.698-.57-3.6-.882-5.5-1.103-3.81-.43-7.68-.52-11.51-.529-3.83-.011-7.64.092-11.41.211-3.778.141-7.52.271-11.21.398-3.68.12-7.41.23-11.02.11-14.41-.45-28.04-.71-40.61-1.45-12.58-.521-24.08-1.47-34.28-2.19-5.1-.46-9.858-.89-14.27-1.29-4.41-.368-8.45-.89-12.102-1.27-1.83-.2-3.55-.4-5.18-.58-1.62-.2-3.14-.4-4.56-.58-2.38-.31-4.47-.57-6.23-.82-.409-.81-.81-1.619-1.22-2.438.189.03.38.05.58.08 1.93.29 4.34.56 7.16.91 1.41.17 2.92.357 4.54.56 1.62.17 3.35.351 5.17.54 3.64.35 7.659.85 12.068 1.2 4.392.37 9.15.778 14.23 1.21 10.188.66 21.67 1.53 34.22 2.03 12.54.72 26.15.96 40.53 1.38 7.13.17 14.52-.32 22.09-.563 3.79-.13 7.62-.229 11.51-.229 3.882 0 7.82.08 11.82.52 2.01.24 4.03.54 6.09 1.221.95.33 1.631.449 2.602.562.93.11 1.89.149 2.85.17 3.89.05 7.87-.271 11.86-.689 7.97-.858 16.028-2.188 24.08-3.811 4.028-.82 8.02-1.729 12.068-2.71 4.07-.95 8.15-1.83 12.271-2.64 4.108-.82 8.25-1.563 12.42-2.183 2.09-.31 4.188-.59 6.3-.81 2.14-.19 4.21-.41 6.57-.24.3.021.608.07.97.15.189.05.34.067.6.18.131.05.2.08.381.17l.17.101c.091.052.239.149.399.262.16.1.29.21.431.317.271.223.539.48.779.78.495.593.875 1.453.875 2.323zm-29.839-15.47s.564-1.255 3.18-1.438c4.469-.312 7.155-.902 8.76-1.27 1.681-.383 2.428-.145 2.543.551.154.929-.629 1.402-1.619 2.135-1.813 1.337-5.156 2.29-8.648 2.65-2.74.287-5.329-1.113-4.216-2.628zm109.315-42.444s-.641-.775-2.572.249c-1.935 1.024-3.863 1.212-4.264 2.663-.397 1.451 2.048 1.939 4.673 1.063 2.796-.937 3.444-3.307 2.163-3.975z"/><path fill="#DD917A" d="M844.327 579.202s3.257-4.329 10.552-6.167c8.435-2.127 12.229-5.162 14.24-6.701 3.468-2.656 7.171 3.805 3.749 9.102-2.74 4.242-10.47 5.998-12.757 10.154"/><path fill="#F0B39C" d="M845.256 578.447s3.898-3.07 10.726-4.791c7.894-1.99 11.24-5.01 13.128-6.445 2.515-1.907 6.058 2.756 2.854 7.715-2.564 3.969-9.798 5.612-11.938 9.501"/><path fill="#3A4247" d="M1101.124 435.043s-3.363-3.645-7.031-6.646c-.688-.563-1.955.01-2.358.509-54.189 66.736-186.014 92.326-204.563 95.641-1.427.256-2.361.932-2.709 1.98-3.619 10.953-26.609 75.521-56.076 133.166-1.052 2.059.438 3.404.438 3.404l6.426 6.002s3.311-2.402 9.063-6.629c93.362-5.094 148.308-31.217 169.133-53.379 33.786-45.566 59.729-112.438 72.051-153.044 9.951-13.247 15.626-21.004 15.626-21.004z"/><path fill="#32393D" d="M835.499 667.959c26.518-48.896 50.585-115.871 55.596-130.594.668-1.963 1.926-3.162 3.624-3.453 19.831-3.404 147.923-29.104 204.78-98.703.332-.406 2.194-.794 1.75.75-4.838 16.818-36.226 119.968-80.063 179.087-21.854 23.26-82.961 51.377-184.938 54.477-.894.026-1.238-.662-.749-1.564z"/><path fill="#363D42" d="M1073.68 490.739s-2.431-2.684-5.081-4.899c-.496-.416-1.357.034-1.706.339-40.004 35.175-134.426 64.483-147.833 66.651-1.029.166-1.707.643-1.958 1.398-2.613 7.881-19.23 54.322-40.526 95.676-.762 1.475.313 2.471.313 2.471l4.645 4.424s2.394-1.697 6.55-4.684c67.47-2.514 107.177-20.729 122.227-36.508 24.417-32.559 43.168-80.629 52.072-109.863 7.195-9.463 11.297-15.005 11.297-15.005z"/><path fill="#3A4247" d="M881.716 655.977c19.165-35.057 36.561-83.229 40.182-93.818.481-1.412 1.392-2.268 2.618-2.455 14.331-2.215 103.372-26.322 147.99-68.863.272-.26 1.586-.548 1.265.564-3.495 12.109-26.183 86.375-57.861 128.609-15.792 16.561-59.953 36.143-133.649 37.104-.649.007-.898-.497-.545-1.141z"/><path fill="#B2B2B2" d="M1094.331 589.204c-2.654-1.985-5.409-2.785-6.152-1.791-.007.01-.007.021-.014.033-6.365 8.638-14.238 17.846-21.063 24.633l8.463 8.508c7.231-7.194 15.557-16.925 22.265-26.027l-.018-.014c.667-1.021-.863-3.387-3.481-5.342z"/><path fill="#363D42" d="M1089.016 595.997c3.434 2.644 5.396 5.846 4.394 7.157-1.01 1.303-4.608.223-8.039-2.423-3.434-2.646-5.401-5.854-4.393-7.157 1.006-1.307 4.605-.223 8.038 2.423z"/><path fill="#363D42" d="M1099.016 582.997c-3.433-2.646-7.029-3.73-8.038-2.423l-10 13 12.432 9.58 10-13c1.001-1.311-.963-4.513-4.394-7.157z"/><ellipse transform="rotate(126.768 1085.981 600.001)" fill="#B2B2B2" cx="1086.028" cy="600.028" rx="2.25" ry="6"/><path fill="#363D42" d="M1075.718 619.012c-2.495-5.279-15.166-26.451-19.844-32.975-4.679-6.522-10.003-12.842-14.197-16.554a3262.205 3262.205 0 0 1-11.455-10.225l-12.181 5.566 48.158 70.532 10.003-7.892c0 .006 2.661-1.797-.484-8.452z"/><path fill="#32393D" d="M1018.041 564.827l-1.291 8.231s8.617 8.876 10.003 10.423c6.292 7.021 20.813 26.494 33.316 48.377 0 0 2.982 5.638 6.13 3.501 0 0 2.662-1.805-.484-8.458-2.495-5.281-15.165-26.45-19.844-32.976-4.678-6.521-10.003-12.035-14.197-15.747-4.194-3.711-13.633-13.351-13.633-13.351z"/><path fill="#B2B2B2" d="M1064.531 630.189c.806-.895-.177-3.487-2.282-5.924-2.087-2.414-4.487-3.757-5.502-3.128l-.032-.036c-15.354 13.211-33.274 25.06-53.267 35.218l5.436 10.695c20.796-10.564 39.479-22.919 55.537-36.715.017-.011.036-.013.051-.022.015-.014.019-.031.029-.043.014-.014.026-.022.04-.034l-.01-.011z"/><path fill="#363D42" d="M1010.167 665.166c-2.578-5.95-16.834-30.749-21.667-38.416s-10.333-15.25-14.666-19.917S962 594 962 594l-12.583 3.334 49.75 82.417 11.5-5.751s2.75-1.334-.5-8.834z"/><path fill="#32393D" d="M949.417 597.334l-1.333 8.25s8.902 10.878 10.333 12.75c6.5 8.5 21.5 31.5 34.417 56.584 0 0 3.083 6.416 6.333 4.833 0 0 2.75-1.334-.5-8.834-2.578-5.95-15.667-30.333-20.5-38S967.833 618.5 963.5 613.833s-14.083-16.499-14.083-16.499z"/><path fill="#B2B2B2" d="M994.215 667.427c-1.366-3.007-3.387-5.03-4.52-4.535h-.001c-.004.003-.008.003-.014.006l-.005.004c-30.703 13.778-54.971 18.84-55.213 18.89l.002.009c-1.208.265-1.644 3.095-.974 6.331.674 3.242 2.209 5.667 3.425 5.415.021-.004.039-.016.06-.021 1.977-.41 26.297-5.618 57.634-19.687l-.003-.006c.015-.006.028-.007.045-.014 1.13-.515.936-3.377-.436-6.392z"/><path fill="#363D42" d="M953.08 683.269c-1.067-3.802-3.091-6.624-4.519-6.303l-15.054 4.09 3.865 13.767 15.052-4.089c1.429-.327 1.722-3.666.656-7.465z"/><path fill="#3A4247" d="M938.028 687.358c1.064 3.8.771 7.139-.654 7.462-1.427.318-3.452-2.502-4.52-6.302-1.064-3.804-.773-7.147.653-7.465 1.431-.319 3.454 2.504 4.521 6.305z"/><path fill="#32393D" d="M950.55 567.752l2.253-5.646c.409-.064 52.195-11.496 94.825-42.438l-2.189 6.779c-41.27 29.682-94.472 41.241-94.889 41.305z"/><path fill="#32393D" d="M947.787 579.334l2.253-5.648c.409-.063 52.195-11.494 94.825-42.438l-2.19 6.779c-41.27 29.684-94.471 41.241-94.888 41.307z"/><path fill="#363D42" d="M1044.519 521.875l-.829 2.572c-35.798 25.746-80.563 37.854-92.082 40.656l-1.058 2.646c.417-.063 53.619-11.623 94.89-41.305l2.188-6.779c-1.03.751-2.068 1.483-3.109 2.21z"/><path fill="#363D42" d="M1041.755 533.455l-.831 2.572c-35.797 25.748-80.563 37.854-92.08 40.654l-1.057 2.65c.417-.065 53.619-11.623 94.887-41.307l2.19-6.779a179.732 179.732 0 0 1-3.109 2.21z"/><path fill="#9B949A" d="M826.985 549.561c3.722 4.775-.774 13.593-9.393 20.311-8.613 6.715-18.616 8.295-22.338 3.518-3.72-4.771-4.012-20.287 4.602-27.005 8.617-6.722 23.407-1.598 27.129 3.176z"/><path fill="#F0B39C" d="M781.735 543.539c5.556 30.824 29.977 43.976 57.166 59.806 14.117 8.218 25.813-13.239 14.283-22.921-11.528-9.68-15.407-8.438-36.164-41.563-9.55-15.235-17.107-17.438-22.627-16.911-5.523.529-14.735 7.456-12.658 21.589z"/><path fill="#DD917A" d="M824.104 549.826a419.561 419.561 0 0 1-7.086-10.965c-9.549-15.235-17.106-17.438-22.628-16.911-5.521.526-14.733 7.456-12.657 21.589 2.017 11.185 6.523 20.035 12.738 27.538.276-9.077 4.743-15.174 9.026-18.577 6.204-4.927 17.753-4.5 20.607-2.674z"/><path fill="#FEBA4B" d="M802.45 510.411s7.131 19.515 20.795 33.952c0 0-25.896-9.676-33.813 20.367 0 0-11.87-13.799-22.667-42.688 0 0-2.884-18.354 15.131-22.723 9.73-2.357 17.876 4.244 20.554 11.092z"/><path fill="#DD917A" d="M857.61 601.744c.737-.279 3.553.381 6.774 1.301 3.931 1.123 6.489 2.196 8.604 2.6 4.688.89 3.436 7.133-2.415 7.951-3.104.436-8.531-.26-13.017-2.707-3.028-1.651-5.04-7.21.054-9.145z"/><path fill="#DD917A" d="M867.371 610.986s-.193-3.799 2.384-5.484c3.554-2.319 8.257-5.85 11.716-6.326 2.893-.398 4.728 1.16 4.79 3.254.037 1.23-1.048 2.104-2.949 3.525-1.28.957-5.281 3.491-7.19 5.024-3.268 2.621-7.715 4.169-8.751.007z"/><path fill="#F0B39C" d="M857.942 602.697c.712-.347 2.982-.549 6.018.881 2.896 1.365 6.438 2.459 8.561 2.814 3.123.525 4.146 5.449-1.703 6.271-3.104.431-8.529-.263-13.015-2.706-3.034-1.652-3.307-5.587.139-7.26z"/><path fill="#F0B39C" d="M868.935 609.958s-.646-2.153 1.692-3.685c3.226-2.105 8.874-5.965 12.038-6.166 2.159-.143 3.479 2.342 2.297 3.513a25.524 25.524 0 0 1-2.4 2.13c-1.138.902-4.796 3.168-6.527 4.561-2.966 2.378-6.16 3.425-7.1-.353z"/><path fill="#DD917A" d="M859.246 595.683c.754-.282 3.625.39 6.912 1.328 4.01 1.146 6.621 2.241 8.778 2.651 4.779.906 3.506 7.275-2.466 8.109-3.166.441-8.703-.264-13.275-2.76-3.094-1.684-5.146-7.357.051-9.328z"/><path fill="#DD917A" d="M869.203 605.113s-.196-3.877 2.434-5.598c3.625-2.364 8.423-5.968 11.952-6.455 2.948-.405 4.821 1.185 4.887 3.32.039 1.255-1.067 2.148-3.011 3.597-1.307.977-5.388 3.562-7.336 5.124-3.333 2.676-7.869 4.258-8.926.012z"/><path fill="#F0B39C" d="M859.584 596.658c.728-.354 3.045-.564 6.139.895 2.956 1.396 6.566 2.513 8.732 2.877 3.188.535 4.231 5.56-1.737 6.395-3.165.439-8.702-.266-13.275-2.759-3.097-1.691-3.375-5.704.141-7.408z"/><path fill="#F0B39C" d="M870.799 604.063s-.661-2.193 1.729-3.755c3.292-2.148 9.054-6.087 12.278-6.294 2.203-.144 3.552 2.392 2.346 3.585a26.231 26.231 0 0 1-2.448 2.17c-1.159.925-4.894 3.232-6.66 4.651-3.027 2.43-6.286 3.498-7.245-.357z"/><path fill="#DD917A" d="M860.911 589.531c.765-.291 3.678.392 7.013 1.344 4.065 1.162 6.714 2.273 8.902 2.689 4.85.918 3.555 7.378-2.5 8.227-3.209.447-8.826-.268-13.466-2.799-3.139-1.711-5.22-7.461.051-9.461z"/><path fill="#DD917A" d="M871.01 599.096s-.198-3.936 2.468-5.676c3.679-2.402 8.543-6.053 12.121-6.549 2.991-.412 4.893 1.199 4.958 3.369.038 1.271-1.084 2.178-3.054 3.646-1.326.989-5.465 3.61-7.441 5.199-3.377 2.711-7.98 4.315-9.052.011z"/><path fill="#F0B39C" d="M861.254 590.518c.737-.357 3.089-.568 6.229.906 2.997 1.417 6.659 2.55 8.854 2.916 3.233.545 4.291 5.639-1.762 6.486-3.211.449-8.825-.27-13.466-2.797-3.138-1.711-3.421-5.783.145-7.511z"/><path fill="#F0B39C" d="M872.629 598.026s-.67-2.229 1.75-3.811c3.34-2.181 9.185-6.175 12.455-6.384 2.236-.143 3.603 2.427 2.379 3.637a25.926 25.926 0 0 1-2.482 2.203c-1.178.937-4.962 3.277-6.757 4.717-3.066 2.466-6.371 3.55-7.345-.362z"/><path fill="#DD917A" d="M862.663 583.265c.778-.296 3.743.399 7.139 1.37 4.139 1.186 6.836 2.314 9.063 2.738 4.938.936 3.618 7.511-2.544 8.373-3.271.459-8.986-.271-13.71-2.847-3.195-1.743-5.315-7.597.052-9.634z"/><path fill="#DD917A" d="M872.944 593.001s-.204-4.002 2.512-5.776c3.743-2.443 8.697-6.165 12.342-6.666 3.043-.422 4.979 1.223 5.046 3.433.041 1.294-1.104 2.216-3.106 3.712-1.352 1.01-5.563 3.676-7.574 5.291-3.443 2.758-8.129 4.392-9.22.006z"/><path fill="#F0B39C" d="M863.012 584.27c.751-.363 3.146-.578 6.339.928 3.055 1.438 6.78 2.594 9.021 2.969 3.29.555 4.367 5.74-1.796 6.602-3.271.456-8.985-.271-13.708-2.85-3.198-1.744-3.486-5.889.144-7.649z"/><path fill="#F0B39C" d="M874.593 591.916s-.684-2.268 1.781-3.877c3.398-2.221 9.349-6.287 12.681-6.5 2.275-.148 3.666 2.471 2.421 3.701a26.536 26.536 0 0 1-2.528 2.243c-1.196.95-5.052 3.338-6.875 4.805-3.125 2.505-6.49 3.608-7.48-.372zm-36.087 10.452s4.174 5.418 21.481 9.864c7.269 1.865 14.535-24.271 12.997-24.848s-2.313-1.35-10.755-6.519c-6.941-4.247-14.969-4.421-14.969-4.421"/><path fill="#F2E4E4" d="M798.266 542.682c-9.059 6.281-11.054 14.777-10.56 21.164.461 3.97 1.643 3.857 3.068 5.297 1.426 1.438 3.488 4.998 5.319 5.135 0 0-4.801-6.549-1.846-15.729 1.419-4.408 5.551-8.711 9.424-11.256 4.773-3.135 11.457-3.365 16.047-2.172 4.591 1.195 8.384 6.291 8.384 6.291-.007-4.174-3.399-4.671-3.996-6.601-.938-3.03-1.5-4.26-4.106-5.188-8.785-2.597-16.831-.344-21.734 3.059z"/><path fill="#FEBA4B" d="M765.25 401.75s-21.414 9.703-17.75 43.25c3.66 33.547 16.037 73.089 21.845 81.376 17.061 24.336 36.527 5.686 31.867-14.932-8.021-35.494-9.727-72.486-12.183-84.377-3.101-14.996.054-17.818-5.03-23.818-6.028-7.115-12.669-5.968-18.749-1.499z"/><path fill="#CCCACA" d="M1255.576 594.422c-1.5-74.996-40.146-222.193-125.243-275.422 29.921 43.804 35.035 116.439 33.747 159.928-5.999 202.49-104.685 297.426-301.509 310.125-51.397 3.315-137.568-4.108-218.047-28.604l-32.748-24.911v13.834s57.115 120.229 213.527 162.479l.197.149.003-.094c40.413 10.894 87.444 16.586 141.83 13.653 166.118-8.874 291.569-164.816 288.243-331.137z"/><path fill="#BFBFBF" d="M967.333 911.729c166.118-8.878 291.569-164.817 288.243-331.141-1.5-74.996-45.479-217.69-130.576-270.921 29.921 43.804 40.368 111.938 39.08 155.427-5.999 202.49-104.685 297.426-301.509 310.125-58.458 3.771-161.905-6.35-250.793-39.683 0 .001 90.475 190.478 355.555 176.193z"/><path fill="#B2B2B2" d="M1160.771 801.828l-111.37-82.003-.036.051-.021-.014c-6.796-4.474-17.588-.069-24.104 9.834-6.519 9.901-6.289 21.559.507 26.03.116.074.243.13.36.199l109.8 80.637 24.864-34.734z"/><path fill="#BFBFBF" d="M1140.827 837.407c-1.973 0-3.41-.948-4.275-2.819-2.641-5.712 1.039-17.439 8.036-25.613 4.056-4.732 8.554-7.562 12.034-7.562 1.973 0 3.411.948 4.275 2.818 2.642 5.713-1.039 17.44-8.037 25.611-4.053 4.738-8.552 7.565-12.033 7.565z"/><path fill="#B2B2B2" d="M1156.623 802.913c1.392 0 2.29.601 2.913 1.948 2.113 4.569-.576 15.556-7.815 24.008-4.44 5.188-8.54 7.038-10.894 7.038-1.393 0-2.291-.603-2.914-1.948-2.113-4.571.576-15.556 7.813-24.009 4.444-5.188 8.543-7.037 10.897-7.037m-.001-3c-3.785 0-8.653 2.807-13.174 8.086-7.477 8.729-11.172 20.916-8.258 27.219 1.149 2.491 3.161 3.689 5.637 3.689 3.785 0 8.65-2.81 13.173-8.087 7.475-8.729 11.174-20.914 8.259-27.219-1.152-2.49-3.163-3.688-5.637-3.688z"/><path fill="none" stroke="#B2B2B2" stroke-width="4" stroke-miterlimit="10" d="M1152 824c-2.894 4.262-6.365 5.945-7.757 3.77-1.387-2.179-.161-7.394 2.732-11.65 2.898-4.256 6.37-5.938 7.761-3.766 1.381 2.175.164 7.393-2.736 11.646z"/><path fill="#B2B2B2" d="M677.022 713.371c-4.646-6.289-12.106-10.369-20.523-10.369-14.083 0-25.499 11.416-25.499 25.499a25.387 25.387 0 0 0 6.036 16.466L637 745l108.501 123.167 37.667-34.001-106.146-120.795z"/><path fill="#BFBFBF" d="M765.104 876.071c-13.232 0-23.998-10.768-23.998-23.999 0-13.233 10.766-23.999 23.998-23.999s24 10.766 24 23.999c0 13.233-10.766 23.999-24 23.999z"/><path fill="#B2B2B2" d="M765.104 829.573c12.405 0 22.5 10.093 22.5 22.499s-10.095 22.499-22.5 22.499-22.498-10.093-22.498-22.499 10.093-22.499 22.498-22.499m0-3c-14.082 0-25.498 11.416-25.498 25.499 0 14.082 11.416 25.499 25.498 25.499 14.084 0 25.5-11.417 25.5-25.499 0-14.083-11.416-25.499-25.5-25.499z"/><circle fill="none" stroke="#B2B2B2" stroke-width="5" stroke-miterlimit="10" cx="765.833" cy="853.001" r="12.667"/><path fill="#B2B2B2" d="M887.947 868.305L779.502 734.86l-.026.021c-8.443-9.45-23.276-10.451-33.508-2.118-10.431 8.495-12.12 23.473-3.771 33.448.272.328.557.646.846.953L850.28 898.821l37.667-30.516z"/><path fill="#BFBFBF" d="M869.265 907.51c-4.838 0-9.39-1.605-13.164-4.647-9.471-7.639-10.932-22.024-3.256-32.073 4.378-5.73 10.876-9.02 17.828-9.02 4.838 0 9.391 1.608 13.165 4.65 9.472 7.634 10.933 22.022 3.255 32.073-4.377 5.73-10.876 9.017-17.828 9.017z"/><path fill="#B2B2B2" d="M870.674 863.27c4.491 0 8.718 1.493 12.222 4.318 8.847 7.129 10.192 20.584 3.007 29.994-4.093 5.355-10.155 8.428-16.639 8.428-4.491 0-8.718-1.493-12.222-4.314-8.844-7.131-10.192-20.587-3.006-29.995 4.093-5.359 10.157-8.431 16.638-8.431m-.001-3c-7.099 0-14.21 3.313-19.02 9.607-8.181 10.707-6.609 25.995 3.506 34.151a22.362 22.362 0 0 0 14.104 4.979c7.101 0 14.211-3.311 19.021-9.604 8.18-10.709 6.608-25.998-3.506-34.151a22.352 22.352 0 0 0-14.105-4.982z"/><path fill="none" stroke="#B2B2B2" stroke-width="5" stroke-miterlimit="10" d="M879 892.014c-3.989 5.379-10.9 6.849-15.437 3.278-4.539-3.568-4.983-10.821-.995-16.2 3.986-5.378 10.898-6.846 15.438-3.276 4.537 3.566 4.982 10.82.994 16.198z"/><path fill="#B2B2B2" d="M894.274 742.957a17.917 17.917 0 0 0-.972-1.339c-7.186-8.916-21.68-9.352-32.376-.972-10.677 8.361-13.531 22.348-6.395 31.265l-.044.037L962.99 903.046l37.667-31.248-106.383-128.841z"/><path fill="#BFBFBF" d="M979.593 910.538c-4.889 0-9.328-1.76-12.502-4.954-7.479-7.529-6.231-20.973 2.776-29.966 4.846-4.835 11.187-7.608 17.396-7.608 4.891 0 9.329 1.763 12.503 4.956 7.48 7.529 6.233 20.973-2.777 29.965-4.847 4.835-11.187 7.607-17.396 7.607z"/><path fill="#B2B2B2" d="M987.264 869.51c4.485 0 8.548 1.604 11.438 4.516 6.896 6.941 5.652 19.435-2.775 27.846-4.563 4.556-10.519 7.169-16.334 7.169-4.484 0-8.548-1.604-11.438-4.511-6.897-6.944-5.654-19.438 2.771-27.849 4.567-4.557 10.522-7.17 16.338-7.171m-.001-3c-6.354.001-13.13 2.734-18.455 8.047-9.606 9.593-10.854 23.956-2.779 32.085 3.602 3.625 8.446 5.396 13.564 5.396 6.355 0 13.13-2.733 18.453-8.046 9.612-9.592 10.858-23.957 2.784-32.083-3.601-3.626-8.448-5.399-13.567-5.399z"/><path fill="none" stroke="#B2B2B2" stroke-width="5" stroke-miterlimit="10" d="M990.888 895.178c-4.201 5.289-10.804 6.94-14.744 3.693-3.941-3.249-3.729-10.167.471-15.454 4.199-5.288 10.802-6.94 14.744-3.692 3.939 3.248 3.729 10.166-.471 15.453z"/><path fill="#B2B2B2" d="M1099.567 844.262L991.122 720.851l-.055.052c-.008-.008-.013-.016-.02-.021-6.753-6.914-20.394-4.542-30.47 5.297-10.074 9.84-12.769 23.423-6.017 30.337.116.119.25.214.371.328l106.968 121.42 37.668-34.002z"/><path fill="#BFBFBF" d="M1073.704 882.746c-3.521 0-6.532-1.095-8.715-3.165-3.022-2.865-4.229-7.344-3.393-12.61.868-5.473 3.814-11.089 8.294-15.813 5.685-5.991 12.938-9.568 19.409-9.568 3.521 0 6.532 1.095 8.715 3.165 3.022 2.865 4.229 7.344 3.393 12.609-.869 5.474-3.814 11.089-8.295 15.813-5.681 5.992-12.937 9.569-19.408 9.569z"/><path fill="#B2B2B2" d="M1089.303 840.09v3c3.126 0 5.782.952 7.684 2.753 2.65 2.518 3.695 6.524 2.939 11.287-.821 5.176-3.628 10.509-7.901 15.018-5.402 5.696-12.252 9.101-18.318 9.101-3.127 0-5.783-.952-7.684-2.753-2.651-2.516-3.696-6.523-2.94-11.287.821-5.177 3.628-10.51 7.901-15.016 5.401-5.698 12.252-9.103 18.318-9.103l.001-3m-.001 0c-6.607 0-14.333 3.536-20.497 10.036-9.688 10.218-11.858 23.896-4.848 30.544 2.552 2.42 5.967 3.576 9.747 3.576 6.609 0 14.332-3.536 20.496-10.036 9.689-10.219 11.859-23.894 4.849-30.544-2.552-2.42-5.967-3.576-9.747-3.576z"/><ellipse transform="rotate(-139.473 1082.194 862.341)" fill="none" stroke="#B2B2B2" stroke-width="5" stroke-miterlimit="10" cx="1082.168" cy="862.354" rx="7.743" ry="12.668"/><path fill="#CCCACA" d="M1126 311c16.6 37.351 19.338 79.155 19.338 122.664 0 166.354-85.94 285.359-282.767 298.058-51.512 3.323-137.954-4.145-218.588-28.771l-32.206-24.41v13.499s90.475 190.478 355.555 176.19c166.118-8.877 293.878-134.878 293.878-301.232.001-107.775-50.111-202.769-135.21-255.998z"/><path fill="#DAD7D7" d="M1261.21 553.5a318.705 318.705 0 0 1-.96 24.74c-.05.71-.11 1.41-.17 2.12-.05.63-.102 1.26-.17 1.89-.012.16-.03.33-.052.49-.13 1.54-.278 3.067-.448 4.6-3.591 33.47-12.472 64.96-25.853 93.76-.068.15-.14.303-.21.45-.317.7-.647 1.4-.979 2.103-.24.51-.49 1.02-.74 1.527-.062.15-.14.303-.21.45-.7 1.45-1.42 2.89-2.141 4.32-17.449 34.49-41.459 64.857-70.551 89.85-.131.11-.271.23-.398.34-.54.473-1.08.933-1.62 1.38-.53.45-1.07.9-1.601 1.343-.142.12-.271.229-.41.34a256.282 256.282 0 0 1-3.729 3.05c-37.01 29.68-81.56 50.99-130.89 61.521l-.602.118-2.301.48c-.85.18-1.689.35-2.55.51l-.61.12c-1.8.35-3.607.69-5.43 1.01a340.693 340.693 0 0 1-41.26 4.723c-39.61 2.13-75.32-.313-107.42-6-.28-.053-.552-.103-.83-.15-1.602-.28-3.181-.57-4.771-.88l-1.95-.393-.83-.157a373.62 373.62 0 0 1-9.229-1.94 387.804 387.804 0 0 1-36.979-10.17C664 788.47 611.78 678.54 611.78 678.54c31.82 11.93 65.5 20.89 98.32 27.3 3 .59 6 1.15 8.988 1.7l.83.15 1.9.34h.01c1.57.277 3.13.55 4.7.817.278.053.55.093.83.143 52.438 8.938 101.37 11.41 135.21 9.229l1.76-.12a290.4 290.4 0 0 0 6.04-.447l.68-.063 2.852-.229c.85-.07 1.71-.15 2.56-.24.23-.01.45-.04.68-.063 43.33-4.067 81-13.52 113.302-27.67a194.726 194.726 0 0 0 5.028-2.26c.182-.08.359-.17.539-.26h.011c.722-.32 1.432-.66 2.149-1 .73-.34 1.46-.69 2.18-1.04.183-.09.36-.17.541-.26 29.262-14.25 53.802-32.59 73.869-54.433a197.35 197.35 0 0 0 3.44-3.817c.12-.13.229-.262.34-.4.399-.45.79-.898 1.18-1.36.54-.617 1.07-1.229 1.591-1.857.119-.13.229-.271.341-.4 14.479-17.239 26.391-36.47 35.818-57.45v-.01c.66-1.438 1.29-2.897 1.92-4.357.07-.16.13-.313.2-.473.25-.6.5-1.199.75-1.79.28-.658.562-1.34.84-2.01.063-.16.13-.31.19-.47 6.88-16.92 12.239-34.91 16.13-53.84.33-1.602.648-3.21.96-4.83l.09-.5.149-.771c.141-.76.279-1.528.421-2.29.028-.17.06-.33.09-.5 4.12-23.028 6.13-47.39 6.13-72.85 0-43.5-9.24-84.85-25.84-122.2 66.398 41.53 115.46 108.21 133.81 186.71.04.16.07.32.11.48.17.738.35 1.47.51 2.21v.01c.051.25.11.5.16.75.04.16.07.32.11.48.34 1.55.67 3.108.988 4.68 3.953 19.461 6.023 39.601 6.023 60.221z"/><path fill="#BFBFBF" d="M854.31 847.7l-1.948-.393-.83-.157a370.82 370.82 0 0 1-9.23-1.94L710.1 705.84c3 .59 6 1.15 8.99 1.7l.83.15 1.9.34h.01L854.31 847.7z"/><path fill="#CCCACA" d="M859.08 848.58c-1.601-.28-3.18-.57-4.771-.88l-1.949-.393L719.92 707.69l1.9.34h.01c1.57.277 3.13.55 4.7.817L859.08 848.58z"/><path fill="#BFBFBF" d="M1017.18 848.37c-.85.18-1.688.35-2.55.51l-.609.12c-1.801.35-3.608.69-5.431 1.01L864.33 718.1a290.4 290.4 0 0 0 6.04-.447l.68-.063 2.85-.229 143.28 131.009zm139.53-66.85c-.53.45-1.07.9-1.6 1.343-.143.12-.271.229-.41.34-1.24 1.03-2.48 2.05-3.73 3.05L990.44 689.39a193.137 193.137 0 0 0 5.027-2.26c.183-.08.36-.17.54-.26h.011c.722-.32 1.432-.66 2.149-1l158.543 95.65z"/><path fill="#CCCACA" d="M1158.33 780.14c-.54.473-1.08.933-1.62 1.38-.53.45-1.07.9-1.6 1.343l-159.09-95.991c.721-.32 1.431-.66 2.148-1 .73-.34 1.46-.69 2.182-1.04l157.98 95.308z"/><path fill="#BFBFBF" d="M1232.37 683.65c-.24.51-.49 1.02-.74 1.527-.06.15-.14.303-.21.45-.7 1.45-1.42 2.892-2.14 4.32l-154.521-59.811a197.35 197.35 0 0 0 3.44-3.817c.12-.13.229-.262.34-.4.399-.45.79-.898 1.18-1.359l152.651 59.09z"/><path fill="#CCCACA" d="M1233.35 681.55c-.317.7-.647 1.4-.979 2.103-.24.51-.49 1.02-.74 1.527l-153.09-59.26c.4-.45.79-.9 1.18-1.36.54-.617 1.07-1.229 1.591-1.857l152.038 58.847z"/><path fill="#BFBFBF" d="M1260.08 580.36c-.05.63-.101 1.26-.17 1.89-.011.16-.03.33-.05.49a184.96 184.96 0 0 1-.45 4.6l-141.94-22.49v-.01c.66-1.438 1.29-2.897 1.92-4.359.07-.158.131-.311.2-.471.25-.6.5-1.2.75-1.79l139.74 22.14z"/><path fill="#CCCACA" d="M1260.25 578.24c-.05.71-.11 1.41-.17 2.12-.05.63-.101 1.26-.17 1.89l-140.32-22.24c.25-.6.5-1.2.75-1.79.28-.659.562-1.34.84-2.01l139.07 22.03z"/><path fill="#BFBFBF" d="M1255.19 493.28l-117.69 8.62c.33-1.602.65-3.21.96-4.83.03-.17.061-.33.09-.5.05-.262.103-.521.15-.771l115.229-8.43c.051.25.11.5.16.75.04.16.07.32.11.479.341 1.552.671 3.112.991 4.682z"/><path fill="#C4C3C3" d="M1153.664 447.334a3.001 3.001 0 0 1-2.945-2.444 3.003 3.003 0 0 1 2.394-3.504l70.666-13.333a2.994 2.994 0 0 1 3.505 2.394 3.003 3.003 0 0 1-2.394 3.504l-70.666 13.333c-.189.033-.376.05-.56.05z"/><path fill="#C7C6C6" d="M1155.498 399a2.5 2.5 0 0 1-.653-4.913l40.5-11a2.5 2.5 0 0 1 1.31 4.825l-40.5 11c-.218.06-.439.088-.657.088z"/><path fill="#CCCACA" d="M1148.999 355a1.999 1.999 0 0 1-.515-3.931l15-4a1.999 1.999 0 0 1 1.029 3.863l-15 4c-.17.047-.344.068-.514.068zm-129.52 492.89l-2.302.48c-.85.18-1.688.35-2.55.51L871.05 717.59l2.85-.229c.852-.07 1.712-.15 2.562-.24l143.017 130.769zm234.611-359.77l-115.54 8.45c.05-.262.103-.521.15-.771.14-.76.279-1.53.42-2.29l114.3-8.358c.17.738.351 1.47.51 2.21v.01c.049.249.11.499.16.749z"/><path fill="#BFBFBF" d="M1227.667 511s-12.417 5.25-31.417 5.25-36.055-6.645-36.055-6.645l67.472 1.395z"/><path fill="#F2BC62" d="M1214.64 460.042s-29.501 6.05-57.675 3.979c.245-14.354-1.876-54.855-1.876-54.855s6.542 2.855 25.414.462c17.609-2.23 31.636-7.178 31.636-7.178l2.501 57.592z"/><path fill="#F2BC62" d="M1227.667 511c-12.203 2.235-52.354 2.362-67.472-1.395-.739-8.422-5.862-54.033-5.862-54.033l73.49-6.581c0 .001 2.791 17.957-.156 62.009z"/><path fill="#FDD899" d="M1227.82 448.99S1215 453.33 1189 455c-22.1 1.42-34.67.57-34.67.57 6.54-21.03.76-46.4.76-46.4s13.55-1.25 25.04-3.32c1.141-.21 2.25-.408 3.34-.618.63-.132 1.25-.25 1.86-.382 16.55-3.38 26.97-7.408 26.97-7.408 18.12 20.768 15.52 51.548 15.52 51.548z"/><path fill="#E4A445" d="M1192.06 449.63c0-.7.021-1.52-.027-2.42-.03-1-.07-2.14-.103-3.38l-.29-3.97c-.05-.7-.1-1.432-.147-2.17-.09-.73-.17-1.48-.26-2.25-.183-1.521-.36-3.102-.541-4.7-.209-1.602-.512-3.21-.762-4.83-.26-1.62-.5-3.23-.79-4.82-.34-1.57-.658-3.12-.979-4.62s-.63-2.95-.92-4.318c-.29-1.37-.683-2.642-.98-3.83-.35-1.28-.66-2.45-.93-3.472-.61.132-1.23.25-1.86.382.23 1.038.49 2.238.78 3.56.24 1.18.58 2.45.8 3.82.23 1.37.46 2.818.71 4.31s.5 3.04.76 4.601c.223 1.579.382 3.181.57 4.779.17 1.602.391 3.2.53 4.78.108 1.58.21 3.13.319 4.64.051.75.101 1.49.148 2.21.021.722.04 1.432.063 2.12.039 1.38.067 2.682.1 3.892-.021 1.188-.03 2.29-.04 3.27 0 .98-.05 1.8-.09 2.48 0 .1-.011.198-.011.29l-33.776 5.593s12.563.844 34.667-.572c26-1.667 38.823-6.008 38.823-6.008l-35.764.633z"/><path fill="#BFBFBF" d="M1034.413 701.184s9.913 8.939 30.837 20.316c20.397 11.092 51.447 24.563 79.75 29.5 0 0 59.34-35.455 70.67-88.729l-181.257 38.913z"/><path fill="#F2BC62" d="M1215.67 662.271l-99.824-15.045v-103.88s19.966 4.858 30.479 6.621c42.666 7.155 69.348 8.424 69.348 8.424l-.003 103.88z"/><path fill="#CE9045" d="M1225 525.667l-15.736 2.549C1153.317 521.277 1121.5 515 1121.5 515l-4.417 28.146-1.237.199.5 4.5c46.654 12.652 99.529 15.902 99.529 15.902s5.625-19.75 9.625-33.583l-.5-4.497z"/><path fill="#E4A445" d="M1115.846 543.348L1121 510.5s38 7.5 104 15.167c-4 13.833-9.33 32.726-9.33 32.726s-53.17-2.393-99.824-15.045z"/><path fill="#E4A445" d="M1114.19 543.554a2103.693 2103.693 0 0 1-18.857-18.887c-26.506 18.366-57.063 32.289-76.206 40.133l-18.794 4.2v3l29.334 28.333s74.821-24.681 87-54.333v-3l-2.477.554z"/><path fill="#F2BC62" d="M1116.667 543s-10.667-10.5-21.334-21.333c-42.333 29.333-95 47.333-95 47.333l29.334 28.333s74.821-24.681 87-54.333z"/><path fill="#CE9045" stroke="#CE9045" stroke-linecap="round" stroke-linejoin="round" stroke-miterlimit="10" d="M1115.846 543.348s-27.179 36.319-85.547 53.955c0 0 13.915 10.087 47.739 22.896 36.395 13.78 64.104 16.222 64.104 16.222s68.192-40.085 73.528-78.024c0-.004-59.277-5.778-99.824-15.049z"/><path fill="#B5D6CF" d="M1205.249 587.465c0 3.123-2.337 4.959-5.192 4.081l-68.275-20.99c-2.855-.879-5.192-4.149-5.192-7.271V488.64c0-3.121 2.337-4.958 5.192-4.079l68.275 20.99c2.855.878 5.192 4.15 5.192 7.271v74.643z"/><path fill="#B5D6CF" d="M1203.25 591.344l-3.453 2.109-76.544-90.582z"/><path fill="#D9E9E1" d="M1201.915 589.548c0 3.123-2.337 4.959-5.192 4.081l-68.275-20.99c-2.855-.879-5.192-4.149-5.192-7.271v-74.645c0-3.121 2.337-4.958 5.192-4.079l68.275 20.99c2.855.878 5.192 4.15 5.192 7.271v74.643z"/><path fill="#6CB0AC" d="M1126.587 500.788V488.64c0-3.121 2.337-4.958 5.192-4.079l68.275 20.99c2.855.878 5.192 4.15 5.192 7.271v12.148"/><path fill="#6CB0AC" d="M1128.547 484.813l-3.5 2.203 76.868 40.04 3.334-2.083z"/><path fill="#7EBAB5" d="M1123.253 502.871v-12.148c0-3.121 2.337-4.958 5.192-4.079l68.275 20.99c2.855.878 5.192 4.15 5.192 7.271v12.148"/><path fill="none" stroke="#8CC4BA" stroke-width="3" stroke-miterlimit="10" d="M1191.011 564.749c0 1.65-1.29 2.604-2.867 2.118l-51.897-15.955c-1.577-.485-2.867-2.231-2.867-3.882v-30.327c0-1.65 1.29-2.604 2.867-2.118l51.897 15.955c1.577.485 2.867 2.231 2.867 3.882v30.327z"/><path fill="none" stroke="#8CC4BA" stroke-width="3" stroke-miterlimit="10" d="M1191.011 566.046l-15.833-26.884c-.707-1.198-1.855-1.55-2.56-.779l-15.841 17.369-10.955-16.453c-.771-1.158-2-1.504-2.73-.768l-9.715 9.796m52.669-11.108c0 1.88-1.396 2.979-3.116 2.448-1.72-.53-3.112-2.483-3.112-4.363 0-1.882 1.394-2.979 3.112-2.447 1.72.528 3.116 2.48 3.116 4.362z"/><path fill="none" stroke="#8CC4BA" stroke-width="4" stroke-linecap="round" stroke-linejoin="round" stroke-miterlimit="10" d="M1136.833 559.757l25.414 7.894m6.232 1.916l17.308 5.322m-23.54.141l23.019 7.077m-48.433-14.971l18.664 5.819"/><path fill="#B5D6CF" d="M1175.749 638.583c0 3.123-2.337 4.959-5.192 4.081l-68.275-20.99c-2.855-.879-5.192-4.149-5.192-7.271v-74.645c0-3.121 2.337-4.958 5.192-4.079l68.275 20.99c2.855.878 5.192 4.15 5.192 7.271v74.643z"/><path fill="#B5D6CF" d="M1173.75 642.462l-3.453 2.109-76.544-90.582z"/><path fill="#D9E9E1" d="M1172.415 640.666c0 3.123-2.337 4.959-5.192 4.081l-68.275-20.99c-2.855-.879-5.192-4.149-5.192-7.271v-74.645c0-3.121 2.337-4.958 5.192-4.079l68.275 20.99c2.855.878 5.192 4.15 5.192 7.271v74.643z"/><path fill="#6CB0AC" d="M1097.087 551.906v-12.148c0-3.121 2.337-4.958 5.192-4.079l68.275 20.99c2.855.878 5.192 4.15 5.192 7.271v12.148"/><path fill="#6CB0AC" d="M1099.047 535.931l-3.5 2.203 76.868 40.04 3.334-2.083z"/><path fill="#7EBAB5" d="M1093.753 553.989v-12.148c0-3.121 2.337-4.958 5.192-4.079l68.275 20.99c2.855.878 5.192 4.15 5.192 7.271v12.148"/><path fill="none" stroke="#8CC4BA" stroke-width="3" stroke-miterlimit="10" d="M1161.511 615.867c0 1.648-1.29 2.604-2.867 2.118l-51.897-15.955c-1.577-.485-2.867-2.231-2.867-3.882v-30.327c0-1.65 1.29-2.604 2.867-2.118l51.897 15.955c1.577.483 2.867 2.229 2.867 3.882v30.327z"/><path fill="none" stroke="#8CC4BA" stroke-width="3" stroke-miterlimit="10" d="M1161.511 617.164l-15.833-26.884c-.707-1.198-1.855-1.55-2.56-.779l-15.841 17.369-10.955-16.453c-.771-1.158-2-1.504-2.73-.768l-9.715 9.796m52.669-11.108c0 1.88-1.396 2.979-3.116 2.448-1.72-.53-3.112-2.483-3.112-4.363 0-1.882 1.394-2.979 3.112-2.449 1.72.53 3.116 2.482 3.116 4.364z"/><path fill="none" stroke="#8CC4BA" stroke-width="4" stroke-linecap="round" stroke-linejoin="round" stroke-miterlimit="10" d="M1107.333 610.875l25.414 7.895m6.232 1.916l17.308 5.321m-23.54.141l23.019 7.078m-48.433-14.972l18.664 5.819"/><path fill="#B5D6CF" d="M1146.249 658.583c0 3.123-2.337 4.959-5.192 4.081l-68.275-20.99c-2.855-.879-5.192-4.149-5.192-7.271v-74.645c0-3.121 2.337-4.958 5.192-4.079l68.275 20.99c2.855.878 5.192 4.15 5.192 7.271v74.643z"/><path fill="#B5D6CF" d="M1144.25 662.462l-3.453 2.109-76.544-90.582z"/><path fill="#D9E9E1" d="M1142.915 660.666c0 3.123-2.337 4.959-5.192 4.081l-68.275-20.99c-2.855-.879-5.192-4.149-5.192-7.271v-74.645c0-3.121 2.337-4.958 5.192-4.079l68.275 20.99c2.855.878 5.192 4.15 5.192 7.271v74.643z"/><path fill="#6CB0AC" d="M1067.587 571.906v-12.148c0-3.121 2.337-4.958 5.192-4.079l68.275 20.99c2.855.878 5.192 4.15 5.192 7.271v12.148"/><path fill="#6CB0AC" d="M1069.547 555.931l-3.5 2.203 76.868 40.04 3.334-2.083z"/><path fill="#7EBAB5" d="M1064.253 573.989v-12.148c0-3.121 2.337-4.958 5.192-4.079l68.275 20.99c2.855.878 5.192 4.15 5.192 7.271v12.148"/><path fill="none" stroke="#8CC4BA" stroke-width="3" stroke-miterlimit="10" d="M1132.011 635.867c0 1.648-1.29 2.604-2.867 2.118l-51.897-15.955c-1.577-.485-2.867-2.231-2.867-3.882v-30.327c0-1.65 1.29-2.604 2.867-2.118l51.897 15.955c1.577.483 2.867 2.229 2.867 3.882v30.327z"/><path fill="none" stroke="#8CC4BA" stroke-width="3" stroke-miterlimit="10" d="M1132.011 637.164l-15.833-26.884c-.707-1.198-1.855-1.55-2.56-.779l-15.841 17.369-10.955-16.453c-.771-1.158-2-1.504-2.73-.768l-9.715 9.796m52.669-11.108c0 1.88-1.396 2.979-3.116 2.448-1.72-.53-3.112-2.483-3.112-4.363 0-1.882 1.394-2.979 3.112-2.449 1.72.53 3.116 2.482 3.116 4.364z"/><path fill="none" stroke="#8CC4BA" stroke-width="4" stroke-linecap="round" stroke-linejoin="round" stroke-miterlimit="10" d="M1077.833 630.875l25.414 7.895m6.232 1.916l17.308 5.321m-23.54.141l23.019 7.078m-48.433-14.972l18.664 5.819"/><path fill="#F2BC62" d="M1142.142 740.3c-34.246-1.908-88.839-24.169-107.729-39.116-1.106-13.236-4.788-103.934-4.788-103.934l112.517 39.169s1.821 65.102 0 103.881z"/><path fill="#E4A445" d="M1142.142 636.419V740.3s61.335-29.646 73.528-78.025V558.393s-20.288 55.92-73.528 78.026z"/><path fill="#CE9045" stroke="#CE9045" stroke-linecap="round" stroke-linejoin="round" stroke-miterlimit="10" d="M1168.187 695.066l-7.979-4.523-9.255 19.564 3.608-3.15s-.561 15.542-.561 19.21c5.321-1.917 9.956-5.917 9.956-5.917l.801-22.194 3.43-2.99z"/><path fill="#E4A445" d="M1232.583 538.5l-2.916-2.167c-26.667 34.667-72 66-72 66l-15.666 34.75.249 4.291s7.119-6.404 16.515-15.185c44.701-30.552 57.568-52.523 57.568-52.523s1.777-5.985 6.939-20.193c6.415-9.518 9.311-14.973 9.311-14.973z"/><path fill="#F2BC62" d="M1142.25 641.375L1161 604s44.916-30.834 71.583-65.5c-10.167 26.666-15.75 38.167-15.75 38.167s-16.25 28.624-74.583 64.708z"/><path fill="#CE9045" d="M1130.007 635.18l12.243 6.445L1142 637l-15-30s-26.414-7.352-54-16c-30.834-9.667-62.5-22.5-62.5-22.5l-.5 3.5 4.313 2.271 15.187 22.979s33.516 26.602 100.507 37.93z"/><path fill="#E4A445" d="M1142.25 641.625L1126.5 610.5s-26.414-7.352-54-16c-30.834-9.667-62.5-22.5-62.5-22.5l20 31s37.25 28.667 112.25 38.625z"/><path fill="#BFBFBF" d="M679.5 735c18.994 43.442 75.5 78.667 75.5 78.667 45.386 13.079 86.063 13.688 118.667 14 29.713.285 45.451-3.864 45.451-3.864L679.5 735z"/><path fill="#E4A445" d="M757.445 806.983c58.795 17.84 127.393 24.07 161.672 16.817l24.837-107.033s-59.489.344-163.859-13.073l-22.65 103.289z"/><path fill="#CE9045" stroke="#CE9045" stroke-linecap="round" stroke-linejoin="round" stroke-miterlimit="10" d="M796.336 787.336l-9.737-15.007-16.224 11.121 5.438.813-4.545 19.139s8.146 2.766 15.396 3.599c1.25-3.625 4.507-20.438 4.507-20.438l5.165.773z"/><path fill="#F2BC62" d="M701.35 613.947l-22.354 120.495c3.325 6.055 14.526 18.696 25.581 29.334 27.116 26.094 52.87 43.207 52.87 43.207l22.648-103.289"/><path fill="#FDD899" d="M943.95 716.77s-66.44 5.563-163.852-13.077c0 0-33.06-25.87-61.449-64.24-12.489-16.87-17.301-25.5-17.301-25.5s80.54 26.26 174.11 31.13c0 0 7.729 11.14 23.95 29.66.2.229.398.47.609.7.391.447.789.89 1.189 1.34 17.514 19.567 42.744 39.987 42.744 39.987z"/><path fill="#E4A445" d="M900.021 675.44c-.211-.23-.409-.473-.609-.7-2.74-.07-5.7-.15-8.852-.29-2.198-.103-4.5-.21-6.869-.33-2.381-.11-4.829-.29-7.359-.45-2.521-.15-5.11-.33-7.76-.55-2.642-.23-5.352-.4-8.092-.67-2.75-.26-5.539-.51-8.368-.78-2.82-.29-5.682-.59-8.562-.9-5.76-.64-11.6-1.317-17.43-2.09-2.92-.357-5.84-.777-8.74-1.18-2.898-.401-5.79-.82-8.65-1.26-2.858-.433-5.698-.86-8.5-1.33-2.8-.45-5.56-.9-8.27-1.393-2.72-.47-5.39-.93-7.98-1.438-2.59-.48-5.129-.96-7.618-1.48-1.23-.26-2.45-.5-3.65-.75-1.188-.27-2.37-.527-3.53-.79-2.31-.527-4.55-.987-6.68-1.527-2.13-.521-4.18-1.021-6.12-1.5l-5.49-1.46c-3.43-.95-6.409-1.803-8.84-2.57-2.438-.73-4.34-1.38-5.6-1.8a.194.194 0 0 1-.036-.015c-9.354-9.444-35.065-36.238-35.065-36.238s4.812 8.631 17.295 25.503c28.396 38.372 61.45 64.244 61.45 64.244s-25.261-30.822-36.666-45.292c1.831.486 3.844 1.003 6.063 1.558 1.76.42 3.63.87 5.608 1.34 1.98.44 4.062.9 6.24 1.37 2.17.5 4.45.9 6.8 1.38 1.182.24 2.37.47 3.592.71 1.209.223 2.448.45 3.698.67 2.49.46 5.07.893 7.722 1.32 2.64.45 5.34.86 8.08 1.271 2.738.421 5.528.811 8.358 1.198 2.82.4 5.68.78 8.57 1.13 2.88.383 5.79.74 8.72 1.07 2.92.34 5.86.68 8.8.98 5.87.64 11.75 1.18 17.54 1.697 2.9.23 5.78.473 8.62.7 2.84.2 5.65.393 8.41.58 2.76.21 5.479.32 8.14.48 2.66.157 5.271.29 7.812.38 2.528.1 5 .22 7.39.277 2.38.063 4.689.12 6.91.172 3.87.078 7.46.078 10.71.091-.403-.448-.803-.888-1.192-1.338z"/><path fill="#DE82A1" d="M1314.615 630.951c8.237-26.469 20.978-30.033 22.885-56.951 1.904-26.916-11-49-28.167-70.725-12.476-15.788-14.333-30.775-17.332-47.375-3.135-17.354-11.442-43.032-27.174-65.019-13.151-18.378-34.167-32.97-48.827-39.384-8-3.5-17.394 1.396 2.5 17.5 21 17 38.041 39.863 35.821 57.181-3.821 29.819.826 55.754 18.258 79.268 17.432 23.512 5.846 53.039-12.579 66.054-18.427 13.018-44.24 39.721-37.651 81.563 6.587 41.839 17.683 64.9-5.381 76-23.063 11.098-33.354 2.788-56.944 24.512-14.772 13.601-22.765 43.622-37.354 61.262-18.336 22.167-41.165 34.293-81.669 31.5-19.333-1.333-16.446 10.152 4 13.333 60 9.334 103.914-2.884 130.242-37.618 26.329-34.735 27.226-47.399 62.844-56.021 35.617-8.616 51.955-12.699 70.031-43.245 18.07-30.548-1.741-65.367 6.497-91.835z"/><path fill="#D3789F" d="M1308.115 722.783c-18.076 30.546-34.414 34.629-70.031 43.245-35.618 8.619-36.515 21.281-62.844 56.021-26.328 34.734-70.242 46.952-130.242 37.618-18.392-2.861-22.563-12.437-9.147-13.362-.271 2.438 2.754 4.825 10.483 6.028 60 9.334 98.578-2.883 124.906-37.617 26.329-34.737 24.642-43.597 60.26-52.216 0 0 50.396-3.267 76.615-39.717zM1260 571.5c18.425-13.015 30.011-42.542 12.579-66.054-17.432-23.514-22.079-49.446-18.258-79.267 2.22-17.316-14.821-40.18-35.821-57.18-19.879-16.092-10.514-20.992-2.518-17.507-6.482-1.243-10.013 4.46 3.018 15.007 21 17 46.229 43.057 42.821 60.181-8.821 44.32-.753 57.808 16.679 81.32 0 0 34 42-18.5 63.5zm-27 106c-4.368-6.424-7.677-13.899-9.864-19.654 6.61 38.818 15.997 60.549-6.168 71.217-14.805 7.122-24.349 6.261-35.521 10.468 15.806-3.278 23.843 2.007 41.556-3.528C1255 726 1241.5 690 1233 677.5z"/><path fill="#8B5FA5" d="M1312.416 535.56c-4.942-21.53-14.325-37.184-14.325-37.184-11.912-28.213-9.424-49.209-4.758-47.542 4.094 1.462 1.875 16.983 10.299 28.827 8.422 11.842 25.032 19.17 25.639 43.926.368 15.109 1.697 25.003 8.729 47.244 9.932 31.42-.498 53.67-18.349 71.783-8.726 8.852-14.348 16.782-17.649 31.887-7 32-22 53.5-46.5 69.5-8.88 5.799-20.837 10.827-35.5 14.167-16.292 3.711-21.667-3.666-9.667-7.667 18-6.001 34.604-14.886 42.333-24.333 36-44 25.667-75.665 25.667-106 0-18.333 6-25 12-29 0 0 10.667-5 10.668-15 .001-7.729-.334-14 6.333-22-.002-.001 7.497-5.883 5.08-18.608z"/><path d="M1302.75 497.5s5.417 11.773 15 32.75c4.75 9.5-3.749 18.584-3.749 18.584-6.667 8-6.332 14.27-6.333 22-.001 8.969-8.576 13.912-10.346 14.838 2.013-2.39 3.679-5.556 3.679-9.505.001-7.729-.334-14 6.333-22 0 0 7.499-5.882 5.082-18.607-4.942-21.53-14.325-37.184-14.325-37.184-11.912-28.213-9.424-49.209-4.758-47.542 0 0-4.833 1.917-2.083 16.167s11.5 30.499 11.5 30.499zm-40.583 241.167c-8.88 5.799-23.337 12.327-38 15.667-10.046 2.288-22.334 0-13.663-3.893l-.171.059c-12 4.001-6.625 11.378 9.667 7.667 14.663-3.34 26.62-8.368 35.5-14.167 4.555-2.975 8.779-6.14 12.687-9.526a124.225 124.225 0 0 1-6.02 4.193zm-2.834-17.833c36-44 25.667-75.665 25.667-106 0-12.887 2.966-20.005 6.812-24.489-.893.546-1.479.822-1.479.822-6 4-12 10.667-12 29 0 30.335 10.333 62-25.667 106a37.468 37.468 0 0 1-3.361 3.566c4.097-2.856 7.531-5.847 10.028-8.899zM1302 674.5c2.515-11.498 6.379-18.838 11.926-25.593-7.092 5.594-14.751 7.645-13.926 18.093.759 9.61-.4 16.334-1.005 19.023A144.903 144.903 0 0 0 1302 674.5z" fill="#8457A2"/><path fill="#DE82A1" d="M1155.75 314.5c-14.004-5.186-29.705-8.042-39.5-11-12.978-3.92-25.818-11.421-33.514-18.694-5.646-5.334-8.64-12.822-5.207-15.967 0 0 5.197-5.688 17.514 6.69 14.094 14.167 33.531 18.863 53.413 25.357 0 0 15.421 5.458 19.644 8.725 6.65 5.139 4.677 11.229-12.35 4.889z"/><path fill="#D3789F" d="M1171.195 313.057c-1.208 1.409-5.142 1.442-13.195-1.557-14.004-5.186-29.705-8.042-39.5-11-12.978-3.92-25.818-11.421-33.514-18.694-5.534-5.23-6.199-12.142-2.454-14.177-3.438-.493-5.003 1.21-5.003 1.21-3.433 3.146-.438 10.633 5.207 15.967 7.693 7.273 20.536 14.774 33.514 18.694 9.795 2.958 25.496 5.814 39.5 11 13.211 4.919 17.354 2.354 15.445-1.443z"/><path fill="#DE82A1" d="M1196.968 328.125c2.932 6.015-4.679 9.473-10.185 4.567-1.552-1.383-4.146-3.395-6.867-5.093 0 0-4.627-3.726-2.695-6.728 2.698-4.197 15.045-1.553 19.747 7.254z"/><path fill="#D3789F" d="M1187.797 330.348c-1.342-1.218-3.604-2.971-6.008-4.417 0 0-4.029-3.258-2.064-6.232.144-.215.319-.404.505-.587-1.341.27-2.416.842-3.009 1.764-1.932 3.002 2.695 6.728 2.695 6.728 2.724 1.698 5.314 3.71 6.867 5.093 5.103 4.546 12.004 1.906 10.655-3.291-1.463 2.954-6.188 4.076-9.641.942z"/><path fill="#FFA7BD" d="M1335.945 494.897s-2.932 1.527-.639 5.985c.827 1.61 3.483 5.205 4.203 7.006 1.783 4.458 5.458 4.228 6.242.254 1.158-5.851-2.165-16.413-9.806-13.245z"/><path fill="#F49BB4" d="M1341.155 505.758c-.628-1.572-2.945-4.709-3.667-6.114-2.001-3.89.556-5.224.556-5.224.078-.032.153-.055.229-.084-.728.044-1.5.218-2.328.561 0 0-2.932 1.529-.638 5.987.826 1.61 3.482 5.205 4.202 7.006 1.783 4.458 5.458 4.228 6.242.254.023-.115.041-.236.063-.356-1.243 1.535-3.448.996-4.659-2.03z"/><path fill="#FFA7BD" d="M1356.001 514.667c34 9.667 25.499 47.833 9.666 79.667-3.056 6.145-5.124 13.563-2.667 26.666 4 21.333 10.667 33.334-16 53.334-9.164 6.873-28.205 10.967-32.666 20-4.461 9.032-14.202 9.333-6.117-6.788 8.088-16.123 16.225-19.769 26.116-30.212 12-12.667 16.874-23.029 14.23-44.588-1.647-13.448-2.022-33.525 4.937-47.746 5.096-10.413 0-26-6-37-4.612-8.455.896-15.496 8.501-13.333z"/><path fill="#F49BB4" d="M1307.875 691.5c8.088-16.123 21.563-22.223 31.458-32.666 12-12.667 16.874-23.029 14.23-44.588-1.647-13.448-2.022-33.525 4.937-47.746 5.096-10.413 0-26-6-37-4.329-7.936.834-16.5 13.25-10.75-2.125-1.5-8.479-3.723-9.749-4.083-7.604-2.162-13.113 4.878-8.501 13.333 6 11 11.096 26.587 6 37-6.959 14.221-6.584 34.298-4.937 47.746 2.644 21.559-2.23 31.921-14.23 44.588-9.895 10.443-18.028 14.089-26.116 30.212-5.346 10.658-2.896 14.134.663 12.658-2.38-.079-4.229-2.277-1.005-8.704zM1362 594.75c-4.25 4.75-4.625 17.084 1.144 26.993-.048-.248-.097-.492-.144-.743-2.457-13.104-.389-20.521 2.667-26.666a190.677 190.677 0 0 0 4.333-9.33v-.254s-4.483 6.069-8 10z"/><path fill="#FFA7BD" d="M1020.755 851.76s-1.616 1.319.121 3.153c1.739 1.833 2.5 4.667 4.542 3.843 1.312-.53 2.126-3.523.12-5.748-1.174-1.297-3.532-1.976-4.783-1.248z"/><path fill="#F49BB4" d="M1026.272 854.092c.101 1.428-.515 2.674-1.313 2.998-2.042.824-2.803-2.01-4.542-3.843a4.137 4.137 0 0 1-.313-.374c-.106.537.013 1.239.771 2.04 1.739 1.833 2.5 4.667 4.542 3.843 1.107-.447 1.854-2.651.855-4.664z"/><path fill="#FFA7BD" d="M1014.682 855.097c-1.116 1.733-3.54 2.362-7.171 1.501-7.899-1.88-9.464.494-11.525-1.974-3.331-3.973 4.394-9.62 12.42-8.109 8.023 1.51 7.343 6.924 6.276 8.582z"/><path fill="#F49BB4" d="M1014.215 849.481c.233 1.263-.123 2.442-.541 3.058-1.064 1.562-3.336 2.155-6.712 1.437-7.349-1.569-8.838.567-10.729-1.604-.365-.419-.579-.861-.666-1.314-.581 1.19-.522 2.446.418 3.568 2.063 2.468 3.626.094 11.525 1.974 3.631.861 6.057.232 7.172-1.501.664-1.035 1.176-3.522-.467-5.618z"/><path fill="#8B5FA5" d="M1265 385.167c-3.394 2.715-2.406 9.134 4.022 16.366 6.43 7.23 7.668 8.229 7.683 16.827.013 8.597.965 18.255 6.295 23.808 8 8.333 19.159-3.04 9.323-15.296-8.323-10.371-12.469-17.915-12.765-26.238-.391-11.134-7.891-20.801-14.558-15.467z"/><path fill="#8457A2" d="M1284.452 438.427c-5.178-5.219-5.938-14.455-5.785-22.69.149-8.237-1.059-9.17-7.295-15.979-6.234-6.807-7.091-12.938-3.675-15.604.213-.167.427-.318.641-.456-1.111.123-2.236.587-3.338 1.469-3.396 2.715-2.406 9.134 4.021 16.366 6.432 7.23 7.668 8.229 7.685 16.827.013 8.597.965 18.255 6.295 23.808 5.444 5.671 12.346 2.211 13.103-4.438-2.487 3.687-7.555 4.825-11.652.697z"/><path fill="#FFA7BD" d="M1038.334 857.001c-2.667 4.666 11.053 8.998 28 13.333 28.667 7.333 110.184 12.589 135.168-40.334 5.665-12 11.33-20 22.332-28 13.041-9.482 17.668-21 11.668-23s-9.668 13.667-27.668 19.667c-20.103 6.701-34.632 2.473-46.667 23.333-10 17.333-7.333 20-20 30.666-6.137 5.167-26.189 10.763-45.333 9.334-44.667-3.334-54.225-10.729-57.5-4.999z"/><path d="M1069.333 867c-15.259-3.903-27.895-7.804-28.314-11.948-1.238.269-2.07.878-2.685 1.949-2.667 4.666 11.053 8.998 28 13.333 19.094 4.884 61.629 8.84 95.294-4.695-34.513 9.644-74.839 5.826-92.295 1.361zm154.834-70.334c-4.421 3.215-13.595 14.408-14.417 18.334 6-7 11.631-11.216 14.084-13 10.676-7.763 15.708-16.886 13.893-21.038-1.672 4.543-6.316 10.436-13.56 15.704z" fill="#F49BB4"/><path fill="#F49BB4" d="M1111 862.333c24 4.334 41.667-9.666 44.334-26.999.188-1.22.414-2.408.666-3.556-4.408 9.168-5.035 12.638-14.833 20.888-4.686 3.944-17.482 8.136-31.792 9.264a12.86 12.86 0 0 0 1.625.403z"/></svg>