<svg xmlns="http://www.w3.org/2000/svg" width="1920" height="1080"><circle fill="#FFEBCB" cx="864" cy="585.498" r="301.211"/><path fill="#FEDCA3" d="M708 747l289.481 108.568a301.3 301.3 0 0 0 52.786-33.349L827.601 659.031c-1.171 1.521-2.614 2.687-4.343 3.348-7.737 2.959-17.928-4.887-22.762-17.525-3.032-7.928-3.233-15.854-1.054-21.396l-135.43-263.174L708 747z"/><path fill="#F8CA7E" d="M999.019 854.806a301.829 301.829 0 0 0 66.866-45.773l-238.284-150 171.418 195.773zM679.47 347.432L667 386.5l142 255.167z"/><path fill="#DE82A1" d="M1093.67 798.977s-3.766-5.239-16.374 7.04c-41.816 40.727-124.559 82.654-193.542 75.648-88.396-8.979-123.812-66.671-140.514-86.32-16.702-19.648-35.735-33.558-74.666-37.333-52.046-5.048-71.146-35.815-63.859-77.612 6.246-35.831 8.865-60.72 9.521-91.503.328-15.472-14.008-41.909-17.356-46.666-14.385-20.441-20.399-50.782.959-68.146 29.169-23.715 62.269-39.898 63.228-74.147.639-22.778.632-40.799 18.315-54.553 17.685-13.754 55.017-20.631 51.087-31.438-3.93-10.808-35.368-6.877-61.894 10.807-26.526 17.684-37.302 23.698-52.07 27.508-45.169 11.653-63.508 29.337-73.684 83.508 0 0-.959 16.565-12.748 26.391-9.089 7.574-18.69 31.575-4.937 61.048 13.754 29.474 16.905 39.576 13.778 68.965-3.275 30.783-16.808 59.93-14.135 104.875 3.933 66.116 45.573 134.188 115.654 172.175 63.995 34.689 182.441 58.538 256.091 46.503 91.006-14.869 170.646-56.638 193.341-104.655 2.296-4.861 4.624-9.884 3.805-12.095z"/><path fill="#D3789F" d="M596.878 542.229c-14.385-20.44-20.398-50.781.959-68.146 6.825-5.549 13.862-10.685 20.655-15.736l.008-.347s-19.451 14.416-33.25 19.5c-14.25 5.25-26.603 30.721-3.583 49.5 12.666 10.333 16.691 17.332 15.211 15.229zm68.462-177.887c2.572-7.049 6.839-13.357 14.041-18.959 17.685-13.754 55.018-20.631 51.087-31.438-.572-1.577-1.748-2.831-3.392-3.783C723 325 704 324.333 682 332.333c-13.539 4.924-15.043 19.506-16.66 32.009z"/><path fill="#D3789F" d="M1092.758 798.286c-22.832 47.927-102.366 89.59-193.231 104.438-73.65 12.035-192.097-11.813-256.092-46.503-70.082-37.987-111.722-106.059-115.654-172.175-2.673-44.945 10.859-74.092 14.135-104.875 3.127-29.389-.023-39.491-13.778-68.965-6.091-13.053-7.597-25.028-6.599-34.983-4.385 11.535-5.46 28.571 3.599 47.983 13.755 29.474 16.905 39.576 13.778 68.965-3.275 30.783-16.808 59.93-14.135 104.875 3.933 66.116 45.572 134.188 115.654 172.175 63.995 34.689 182.441 58.538 256.092 46.503 91.005-14.87 170.646-56.638 193.34-104.655 2.296-4.856 4.624-9.881 3.805-12.092-.002 0-.276-.376-.914-.691z"/><path fill="#D3789F" d="M604.715 680.398a976.064 976.064 0 0 0 2.53-15.187l-.245-.214s-3.821 24.646-9.5 39.501c-6.5 17-1 37.5 24 43.75 5.656 1.414 11.822 2.92 23.72 5.125-34.321-11.022-46.573-38.167-40.505-72.975z"/><path fill="#8B5FA5" d="M1125.431 821.721c6.25-6.25 5.992-12.459-11.931.279-60.5 43-84.299 33.826-132.5 63-44.019 26.643-87 22.5-120.5 15-27.367-6.127-62.701-24.021-101-18-14.532 2.285-29.055-.993-39.167-14.333-7.273-9.598-13.895-18.14-20-21.667-15-8.667-26.418.734-25.333 10.5 2.361 21.247 37.653 26.239 50.313 34.152C737.975 898.566 751.5 935.5 814 932.5c36.904-1.771 54.178-5.666 79.5-2.5 25.322 3.165 69 2 95.514-23.737 20.878-20.268 38.162-31.767 63.486-41.263 25.32-9.496 53.587-23.936 72.931-43.279z"/><path fill="#8457A2" d="M1124.799 815.282c3.201.385 1.747 2.944-.799 5.051-18.535 15.329-48.847 28.546-70.5 36.667-25.324 9.496-42.608 20.995-63.486 41.263C963.5 924 919.822 925.165 894.5 922c-25.322-3.166-42.596.729-79.5 2.5-62.5 3-76.025-33.934-88.687-41.848-12.66-7.913-43.952-7.405-46.313-28.652-.329-2.957.128-6.383 1.333-9.484-4.401 2.532-6.863 7.212-6.333 11.984 2.361 21.247 37.653 26.239 50.313 34.152C737.975 898.566 751.5 935.5 814 932.5c36.904-1.771 54.178-5.666 79.5-2.5 25.322 3.165 69 2 95.514-23.737 20.878-20.268 38.162-31.767 63.486-41.263 25.32-9.496 53.587-23.936 72.931-43.279 4.462-4.462 5.601-8.899-.632-6.439z"/><path fill="#8457A2" d="M869.964 901.959c9.862 2.403 27.717 5.578 35.036 7.042 8.248 1.649 29.468 4.453 54.667-10.667 6.667-4 15.667-10 21.333-13.334-39.976 24.196-79.095 23-111.036 16.959z"/><path fill="#FFA7BD" d="M638.53 633.79s11.136 2.878 7.146 31.256c-4.211 29.945-14.354 61.605.739 62.462 15.094.855 19.016 13.585 20.556 25.513 1.541 11.925 7.876 17.513 23.753 21.551 15.875 4.038 15.693 21.634 5.678 17.702-6.82-2.679-19.933-12.584-32.825-19.452-26.921-14.339-61.39-78.188-45.301-126.594-.002.001 5.414-16.425 20.254-12.438z"/><path fill="#F49BB4" d="M642.5 637c-6.333-4.833-15.135-1.602-18.5 5.5-7.549 15.932-3.5 49.75-3.5 49.75 4.288 28.748 17.215 57.856 41.5 74.584 10.597 7.299 21.167 11.5 30 18.5 3.594 2.849 10.333-.833 5.323-7.785 8.934 6.315 7.43 18.002-.923 14.725-6.82-2.679-19.933-12.584-32.825-19.452-26.921-14.339-61.391-78.188-45.301-126.594 0 0 1.592-4.811 5.401-8.593l-.011.031s3.751-4.332 9.501-4.666c2.7-.157 7.168.333 9.335 4z"/><path fill="#F49BB4" d="M646.415 727.508c-10.395-.59-8.821-15.784-5.458-34.966-2.01 7.544-4.609 16.833-5.79 24.625-1.667 11 6.167 12.5 9.5 11.5a31.637 31.637 0 0 0 3.003-1.056 26.004 26.004 0 0 0-1.255-.103z"/><path fill="#FFA7BD" d="M711.579 790.449c1.854-1.569 4.801-1.444 8.593.773 8.255 4.835 10.829 2.699 12.308 6.188 2.384 5.621-8.259 9.324-16.778 4.862-8.522-4.459-5.892-10.324-4.123-11.823z"/><path fill="#F49BB4" d="M732.479 797.411a4.354 4.354 0 0 0-.67-1.127c-.156 4.601-7.776 6.66-14.515 3.163-6.961-3.613-7.295-7.613-4.706-9.614a4.264 4.264 0 0 0-1.01.616c-1.771 1.499-4.399 7.361 4.121 11.825 8.522 4.461 19.163.758 16.78-4.863z"/><path fill="#8B5FA5" d="M863.667 813.333c.168-2.862 4.225-11.712 19-9.666 14.775 2.047 48.82 11.173 84.251-2.415 55.415-21.252 100.536-7.353 114.082-8.585 14.667-1.334 14 11.333-3.333 10-33.236-2.556-63.258-4.036-82.667 8.666-45.333 29.667-133.333 36-131.333 2z"/><path fill="#8457A2" d="M1088.403 793.506c-2.047 1.702-5.995 2.896-11.9 2.446-32.854-2.497-62.53-3.935-81.729 8.638-44.841 29.363-136.037 33.227-125.024 1.41.104-.301.236-.592.368-.882-4.74 2.352-6.348 6.438-6.451 8.215-2 34 86 27.667 131.333-2 19.409-12.702 49.431-11.222 82.667-8.666 13.546 1.042 16.913-6.467 10.736-9.161z"/><path fill="#FFA7BD" d="M921.738 850.301s-2.057 2.469 1.106 4.729c3.164 2.261 5.146 6.318 7.988 4.475 1.826-1.186 2.181-5.949-1.501-8.719-2.153-1.617-5.917-1.95-7.593-.485z"/><path fill="#F49BB4" d="M931.908 854.449c-.164 1.069-.62 1.941-1.268 2.36-2.842 1.845-4.825-2.214-7.987-4.475-.626-.446-.822-1.775-.629-2.256-1.875 1.347-1.315 3.422.821 4.949 3.164 2.261 5.146 6.318 7.988 4.475 1.142-.739 1.708-2.876 1.075-5.053z"/><path fill="#FFA7BD" d="M846.969 855.308s-.101-10.28 13.001-7.368c16.252 3.61 36.518 5.817 47.512 4.887 8.099-.688 12.381 9.861-9.489 14.677-9.693 2.134-20.401 1.858-27.789 1.324-14.213-1.03-23.196-6.355-23.235-13.52z"/><path fill="#F49BB4" d="M910.356 853.081c2.016 3.295.02 7.979-12.271 10.851-9.411 2.197-19.789 1.996-26.946 1.515-13.77-.931-22.439-6.186-22.429-13.338 0 0 0-.946.35-2.185-2.115 2.312-2.091 5.384-2.091 5.384.039 7.165 9.022 12.49 23.234 13.52 7.388.534 18.096.81 27.789-1.324 19.07-4.2 18.254-12.756 12.364-14.423z"/><path fill="#8B5FA5" d="M555.718 666.489c-8.5-6.545-12.093-16.522-13.584-29.021-5.376-45.079 26.504-56.594 17.801-83.205-7.383-22.563-10.638-22.926-10.642-52.581-.003-27.054.035-58.018 49.896-81.449 21.553-10.129 5.132-28.426-13.095-12.656-26 22.5-23.62 35.445-38.256 35.954-27.123.943-42.532 27.237-32.242 58.958 10.292 31.725 2.37 46.054-3.303 58.879-7.833 17.715-9.567 33.337 3.094 55.829 7.048 12.521 15.359 19.386 17.363 29.116 3.854 18.715 7.771 26.569 14.326 32.727 8.356 7.847 20.391-3.505 8.642-12.551z"/><path fill="#8457A2" d="M532.751 646.313c3.854 18.716 7.771 26.57 14.326 32.728 4.771 4.481 10.736 2.697 12.793-1.339-2.771 1.791-9.37 1.133-12.537-1.95-5.298-5.158-7.417-8.25-12-26 0 0-.917-9.751-6.833-13.084 0-.002 2.75 3.498 4.251 9.645zM549.25 507.25c-.003-27.054.078-63.585 49.938-87.018 13.6-6.392 12.072-16.026 4.521-18.312 4.291 2.83 2.702 9.153-5.709 14.08-17.5 10.25-29.35 19.216-36.5 27.5-13.707 15.882-16.002 28.887-16 46.667 0 0 .457 13.067 3.75 17.083zm10.685 47.014s2.775 13.498-7.685 27.236c-16.75 22-20.165 33.197-15.45 51.303 1.705 6.546 5.964 16.023 10.325 23.198l.03.006c-2.673-5.271-4.183-11.505-5.021-18.538-5.376-45.079 26.504-56.594 17.801-83.205zM527 527.5c-5.222-6.584-10.25-21.5-10.25-21.5l-.031.146c7.861 26.865 2.118 40.623-3.097 52.25.127-.134.303-.227.377-.396 5.251-12 18.751-23.25 13.001-30.5z"/><path fill="#ECA126" d="M1218.688 441.813l-21.248-34.3a2.197 2.197 0 0 0-2.287-1.18l.008-.009-10.1 2.19-13.282 14.74-39.839 29.385c-1.118.684-1.542 2.195-.94 3.36l4.14 7.916-5.994 6.653 10.457-1.459.013-.015c.274-.019.548-.074.808-.186l77.182-24.038a2.187 2.187 0 0 0 1.082-3.057z"/><path fill="#FEBA4B" d="M1129.899 470.386c-1.208.511-2.699-.02-3.315-1.179l-6.067-11.023c-.614-1.157-.201-2.665.916-3.347l62.365-46a2.204 2.204 0 0 1 3.137.873l20.654 31.4a2.169 2.169 0 0 1-1.095 3.041l-76.595 26.235z"/><path fill="#ECA126" d="M747.994 281.206l-21.661-77.373a1.687 1.687 0 0 0-1.998-.979l-.002-.021-12.546 2.978 1.116 7.548-14.615 13.685a1.77 1.77 0 0 0-.727 2.448l24.01 42.518 3.182 21.525 9.465-1.867-.001-.01c.16-.035.319-.083.47-.162l12.409-7.751c.895-.468 1.3-1.611.898-2.539z"/><path fill="#FEBA4B" d="M738.65 283.044c.4.928-.003 2.07-.899 2.539l-12.407 7.751a1.919 1.919 0 0 1-2.534-.747l-34.591-61.257a1.765 1.765 0 0 1 .727-2.448l22.351-22.883a1.692 1.692 0 0 1 2.361.839l24.992 76.206z"/><path fill="#ECA126" d="M1077.108 934.769l-34.326-60.672c-.411-.726-1.257-1.077-2.046-.925l-.002-.011-9.313 1.841.507 2.938-2.27 1.257c-.903.471-1.313 1.62-.908 2.554l7.695 22.391 8.745 50.712 9.477-1.853-.005-.026c.2-.024.399-.078.594-.179l21.119-15.563a1.778 1.778 0 0 0 .733-2.464z"/><path fill="#FEBA4B" d="M1019.342 883.601c-.403-.934.004-2.081.907-2.553l10.571-5.855a1.935 1.935 0 0 1 2.553.756l32.96 59.387a1.775 1.775 0 0 1-.732 2.462l-19.754 16.85a1.706 1.706 0 0 1-2.379-.847l-24.126-70.2z"/><path fill="#ECA126" d="M986.474 216.794L957 197.667c-.492-.21-.974-.171-1.35.052l-.001-.005-9.504 3.731 6.078 39.622-2.074 32.096c-.18 1.01.445 2.168 2.308 2.854l5.491 2.355 1.195 7.797 8.601-3.881-.003-.018c.328-.203.768-.604.949-1.195l18.95-61.762c.303-.982-.222-2.115-1.166-2.519z"/><path fill="#FEBA4B" d="M960.125 285.086c-.301.981-1.319 1.453-2.262 1.048l-15.81-6.668c-.942-.404-1.567-1.562-1.389-2.573l4.813-74.392c.179-1.01 1.097-1.507 2.041-1.103l29.473 19.128c.943.403 1.469 1.536 1.168 2.518l-18.034 62.042z"/><path fill="#ECA126" d="M1217.725 736.318l.021.004-1.625-10.813-36.608-5.472-18.308-7.507c-.904-.314-2.169.183-2.811 1.104l-2.172 2.921-6.515-.974 2.125 7.542.003.001c.032.438.266.851.68 1.265l41.979 38.885c.805.424 1.989.016 2.632-.906l20.25-24.75c.311-.441.417-.903.349-1.3z"/><path fill="#FEBA4B" d="M1150.353 716.817c-.686-.65-.938-1.525-.298-2.448l6.177-8.307c.641-.924 1.904-1.421 2.81-1.105l56.234 19.544c.905.315 1.118 1.327.476 2.249l-20.25 24.75c-.643.922-1.827 1.33-2.632.906l-42.517-35.589z"/><path fill="#E39823" d="M1086.39 849.41a3.995 3.995 0 0 1 .58-5.63 3.997 3.997 0 0 1 5.62.579c1.39 1.721 1.14 4.239-.58 5.631a3.943 3.943 0 0 1-2.52.898 3.986 3.986 0 0 1-3.1-1.478zm36.69-33.85a3.997 3.997 0 0 1-.25-5.648 3.999 3.999 0 0 1 5.649-.261 4.01 4.01 0 0 1 .261 5.649c-.79.86-1.881 1.3-2.96 1.3a4 4 0 0 1-2.7-1.04zm31.29-38.92a4 4 0 0 1-1.102-5.55 4 4 0 0 1 5.551-1.1 3.998 3.998 0 0 1 1.101 5.55 4.004 4.004 0 0 1-3.33 1.771 3.962 3.962 0 0 1-2.22-.671zm43.568-89.59a4 4 0 0 1-2.688-4.979c.64-2.109 2.859-3.319 4.979-2.681a3.995 3.995 0 0 1 2.689 4.971 4.003 4.003 0 0 1-3.83 2.859c-.378 0-.769-.06-1.15-.17zm11.232-48.64a4.002 4.002 0 0 1-3.399-4.521c.3-2.188 2.329-3.71 4.521-3.41a4.003 4.003 0 0 1 3.399 4.521 3.992 3.992 0 0 1-3.96 3.439 5.38 5.38 0 0 1-.561-.029zm-.18-53.75c0-.11 0-.23.01-.341-.01-.119-.021-.239-.021-.359a4.013 4.013 0 0 1 3.959-4.05 3.999 3.999 0 0 1 4.041 3.96c0 .12 0 .239-.011.358a4.006 4.006 0 0 1-3.951 4.4h-.028a3.99 3.99 0 0 1-3.999-3.968zm-4.18-49.86a4.003 4.003 0 0 1 3.32-4.58 3.995 3.995 0 0 1 4.58 3.32 3.995 3.995 0 0 1-3.311 4.58 4.01 4.01 0 0 1-4.589-3.32zm-11.44-47.97c-.67-2.1.489-4.36 2.59-5.03 2.1-.67 4.359.49 5.03 2.601.67 2.1-.49 4.35-2.591 5.02a4 4 0 0 1-5.029-2.591zm-43.65-88.13c-1.27-1.811-.819-4.3.99-5.57a4.007 4.007 0 0 1 5.57.99c1.26 1.81.818 4.3-.99 5.57-.7.489-1.5.72-2.29.72-1.26 0-2.5-.6-3.28-1.71zm-31.17-38.22a3.992 3.992 0 0 1 .15-5.66 3.985 3.985 0 0 1 5.648.16 3.997 3.997 0 0 1-.148 5.649 3.996 3.996 0 0 1-2.75 1.101 3.97 3.97 0 0 1-2.9-1.25zm-36.51-33.19a3.995 3.995 0 0 1-.681-5.61 3.984 3.984 0 0 1 5.609-.689 3.994 3.994 0 0 1 .69 5.609 4.003 4.003 0 0 1-3.16 1.54c-.858 0-1.727-.28-2.458-.85zm-41.019-27.41a4.003 4.003 0 0 1-1.521-5.45 4 4 0 0 1 5.45-1.51c1.92 1.08 2.6 3.52 1.52 5.45a4.005 4.005 0 0 1-3.49 2.03c-.67 0-1.34-.17-1.959-.52zM996.35 278.9a4 4 0 0 1-2.31-5.16c.779-2.07 3.09-3.1 5.16-2.32a4 4 0 0 1 2.31 5.16 4.003 4.003 0 0 1-3.739 2.58c-.471 0-.952-.08-1.421-.26zm-199.02-15.5a4.003 4.003 0 1 1 7.79-1.86c.51 2.15-.82 4.31-2.97 4.82-.311.08-.62.11-.931.11a4.01 4.01 0 0 1-3.889-3.07zm49.2-8.48c-.18-2.2 1.449-4.14 3.649-4.32a3.993 3.993 0 0 1 4.32 3.65c.19 2.2-1.45 4.13-3.649 4.32-.11.01-.23.01-.341.01-2.049 0-3.809-1.57-3.979-3.66zm53.65 3.14a3.993 3.993 0 0 1-3.729-4.24 3.99 3.99 0 0 1 4.24-3.74c2.21.14 3.88 2.04 3.739 4.25a4.008 4.008 0 0 1-3.989 3.74c-.081 0-.17 0-.261-.01z"/><path fill="#3A4247" d="M841.871 629.115c-5.593-14.625-17.386-23.703-26.339-20.278l-13.308 4.482 4.37 11.427c-.279 5.119.624 10.943 2.854 16.771 2.228 5.826 5.44 10.769 9.065 14.395l3.966 10.369 13.308-4.483c8.954-3.427 11.677-18.059 6.084-32.683z"/><path fill="#3A4247" d="M1156.671 850.162c-1.147-2.55-33.303-74.1-42.5-93.5-4.503-9.498-9.533-13.864-14.255-15.246-4.483-1.313-8.409-.112-11.146 2.387l-5.313 4.322 1.456 2.886a12.593 12.593 0 0 0 .502 6.155c2.462 7.181 2.649 8.698 4.5 14.25.923 2.768 4.858 14.183 9.181 26.686L833.25 628.834l1.755 23.496 244.024 179.12c-11.69-1.693-24.723-3.559-36.029-5.117-5.739-.792-10-1.333-15.667-2-4.792-.563-8.333 1.081-10.602 3.061l-6.439 5.106 3.141.99c-2.272 15.279 18.733 18.509 18.733 18.509s77.744 17.452 105.113 20.521l9.407 2.966.732-.583.002.005 2.297-1.837 4.188-3.335-.023-.009c6.697-5.339 4.577-15.593 2.789-19.565zm-336.332-234L699.464 366.469l5.744 4.948 7.234-3.359c.008-.004.018-.007.025-.012l.031-.015-.003-.003a3.524 3.524 0 0 0 1.42-1.362c.833-1.417 1.208-4.229-1.911-6.67-9.749-7.629-33.922-25.829-35.922-27.163-1.14-.76-3.362-1.487-5.109-.727l-7.392 3.455 4.867 4.192c-.122 10.608.217 38.786.217 40.746 0 2.75 6.331 6.816 8.5-.833.881-3.107 1.721-6.075 2.479-8.756l129.692 252.252 11.003-7z"/><path fill="#3A4247" d="M670.781 332.219l-6.562 3.156 1.75 52.156 8-3.625z"/><path fill="#3F484C" d="M812.505 620.496L691.113 368.301l7.762 2.887s5.499 2.45 7.542-1.021c.833-1.417 1.208-4.229-1.911-6.67-9.749-7.629-33.922-25.829-35.922-27.163s-7.333-2.583-7.578 4.163c-.254 7.013.161 41.333.161 43.504 0 1.343 1.037 3.13 2.833 3.583 1.884.476 4.557-.501 5.667-4.417.876-3.089 1.711-6.041 2.465-8.709l129.374 253.039 10.999-7.001zm337.5 235c-1.147-2.55-33.303-74.1-42.5-93.5-4.503-9.498-9.533-13.864-14.255-15.246-10.188-2.982-17.5 7-14.5 15.75 2.462 7.181 2.649 8.698 4.5 14.25.971 2.913 5.279 15.404 9.863 28.662L823.25 633.667l1.755 23.496 244.532 179.212a5452.93 5452.93 0 0 0-33.203-4.708c-5.739-.792-10-1.333-15.667-2-8.248-.971-12.831 4.595-13.5 7.166-4.334 16.668 18.333 20.5 18.333 20.5s99.473 22.33 113 20.917c16.75-1.75 13.833-17.583 11.505-22.754z"/><ellipse transform="rotate(-110.929 812.334 639.834)" fill="#495459" cx="812.318" cy="639.817" rx="28.349" ry="17.356"/><path fill="#995D48" d="M830.293 374.748c2.993 7.671-8.795 13.703-18.643 13.329-6.955-.267-9.229-1.448-18.472-1.827l3.374-19.344s2.532-.505 9.605-.553c9.716-.068 22.014 2.96 24.136 8.395z"/><path fill="#874F44" d="M769.654 382.666c2.023-.375 14.027-4.159 14.028-4.157.623-.143-.16.052.603-.131 2.328-.566 6.94-.6 9.178-.321 3.448.422 4.642 1.837 4.642 1.837l-3.735 6.411c-.534.272-3.595.258-7.114.813-3.961.625-8.494 1.817-10.501 2.022-9.288.944-10.214-5.897-7.101-6.474z"/><path fill="#995D48" d="M770.065 383.206c1.684-.229 7.845-2.294 11.437-3.402 1.617-.5 2.269-.616 3.545-.75 6.052-.633 12.167.742 12.167.742s3.616 1.016 3.419 3.842c-.231 3.29-4.082 3.165-7.766 2.634-1.903-.242-4.402-.022-6.521.198-2.082.47-6.909 1.56-9.912 1.705-8.45.415-8.808-4.634-6.369-4.969z"/><path fill="#874F44" d="M794.332 381.604c-1.046.649-4.415.777-6.3.813-1.583.032-3.979-.159-5.173-.276-1.622-.16-2.624-.958-2.604-2.011.048-2.327 1.355-4.319 4.027-5.198 2.139-.706 6.462-1.085 8.579-.993 3.263.136 4.489 1.371 4.489 1.371"/><path fill="#995D48" d="M792.922 381.688c-3.854-.179-6.551.057-9.168-.206-4.465-.442-2.901-4.588 1.294-5.971 5.436-1.792 11.461-.227 11.461-.227s3.469.681 3.496 3.347c.033 3.101-3.588 3.276-7.083 3.057z"/><path fill="#874F44" d="M770.958 381.629c2.17-.813 12.164-6.255 12.164-6.255s.831 1.941 1.4 3.672c.568 1.732 3.044 3.362 3.044 3.362s-5.525 3.07-8.97 4.047c-8.442 2.405-10.423-3.78-7.638-4.826z"/><path fill="#995D48" d="M783.794 376.031s-.916.273-2.332 1.001c-3.146 1.617-8.511 4.542-10.033 5.03-2.203.71-1.043 5.328 6.715 3.555 3.491-.795 9.832-4.033 9.832-4.033"/><path fill="#874F44" d="M795.931 377.833c-1.007.61-4.236.697-6.042.715-1.52.015-3.811-.194-4.952-.321-1.552-.169-2.504-.945-2.474-1.948.07-2.231 1.342-4.124 3.911-4.938 2.056-.653 6.2-.974 8.229-.864 3.125.162 4.287 1.361 4.287 1.361"/><path fill="#995D48" d="M794.58 377.9c-3.689-.215-6.274-.018-8.778-.293-4.271-.473-2.73-4.428 1.301-5.706 5.226-1.66 10.981-.1 10.981-.1s3.314.689 3.313 3.241c-.001 2.972-3.471 3.101-6.817 2.858z"/><path fill="#874F44" d="M774.208 380.156c1.907-1.137 10.398-7.968 10.398-7.968s1.111 1.687 1.945 3.222c.833 1.537 3.273 3.118 3.273 3.118s-4.516 3.368-7.596 4.881c-7.545 3.701-10.468-1.794-8.02-3.253z"/><path fill="#995D48" d="M785.354 372.693s-.817.412-2.026 1.338c-2.692 2.062-7.252 5.73-8.604 6.449-1.955 1.048-.074 5.202 6.936 2.213 3.156-1.348 8.888-5.159 8.888-5.159"/><path fill="#874F44" d="M797.708 372.962c-.854.702-3.845 1.217-5.518 1.472-1.409.219-3.564.333-4.644.368-1.466.049-2.455-.544-2.56-1.48-.235-2.082.694-4.011 2.972-5.111 1.823-.884 5.528-1.396 7.433-1.421 2.831-.038 4.32.274 4.32.274"/><path fill="#995D48" d="M796.461 373.206c-3.457.296-5.831.825-8.194.902-4.031.135-3.13-3.745.443-5.476 4.632-2.242 10.188-1.56 10.188-1.56s3.172.193 3.515 2.566c.394 2.763-2.812 3.345-5.952 3.568z"/><path fill="#874F44" d="M778.742 379.872c1.397-1.546 7.139-10.014 7.139-10.014s1.464 1.207 2.633 2.354c1.17 1.148 3.824 2.207 3.824 2.207s-3.153 3.956-5.501 6.159c-5.757 5.404-9.891 1.276-8.095-.706z"/><path fill="#995D48" d="M786.688 370.104s-.62.598-1.451 1.763c-1.848 2.59-4.928 7.139-5.941 8.155-1.466 1.479 1.364 4.688 6.831.073 2.463-2.078 6.555-7.073 6.555-7.073"/><path fill="#874F44" d="M819.11 382.126s-1.613 6.932-6.482 9.414c-5.523 2.815-12.931 5.928-16.168 9.707-1.86 2.167-5.917.161-5.308-4.161.235-1.683 1.829-4.651 4.18-6.6 1.996-1.653 2.97-1.885 3.815-3.254.604-4.996 8.564-10.463 14.164-11.346"/><path fill="#995D48" d="M821.888 382.226s-3.776 6.509-8.838 8.576c-5.061 2.069-13.939 5.769-17.181 9.545-1.858 2.168-4.144-.488-3.71-3.48.242-1.684 1.794-4.175 4.142-6.123 1.996-1.654 4.503-3.403 2.114-4.153.604-4.996 8.708-10.721 14.311-11.603"/><path fill="#F9604B" d="M817.72 451.332c8.775-8.246 9.596-6.486 19.18-17.851 15.737-18.663 23.861-33.854 29.101-50.147 5.24-16.296 45.167-17.833 32.667 20.667-8.977 27.648-25.08 56.883-47.7 73.922-9.651 7.269-42.024-18.346-33.248-26.591z"/><path fill="#DC5147" d="M833.351 364.405s-13.981-.71-18.061.752c-5.931 2.125-8.516 23.098-.588 28.006 1.807 1.118 6.825.347 15.72 2.635"/><path fill="#F9604B" d="M821.917 367.917c-3 3.5-4.208 9.25-3.667 15 .964 10.223 7.271 14.402 17.25 15.583 13.79 1.631 12.988 2.219 36.625 8.723 25.394 6.986 41.958-25.153 13.875-36.556-7.672-3.115-25.861-6.708-34.172-7.409-20.828-1.758-26.507.688-29.911 4.659z"/><path fill="#805A57" d="M884.409 605.39s14.236 24.89 57.223 20.678c42.987-4.211 88.296-9.438 103.868-11.061 27.165-2.829 31.353-29.243 13.833-41.34-21-14.5-127-25.334-153.285-16.364-25.387 8.663-35.103 25.967-21.639 48.087z"/><path fill="#805A57" d="M819.89 595.762s-4.69 25.652 10.034 48.306c14.726 22.653 40.332 37.395 59.214 20.266 18.883-17.131 33.995-36.666 44.668-42.59 10.674-5.922 21.838-33.074 2.194-51.408-15-14-21-19.667-48-26-15.699-3.684-59.663 9.074-68.11 51.426z"/><path fill="#755" d="M1009.5 594.5c-2.437 3.453-9.74 15.127-14.37 13.313-4.63-1.814-41.402-17.722-49.13-20.813-12.5-5-25.927-30.179-25.927-30.179s10.558 24.344 11.76 66.179c0 0 1.167 2 4.167 3 13.866-.445 58-5 71.5-7l16-35s-8 2-14 10.5z"/><path fill="#805A57" d="M827.798 629.756s-2.896 19.36 17.5 31.896c20.396 12.531 98.82 47.247 111.081 53.377 32.7 16.35 52.896-11.468 34.615-34.689-18.28-23.226-67.286-66.249-79.12-72.514-11.834-6.263-74.247-27.758-84.076 21.93z"/><path fill="none" stroke="#755" stroke-width="2" stroke-linecap="round" stroke-linejoin="round" stroke-miterlimit="10" d="M917.833 617.833s.083-19.749-6-27.416c-.379-.479-.806-.496-1.542-.001-1.103.741-2.969 2.219-3.5 2.625-.522.399-.438.938.69 3.707 1.419 3.486 3.186 10.752 2.56 18.793 0 0 8.208 1.459 14.958 5.459"/><path fill="#8C665E" d="M869.438 606.901c1.313-.104 2.83.047 5.896.656.113.022.507.339.512.776.039 2.845-2.414 22.712-17.442 32.146-.438.274-1.064.593-1.688-.252-.722-.977-2.415-3.76-2.799-4.729-.198-.501-.457-1.458.428-2.018 3.982-2.513 12.129-13.398 14.266-25.521.153-.87.6-1.04.827-1.058z"/><path fill="#644A51" d="M1068.448 792.813c-7.212 8.866-15.234 14.283-17.917 12.102-2.687-2.183-.162-12.632 7.052-21.497 7.208-8.865 16.377-12.792 19.061-10.609 2.684 2.182-.987 11.14-8.196 20.004z"/><path fill="#A86346" d="M1080.166 822.358c14.485 2.519 16.513-12.362 19.33-24.187s8.706-35.813 10.873-44.598c2.166-8.784-15.073-18.017-16.286-11.172-2.188 12.348-7.979 18.523-14.597 26.612-2.869 3.506-6.882 4.914-12.208 5.511-5.33.593-8.063 3.59-8.063 3.59s-9.291 7.596-5.414 18.8c0 0 .788 3.772 6.166 10.296 4.72 5.725 13.59 14.231 20.199 15.148"/><path fill="#805A57" d="M945.56 684.492s-8.207 10.115 7.44 31.175c21.256 28.606 53.176 45.18 74.632 65.322 1.165 1.095.132 3.592 1.285 4.845 1.438 1.563 2.951 1.379 3.953 2.126 1.033.771 1.34 1.863 1.566 3.228.625 3.75 1.533 4.768 3.188 5.188 3.438.875 4.479-.516 6.042.959C1047.673 801.112 1051 803 1051 803s-.662-9.984 12-24.25c2.107-2.373 10.364-8.544 14.188-5.063 0 0-54.688-44.688-84.984-91.841-9.257-14.404-35.425-18.272-46.644 2.646z"/><path fill="#FEBA4B" d="M1067.021 773.138c5.546-1.632 7.211-2.556 9.405-6.921 2.164-4.309 5.836-9.907 9.127-15.95 2.674-4.908 7.273-10.3 13.235-11.397 13.3-2.454 16.675 13.69 14.339 23.163-2.338 9.475-4.597 26.472-8.824 37.316-4.761 12.212-7.762 28.092-23.384 25.374-7.129-.987-16.694-10.162-21.782-16.334a56.484 56.484 0 0 1-2.521-3.284s-1.311-2.122 2.649-4.103c5.146-2.573 9.559-10.293 10.294-17.646.736-7.354-6.551-9.038-2.538-10.218z"/><path fill="#8C665E" d="M1073.75 769c-.681-.896-2-2.75-3.272-2.761-4.813.134-10.655 3.048-13.478 5.594-10.101 9.116-13.75 23.5-13.875 27.104.042 1.646.667 1.438 3.75 2.771.575.249 1.826 1.815 2.458 2.459.763.776 1.335.915 1.335.915s2.082-16.457 14.547-26.9c0 0 8.41-6.557 8.535-9.182z"/><path fill="#CEC1C3" d="M1110.877 743.673l.414-1.452c-1.742-1.218-3.563-1.9-5.008-2.289a9.5 9.5 0 0 0-2.577-.479 9.925 9.925 0 0 0-.206-.017l-.002.008c-3.011-.039-6.808 1.577-9.312 8.65-4.72 13.325-5.029 27.944-6.788 38.892-2.279 14.176-8.434 27.378-8.383 33.925.017 1.891.823 3.346 2.115 4.252l-.007.023s1.5.938 2.5 1.438 3.313.938 3.313.938l.496-1.739c2.763-.821 5.732-2.935 8.12-6.641 7.359-11.421 25.852-59.59 15.325-75.509z"/><path fill="#AA918B" d="M1111.291 742.221s-9.304-6.04-14.021 7.287c-4.722 13.323-5.029 27.943-6.789 38.892-2.279 14.175-8.436 27.377-8.381 33.924.055 6.778 10.286 7.969 16.534-1.729 7.878-12.227 28.517-66.569 12.657-78.374z"/><path fill="#ECA126" d="M1072.179 784.642c-.609-2.646-2.072-7.314-4.273-7.904.453 1.161 1.826 4.909 1.654 6.619-.735 7.354-5.146 15.072-10.294 17.646-3.96 1.979-2.649 4.102-2.649 4.102.656.929 1.43 1.939 2.307 3.015 11.463-5.831 14.909-16.309 13.255-23.478z"/><path fill="#ECA126" d="M1068.917 778.496c.317-.182 3.839.846 10.083-9.496 1.787-2.963 4.565-.823 3.094 3.794-1.362 4.278-9.773 14.618-10.657 11.328-.762-2.836-1.208-3.624-2.52-5.626z"/><path fill="#755" d="M996 688.25s-3.473 5.42-5.083 6.083c-4.25 1.75-6.667 4.792-6.042 10.417s-10.375 34-10.375 34l40.25 31.25s29.5 5 42.75-13.5L996 688.25z"/><path fill="#805A57" d="M1068.793 585.612s6.112 10.647-4.728 33.203c-31.565 65.685-33.659 98.463-36.731 108.768 0 0 1.709-4.636-9-9.166-8.123-3.435-22.746-3.575-32.252 3.465 0 0 1.123-3.297 2.828-9.016.798-2.679-1.242-8.548-.243-12.199 1.14-4.167 5.341-6.251 6.588-11.435 1.134-4.717 2.876-9.709 3.37-15.144 2.375-26.09 9.819-61.63 14.971-74.079 13.791-33.336 49.711-35.033 55.197-14.397z"/><path fill="#644A51" d="M1028.75 725.083c-.303 4.271-9.465 6.695-21.451 5.846-11.985-.851-21.456-5.002-21.151-9.271.303-4.271 10.264-7.041 22.25-6.19 11.984.849 20.656 5.345 20.352 9.615z"/><path fill="#A86346" d="M1018 719.5c.373-11.005-22.5-14.25-30.75 3.75-3.25 6-6.75 11.75-10 20.25-2.488 6.509-4.726 9.991.615 14.644 10.876 9.473 52.987 6.33 67.635 1.606 10.334-3.333 9.611-21.716 0-22.25-9-.5-14.396-1.928-19.25-3 0 0-8.75-.25-8.25-15z"/><path fill="#FEBA4B" d="M1013.75 723.084c-.25 1.583-.099 2.579-1.417 3.583-5.844 4.447-18.833 3.5-26.5-.834-1.667-.25-3.666 2.667-3.683 4.04-2.187 2.904-4.404 6.905-6.4 12.127-2.488 6.509-3.226 11.491 2.115 16.144 10.876 9.473 54.487 3.83 69.135-.894 10.334-3.333 8.75-19.25-.666-21.25-8.621-1.831-12.247-2.838-17.103-3.91 0 0-.981-.465-1.064-1.964 0 0-.244-1.503-3.167-3.501-4.083-2.791-11-6.624-11.25-3.541z"/><path fill="#ECA126" d="M1012.688 727.563c.203.254 1.12 4.462 11.063 8.438 2.848 1.139 1.375 3.875-2.875 3.25-3.938-.579-15.497-7.432-12.746-8.677 2.37-1.074 2.995-1.574 4.558-3.011z"/><path fill="#CEC1C3" d="M1054.688 748.688l-.06.003c-.472-2.759-2.45-5.619-7.336-6.202-8.9-1.063-18.624 2.382-31.043 3.263-20.782 1.475-26.25 1.25-38 .75-3.156-.135-5.041 2.056-5.088 4.874l-.037.001s-.313 3.563.188 4.938l1.516-.038c1.812 2.542 5.162 4.877 10.422 5.976 16.616 3.472 51.918 5.951 67.858-7.96l1.579-.04c.001-.003.501-2.815.001-5.565z"/><path fill="#AA918B" d="M1053.502 757.209c1.978-1.793 2.688-10.409-6.209-11.472-8.9-1.063-18.624 2.382-31.043 3.263-20.782 1.475-26.25 1.25-38 .75-7.551-.321-7.863 12.645 7 15.75 16.75 3.5 52.5 6 68.252-8.291z"/><path fill="#ECA126" d="M1013.387 725.248c-.168.508-.456.964-1.054 1.419-5.844 4.447-18.833 3.5-26.5-.834-1.667-.25-3.666 2.667-3.683 4.04 0 0 6.85 6.377 21.35 4.127 2.058-.319 8.75-1.5 9.887-8.752z"/><path fill="#8C665E" d="M1031.5 715c-1.757-1.883-4.002-3.664-8.437-5.539-7.975-3.372-24.73-3.794-33.938 3.039-2.375 2.5-3.043 9.382-3.043 9.382 9.506-7.04 23.151-5.729 31.592-3.172 8.66 2.623 9.66 9.04 9.66 9.04 3.125-2.551 5.416-10.167 4.166-12.75z"/><path fill="#8CC4BA" d="M772.917 463.162s-11.482 3.999-22.075 13.952c-10.592 9.953-8.223 35.876 5.952 53.737 14.358 18.096 29.504 44.195 40.148 66.371 17.613 36.695 31.492 48.201 35.471 48.615 5.888-16.305 25.075-28.781 40.784-34.279 18.438-6.45 43.994-14.77 49.083-38.274 4.363-20.152-.365-25.422-9.269-31.631-10.343-6.863-18.194-8.689-31.659-24.172-13.463-15.482-34.584-58.666-45.211-62.793-10.628-4.127-30.416-7.201-63.224 8.474z"/><path fill="#6CB0AC" d="M781 475.667a27.132 27.132 0 0 0-10.473-11.538c-3.916 1.712-12.032 5.794-19.685 12.985-10.592 9.953-8.223 35.876 5.952 53.737 14.358 18.096 29.504 44.195 40.148 66.371 17.613 36.695 30.579 47.363 34.558 47.777 1.5-3.25 6.322-10.732 9.5-14.5 6.5-6.75 8-7.5 10.75-11-5.148-5.633-10.732-12.401-11.75-17.167-.878-4.115 2.661-6.058.75-12.583-2.752-9.399-10.544-25.106-19.75-40.417-13.261-22.053-40-73.665-40-73.665zm133.75 66.208c-10.343-6.863-19.933-8.912-33.396-24.395-13.464-15.482-34.584-58.666-45.213-62.794-6.155-2.39-15.392-4.419-28.442-2.665-.53 5.557 4.436 13.7 9.968 21.645C840.326 506.203 860 526.75 883 542c0 0 12.401 7.928 23.667 11 7.333 2 9.833-9.25 8.083-11.125z"/><path fill="#D9E9E1" d="M813.833 459.333s.417-4.167-1.041-7.831c-.501-.732-4.012-.628-5.126.518-9.475 1.278-20.962 4.555-34.75 11.142 0 0-2.394.834-6.001 2.687-.479-.191-1.336-.167-1.745-.021-1.483.531-3.094 1.578-3.433 2.954.481.292.984.583 1.531.87 0 0 21.493 12.429 39.729 6.182.003-.001 10.586-3.584 10.836-16.501zm106.542 86.917c1.125 5.625-.24 13.557-1.5 19.375-5.39 24.893-30.677 34.01-50.202 40.842-16.291 5.701-36.104 18.492-42.773 35.234-.074.643.875 1.674 1.637 1.91 2.13.662 2.979 3.159 4.877 2.227 5.888-16.305 25.075-28.781 40.784-34.279 18.438-6.45 43.994-14.77 49.083-38.274 1.411-6.517 1.869-11.476 1.544-15.412-.321-3.889-2.038-10.953-3.45-11.623z"/><path fill="#A86346" d="M765.756 440.293s6.575 21.61 1.135 25.566c0 0 17.734 11.641 34.796 5.838 0 0 9.563-3.573 5.979-19.656 0 0-2.583.292-5.667.833-4.875-5.25-8.198-12.712-8.796-20.271"/><path fill="#935845" d="M799.729 450.108c-3.62-4.947-6.026-11.189-6.526-17.505l-27.448 7.689s1.664 5.473 2.625 11.415c.061.02.136.017.182.061 6.438 6.232 31.688 9.732 31.167-1.66z"/><path fill="#DC5147" d="M908 552.5s2.875 1.375 9.417 10.941c1.691 2.474 3.467 2.881 3.844-3.91.377-6.789 1.967-22.271-9.441-33.948"/><path fill="#F9604B" d="M804.888 456.64c2.458 5.349 8.477 11.062 19.112 23.86 24.642 29.655 43.667 45.167 60 58.167 8.123 6.465 16.333 12.333 25.667 16.333 6.316 2.707 11.7-28.586-4.446-37.646-11.861-6.656-24.971-11.104-32.718-17.808-13.943-12.064-17.639-33.057-31.917-42.548-10.282-6.835-22.768-8.94-38.531-5.115 1.002 1.236 1.615 2.108 2.833 4.757z"/><path fill="#DC5147" d="M893.556 511.443c-8.106-3.854-15.809-7.359-21.052-11.896-2.595-2.246-4.834-4.801-6.854-7.534l-.15-.013s5.138 22.52 28.056 19.443zm-51.66 83.83s2.027 10.625 8.242 18.401c0 0 2.021 2.491-1.125 6.311-7.013 8.515-27.449 21.156-42.735 19.437-6.782-.764-11.61-9.783-12.276-11.422"/><path fill="#F9604B" d="M746.448 480.676s9.042-14.309 20.688-15.103c11.646-.794 16.471 10.77 21.294 22.334 4.824 11.563 16.979 48.005 44.368 86.92 9.484 13.475 14.135 19.358 12.147 28.08-2.14 9.379-9.869 18.489-22.444 23.842-12.575 5.352-30.5 5.25-39-4.25-8.574-9.584-9.545-23.215-12.999-40.266-1.464-7.229-3.375-15.073-6.501-23.484-11.681-31.425-33.031-58.242-17.553-78.073z"/><path fill="#DC5147" d="M752 531l-.213.033c4.081 8.753 8.606 18.015 12.213 27.717 3.508 9.438 5.483 18.157 7.017 26.1 3.291-26.839 1.65-58.516 1.65-58.516C759.167 533.083 752 531 752 531z"/><path fill="#F6765A" d="M807.377 574.471c-3.293 3.952-10.377 10.863-12.877 29.696-.19 1.432-3.817-1.218-4.5-3.333-.875-2.709-.073-9.778 1.625-15.459 3.25-10.875 9.375-16.625 11.465-16.987.939-.163 4.148 1.244 5.116 3.248.259.536.468 1.279-.829 2.835zm101.145-44.757c-4.447-1.901-12.622-6.343-30.243-3.41-1.341.224-5.453-5.078-4.08-6.652 1.761-2.021 14.819-2.615 20.186-1.101 7.925 2.237 11.913 5.487 14.237 8.671.33.452.782 2.868-.1 2.492z"/><path fill="#F9604B" d="M757.853 478.172c-5.819-.058-26.418 2.361-46.776 2.757-14.314.278-39.306-6.081-45.251 7.544-5.734 13.142 2.623 25.133 24.695 32.93 25.037 8.845 57.002 10.922 73.617 8.935 34.535-4.132 27.519-51.832-6.285-52.166z"/><path fill="#874F44" d="M729.772 421.313s4.813-5.087 5.849-5.64c1.033-.556 8.07-3.326 10.521-7.138 1.381-2.15.102-6.578-3.213-5.015-3.316 1.566-5.26 2.408-8.003 3.677-3.011 1.393-5.131 2.647-7.23 4.873-2.247 2.381-3.255 4.958-3.255 4.958"/><path fill="#A86346" d="M730.013 421.615s3.926-6.37 4.939-6.915c1.014-.543 7.82-2.943 10.223-6.679 1.354-2.104.481-4.721-2.768-3.186-3.246 1.532-5.152 2.359-7.839 3.6-2.95 1.364-4.502 2.238-6.505 4.476-1.979 2.218-3.927 4.356-3.927 4.356"/><path fill="#874F44" d="M726.214 417.831s4.814-5.086 5.848-5.639c1.035-.557 8.07-3.326 10.521-7.14 1.381-2.146.104-6.577-3.213-5.012-3.316 1.564-5.26 2.406-8.002 3.676-3.012 1.393-5.131 2.646-7.232 4.872-2.248 2.378-3.255 4.956-3.255 4.956"/><path fill="#A86346" d="M726.456 418.132s3.926-6.369 4.939-6.914c1.013-.544 7.82-2.941 10.222-6.678 1.354-2.104.48-4.721-2.769-3.188-3.246 1.531-5.152 2.358-7.839 3.601-2.952 1.364-4.503 2.239-6.503 4.475a690.2 690.2 0 0 1-3.926 4.358"/><path fill="#874F44" d="M722.57 414.29s4.663-4.925 5.665-5.462c1.001-.539 7.815-3.222 10.189-6.914 1.337-2.079.1-6.37-3.111-4.854-3.214 1.516-5.095 2.329-7.75 3.559-2.918 1.35-4.972 2.565-7.007 4.721-2.178 2.307-3.151 4.802-3.151 4.802"/><path fill="#A86346" d="M722.804 414.583s3.803-6.169 4.784-6.697c.983-.524 7.576-2.851 9.902-6.469 1.311-2.037.465-4.572-2.682-3.084-3.146 1.483-4.991 2.283-7.595 3.485-2.857 1.32-4.359 2.17-6.298 4.334a740.673 740.673 0 0 1-3.803 4.222"/><path fill="#874F44" d="M719.099 410.904s4.518-4.771 5.487-5.29c.969-.521 7.57-3.121 9.87-6.696 1.295-2.015.095-6.17-3.014-4.701-3.111 1.468-4.937 2.257-7.508 3.448-2.826 1.305-4.813 2.483-6.787 4.57-2.106 2.231-3.052 4.648-3.052 4.648"/><path fill="#A86346" d="M719.323 411.188s3.685-5.977 4.636-6.486c.952-.511 7.336-2.761 9.59-6.266 1.271-1.974.452-4.428-2.596-2.988-3.046 1.438-4.834 2.214-7.355 3.377-2.77 1.279-4.224 2.102-6.101 4.198-1.856 2.081-3.684 4.088-3.684 4.088"/><path fill="#874F44" d="M718.338 442.041s7.869-1.109 11.603-7.281c2.259-3.729 7.978-8.978 9.554-9.854 3.128-1.737-1.219-7.167-6.161-4.715-2.967 1.473-5.879 3.014-7.354 4.001"/><path fill="#A86346" d="M715.255 443.628s9.555-2.723 13.289-8.894c2.258-3.732 7.896-8.532 10.227-10.15 2.942-2.04-1.851-5.469-5.213-3.683-4.048 2.148-6.963 3.395-8.801 3.083"/><path fill="#A86346" d="M718.317 442.374s4.41-2.758 6.828-7.882c.907-1.921.82-3.788 1.905-6.43 1.378-3.361 3.309-6.967 4.945-9.635 0 0-8.675-6.424-17.078-13.051 0 0-3.711 3.327-7.368 10.008-2.799 5.115-5.542 11.961-6.43 16.793-2.111 11.52 11.259 14.984 17.198 10.197z"/><path fill="#DC5147" d="M695.966 431.438s4.598-9.34 10.563-9.798c10.853-.832 23.568 11.439 21.086 20.169-1.326 4.659-3.066 5.861-3.917 8.179"/><path fill="#F9604B" d="M693.291 516.088c12.139-5.229 12.413-16.408 18.792-32.166 2.674-6.604 4.823-11.549 10.609-27.767 7.662-21.478-19.674-36.834-31.761-21.77-14.925 18.607-24.282 42.397-27.139 57.146-3.249 16.779 15.416 30.622 29.499 24.557z"/><path fill="#F6765A" d="M796.25 444.5s1.741 3.193 4.875 8c2.264 3.472 5.537 7.796 8.062 12.319 2.104 3.768 6.488 9.236 8.759 11.599 3.627 3.772 6.292 2.358 6.108-3.132-.183-5.466 4.104-11.933 4.728-17.9s.446-10.512-5.447-11.552c-5.667-1-10.347 1.308-13.953.688-5.597-.963-11.006-1.838-13.132-.022z"/><circle fill="#F9604B" cx="819.305" cy="469.655" r="2.531"/><path fill="none" stroke="#DC5147" stroke-width="3" stroke-linecap="round" stroke-linejoin="round" stroke-miterlimit="10" d="M819.438 469.732s7.59 4.441 12.662 14.587c4.127 8.253 3.576 20.083-.55 25.585"/><path fill="#F6765A" d="M768.667 452.667s.833 5.5 5.086 7.512c5.43 2.569 13.45 7.32 15.319 17.317 1.869 9.995 1.413 16.623-3.025 12.044-6.854-7.073-18.288-11.712-24.401-12.351-12.952-1.354-15.313 3.145-15.313 3.145s-4.691-11.136 5.167-19.833c5.667-5.001 13.167-4.168 17.167-7.834z"/><circle fill="#F9604B" cx="784.777" cy="481.574" r="2.531"/><path fill="none" stroke="#DC5147" stroke-width="3" stroke-linecap="round" stroke-linejoin="round" stroke-miterlimit="10" d="M784.886 481.685s4.646 5.835 4.226 17.171c-.374 10.083-4.972 23.39 4.124 29.265"/><path fill="#2E373E" d="M759.614 422.396c-8.594-3.702-20.096 7.668-20.096 7.668s3.438 9.651 12.692 12.561c5.433 1.708 12.824 1.322 12.824 1.322s5.497-16.849-5.42-21.551z"/><path fill="#995D48" d="M797.383 398.308s-.219-6.307 3.079-6.566c6.881-.546 12.229 19.51 7.88 27.209"/><path fill="#A86346" d="M810.084 417.536c-3.743-9.36-8.584-22.878-9.623-25.795-3.434-12.611-14.301-22.438-28.081-23.877-17.915-1.873-33.955 11.132-35.827 29.047-.67 6.421.578 12.6 3.271 17.973l-.192.075s4.096 9.377 12.676 21.177c5.579 7.672 12.302 10.708 17.836 12.498 7.582 2.452 21.852 3.255 30.385-.724 5.589-2.606 7.634-6.229 9.471-11.295 2.208-6.087 2.385-13.325.084-19.079z"/><path fill="#2E373E" d="M748.167 424.89s11.469-12.795 4.176-29.51c.001 0 9.696-.529 12.164-7.36 7.272-.528 13.75-3.967 14.412-9.255 0 0 7.75 3.356 11.926-.992 0 0 7.12 8.188 11.697 20.363 0 0 2.842-11.932-4.639-21.754 0 0-1.255-13.423-21.023-17.616 0 0-11.713-4.945-21.313.432 0 0-20.679-.565-28.442 17.765 0 0-14.029 7.041-11.832 21.628 0 0-1.758 3.482-1.199 7.719.392 2.965 2.196 6.478 5.336 8.665 0 0 4.104 25.685 28.157 24.478-.004-.002 3.798-4.654.58-14.563z"/><path fill="#2E373E" d="M754.723 407.389s0 4.1 1.853 7.537c3.259 6.055 4.627 11.768-.133 13.088-.003 0-14.413-6.081-1.72-20.625zm4.958-6.941c9.104-1.993 5.09-15.646 5.09-15.646l-6.122.75c2.977 1.308 3 9.232-.487 10.93-2.445 1.189-3.107.793-5.487.132 0 0-2.512-.925-3.854.617 0 0 1.846.351 3.524 1.365 2.84 1.72 5.063 2.193 7.336 1.852zm-36.227-18.664s-2.842-.066-3.834-1.851c-.813-1.463-.925-4.562 2.38-6.147 0 0-.71.521-.265 1.719.653 1.758 2.848 3.608 6.83.463m65.132-7.852s.085 3.72 6.789 6.162c4.486 1.632 5.009 7.271.28 8.564 0 0 2.308-4.657-1.8-5.586-2.981-.675-5.779-5.223-5.269-9.14z"/><path fill="#A86346" d="M761.469 436.677c-6.01 4.386-13.571 2.233-19.541-3.555-4.055-3.932-6.848-11.874-1.448-16.114 6.713-5.271 13.563 3.871 13.563 3.871s4.114 5.279 3.514 10.669"/><path fill="#995D48" d="M752.929 424.5c-1.636-2.007-5.279-4.762-8.49-1.904-3.514 3.131 4.616 12.885 9.614 12.056 5.51-.915.227-8.496-1.124-10.152z"/><path fill="#995D48" d="M752.418 424.839s-.17-.093-.442-.272c-.134-.093-.302-.201-.474-.341-.172-.147-.387-.27-.593-.402-.216-.13-.421-.283-.657-.423a11.225 11.225 0 0 1-.739-.431c-.27-.11-.528-.245-.794-.371-.284-.077-.542-.229-.831-.287-.558-.181-1.142-.264-1.714-.329-.286-.013-.571-.047-.846-.041-.275-.003-.544-.012-.795.002-.501.021-.944.05-1.261.08-.32.022-.514.046-.514.046s.104-.167.339-.405.603-.555 1.112-.823c.252-.144.539-.276.858-.383.315-.116.669-.186 1.036-.249.373-.031.764-.083 1.16-.029.402.011.799.109 1.194.215.396.101.757.302 1.119.467.341.201.653.438.951.66.266.258.51.519.73.767.216.257.372.552.523.796.328.492.401.932.511 1.246.091.316.127.507.127.507z"/><path d="M791.659 399.16s-1.577.872-.305 3.3c1.262 2.413 1.916 3.623 2.586 4.796.761 1.331 3.263 1.179 2.939-1.306-.257-1.983-1.328-4.487-2.236-5.629-.993-1.251-2.164-1.624-2.984-1.161zm-20.686 9.811s-1.577.871-.306 3.301c1.263 2.411 1.917 3.622 2.588 4.796.76 1.331 3.262 1.179 2.939-1.306-.258-1.982-1.328-4.486-2.236-5.63-.995-1.25-2.165-1.623-2.985-1.161z" fill="#2E373E"/><path fill="#935845" d="M793.503 415.915s-2.254-2.13-8.105-.798c-.001 0 5.141-6.531 8.105.798z"/><path d="M784.519 391.285c1.488-.31 4.155-.757 8.785-1.084 1.911-.134 1.875-1.62.406-2.511-.433-.265-2.2-1.595-5.759-1.417-3.461.172-5.297.751-6.021 2.105-.18.34-.198.774-.104 1.208 0 0 .502 1.858 2.693 1.699zm-11.623 2.298c-.298-1.236-1.182-1.459-1.166-.917.008.303-.046.531-.124.724a1.412 1.412 0 0 0-.467-.29c-1.448-.513-3.193.297-5.866 2.506-2.746 2.269-3.639 4.807-3.781 5.294-.482 1.648.494 2.771 1.995 1.583 3.639-2.882 6.394-4.716 7.702-5.491a3.38 3.38 0 0 0 .507-.405 2.845 2.845 0 0 0 1.2-3.004z" fill="#2A3338"/><path fill="#935845" d="M783.69 427.642s3.817 1.146 9.332.515c2.007-.231 3.8-.61 6.496-1.726 0 0-.419 3.729-6.812 4.568-2.191.288-4.711-.16-6.409-1.102-2.048-1.137-2.607-2.255-2.607-2.255z"/></svg>