<svg xmlns="http://www.w3.org/2000/svg" width="1920" height="1080"><circle fill="#FFEBCB" cx="960" cy="553.498" r="301.211"/><path fill="#DE82A1" d="M826.333 673.982c21.03 14.142 31.585-.362 23.316-23.317-5.593-15.521-12.995-25.149-15.988-45.631-1.787-12.229-3.009-33.792 5.002-56.935 5.431-15.687 23.613-28.692 19.81-35.494-2.37-4.237-10.814-2.789-16.2.807-11.027 7.365-20.692 26.104-19.407 40.03 2.378 25.778-6.6 39.501-13.231 56.182-12.096 30.41-2.608 51.375 16.698 64.358z"/><path fill="#D3789F" d="M825.863 556.942c2.378 25.778-6.6 39.501-13.231 56.182-8.958 22.524-6.066 39.862 3.876 52.618-12.297-13.02-16.681-31.463-6.876-56.118 6.633-16.681 15.61-30.402 13.231-56.182-1.285-13.928 8.38-32.665 19.407-40.03.001 0-18.542 16.973-16.407 43.53z"/><path fill="#DE82A1" d="M1195.722 731.313c-1.943-4.433-5.007-12.089-7.129-17.601a600.51 600.51 0 0 1-65.358 25.148c-117.494 10.233-234.344-18.964-328.598-94.613-8.47-6.523-20.03-9.4-30.536-7.228-50.649 11.992-101.332 16.113-152.955 13.38A533.164 533.164 0 0 1 591 633.5c-2.431 6.352-5.735 12.985-8.2 18.886-2.174 2.819-1.811 7.263 1.735 12.54 91.455 132.484 233.78 212.396 391.756 236.016 16.239 1.794 33.974-2.342 47.927-10.781 63.041-41.068 119.109-89.751 167.89-147.065 4.503-5.389 5.532-9.515 3.614-11.783z"/><path fill="#3A4247" d="M1176.866 711.618c-134.629 25.621-272.904-.445-379.435-89.368-8.071-6.479-19.273-9.381-29.435-7.176-54.635 13.52-109.383 17.5-165.482 13.36-11.061-.969-15.509 5.972-9.192 15.696 87.666 131.202 226.229 210.898 380.771 235.563 15.875 1.892 33.288-2.106 46.911-10.422 61.553-40.464 116.203-88.313 163.752-144.6 8.229-9.926 4.434-15.594-7.89-13.053"/><path fill="#8B5FA5" d="M794.261 625.016c-5.064-4.356-14.085-6.49-20.372-4.757-54.627 14.296-109.505 19.103-165.846 15.813-7.63-.549-10.531 4.247-6.122 10.786 78.38 113.049 194.965 186.261 327.992 218.031 10.518 1.971 21.994.225 31.53-4.598 62.06-34.747 117.993-77.028 167.648-127.983 5.888-6.157 3.695-10.359-4.602-9.531-119.783 10.093-237.099-20.163-330.228-97.761z"/><path fill="#8457A2" d="M1124.491 722.777c-36.642 3.165-72.683 2.775-109.211-1.506-65.428 7.111-129.799 9.128-192.941-9.546-30.335-8.971-152.061-56.867-165.964.898 75.656 76.897 168.894 127.222 273.539 152.266 10.518 1.971 21.994.225 31.53-4.598 62.06-34.747 117.992-77.028 167.648-127.983 5.887-6.157 3.696-10.359-4.601-9.531z"/><path fill="#343D43" d="M755.188 640.665c-.404.037-.606.057-1.011.093v-.004a339.663 339.663 0 0 1-6.787-9.561s-1.859-2.474 3.116-3.566c-.492-.52-.736-.779-1.225-1.301-35.891 7.348-71.654 10.889-108.285 11.063.463.604.697.904 1.163 1.508 3.385.021 7.041 1.159 8.595 2.927 1.56 1.771 11.176 10.951 11.176 10.951 1.903 1.799 5.39 3.175 7.718 3.051 27.985-1.834 55.396-5.527 82.836-11.329 1.263-.282 2.027-1.009 2.192-1.884.003 0 .006-.003.008-.003.204-.778.303-1.167.504-1.945z"/><path fill="#343D43" d="M607.095 637.723c56.505 3.363 111.586-1.396 166.391-15.69 6.31-1.733 15.367.403 20.455 4.761 93.525 77.595 211.18 107.729 331.25 97.455 3.575-.362 6.002.191 7.155 1.446-.387-2.247-3.11-3.39-7.854-2.916-119.785 10.093-237.102-20.163-330.23-97.763-5.064-4.356-14.085-6.49-20.372-4.757-54.627 14.296-109.505 19.103-165.846 15.813-4.348-.313-7.14 1.084-7.943 3.581 1.331-1.437 3.717-2.169 6.994-1.93z"/><path fill="#3A4247" d="M751.026 625.752a295.57 295.57 0 0 1-2.655-2.85c-35.784 7.252-71.429 10.686-107.937 10.762a410.17 410.17 0 0 0 2.621 3.438c3.374.018 7.017 1.15 8.563 2.914 1.551 1.77 11.124 10.938 11.124 10.938 1.894 1.797 5.366 3.169 7.687 3.043 27.893-1.854 55.205-5.566 82.55-11.378 2.095-.472 2.849-2.164 1.689-3.745a336.013 336.013 0 0 1-6.749-9.557c.001-.001-1.851-2.469 3.107-3.565"/><path fill="#2E373E" d="M1100.384 784.914c-10.729.908-21.77 4.996-30.11 11.523-7.351 5.75-5.722 11.079 3.627 10.868 10.838-.243 22.411-4.775 30.659-11.827 7.222-6.175 5.228-11.042-4.176-10.564M725.037 637.887c-1.19-1.278-3.511-2.107-5.198-1.852-1.687.256-2.104 1.517-.922 2.813 1.186 1.299 3.526 2.127 5.219 1.854 1.691-.275 2.092-1.534.901-2.815m-9.202 1.416c-1.183-1.307-3.505-2.181-5.213-1.955-8.222 1.094-12.386 1.562-20.813 2.317-1.75.157-2.248 1.404-1.088 2.785 1.16 1.383 3.539 2.356 5.295 2.184 8.453-.843 12.629-1.348 20.875-2.523 1.713-.245 2.126-1.501.944-2.808"/><path fill="#735193" d="M855.021 679.778c-1.923-1.047-5.1-1.204-7.091-.349-53.376 22.176-108.307 35.694-165.761 41.814-2.471.23-3.017 1.8-1.184 3.488a650.296 650.296 0 0 0 40.287 33.429c2.037 1.521 5.787 2.396 8.303 1.944 58.62-11.239 114.179-29.847 167.329-57.051 1.991-1.047 1.892-2.601-.189-3.456a578.576 578.576 0 0 1-41.694-19.819z"/><path fill="#FFF" d="M854.969 676.831c-1.911-1.049-5.068-1.212-7.049-.358-53.081 22.148-107.743 35.644-164.906 41.797-2.459.233-3.006 1.802-1.185 3.488a646.777 646.777 0 0 0 40.027 33.408c2.023 1.52 5.752 2.396 8.256 1.945 58.328-11.251 113.629-29.792 166.489-56.947 1.98-1.045 1.882-2.597-.188-3.455a578.037 578.037 0 0 1-41.444-19.878z"/><path fill="none" stroke="#EAEAEA" stroke-width="7" stroke-linecap="round" stroke-linejoin="round" stroke-miterlimit="10" d="M811.014 704.783c-15.989 5.495-32.211 10.054-48.588 14.23m85.464-28.416a536.068 536.068 0 0 1-26.166 10.382m-20.932 21.233c-9.822 3.124-14.816 4.592-24.966 7.315m85.8-30.67c-16.252 7.171-32.645 13.651-49.391 19.577"/><path fill="#FDD899" d="M757.021 728.01c-10.464-7.121-24.218-10.646-36.521-8.911-11.118 1.569-13.661 9.595-4.648 16.729 10.145 8.03 25.021 11.548 37.709 9.004 11.244-2.256 12.652-10.062 3.46-16.822"/><path fill="#F9CE85" d="M724.56 730.923c1.966-.33 2.944-.504 4.9-.85.619-1.569.929-2.353 1.545-3.921 5.141 4.144 7.755 6.182 13.07 10.176a473.928 473.928 0 0 1-9.086-1.889c-1.96.365-2.943.55-4.913.899a390.266 390.266 0 0 1-5.516-4.415"/><path fill="#FFF" d="M724.56 730.923c1.966-.33 2.944-.504 4.9-.85.619-1.569.929-2.353 1.545-3.921 5.141 4.144 7.755 6.182 13.07 10.176a473.928 473.928 0 0 1-9.086-1.889c-1.96.365-2.943.55-4.913.899a390.266 390.266 0 0 1-5.516-4.415m21.461 5.163c-5.454-4.075-8.137-6.153-13.407-10.386a4.282 4.282 0 0 0-2.275-.933c-.364-.029-1.256-.025-1.518.631-.58 1.463-.871 2.195-1.454 3.658-1.684.292-2.526.435-4.216.715-.994.163-1.169.816-.395 1.449a415.815 415.815 0 0 0 5.515 4.437c.793.629 2.246.989 3.243.81 1.695-.307 2.541-.465 4.229-.783 3.395.728 5.094 1.079 8.496 1.753 1.525.301 2.102.018 2.268-.109.174-.136.481-.518-.486-1.242m-1.566-6.181c-1.321-1.009-3.262-1.899-5.504-2.438-.774-.186-1.474-.055-1.561.299-.043.178.074.377.303.557.228.179.566.335.958.43 1.467.355 2.725.934 3.595 1.6.864.664 1.325 1.4 1.17 2.075-.041.177.082.375.312.55.231.175.571.326.961.416.786.18 1.487.029 1.563-.322.22-1.016-.481-2.162-1.797-3.167"/><path fill="#FFF" d="M748.896 728.98c-1.977-1.49-4.859-2.799-8.187-3.595-.771-.185-1.471-.046-1.56.308-.045.175.074.374.301.553.227.178.563.334.954.43.003 0 .004.002.007.001 2.561.611 4.767 1.618 6.282 2.77 1.515 1.15 2.338 2.449 2.075 3.606-.041.177.082.375.313.547.23.171.569.322.958.406.788.169 1.489.014 1.565-.34.328-1.524-.74-3.2-2.708-4.686"/><path fill="#735193" d="M919.038 710.055c-2.164-.75-5.543-.466-7.54.641-53.216 28.692-109.077 48.746-168.158 61.471-2.533.516-2.878 2.105-.735 3.535a681.559 681.559 0 0 0 46.511 27.728c2.326 1.232 6.344 1.629 8.898.881 59.755-18.22 115.618-43.629 168.081-77.585 1.977-1.308 1.688-2.803-.608-3.332a451.262 451.262 0 0 1-46.449-13.339z"/><path fill="#FFF" d="M918.614 707.197c-2.152-.754-5.514-.474-7.5.629-52.944 28.612-108.523 48.624-167.321 61.342-2.521.515-2.866 2.104-.736 3.534a677.138 677.138 0 0 0 46.253 27.741c2.313 1.232 6.312 1.628 8.854.881 59.475-18.156 115.077-43.521 167.268-77.368 1.964-1.304 1.679-2.8-.608-3.333a444.29 444.29 0 0 1-46.21-13.426z"/><path fill="none" stroke="#EAEAEA" stroke-width="7" stroke-linecap="round" stroke-linejoin="round" stroke-miterlimit="10" d="M846.825 752.719c-7.93 3.157-11.951 4.682-20.106 7.594m86.142-38.77c-17.744 9.788-35.997 18.412-54.578 26.475m19.466 5.869a607.84 607.84 0 0 1-35.593 14.952m86.228-41.169a801.52 801.52 0 0 1-39.652 21.049"/><path fill="#FDD899" d="M822.282 769.726c-12.022-5.653-26.707-7.372-39.358-4.194-11.375 2.855-12.91 10.899-2.521 16.829 11.689 6.673 27.709 8.233 40.53 4.143 11.473-3.664 11.872-11.354 1.349-16.778"/><path fill="#F9CE85" d="M783.711 775.691c8.69-2.351 12.982-3.6 21.458-6.224 5.339 2.954 8.041 4.396 13.504 7.207-8.488 2.82-12.789 4.166-21.496 6.715-5.449-3.008-8.143-4.547-13.466-7.698"/><g fill="#FFF"><path d="M780.813 775.483l.017.021-.017-.021m-.05-.189c-.012.06.049.185.049.185s-.059-.125-.049-.185m.008-.037l-.008.026.008-.026m.149-.178c-.077.05-.147.171-.147.171s.051-.095.104-.136c.019-.014.025-.02.043-.035m25.099-6.677c-.017-.009-.054-.019-.054-.019l.054.019m-22.308 7.289c8.69-2.351 12.982-3.6 21.458-6.224 5.339 2.954 8.041 4.396 13.504 7.207-8.488 2.82-12.789 4.166-21.496 6.715-5.449-3.008-8.143-4.547-13.466-7.698m35.856.686l.834.429-.834-.429m1.728.129c-6.139-3.125-9.17-4.734-15.153-8.041-.018-.01-.055-.027-.055-.027l.057.028a.744.744 0 0 1 .268.231c.181.289-.192.547-.84.57-1.965.079-2.949.115-4.918.179-6 1.81-9.026 2.68-15.133 4.353-.965.802-1.448 1.203-2.42 2.002-.289.235-1.017.265-1.632.075a1.976 1.976 0 0 1-.323-.128c5.929 3.542 8.936 5.271 15.024 8.638.226.125.525.214.857.25.331.036.645.017.894-.058 9.454-2.777 14.119-4.252 23.313-7.348.234-.078.383-.205.39-.336.007-.133-.103-.273-.329-.388"/><path d="M806.144 768.466a.487.487 0 0 0-.056-.028c-.002 0-.004-.004-.005-.005-.012-.01-.036-.015-.054-.021l-.011-.008c-.016-.007-.035-.011-.054-.019-.01-.004-.021-.012-.032-.016-.008-.003-.017-.002-.022-.005-.249-.115-.64-.162-.982-.149-2.882.11-4.325.156-7.213.232a2.078 2.078 0 0 0-.492.068 500.113 500.113 0 0 1-12.539 3.563.809.809 0 0 0-.296.146 515.833 515.833 0 0 1-3.467 2.854l-.044.035a.302.302 0 0 0-.104.136v.007l-.009.026v.011a.26.26 0 0 0 .05.185v.006c.004.007.012.014.017.021a.906.906 0 0 0 .235.198c.023.016.051.03.08.046.094.047.202.091.324.128.614.188 1.343.16 1.632-.075.973-.799 1.455-1.2 2.42-2.002.391-.324.584-.482.974-.808 4.891-1.35 7.32-2.049 12.144-3.485a500.342 500.342 0 0 0 6.935-.239c.647-.023 1.021-.281.84-.57a.766.766 0 0 0-.271-.232m-.23 7.223c-.504.155-.755.229-1.26.386-.113.033-.282.049-.438.033a1.328 1.328 0 0 1-.42-.117 463.233 463.233 0 0 1-4.335-2.401 399.95 399.95 0 0 1-4.324 1.271c1.728.979 2.593 1.469 4.333 2.435.104.058.169.139.158.199-.011.064-.086.127-.209.164-.504.149-.757.226-1.262.375 2.91.316 4.367.466 7.279.748l.104-.004.043-.038.331-3.051"/><path d="M799.461 773.59c1.728.968 2.594 1.448 4.335 2.401.104.056.266.101.42.117.155.016.324 0 .438-.033.505-.155.756-.229 1.26-.386l-.33 3.051c-.017.016-.026.021-.043.038l-.103.004a505.35 505.35 0 0 1-7.28-.748c.505-.149.757-.225 1.262-.375.123-.037.198-.099.209-.164.011-.061-.055-.143-.158-.199a445.952 445.952 0 0 1-4.333-2.435c1.734-.504 2.598-.756 4.323-1.271m6.866 1.871l.002.001-.002-.001m.578-.315c-.182-.1-.518-.158-.736-.153a1.918 1.918 0 0 0-.551.084c.166.091.25.134.416.225.047.025.068.04.116.065-.048-.025-.069-.04-.116-.065-.166-.091-.25-.134-.416-.225-.533.165-.8.246-1.333.41a421.94 421.94 0 0 1-4.023-2.226c-.396-.222-1.055-.294-1.502-.167-1.819.541-2.731.812-4.561 1.34-.427.131-.47.405-.072.633 1.603.913 2.407 1.364 4.021 2.266-.541.16-.812.241-1.354.4-.146.044-.271.105-.347.19s-.033.234.147.335a.11.11 0 0 0 .014.009c.242.132.52.172.762.201 3.203.354 4.804.522 8.01.834.377.036.73.002.991-.078.251-.076.424-.207.44-.364.142-1.345.211-2.017.354-3.358.003-.103-.016-.218-.245-.35a.02.02 0 0 0-.015-.006"/></g><path fill="#735193" d="M990.242 730.274c-2.365-.407-5.894.372-7.865 1.74-52.312 35.536-108.356 62.569-168.413 82.316-2.564.813-2.709 2.406-.289 3.529a715.337 715.337 0 0 0 52.049 21.059c2.58.896 6.813.758 9.375-.3 60.172-25.574 115.588-58.248 166.524-99.271 1.926-1.584 1.455-3.003-1.014-3.159-16.889-1.273-33.665-3.031-50.367-5.914z"/><path fill="#FFF" d="M989.465 727.558c-2.354-.413-5.862.358-7.826 1.725-52.055 35.423-107.829 62.375-167.606 82.082-2.555.813-2.7 2.399-.292 3.525a710.722 710.722 0 0 0 51.801 21.104c2.568.898 6.783.767 9.334-.289 59.892-25.493 115.074-58.061 165.741-98.957 1.918-1.579 1.451-2.992-1.01-3.156-16.817-1.317-33.518-3.116-50.142-6.034z"/><path fill="none" stroke="#EAEAEA" stroke-width="7" stroke-linecap="round" stroke-linejoin="round" stroke-miterlimit="10" d="M941.397 770.01a639.42 639.42 0 0 1-41.969 22.103m85.657-49.742a610.372 610.372 0 0 1-32.773 21.208m23.855.34c-19.375 12.375-39.128 23.772-59.513 34.4m85.464-52.288c-5.986 4.354-9.029 6.502-15.212 10.722"/><path fill="#FDD899" d="M895.983 801.85c-13.215-3.992-28.89-3.7-41.652 1.058-11.53 4.298-12.021 12.239-.423 16.668 13.187 5.034 29.898 4.431 42.802-1.255 11.507-5.072 10.963-12.601-.727-16.471"/><path fill="#F9CE85" d="M892.97 808.751a.268.268 0 0 0-.088-.163l-.002-.004a.298.298 0 0 0-.019-.018c-.003-.004-.011-.006-.016-.01-.002-.004-.006-.006-.01-.01-.007-.005-.014-.007-.021-.013l-.006-.002a.935.935 0 0 0-.217-.102c-.006-.003-.014-.003-.02-.006a441.764 441.764 0 0 1-13.777-4.794c-.023-.011-.047-.019-.074-.028a2.265 2.265 0 0 0-.671-.115h-.097l-.092.003c-.082.003-.158.015-.238.022-.058.007-.118.008-.173.019a2.364 2.364 0 0 0-.248.062c-.05.014-.103.028-.146.044-.017.006-.041.011-.056.018-8.255 3.53-12.44 5.237-20.921 8.524-.018.006-.023.015-.039.021-.041.019-.07.04-.105.061-.051.031-.104.062-.138.097-.021.022-.023.05-.037.075-.015.029-.046.06-.047.091 0 .01.011.015.011.022 0 .005-.005.009-.004.015a.253.253 0 0 0 .073.134c.007.005.013.012.019.018.062.057.147.11.257.153a.621.621 0 0 0 .083.029 448.212 448.212 0 0 0 13.722 5.263c.027.013.053.024.082.036.127.047.286.082.46.103.133.018.275.022.422.021.028-.001.055-.005.082-.007h.037c.079-.003.158-.012.232-.021.241-.034.454-.095.608-.174 8.406-3.468 12.555-5.262 20.735-8.967.206-.079.353-.182.41-.293a.19.19 0 0 0 .021-.059c0-.003-.003-.006-.003-.008.004-.014.012-.024.011-.037z"/><path fill="#FFF" d="M854.663 812.729l.02.021-.02-.021m16.263 5.926c-.08.011-.163.021-.248.025a4.892 4.892 0 0 1-.125.004c.13.001.254-.011.373-.029m-2.006-1.8a456.407 456.407 0 0 1-10.158-3.889c-1.116.038-1.675.059-2.791.091a2.726 2.726 0 0 1-.931-.116c5.746 2.306 8.646 3.421 14.495 5.575-.159-.071-.265-.166-.29-.269l-.325-1.392m24.553-7.869a2.837 2.837 0 0 1-.933.161c-1.097.021-1.643.029-2.739.046-7.194 3.225-10.838 4.792-18.208 7.833l.258 1.073c.037.14-.073.271-.281.375 8.887-3.661 13.269-5.561 21.903-9.488m-15.296-5.961a3.293 3.293 0 0 0-.199-.002c-.339.008-.675.072-.909.174-8.714 3.729-13.136 5.527-22.102 8.984-.249.097-.383.229-.387.364-.002.062.076.174.076.174s-.061-.086-.068-.132c-.052-.273.481-.525 1.19-.544 1.412-.042 2.119-.063 3.53-.113 6.925-2.723 10.35-4.126 17.122-7.012l.276-1.392c.054-.283.668-.51 1.375-.508.033.003.065.006.096.007m15.662 5.374c.069.064.1.137.086.216-.003.021-.02.061-.02.061s.028-.073.025-.109c-.002-.06-.034-.116-.091-.168m-.022-.02l.019.018-.019-.018m-.027-.022l.012.01-.012-.01m-.026-.019c.002.001.002.003.005.004-.003-.001-.003-.003-.005-.004m-.25-.111a436.697 436.697 0 0 1-14.552-5.048c.207.093.32.218.291.354l-.213 1.098a446.945 446.945 0 0 0 10.156 3.558c1.415-.021 2.123-.029 3.538-.058.306-.007.573.03.78.096"/><path fill="#FFF" d="M878.883 803.146a2.374 2.374 0 0 0-.707-.121c-.03-.001-.063-.004-.095-.004-.706-.002-1.321.224-1.375.507l-.276 1.392c-.497 2.501-.75 3.752-1.258 6.254a527.38 527.38 0 0 1-15.864.758c-1.412.051-2.117.071-3.53.113-.708.019-1.242.271-1.19.544a.28.28 0 0 0 .068.132c.003.002.005.008.006.01l.02.021c.053.06.155.113.271.16.028.011.059.021.089.031.248.082.58.129.931.116 1.116-.032 1.675-.053 2.791-.091 3.671-.126 5.505-.2 9.173-.38-.022-.1-.035-.15-.058-.25-.065-.278.462-.53 1.172-.568.397-.021.771.031 1.032.13.205.077.344.182.369.305l.059.252c2.392-.127 3.587-.196 5.978-.346.635-.041 1.125-.25 1.18-.5.187-.94.282-1.411.468-2.353l-.653-.002a2.407 2.407 0 0 1-.785-.123c-.265-.096-.414-.236-.379-.395.062-.279.683-.505 1.388-.5l.629.002c.284-1.444.427-2.166.708-3.609l.213-1.098c.029-.139-.084-.264-.291-.354l-.084-.033"/><path fill="#FFF" d="M870.082 811.898c-.263-.099-.635-.151-1.032-.131-.709.039-1.236.291-1.172.569.021.1.035.15.057.25.392 1.708.59 2.563.986 4.269l.325 1.394c.026.103.131.196.29.269a.989.989 0 0 0 .087.037c.136.049.301.087.485.108.177.021.369.03.57.019.085-.006.167-.016.248-.025.258-.035.48-.099.645-.181.208-.104.318-.235.28-.375l-.257-1.073a1011.52 1011.52 0 0 1-1.084-4.571c-.023-.103-.035-.15-.059-.252-.025-.125-.164-.229-.369-.307m23.452-3.668c-.007-.004-.014-.003-.021-.005a2.693 2.693 0 0 0-.778-.096c-1.415.027-2.123.037-3.538.057-4.348.06-6.521.071-10.864.054l-.629-.002c-.705-.006-1.325.22-1.389.5-.034.157.114.299.38.395.204.074.477.121.784.123l.654.002c4.666.02 7 .006 11.668-.063 1.098-.017 1.644-.025 2.739-.047.353-.005.684-.065.933-.16.219-.083.373-.193.434-.312a.242.242 0 0 0 .02-.061c.014-.079-.018-.15-.086-.217a.012.012 0 0 0-.002-.003c-.002-.006-.014-.012-.02-.018l-.017-.012-.012-.011c-.007-.005-.015-.01-.021-.016l-.004-.004a1.195 1.195 0 0 0-.231-.104"/><path fill="#735193" d="M1058.077 759.985c-9.729.137-19.275 3.148-27.301 8.651-25.168 18.715-51.227 35.647-78.502 51.125-7.783 4.326-7.141 9.547 1.47 11.143 9.93 1.839 21.136-.342 30.081-5.393 27.084-16.862 52.877-35.146 77.692-55.199 6.673-5.489 5-10.046-3.44-10.327"/><path fill="#FCB57C" d="M1057.265 757.479c-9.688.116-19.196 3.11-27.186 8.598-25.047 18.664-50.987 35.546-78.139 50.989-7.747 4.314-7.105 9.532 1.471 11.139 9.885 1.851 21.055-.313 29.956-5.353 26.966-16.813 52.646-35.046 77.341-55.047 6.639-5.474 4.965-10.03-3.443-10.326"/><path fill="#3F484C" d="M647.964 719.983c-11.053-11.206-8.423-9.702-18.664-21.655-1.008-1.18-2.135-1.805-3.166-1.879l-.003-.005-.041.001a2.535 2.535 0 0 0-.524.017c-1.447.044-2.344.067-3.953.107.549.792 1.06 1.542 1.551 2.271-.787 2.444.014 6.004 1.993 8.289 5.873 6.769 7.653 9.253 10.101 12.151 1.963 3.175 4.469 6.795 8.37 11.708 1.83-.148 2.744-.227 4.566-.387l-.014-.017c.964-.141 1.77-.771 2.214-1.893.985-2.462-.112-6.356-2.43-8.708z"/><path fill="#4B5659" d="M643.922 720.317c-11.037-11.273-8.391-9.833-18.614-21.851-2.11-2.486-4.756-2.564-5.93-.145-1.174 2.423-.404 6.438 1.743 8.936 10.397 12.067 7.921 10.672 19.129 21.991 2.351 2.379 5.08 2.272 6.076-.196.995-2.467-.09-6.364-2.404-8.735"/><path fill="#3F484C" d="M682.655 754.688c-12.424-10.164-8.962-7.519-20.648-18.521-1.147-1.084-2.357-1.604-3.417-1.6l-.016-.019-.091.01c-.06.003-.115.014-.174.02-1.664.175-2.594.272-4.347.447.645.74 1.242 1.439 1.817 2.118-.557 2.473.617 5.922 2.87 8.021 6.936 6.454 8.692 8.24 11.474 10.646 2.179 2.676 4.956 5.788 9.173 10.058 1.859-.289 2.786-.438 4.638-.737a.25.25 0 0 1-.016-.017c.975-.213 1.737-.897 2.084-2.036.767-2.512-.74-6.255-3.347-8.39z"/><path fill="#4B5659" d="M678.549 755.335c-12.409-10.237-8.942-7.652-20.612-18.726-2.41-2.291-5.123-2.162-6.08.313-.957 2.478.231 6.375 2.679 8.671 11.846 11.107 8.549 8.559 21.132 18.822 2.64 2.16 5.426 1.841 6.203-.668.775-2.505-.718-6.258-3.322-8.412"/><path fill="#DE82A1" d="M1122 276s-22.712-6.588-42.5-1.5c-17.5 4.5-31.697 13.633-42.209 22.224-8.291 6.776-13.279 11.609-25.823 13.338-12.542 1.729-6.404 11.106 9.532 6.938 15.937-4.17 33.841-9.016 45-13 11.159-3.982 36.853-1.686 48.573-3.264C1144.194 296.752 1135.5 279.5 1122 276z"/><path fill="#D3789F" d="M1129.688 279.885c3.975 5.991 2.252 12.792-14.188 15.115-11.323 1.6-42.703-.415-53.5 3.5-10.798 3.917-31.091 10.872-46.5 15-5.545 1.485-8.656.569-9.819-1.286-3.4 3.177 3.049 7.997 15.319 4.786 15.937-4.17 33.841-9.016 45-13 11.159-3.982 36.853-1.686 48.573-3.264 23.269-3.13 22.89-14.444 15.115-20.851z"/><path fill="#8B5FA5" d="M976.586 336.101c-9.083-18.267-50.997-5.999-70.496 9s-25.499 32.998-40.498 31.498S811.5 407 778.5 444.5c-23.125 26.278-32.5 19.5-18.5.5 5.873-7.97-.5-18-11.5-12-5.707 3.112-43.519 24.949-55.399 62.093C668.5 572 720.498 631.002 680 664l159.667-2.333C839.667 661.668 810.5 622 812 570c.622-21.559 6.117-50.735 27.667-73.667 6.175-6.57 11.417-10.043 17.083-13.333 7.75-4.5 10.262-9.575 10-13.25-.279-3.907-7.75-8-15.083-2.75-8.952 6.409-15.667 19-33.667 27-14.586 6.483-18.999-9.001 6.5-36s75.59-57.402 69.59-67.902c-5.999-10.5 3.25-15.692 22.41-27.098 21-12.5 66.5-14 60.086-26.899zM783.667 530.333c-5.007 6.008-7.136 11.175-4.324 18.11 2.813 6.937-4.729 14.692-8.593 18.557-5.5 5.5-8 15-7.5 26 .329 7.243-1.667 5.084-2.5 1-1.264-6.197-3.073-28.879 4.917-43 5.561-9.826 7.667-10.333 8.667-22 1.261-14.708 17.071-18.306 19.333-13.333s-5 8.666-10 14.666z"/><path fill="#8457A2" d="M778.906 602.098c-2.479-3.053-5.366-5.953-9.3-7.792-10.5-4.904-22.475-1.46-26.752 7.694-4.276 9.156.765 20.552 11.262 25.455 3.936 1.841 8.185 2.323 11.945 2.136l27.943-1.372c1.18-.043 1.998-.32 2.405-1.194.407-.871.012-1.621-.626-2.611l-16.877-22.316zM714.35 467.711c2.408 15.746 19.651 26.171 38.514 23.286 18.861-2.885 32.2-17.989 29.791-33.736-.666-4.355-2.473-8.303-5.13-11.675-22.403 24.971-31.324 18.142-17.525-.586 2.51-3.406 2.777-7.185 1.409-9.932-4.341-1.281-9.089-1.817-14.005-1.456-5.021 2.847-19.657 11.8-32.968 26.234a24.45 24.45 0 0 0-.086 7.865zm149.816-91.154c-1.65.05-3.54.438-5.627 1.115a15.542 15.542 0 0 0 5.627-1.115z"/><path fill="#8457A2" d="M750.333 463.333c-2.324-1.675.68-10.422 7-19 3.842-5.214 3.167-14.833-8.398-11.554 10.729-5.501 16.858 4.356 11.064 12.22-5.294 7.186-7.241 12.618-6.369 15.18 0 0 2.369 5.153 13.703-4.514 0 .002-13 13.002-17 7.668zM828.25 488.5c-15.75 17.25-23.5 11.25-23.5 11.25-7.087-2.135-9.096-19.736 10.75-40.75 0 0 19.833-22.333 33.5-23.333 0 0-12.667 10.667-24.5 22.333-19.088 20.211-21.412 33.967-15.257 36.888-.082.037-.16.076-.243.112 0 0 3.25 3.5 19.25-6.5zm45.983-73.227c13.33-11.129 22.643-20.3 19.855-25.176-5.999-10.5 3.25-15.692 22.41-27.098 21-12.5 66.5-14 60.086-26.899-4.452-8.953-16.796-10.561-30.518-8.115 9.887-.346 18.069 2.182 21.518 9.115C974 350 928.5 351.5 907.5 364c-19.161 11.405-24.833 16.834-18.833 27.333 0 0 .8 9.214-14.434 23.94zM834.25 653.75c0 .001-23.25-36.75-22.25-83.75.459-21.563 6.117-50.735 27.667-73.667 6.175-6.57 11.417-10.043 17.083-13.333 7.75-4.5 10.262-9.575 10-13.25-.25 4.5-8.881 10.064-14.75 13.5-10.25 6-20.25 16.5-20.25 16.5C810.2 522.681 803.622 549.441 803 571c0 0-1.25 62.25 31.25 82.75zm-57.856-132.156c4.738-8.38 15.29-9.922 17.107-5.928 1.186 2.604-.25 4.858-2.596 7.275 6.408-5.379 8.679-13.441.179-13.191-8.45.249-13.055 8.07-14.69 11.844zm-14.561 79.739c5.5.334 3.248-14.308 2.5-21.833-1 4.833-1.322 11.913-1.25 13.5.329 7.243-1.667 5.084-2.5 1-1.236-6.06-2.987-27.871 4.403-42.039-1.773 1.238-3.401 3.034-4.653 6.289-3.75 9.75-6.134 42.619 1.5 43.083zM780.5 557.25c2.75-5 2-7.25-1-10.75a12.2 12.2 0 0 1-1.212-1.695 17.447 17.447 0 0 0 1.055 3.64c2.159 5.324-1.785 11.133-5.481 15.292 3.265-1.784 5.182-3.841 6.638-6.487z"/><path fill="#8B5FA5" d="M772.945 428.735c1.401-1.219 3.444-2.245 8.104-5.146 6.595-4.106 1.875-12.224-5.604-9.282-5.795 2.281-8.917 6.816-9.913 11.052-.713 3.031 2.321 7.655 7.413 3.376z"/><path fill="#8457A2" d="M781.179 414.234c2.026 2.154 2.157 5.628-1.271 7.658-4.236 2.511-6.106 3.377-7.362 4.461-3.452 2.866-6.064.971-6.919-1.354-.031.12-.067.239-.095.358-.713 3.031 2.32 7.655 7.414 3.377 1.401-1.219 3.445-2.245 8.104-5.146 4.623-2.879 3.681-7.725.129-9.354z"/><path fill="#FFA7BD" d="M774.75 483.75s-22.757 24.577-29.423 51.91c-6.093 24.98-7.497 28.161-8.997 56.661-1.544 29.336-32.33 19.679-15.279-10.954 3.705-6.656 4.824-12.423 5-17.617.226-6.631-3.009-12.368-2.774-18.963.224-6.287 1.802-10.341 6.103-18.928 7.167-14.313 19.447-32.436 30.937-41.787 18.094-14.732 19.433-4.822 14.433-.322z"/><path fill="#F49BB4" d="M756.792 487.204c2.957 1.326 6.37 2.131 9.996 1.962 2.245-.104 3.515-.489 4.155-.968.166-.203.322-.395.479-.583.269-.724-.428-1.496-1.254-1.854-2.994-1.296-4.478-3.257-5.155-5.235a73.294 73.294 0 0 0-4.699 3.547 62.556 62.556 0 0 0-3.522 3.131z"/><path fill="#F49BB4" d="M772.343 476.668c1.167 2.026-.242 5.948-4.343 9.832 0 0-18.507 17.827-25.173 45.16-6.093 24.98-7.497 28.161-8.997 56.661-.887 16.846-11.413 20.829-16.99 15.372 3.833 10.494 18.438 8.604 19.49-11.372 1.5-28.5 2.904-31.681 8.997-56.661 6.667-27.333 29.423-51.91 29.423-51.91 3.501-3.151 3.884-8.943-2.407-7.082z"/><path fill="#FFA7BD" d="M804.21 697.504c5.986-3.701 6.208-16.354 3.983-22.583-5.21-14.585-10.573-20.923-10.442-34.965.204-21.683 10.87-32.289 8.869-47.675-1.42-10.925-14.035-11.249-13.37-.587.397 6.396.497 26.303-2.673 34.149-9.555 23.644-12.583 43.078-6.456 58.932 4.718 12.204 15.064 15.836 20.089 12.729z"/><path fill="#F49BB4" d="M789.122 680.775c-6.128-15.854-3.1-35.288 6.456-58.932 3.17-7.848 1.321-21.949.923-28.345-.313-5.022 2.238-8.18 5.174-8.974-4.001-1.897-8.842.457-8.424 7.168.398 6.396.497 26.303-2.673 34.149-9.554 23.644-12.583 43.078-6.456 58.932 4.717 12.202 15.063 15.836 20.089 12.729 1.19-.736 2.144-1.836 2.905-3.159-5.411 1.234-13.862-2.879-17.994-13.568z"/><path fill="#FFA7BD" d="M985 341.333s4.667 5 20-6c14.795-10.614 31.6-17.966 48.711-20.34C1082.5 311 1098.5 317.5 1105 308.5c10.546-14.602-8.149-20.797-24.5-17.5-17.53 3.535-36.456 16.806-53.486 18.73C1002.5 312.5 973.667 330 985 341.333z"/><path fill="#F49BB4" d="M1103.349 293.345c3.651 3.989 3.043 8.564-.015 12.989-6.126 8.865-22.371 1.758-50 5.333-16.421 2.125-33.793 7.604-47.872 17.96-14.591 10.733-19.148 5.694-19.148 5.694-1.625-1.378-2.243-3.085-2.065-4.979-2.437 3.843-2.558 7.681.753 10.991 0 0 4.667 5 20-6 14.795-10.614 31.6-17.966 48.711-20.34C1082.5 311 1098.5 317.5 1105 308.5c5.1-7.06 3.353-12.148-1.651-15.155z"/><path fill="#FFA7BD" d="M782.776 470.782c2.828.313 4.56-2.414 6.44-5.372 2.091-3.289 5.729-4.837 5.134-7.281-.591-2.444-6.746-3.575-11.44 1.253-5.164 5.312-2.548 11.133-.134 11.4z"/><path fill="#F49BB4" d="M794.351 458.129c-.279-1.159-1.816-2.012-3.85-2.085 1.227.388 2.127 1.055 2.386 1.818.747 2.191-2.612 3.287-4.368 6.025-1.58 2.463-3.033 4.735-5.758 4.251-1.055-.187-2.227-1.388-2.775-3.04-.352 3.099 1.257 5.513 2.791 5.683 2.828.313 4.56-2.414 6.44-5.372 2.091-3.288 5.727-4.836 5.134-7.28z"/><path fill="#FFA7BD" d="M811.138 439.233c1.014 1.331 2.805.698 3.779.079 1.375-.875 2.788-1.614 3.188-2.813.563-1.688-1.885-3.255-5.15-1.305-2.434 1.453-2.381 3.299-1.817 4.039z"/><path fill="#F49BB4" d="M817.318 434.652c.114.287.133.604.024.931-.37 1.109-1.677 1.792-2.949 2.602-.9.574-2.559 1.158-3.495-.072-.027-.036-.048-.086-.072-.127-.043.521.096.966.311 1.249 1.014 1.331 2.805.698 3.779.078 1.375-.875 2.788-1.613 3.188-2.813.244-.731-.079-1.437-.786-1.848z"/><path fill="#A86346" d="M837.1 262.561s3.094-20.347-5.084-36.967c-8.177-16.621-19.191-59.121-22.904-65.584-3.714-6.462-16.114-10.684-15.143 8.358.972 19.043 8.454 53.601 9.958 63.396 1.504 9.795 7.489 36.962 16.74 39.897 9.251 2.936 16.433-9.1 16.433-9.1z"/><ellipse transform="rotate(-70.081 862.95 288.74)" fill="#D2861E" cx="862.971" cy="288.749" rx="22.186" ry="11.333"/><path fill="#A86346" d="M814 252.667s-5.111 9.33 4.5 19.333c24.5 25.5 67.687 52.331 77.5 54.667C920.5 332.5 923 296 907 287.5c-12.245-6.505-19.776-9.367-33.5-17.5-13.5-8-54.167-34-59.5-17.333z"/><path fill="#9E5E46" d="M907 287.5c-12.245-6.505-19.776-9.367-33.5-17.5-2-1.185-4.598-2.766-7.586-4.543 1.586 2.543 3.053 7.127 2.42 15.043-.701 8.76-5.231 18-9.458 24.875 9.827 6.744 20.646 13.453 27.475 17.061 2.358.672 4.54 1.291 6.4 1.814 7.363 2.074 13.271 1.698 17.792-.247 10.02-8.354 8.363-30.178-3.543-36.503z"/><path fill="#E39823" d="M870.5 268s3.33 5.504 1.5 16.25c-1.701 9.994-9.2 25.167-17.667 24.938 0 0 30.932 15.297 43.417 18.813 35.5 10 37.313-36.825 11.583-43C896.833 282 888 278.333 870.5 268z"/><path fill="#E3910F" d="M878.39 289.338c1.28-7.515.572-13.888-.151-17.656-1.118-2.403-2.802-1.894-4.362-2.432-1.563-.539-3-2.125-3.375-1.25 0 0 3.33 4.004 1.5 14.75-1.701 9.994-6.833 29.083-19.833 24.417 0 0 1.528 3.958 4.333 4.458 3.5.625 4.75 3.125 7.03 1.997 7.469-3.295 13.245-14.807 14.858-24.284z"/><path fill="#A86346" d="M801.275 180.189c8.14 1.253 11.464-11.564 8.956-21.094-1.771-6.73-3.42-8.693-5.801-17.631l-18.146 7.5s.057 2.58 1.549 9.495c2.046 9.496 7.677 20.842 13.442 21.73z"/><path fill="#874F44" d="M795.815 119.279c.074 2.058-1.009 14.598-1.006 14.598-.006.639.016-.169.002.616-.045 2.395.926 6.905 1.683 9.027 1.162 3.273 2.803 4.132 2.803 4.132l5.444-5.042c.149-.581-.529-3.565-.753-7.121-.252-4.002-.073-8.688-.311-10.689-1.096-9.269-7.975-8.684-7.862-5.521z"/><path fill="#A86346" d="M796.432 119.564c.144 1.691-.532 8.154-.834 11.902-.137 1.688-.107 2.346.039 3.624.697 6.044 3.369 11.713 3.369 11.713s1.777 3.309 4.494 2.503c3.16-.942 2.201-4.673.882-8.153-.65-1.805-.979-4.292-1.225-6.407.005-2.134.02-7.083-.491-10.046-1.431-8.34-6.438-7.591-6.234-5.136z"/><path fill="#874F44" d="M800.147 143.597c.405-1.161-.202-4.478-.575-6.326-.313-1.553-1.021-3.849-1.396-4.989-.51-1.549-1.506-2.353-2.526-2.104-2.263.553-3.922 2.263-4.199 5.062-.223 2.243.347 6.544.896 8.591.843 3.156 2.314 4.084 2.314 4.084"/><path fill="#A86346" d="M799.922 142.203c-1.014-3.723-1.371-6.406-2.194-8.904-1.403-4.262-5.109-1.834-5.548 2.561-.565 5.694 2.273 11.237 2.273 11.237s1.417 3.235 4.026 2.684c3.034-.642 2.417-4.214 1.443-7.578z"/><path fill="#874F44" d="M795.088 120.777c-.322 2.295-3.461 13.232-3.461 13.232s2.074.39 3.89.57c1.813.179 3.944 2.24 3.944 2.24s1.795-6.061 2-9.634c.51-8.765-5.96-9.353-6.373-6.408z"/><path fill="#A86346" d="M792.416 134.524s.067-.954.47-2.494c.896-3.423 2.582-9.295 2.729-10.888.215-2.305 4.976-2.176 4.931 5.781-.018 3.581-1.798 10.474-1.798 10.474"/><path fill="#874F44" d="M796.813 145.978c.377-1.117-.241-4.288-.615-6.053-.318-1.486-1.019-3.677-1.392-4.765-.502-1.478-1.467-2.238-2.438-1.989-2.163.553-3.733 2.208-3.969 4.892-.191 2.149.396 6.264.944 8.219.838 3.014 2.261 3.889 2.261 3.889"/><path fill="#A86346" d="M796.584 144.645c-1.011-3.556-1.38-6.121-2.194-8.504-1.39-4.069-4.914-1.704-5.287 2.51-.482 5.459 2.293 10.74 2.293 10.74s1.393 3.085 3.884 2.529c2.898-.649 2.269-4.062 1.304-7.275z"/><path fill="#874F44" d="M794.356 124.271c-.693 2.107-5.517 11.882-5.517 11.882s1.89.719 3.568 1.199c1.68.479 3.755 2.517 3.755 2.517s2.306-5.14 3.112-8.475c1.973-8.173-4.025-9.831-4.918-7.123z"/><path fill="#A86346" d="M789.497 136.773s.225-.889.865-2.271c1.428-3.076 4.018-8.324 4.424-9.799.598-2.138 5.063-1.206 3.666 6.287-.627 3.375-3.102 9.797-3.102 9.797"/><path fill="#874F44" d="M792.447 148.771c.498-.986.351-4.017.234-5.707-.093-1.421-.45-3.551-.65-4.611-.271-1.441-1.064-2.277-2.001-2.175-2.084.223-3.764 1.551-4.344 4.01-.467 1.973-.159 5.7.229 7.565.579 2.772 1.207 4.157 1.207 4.157"/><path fill="#A86346" d="M792.412 147.503c-.463-3.44-.462-5.872-.901-8.195-.746-3.965-4.336-2.24-5.247 1.623-1.181 5.01.694 10.285.694 10.285s.879 3.053 3.27 2.871c2.778-.216 2.65-3.471 2.184-6.584z"/><path fill="#874F44" d="M795.065 128.757c-1.205 1.701-8.223 9.145-8.223 9.145s1.497 1.166 2.872 2.057c1.375.893 2.986 3.253 2.986 3.253s3.174-3.938 4.813-6.708c4.025-6.793-.903-9.93-2.448-7.747z"/><path fill="#A86346" d="M787.26 138.639s.447-.737 1.403-1.801c2.126-2.366 5.896-6.362 6.668-7.573 1.124-1.753 4.872.313 1.558 6.652-1.491 2.855-5.479 7.936-5.479 7.936"/><path fill="#874F44" d="M806.045 167.668s6.416-3.081 7.779-8.375c1.545-6.002 2.975-13.909 5.957-17.892 1.711-2.286-1.13-5.811-5.216-4.275-1.592.598-4.143 2.798-5.532 5.515-1.182 2.308-1.193 3.309-2.347 4.432-4.746 1.676-8.351 10.636-7.993 16.294"/><path fill="#A86346" d="M806.747 170.359s5.531-5.103 6.449-10.492c.918-5.389 2.598-14.86 5.58-18.844 1.711-2.286-1.379-3.938-4.205-2.865-1.59.603-3.687 2.659-5.076 5.375-1.18 2.308-2.342 5.134-3.595 2.965-4.745 1.676-8.569 10.832-8.214 16.491"/><g fill="#6CB0AC"><path d="M914.5 457.5s-10.832 13.499-27.5 37.499c-16.667 24-37.65 65.283-42 79.001-6.5 20.5 8.08 32.128 24 28 13.5-3.5 18.235-10.769 38-30 18.5-18 39.348-33.844 52-49 48-57.5-15.5-96.5-44.5-65.5z"/><path d="M848 566s-9.333 16.332-8.666 46.999-1.333 112-1.333 112 3.624 6.232 17.999 7.501c17 1.5 22.5-4 22.5-8.5s1.875-40.796 4-56.5c2.999-22.166 9.956-60.844 11-76.5 1-15-2.5-30-15.5-35.5-12.432-5.26-23.5 1-30 10.5z"/></g><path fill="#D2861E" d="M911.845 460.599c-20.938-17.318-8.882-37.145 22.242-24.753 38.744 15.427 95.066-3.229 106.546-3.946 11.48-.719 9.326 12.557 5.74 19.372-4.344 8.254-12.916 12.914-27.265 20.09-22.969 11.485-78.205 13.272-107.263-10.763z"/><path fill="#6CB0AC" d="M917.666 426.523s-2.915 20.933-8.56 44.43c-5.823 24.239 6.391 35.667 35.227 34.713 16.848-.558 50.47-.51 76-1.333 16.871-.544 37.303-8.881 30.666-40-7.23-33.911-17.886-54.121-32.376-66.144-21.721-18.021-68.319-9.206-87.519 7.403-2.937 2.545-9.444 9.974-13.438 20.931z"/><path fill="#A86346" d="M914.333 446.333s1.333-14.667 2-31.333c.991-24.791-2.02-41.345-10.24-50.25-7.495-8.119-10.857-16.456-8.117-28.786 2.437-10.965 3.082-14.728 5.138-33.224 1.854-16.69 11.664-21.779 34.25-25.345 13.015-2.055 31.853-4.795 53.773 2.055 14.693 4.591 19.521 27.058 19.521 35.277 0 17.125-10.16 43.771 21.701 90.945 15.896 23.537 10.639 31.993 10.639 31.993s-2.372 7.828-16 10.667c-37.567 7.827-75.952 20.962-98.213 11.6-6.181-2.599-13.785-5.599-14.452-13.599z"/><path fill="#9E5E46" d="M1017.5 376c-9.214-27.949-6.84-48.392-6.84-61.271 0-4.991-1.786-15.231-6.476-23.538-3.084-4.847-7.207-8.845-12.609-10.533-22.96-7.174-42.69-4.305-56.322-2.152-7.938 1.253-14.363 2.689-19.479 4.701-7.675 3.84-11.563 9.654-12.66 19.535-2.056 18.496-2.701 22.258-5.139 33.224-2.739 12.33.623 20.667 8.118 28.786 8.22 8.905 11.231 25.459 10.24 50.25-.397 9.941-1.032 19.169-1.479 24.999 1.716.362 3.645.979 5.817 1.922 57.457 24.945 96.963.033 114.797-3.946 2.351-.523 5.026-.546 7.395.055.098-.231.138-.363.138-.363s.826-3.044-2.688-13.261c-1.555-3.25-3.387-7.056-5.561-11.542-6.74-13.91-13.916-25.711-17.252-36.866z"/><path fill="#77B7B1" d="M1025 442.667c-29 13-73.952 18.962-96.213 9.6-5.515-2.318-12.109-5.296-13.953-11.516-.962.921-1.667 3.833-.833 8.25.979 5.183 8.605 8.666 14.787 11.266 22.262 9.362 69.713 3.4 98.713-10.1 12.619-5.875 16.167-12.167 16.167-12.167s1.333-3-1.37-6.528c-1.413 2.407-8.037 7.043-17.298 11.195z"/><path fill="#FEBA4B" d="M941.667 273.333c-9.593 1.515-25.281 7.216-30.917 10.667-8.262 5.058-10.262 9.274-11.417 19.667-2.152 19.372-2.284 19.698-4.836 31.184-2.87 12.915.652 21.646 8.502 30.15 8.61 9.327 14.192 25.075 6.333 45.733-9.688 25.47-7.534 32.286-7.534 32.286s1.651-13.792 19.372-6.099c57.457 24.945 96.963.033 114.797-3.946 4.992-1.112 11.238.175 13.031 4.837 0 0 .973-.708-12-27.479-7.926-16.354-12.333-18-18.5-41.833-6.035-23.324-5.978-44.245-5.978-55.892 0-8.61-5.059-32.142-20.447-36.95-22.958-7.175-36.774-4.477-50.406-2.325z"/><path fill="#F5AC37" d="M956.902 359.499s-12.693-9.348-29.771 1.734c0 0-3.776 2.307-2.636 4.507.284.55 1.213.82 3.086.622 2.318-.248 16.656-2.692 23.621-2.356 9.367.452 8.414-2.519 5.7-4.507zm79.067 73.476c4.992-1.112 11.238.175 13.031 4.838 0 0 .973-.709-12-27.479-7.926-16.354-12.333-18-18.5-41.833-4.82-18.629-5.751-35.709-5.932-47.771-3.241 9.567-4.414 23.209-10.901 31.604C990.334 367 1000 378 1014.5 401c6.501 10.313 7.025 25.097 6.299 36.992 6.11-2.191 11.183-4.127 15.17-5.017z"/><path fill="#EC9F23" d="M941.313 273.513c-3.438.543-7.601 1.585-11.849 2.871-.901-.571-3.548 1.617-4.214 3.117-1.5 3.333-2.625 7.25-3.218 10.201-2.539 12.628 8.62 17.235 20.79 11.942 17.994-7.824 28.105-22.003 28.865-30.145-.61-1.265-5.438-1.938-7.436-.497-8.458.092-15.723 1.372-22.938 2.511z"/><path fill="#A86346" d="M921.001 263s5.323 5.915 8.091 12.623c1.388 3.364-.868 8.593-1.759 11.71-2.667 9.333 6.496 12.987 15.667 9 15.333-6.667 22.583-19.75 21.25-25.083-9-3-13.25-10.25-18.583-24.917"/><path fill="#935845" d="M947.073 250.069a184.9 184.9 0 0 1-1.406-3.735L921.001 263s5.323 5.915 8.091 12.623c.22.532.34 1.115.396 1.725 2.388-1.77 4.837-3.991 7.373-6.723 7.077-7.622 9.791-14.506 10.212-20.556z"/><path fill="#EC9F23" d="M1038.233 428.073c-18.738 4.181-59.207 29.981-119.581 3.771-7.861-3.413-12.705-2.796-15.688-.951-.8.107-.633 4.274-1.966 6.274-3.915 5.874 2.833 14.5 2.833 14.5s-3.764-7.771.167-12.5c2.477-2.979 10.15-5.14 17-2.167 57.457 24.945 97.135-.045 114.969-4.025 4.992-1.112 11.322.55 13.115 5.213 0 0 .243-.038-.396-2.938-.286-1.3-1.397-3.696-2.354-5.75-.361-.776-1.438-1.625-2.791-1.772a17.737 17.737 0 0 0-5.308.345z"/><path fill="#9E5E46" d="M943.625 293.213c-8.904 3.872-17.8.323-15.211-8.738.102-.357.16-.751.185-1.17-.441 1.493-.942 2.9-1.266 4.029-2.667 9.333 6.496 12.987 15.667 9 15.108-6.569 22.351-19.352 21.285-24.828-.919 6.039-7.894 16.157-20.66 21.707z"/><path fill="#8CC4BA" d="M1052.336 494.332s8.666-22.667-12.132-50.332c-15.721-20.911-44.479-48.667-64.537-45.667S958.853 419 962.195 426c3.344 7 7.092 33.943 9.472 47.667C974.5 490 983 510.333 1001 518.333c27.367 12.164 47.993-11.001 51.336-24.001z"/><path fill="#6CB0AC" d="M993.667 514.667s13.646-23.094 16-43c3.666-31-15.668-37.333-15.334-25.333 1.667 48.333-.666 68.333-.666 68.333z"/><path fill="#3B9197" d="M980.25 537.833c8.583 10.833 7.079 27.775 4 30.5-5.387 4.766-17.274-1.261-26.553-12.634-9.279-11.371-12.283-24.278-6.71-28.824 5.575-4.548 20.15-.544 29.263 10.958z"/><path fill="#A86346" d="M977.262 576.207s3.988-12.17 4.655-20.523c.695-8.729 4.078-27.117-3.042-32.975-7.75-6.375-16.018-4.912-18.25.625-3.125 7.75-7.018 8.959-8.875 10.167 0 0-12.664-1.321-24.25-5.167 0 0-12.139-3.953-14.75-3.25-6.5 1.75-10.625 15.25-10.5 18.875.128 3.713 1.25 5.625 7.75 9.375s26.86 12.662 38.75 21.25c9 6.5 25.022 13.246 28.512 1.623z"/><path fill="#8CC4BA" d="M967 401.333s-10 0-13 33 .833 83.333-5.5 96c0 0 2.424-2.488 7.833-2.833 4.834-.309 12.391 1.237 17.334 5.499C988.168 545.498 986 565.5 986 565.5s2.176-12.76 4-25.167c2.5-17 7-43 12-70s-4-78-35-69"/><path fill="#D9E9E1" d="M989.146 546.018c-1.743-6.724-5.275-14.378-12.322-20.452-5.542-4.778-14.014-6.511-19.433-6.165-2.917.187-5.052.928-6.489 1.647-.57 3.972-1.34 7.166-2.4 9.286 0 0 2.424-2.488 7.833-2.833 4.834-.309 12.391 1.237 17.334 5.499 14.5 12.498 12.332 32.5 12.332 32.5s1.559-9.146 3.145-19.482z"/><path fill="#E7D8D8" d="M981.625 546.834c-4.125-4.834-8.958-8.167-13.25-10.709-1.126-.667-2.812-2.516-3.125-5.625-.375-3.708-13.375-4.625-14.25-3-1.021 1.894-2.667 3-2.667 3s-4.333 3-14.583-3c-15.869-9.29-35.75-2.5-31.25 14.25 0 0 1.241 10.245 21.5 21.5 27 15 47.012 23.207 53 13.75 0 0 5.458-10.563 6.125-18.916 0 0 1.698-7.504-1.5-11.25z"/><ellipse fill="#CEC1C3" cx="953.719" cy="535.875" rx="1.531" ry="1.375"/><path fill="#CEC1C3" d="M903.947 529.862s-8.236 13.2 4.979 24.671c13.217 11.471 22.819 10.936 31.942 17.664 9.123 6.726 15.415 12.188 26.731 12.477 7.496.189 12.99-7.743 7.914-17.054-3.785-6.938-19.688-13.823-24.095-17.648-2.67-2.315-12.747-11.017-20.978-19.004-6.898-6.697-19.276-10.334-26.493-1.106z"/><path fill="#AA918B" d="M902.555 532.891s-8.459 11.372 5.667 24.692c12.732 12.008 21.713 11.345 30.837 18.073 9.124 6.728 19.712 13.139 27.044 11.559 7.331-1.58 13.506-8.539 9.479-15.344s-23.245-16.188-25.972-18.439c-6.225-5.137-17.424-15.499-21.679-19.876-5.477-5.639-18.16-9.895-25.376-.665z"/><path fill="#E7D8D8" d="M968.375 536.125c-1.126-.667-2.894-4.349-3.208-7.458-.375-3.708-14.391-3.368-15.792-2.167-.875.75-1.042 4-1.042 4"/><path fill="#F2E4E4" d="M945.384 534.762l-.008-.05a.399.399 0 0 0-.018-.105 3.206 3.206 0 0 0-.168-.521 3.895 3.895 0 0 0-.963-1.416c-.455-.438-1.058-.733-1.559-.874-.243-.09-.468-.114-.621-.146l-.244-.048-.123-.022a.931.931 0 0 1 .182-1.845l.328.002c.209.006.509-.008.875.052a6.087 6.087 0 0 1 2.612.925 6.557 6.557 0 0 1 1.999 2.035c.211.332.357.63.456.854a3.653 3.653 0 0 1 .15.39l.008.022a1.508 1.508 0 0 1-2.84 1.012 2.093 2.093 0 0 1-.066-.265zm7.447.519a2.475 2.475 0 0 0-.075-.469 3.23 3.23 0 0 0-.181-.525 4.284 4.284 0 0 0-.604-.98 5.563 5.563 0 0 0-.867-.831 7.788 7.788 0 0 0-1.055-.673l-.005-.003a1.029 1.029 0 0 1-.521-.791 1.133 1.133 0 0 1 .191-.705c.128-.174.203-.214.334-.303.061-.036.123-.065.186-.09.059-.022.057-.019.089-.027l.146-.032c.196-.028.245-.018.354-.021.16.006.287.021.408.036l.668.104 1.243.229c.816.149 1.624.286 2.432.392 1.608.21 3.227.31 4.754.117.19-.021.378-.054.563-.088.104-.016.379-.089.562-.131.304-.1.634-.216.966-.381a6.443 6.443 0 0 0 1.754-1.258c.503-.505.885-1.102 1.067-1.709.106-.304.122-.608.132-.908-.025-.14-.025-.318-.057-.425-.052-.188-.097-.448-.152-.55-.196-.557-.567-1.145-1.077-1.484-.502-.368-1.139-.581-1.826-.621-.686-.048-1.409.055-2.114.271a8.888 8.888 0 0 0-1.069.427c-.313.165-.627.314-.962.539-1.323.817-2.549 1.889-3.694 3.037a34.907 34.907 0 0 0-1.667 1.789 35.709 35.709 0 0 0-1.537 1.884 1.003 1.003 0 0 1-1.403.199 1.019 1.019 0 0 1-.397-.885c.061-.719.09-1.487.103-2.233.01-.751.002-1.502-.037-2.248-.08-1.487-.251-2.976-.649-4.33-.042-.167-.103-.328-.165-.518l-.185-.469a8.058 8.058 0 0 0-.458-.921c-.343-.584-.757-1.118-1.237-1.512-.477-.396-1.007-.646-1.521-.677-.514-.037-1.033.136-1.531.479-.502.362-.945.813-1.191 1.333-.261.524-.375 1.148-.368 1.794.015 1.301.504 2.657 1.24 3.832.37.591.811 1.141 1.299 1.638.482.488 1.068.955 1.631 1.325.589.388 1.22.719 1.875.992.641.264 1.373.493 1.975.6l.059.01a1 1 0 0 1-.346 1.97h-.001c-.918-.163-1.662-.414-2.449-.729-.769-.32-1.51-.709-2.21-1.17a12.147 12.147 0 0 1-1.954-1.589 11.543 11.543 0 0 1-1.57-1.981c-.891-1.431-1.52-3.077-1.547-4.875-.009-.893.146-1.832.572-2.693.426-.879 1.101-1.561 1.844-2.095.761-.537 1.776-.913 2.813-.834 1.038.068 1.955.547 2.658 1.132.713.59 1.25 1.302 1.688 2.044.221.372.406.758.573 1.147.083.192.161.401.238.609.059.177.133.378.187.585.249.805.387 1.607.508 2.408.116.801.178 1.598.223 2.393.041.795.049 1.587.039 2.379-.014.796-.043 1.57-.111 2.389l-1.801-.686a36.09 36.09 0 0 1 1.639-2.012 36.825 36.825 0 0 1 1.759-1.888c1.22-1.22 2.528-2.376 4.059-3.325.362-.242.8-.464 1.233-.681.227-.122.403-.173.604-.257l.292-.115.201-.074.169-.049c.895-.273 1.854-.422 2.842-.354.98.059 2.004.373 2.857.997.873.621 1.47 1.503 1.815 2.521.106.286.124.444.182.66.075.299.078.544.112.819 0 .535-.052 1.076-.218 1.568-.306.998-.875 1.84-1.549 2.522a8.42 8.42 0 0 1-3.683 2.186c-.227.052-.354.094-.662.152a10.82 10.82 0 0 1-.678.106c-1.804.223-3.56.102-5.269-.118a49.822 49.822 0 0 1-2.531-.408l-1.229-.225-.573-.091-.216-.021c.002-.001-.054.004.039-.006a.331.331 0 0 0 .069-.017l.051-.019a.876.876 0 0 0 .424-.327.903.903 0 0 0 .168-.63l-.524-.793c.46.26.913.542 1.336.881.424.337.82.724 1.17 1.158.345.44.644.926.865 1.457.112.264.201.541.27.827.065.297.116.562.118.94a.963.963 0 0 1-.954.968.962.962 0 0 1-.966-.942l-.002-.043z"/><path fill="#A86346" d="M1010.665 235.1s1.371-17.261 3.203-28.449c.404-2.462 3.014-18.687 3.25-21.762 2.24-29.295-2.348-49.929-.26-55.862 2.713-7.708 11.943-8.826 17.618 4.04 5.678 12.867 18.231 62.704 6.229 103.968 0 0-3.706 11.611-16.645 11.115-5.609-.215-13.556-3.187-13.395-13.05z"/><path fill="#D2861E" d="M999.601 257.845s-3.479-11.192 7.657-12.737c11.929-1.655 29.72 12.657 28.568 21.838-2.238 17.886-31.254 9.049-36.225-9.101z"/><path fill="#A86346" d="M977.633 295.711c-.75-3.349-3.848-11.637 14.414-33.394 13.553-16.147 25.23-48.419 31.453-51.318 6.221-2.898 20.455-1.789 20.29 14.575-.063 6.375-4.165 18.864-9.661 32.395-7.921 19.497-21.442 40.279-29.35 46.028-16.005 11.637-25.626-1.494-27.146-8.286z"/><path fill="#9E5E46" d="M1027.552 268.194c-10.669-.014-23.577-8.519-26.851-17.942-2.823 4.417-5.73 8.582-8.654 12.066-18.262 21.757-15.164 30.045-14.414 33.394 1.521 6.792 11.143 19.923 27.146 8.286 6.545-4.76 16.938-19.822 24.813-35.93-.6.083-1.272.127-2.04.126z"/><path fill="#FEBA4B" d="M991.313 314.734c3.6.777 12.209-4.435 21.184-15.867 3.229-4.116 9.13-8.729 13.269-13.841 9.979-12.326 10.083-18.392 10.083-18.392-1.619 5.147-2.466 7.266-8.035 7.259-13.408-.017-30.371-13.445-27.272-25.255 0 0-9.61 15.272-24.88 23.206-11.164 5.8-2.777 38.901 15.651 42.89z"/><path fill="#EC9F23" d="M1000.67 249.462c-3.098 11.81 18.736 23.811 26.543 23.469 6.537-.285 8.021-3.521 8.689-7.045 0 0 1.313.212.602 3.279-.459 1.979-3.113 4.567-3.644 6.592-.688 2.624-2.813 4.037-4.821 4.334-15.631-.379-29.341-10.956-33.17-24.014-.08-.795-.273-2.193 1.448-3.604 1.198-.98 1.97-2.992 2.419-4.025.45-1.033 1.866-2.438 4.346-2.071 0-.001-1.895 1.117-2.412 3.085z"/><path fill="#874F44" d="M1011.456 95.479c-1.801-1.842-4.5-5.56-5.771-8.118-.854-1.707-4.218-.645-4.255 2.804-.032 3.049 1.658 5.937 2.587 7.29 2.103 3.064 6.097 7.168 7.008 9.581 1.054 2.783 5.904 1.912 5.634-2.438-.301-4.807-4.953-8.861-5.203-9.119z"/><path fill="#A86346" d="M1012.025 97.056a10.084 10.084 0 0 0-.853-.788 7.328 7.328 0 0 0-.633-.785c-1.694-1.818-3.816-4.675-5.048-7.203-.824-1.688-3.584-.456-3.201 2.943.19 1.701 1.497 4.885 2.414 6.196 1.073 1.531 5.048 6.488 5.948 8.873 1.037 2.753 6.429 2.491 5.57-1.747-.851-4.237-2.976-6.22-4.197-7.489z"/><path fill="#874F44" d="M1018.894 97.239c-.505-.493-4.934-4.89-7.39-8.237-1.172-1.595-4.444.374-3.658 3.896.394 1.764 1.914 4.687 3.024 5.958 1.091 1.247 2.222 2.489 3.236 3.302.528 1.504.828 2.987 1.845 5.911 1.021 2.933 6.034 2.844 5.91-1.716-.15-5.642-2.032-8.199-2.967-9.114z"/><path fill="#A86346" d="M1014.528 96.115c-.85.742-1.153 2.164-.648 3.822.507 1.658 1.55 4.005 2.093 6.758.541 2.751 5.649 3.355 5.514-.763-.136-4.117-1.82-6.316-2.769-7.702-.947-1.385-2.814-3.319-4.19-2.115z"/><path fill="#A86346" d="M1011.327 89.857c1.429 2.271 3.729 4.759 5.521 6.31 1.79 1.551 2.566 3.651.93 4.735-1.102.729-3.247 1.138-6.259-2.305-1.004-1.148-2.565-4.031-2.923-5.623-.711-3.181 1.779-4.631 2.731-3.117z"/><path fill="#874F44" d="M1024.845 98.111c-.6-.877-1.677-2.023-3.703-2.844-2.322-.941-4.467-2.137-6.671-3.925-2.355-1.913-4.419 1.205-2.667 4.179.877 1.487 3.018 3.684 4.401 4.515 1.261.754 2.067 1.566 2.965 1.758.581 1.674 1.416 3.031 1.902 5.514.573 2.912 6.77 3.443 6.626-.916-.144-4.358-1.851-6.813-2.853-8.281z"/><path fill="#A86346" d="M1020.215 96.607c-.817.715-1.11 2.087-.625 3.687.489 1.6 1.496 3.865 2.019 6.52.521 2.654 5.451 3.237 5.319-.736-.132-3.972-1.757-6.093-2.67-7.429-.914-1.337-2.716-3.205-4.043-2.042z"/><path fill="#A86346" d="M1014.137 91.837c1.984 1.66 4.834 3.262 6.938 4.155 2.105.892 3.443 2.588 2.263 4.07-.797.996-2.646 2.006-6.433-.259-1.262-.757-3.551-2.938-4.352-4.294-1.594-2.709.26-4.779 1.584-3.672z"/><path fill="#874F44" d="M1030.713 102.689a9.587 9.587 0 0 0-1.168-1.402c-.543-.617-1.998-1.458-2.993-1.813-2.269-.809-4.668-2.118-6.857-3.744-1.46-1.083-3.78 1.751-1.935 4.503.925 1.377 2.906 3.531 4.28 4.249 1.186.617 2.211.948 3.249 1.264.555 1.621 1.348 3.106 1.827 5.538.55 2.797 5.51 3.932 5.932-.237.418-4.13-1.371-6.948-2.335-8.358z"/><path fill="#A86346" d="M1026.251 100.999c-.788.69-1.071 2.014-.602 3.556.472 1.543 1.442 3.729 1.946 6.291.504 2.561 5.259 3.124 5.13-.71-.126-3.832-1.691-5.878-2.574-7.167-.88-1.29-2.619-3.092-3.9-1.97z"/><path fill="#A86346" d="M1019.998 96.7c2.004 1.488 4.842 2.867 6.917 3.608 2.078.74 3.46 2.3 2.406 3.793-.71 1.004-2.435 2.083-6.208.114-1.259-.656-3.585-2.629-4.433-3.89-1.689-2.518-.019-4.616 1.318-3.625zm-4.727 41.192s-6.757-7.648-6.757-14.939c0-5.335 4.18-6.958 2.045-16.917 0 0 18.052 1.889 22.676 4.379 0 0-.528 13.827.183 20.584.709 6.759-6.765 17.208-18.147 6.893z"/><path fill="#874F44" d="M998.131 113.121s-1.25 1.327.156 3.201c1.405 1.874 6.399 6.088 7.961 9.68 1.563 3.592 4.216 8.12 7.651 10.149 3.979 2.353 4.097-11.046-.234-16.628-3.513-4.528-6.277-6.137-7.963-7.027-2.808-1.483-6.01-1.405-7.571.625z"/><path fill="#A86346" d="M999.302 113.433s-1.406 1.093 0 2.967c1.403 1.874 6.321 5.855 7.885 9.447 1.562 3.591 4.217 8.119 7.649 10.149 3.979 2.352 4.841-9.837-.156-14.833-4.995-4.996-6.713-6.246-8.273-7.338-1.562-1.094-5.545-2.422-7.105-.392z"/><path fill="#995D48" d="M881.986 236.165s-2.817 1.272-2.157 5.005c1.859 10.541 9.041 16.491 12.707 14.882 4.601-2.019-1.254-24.656-10.55-19.887z"/><path fill="#2A3338" d="M934.008 175.894s-13.016-13.961-1.476-25.063c0 0 5.026-5.455 12.687-3.647 0 0 4.069 1.206 6.103-3.683 2.031-4.889 9.127-11.279 19.767-6.301 4.688 2.192 6.194 6.624 11.205 7.526 8.603 1.551 18.422 7.825 18.419 20.994 0 7.871-3.438 11.396-5.27 13.344-2.441 2.598-1.646 4.104-1.97 6.679-.427 3.38-2.396 8.013-9.227 11.372 0 0-1.464 18.864-19.906 13.789"/><path fill="#2E373E" d="M943.604 254.22s8.449 1.12 9.407-9.476c0 0 7.568 3.973 10.249-.199 0 0-3.387-.576-4.018-3.214-.378-1.582.732-3.939 2.768-7.272 5.428-8.886 9.408-17.939 4.908-32.739 0 0-2.417-13.824-14.721-18.185-2.167-.768-5.803-3.604-8.675-7.232-7.402-9.353-31.973-20.926-54.87-3.458"/><path fill="#A86346" d="M948.859 240.515c-.128-4.932-3.479-19.289-6.113-28.109-4.5-15.484-15.726-26.726-31.683-27.449-18.663-.846-35.67 13.895-37.056 32.518-.458 6.173 2.358 14.277 5.166 19.432 4.591 8.427 8.696 16.113 12.56 21.849 4.015 5.96 7.418 9.988 13.322 13.128 5.45 2.899 14.006 3.565 21.332-.24 3.006-1.562 6.168-3.741 9.528-6.611 10.316-8.812 13.132-17.234 12.944-24.518z"/><path d="M891.083 236.162s1.868-.602 2.847 2.224c.973 2.806 1.444 4.231 1.874 5.641.487 1.601-1.503 3.473-3.233 1.359-1.386-1.688-2.572-4.411-2.8-5.985-.25-1.726.33-2.935 1.312-3.239zm20.686-8.059s1.868-.603 2.848 2.223c.971 2.807 1.443 4.232 1.874 5.641.487 1.601-1.503 3.473-3.234 1.359-1.385-1.688-2.571-4.411-2.799-5.985-.252-1.724.327-2.934 1.311-3.238z" fill="#2E373E"/><path fill="#2E373E" d="M955.544 199.997c-3.727-15.079-26.057-17.883-33.441-24.025-7.677-6.384-15.05-9.072-25.297-7.52-3.356.509-9.934 3.206-13.67 7.377-2.523 2.817-3.244 3.941-6.938 6.147-1.11.662-5.934 2.563-8.618 4.854-4.476 3.82-6.879 9.173-4.974 14.428 3.049 8.408 7.425 14.415 7.564 19.915.372 14.502 11.932 20.855 11.932 20.855s-8.063-18.455-4.736-26.058c2.743-6.27 8.249-3.25 16.752-5.555 0 0 5.246-1.387 12.097-4.082 12.563-4.943 12.271 6.746 23.035 12.015 0 0 11.016 6.772 14.864 13.81 3.848 7.036 9.665 4.657 11.356-.874 4.873-15.905.074-31.287.074-31.287z"/><path fill="#2E373E" d="M862.115 199.188s1.288 4.663-1.026 11.96c-1.734 5.472-.379 11.12 2.813 15.152 3.189 4.032 2.912 3.268 1.645 7.878-1.268 4.611-3.412 7.91.864 11.448 3.089 2.556 6.002 1.11 6.002 1.11s-6.279-1.875-2.549-8.762c3.729-6.887 6.93-12.37 6.579-21.929"/><path fill="#A86346" d="M930.135 220.41s-.484-6.698 6.462-8.032c4.707-.899 9.604 3.462 10.574 10.099s-2.132 14.618-5.871 14.753"/><path fill="#995D48" d="M933.933 224.895c-.542-2.387-.47-6.704 3.528-7.432 4.378-.792 6.906 10.942 3.379 14.182-3.89 3.571-6.458-4.778-6.907-6.75z"/><path fill="#995D48" d="M938.046 215.907s-.128.134-.329.363c-.204.224-.479.542-.78.908-.154.181-.302.388-.457.596-.159.203-.297.436-.452.655-.278.463-.55.944-.736 1.459-.125.246-.16.524-.269.777-.059.268-.113.536-.188.799-.028.271-.07.536-.117.795-.036.259-.042.513-.074.753-.07.481-.053.898-.095 1.206-.03.307-.064.496-.064.496s-.125-.13-.316-.381c-.175-.256-.481-.615-.657-1.127-.097-.252-.227-.527-.295-.836a12.665 12.665 0 0 1-.151-.997c.008-.354.009-.727.06-1.101.087-.369.149-.757.307-1.113.153-.359.313-.714.541-1.021.196-.328.463-.592.707-.85.265-.238.524-.46.799-.626a4.49 4.49 0 0 1 .793-.411 4.22 4.22 0 0 1 1.273-.334c.315-.034.5-.01.5-.01z"/><path fill="#2E373E" d="M884.04 202.655s1.023-.271 2.859-.547a43.757 43.757 0 0 1 7.712-.412c1.609.052 3.355.24 5.198.564 1.846.318 3.772.854 5.711 1.636 1.932.795 3.881 1.861 5.629 3.313.418.384.87.736 1.263 1.158l1.127 1.178c.729.785 1.421 1.461 2.13 2.165 2.884 2.803 6.059 5.236 9.322 6.711a17.012 17.012 0 0 0 4.859 1.403c1.588.193 3.116.076 4.496-.266 1.394-.317 2.611-.896 3.671-1.483 1.054-.604 1.905-1.279 2.607-1.849a26.386 26.386 0 0 0 1.557-1.441l.539-.542-.318.698a14.588 14.588 0 0 1-1.089 1.898 14.754 14.754 0 0 1-2.245 2.641c-.984.944-2.296 1.824-3.882 2.532-1.586.717-3.495 1.073-5.509 1.11-2.013-.01-4.122-.426-6.127-1.195-4.028-1.546-7.642-4.326-10.637-7.485-1.577-1.607-2.785-3.368-4.09-4.585-1.371-1.262-2.936-2.321-4.574-3.17-1.646-.844-3.365-1.452-5.024-1.974-1.666-.512-3.296-.856-4.814-1.132a60.237 60.237 0 0 0-7.481-.838c-1.831-.104-2.89-.089-2.89-.088z"/><path d="M915.321 218.629c-.034 2.093-3.859.843-9.93 1.696-2.863.403-3.611-1.631-1.904-2.739 2.632-1.706 7.096-1.55 9.955-.477 0 .001 1.379.413 1.879 1.52zm-24.511 4.09c.013.211 0 .406-.014.599-.372-.108-.834-.142-1.39-.07-3.067.397-5.983 3.833-5.892 7.368.074 2.849 1.266-.775 6.451-3.528.881-.468 1.456-1.059 1.736-1.637 1.286-1.958-.94-3.53-.891-2.732z" fill="#2E373E"/><path fill="#935845" d="M908.667 243.683s-4.238 2.215-6.236 5.859c.001 0-1.85-8.288 6.236-5.859z"/><path fill="#453446" d="M903.615 256.177s9.707-2.713 15.88-11.055c0 0 5.277 4.39 2.248 13.071-2.118 6.066-8.581 6.783-12.238 4.005-2.413-1.834-3.574-3.298-5.89-6.021z"/><path fill="#FFF" d="M917.562 249.179c.024-.808-.021-.99-.156-1.56-4.065 4.281-8.906 6.669-11.785 7.802a26.592 26.592 0 0 0 2.1 1.354c2.105 1.176 9.737-4.23 9.841-7.596z"/><path fill="#985271" d="M913.488 263.711c3.458.407 7.299-1.385 8.588-5.959.586-2.08.719-3.885.594-5.445-5.767 1.984-8.199 7.703-9.182 11.404z"/><path fill="#FFF" d="M782.417 759.667s45.17-9.773 71.917-64.667c13.449-27.604 16.974-45.929 16.974-55.98 0-10.051-1.508-26.205 6.854-32.438 10.839-8.08 27.255 3.753 16.905 25.586-9.486 20.01-32.908 49.086-21.316 68.834 9 15.333 30.25-7 33.25-28.333 1.161-8.256 8.268-19.414 15.121-17.586 6.854 1.827 11.928 13.641-1.371 25.586-23.75 21.333-26.75 43-26.75 43s-27.25 14-46.25 19-38.084 14.998-65.334 16.998z"/><path fill="#F2F2F2" d="M875 633c-.5 23-2.051 30.896-15.5 58.5-17.647 36.219-42.902 54.85-59.632 61.294 15.581-8.052 38.361-24.742 54.466-57.794 13.449-27.604 16.974-45.929 16.974-55.98 0-10.051-1.508-26.205 6.854-32.438-.001-.002-2.662 6.918-3.162 26.418zm19.763 70.354c-7.41 8.436-16.421 11.82-21.513 3.146-3.177-5.412-3.712-11.528-2.637-17.963-.037 4.416.88 8.618 3.137 12.463 8.149 13.884 26.341-3.114 31.935-22.289l.033-.114c-.001 0-.442 11.612-10.955 24.757z"/><path fill="#DAD7D7" d="M1074.213 564.967l22.779 46.907s49.853 6.788 88.146-31.479l-25.604-52.438c-.001 0-39.424 39.7-85.321 37.01z"/><path fill="#FFF" d="M1076.714 566.672l21.329 43.17s47.604 6.879 84.455-29.949l-23.431-48.646c.001-.001-39.89 37.841-82.353 35.425z"/><path fill="#F8D896" d="M1090.394 571.125l15.063 31.18s15.906 2.438 36.757-5.602c13.223-5.102 21.24-9.871 28.902-18.025l-17.272-35.607s-12.293 11.132-28.373 18.916c-9.307 4.504-19.858 7.678-35.077 9.138z"/><path fill="#F9EDD4" d="M1153.179 557.553a4.054 4.054 0 1 1-8.065.849 4.056 4.056 0 0 1 3.607-4.459 4.061 4.061 0 0 1 4.458 3.61z"/><path fill="#FCB57C" d="M1171.115 578.678l-27.575-11.668-15.72 34.041s15.625-3.91 27.126-9.94c6.266-3.287 12.413-7.871 16.169-12.433z"/><path fill="#FCB57C" d="M1115.209 584.247l-9.646 18.046c13.888 1.676 28.05-1.886 42.828-8.093.207.232-33.182-9.953-33.182-9.953z"/><ellipse transform="rotate(50.898 1151.21 496.95)" fill="#D3789F" cx="1151.191" cy="496.973" rx="21.928" ry="16.961"/><path fill="#DE82A1" d="M1240.15 332.48c-20.618-21.915-56.386-34.833-77.65-35.48 0 0-7.5-.333-9.167 5-1.646 5.271 3.667 7 14.334 10 36.067 10.145 39.316 57.986 7.997 96.333-14.825 18.152-26.418 25.045-46.666 36-20.331 11-15.664 19-6.664 17.333 4.96-.918 13.327-4.014 15-2 3.041 3.66-28.338 5.32-60.161 30.651-24.859 19.788-56.916 57.135-46.447 69.421 7.607 8.928 19.004-11.704 25.774-16.739 19.5-14.5 29-4 12.167 12.334-11.313 10.978-35.667 33.333-46.773 60.036-9.44 22.7-9.678 55.721 5.481 49.818 6.521-2.539 11.265-12.801 18.708-31.08 7.439-18.279 24.221-58.813 92.645-97.798 93.381-53.203 113.438-128.224 113.438-128.224 6.808-24.487 8.602-53.69-12.016-75.605z"/><path fill="#D3789F" d="M1213.92 323.973s-.688-6.38-1.735-12.147c-17.396-9.21-36.38-14.419-49.685-14.825 0 0-7.5-.333-9.167 5-1.646 5.271 3.667 7 14.334 10 13.735 3.863 22.696 13.202 26.816 25.394 5.673-1.296 10.347-2.518 12.497-3.375-.001-.001 7.11-2.045 6.94-10.047zm33.279 17.583c9.224 19.217 6.973 41.323 1.632 60.531 0 0-20.057 75.021-113.438 128.224-68.423 38.984-85.202 79.519-92.644 97.798-7.443 18.279-12.188 28.541-18.708 31.08-3.125 1.217-5.595.775-7.465-.885 1.713 5.94 5.208 9.062 10.798 6.885 6.521-2.539 11.265-12.801 18.708-31.08 7.439-18.279 24.221-58.813 92.644-97.798 93.381-53.203 113.438-128.224 113.438-128.224 5.906-21.242 8.029-46.028-4.965-66.531z"/><path fill="#D3789F" d="M1167.661 304.32c-7.114-1.94-10.302-4.036-11.704-5.682-1.147.74-2.138 1.805-2.624 3.361-1.646 5.271 3.667 7 14.334 10 28.425 7.994 36.448 39.403 23.25 71.126 33.835-45.871-8.852-74.876-23.256-78.805zm-97.328 227.347c-9.551 1.492-20 12-27.666 21.667-5.355 6.753-11.034 3.095-13.972.276.006 2.418.639 4.497 2.029 6.13 7.607 8.928 19.003-11.704 25.774-16.739 19.5-14.5 29-4 12.167 12.334-.899.873-1.89 1.826-2.941 2.84 5.979-3.748 12.276-8.433 14.274-15.174 2.669-9.001 1.002-13.001-9.665-11.334zm60.722-68.345c3.354-.67 10.288-2.006 11.945-5.322 1.666-3.333-9.333-5-19.666-1.333-4.042 1.435-6.797 1.535-8.668 1.135-.207 3.131 3.193 4.693 7.668 3.865 4.96-.918 13.327-4.014 15-2 .955 1.15-1.491 2.104-6.279 3.655z"/><path fill="#D3789F" d="M1217.588 466.065c7.787-12.293 17.339-28.199 17.339-28.199s3.993-6.57-.643-13.776l-22.779-36.203s-1.342-1.936-1.486-4.389c-.145-2.456 1.478-5.294-1.33-10.03-2.207-3.723-8.543-13.41-11.609-18.046-.333 16.502-9.442 37.944-23.078 54.911 11.333 19.333 32.436 61.125 32.436 61.125s3.363 6.901 11.15-5.393z"/><path fill="#FFA7BD" d="M1106.448 509.501c-10.176 10.555-12.428 29.549-15.116 39.149-4.667 16.666-10.362 19.553-21.336 26.67-15.188 9.851-8.31 21.314 17.333 10 22.67-10.004 21.138-23.863 40.003-56.003 18-30.667 39.563-27.991 59.333-43.333C1219.5 460.5 1222.5 451 1229 437c6.974-15.021-1.934-18.867-4.5-13-7 16-18 23.5-25.835 27.317-15.014 7.313-24 10-32.002 23.343-16.748 27.928-44.667 19.327-60.215 34.841z"/><path fill="#F49BB4" d="M1196.624 452.301a2499.85 2499.85 0 0 1 9.083 17.719c15.437-14.369 18.364-22.404 23.293-33.02 6.974-15.021-1.934-18.867-4.5-13-7 16-18 23.5-25.835 27.317-.694.338-1.372.664-2.041.984zm-35.886 30.327c-8.311 9.048-18.267 12.363-27.89 15.039.909 3.439 2.617 6.894 5.155 10.017a27.887 27.887 0 0 0 3.754 3.792c8.923-7.774 18.308-11.317 27.636-15.551-.935-3.313-2.617-6.629-5.063-9.637a27.862 27.862 0 0 0-3.592-3.66z"/><path fill="#F49BB4" d="M1227.851 421.389c1.987 1.98 2.739 6.266-.517 13.278-6.5 14-7.834 21.5-40.669 46.983-19.77 15.342-41.333 12.667-59.333 43.333-18.865 32.14-17.333 46-40.003 56.003-14.215 6.271-22.651 5.54-24.771 1.967-2.841 6.658 5.85 10.717 24.771 2.366 22.67-10.005 21.138-23.863 40.003-56.003 18-30.667 39.563-27.991 59.333-43.333C1219.5 460.5 1222.5 451 1229 437c4.92-10.596 1.937-15.624-1.149-15.611z"/><path fill="#F49BB4" d="M1126.579 499.4c3.997-.331 8.635-.739 11.421-1.066 5.667-.667 23-5 28-21.333.214-.698.318-1.301.337-1.828-10.801 17.562-26.101 20.365-39.758 24.227z"/><path fill="#FFA7BD" d="M1140.099 472.46s2.229 2.256-1.765 6.54c-2.068 2.218-3.492 3.333-5.132 4.043-4.307 1.862-5.919-2.609-1.842-7.23 2.178-2.472 6.703-5.101 8.739-3.353z"/><path fill="#F49BB4" d="M1140.099 472.46a2.123 2.123 0 0 0-.502-.313c.458.831.956 2.754-1.727 5.533-1.896 1.965-3.221 2.937-4.773 3.519-2.031.762-3.49.091-3.982-1.282-.558 2.695 1.131 4.406 4.089 3.126 1.64-.71 3.063-1.825 5.132-4.043 3.992-4.284 1.763-6.54 1.763-6.54z"/><g><path fill="#DC5147" d="M787.048 585.62c-2.314-4.073-5.141-8.048-9.406-10.979-11.378-7.819-26.127-6.114-32.946 3.807-6.819 9.924-3.125 24.305 8.251 32.123 4.265 2.933 9.164 4.332 13.621 4.848l33.111 3.857c1.394.182 2.411.014 3.062-.934.649-.945.331-1.902-.226-3.191l-15.467-29.531z"/><path fill="#DC5147" d="M745.747 576.119l-2.949 5.716 60.18 36.017 2.232-4.164z"/><path fill="#F9604B" d="M789.364 581.188c-2.314-4.072-5.142-8.048-9.406-10.979-11.378-7.82-26.127-6.115-32.947 3.807-6.818 9.924-3.125 24.305 8.252 32.122 4.266 2.935 9.164 4.332 13.621 4.849l33.112 3.856c1.394.183 2.411.015 3.061-.933.65-.946.332-1.903-.225-3.192l-15.468-29.53z"/><ellipse transform="rotate(-145.499 767.624 588.203)" fill="#FFF" cx="767.589" cy="588.184" rx="15.246" ry="13.296"/><path fill="#6CB0AC" d="M764.146 470.794s-3.275 8.708 5.023 12.301c1.66.718 2.807 3.116-3.38 3.405-9.529.443-17.606-5.817-19.715-10.662"/><ellipse transform="rotate(-98.696 748.487 450.015)" fill="#8CC4BA" cx="748.488" cy="450.013" rx="28.842" ry="34.549"/><path fill="#FFF" d="M741.167 455.583c-.982.128-2.152-.388-2.624-1.18-.442-.745-.69-1.211-1.011-1.973-.94-2.233-.76-4.222 1.226-4.929 2.031-.723 4.446.932 5.035 3.07.586 2.138-.231 4.699-2.626 5.012zm12.006-4.046c-.984.128-2.154-.388-2.625-1.18-.441-.745-.689-1.211-1.01-1.972-.941-2.235-.76-4.223 1.225-4.931 2.032-.723 4.447.932 5.034 3.071.588 2.139-.232 4.7-2.624 5.012zm12.006-4.046c-.983.128-2.152-.389-2.624-1.181-.441-.744-.69-1.211-1.01-1.972-.94-2.234-.761-4.222 1.226-4.93 2.03-.722 4.444.933 5.034 3.07.585 2.139-.233 4.7-2.626 5.013z"/><path fill="#6CB0AC" d="M782.654 444.761a24.187 24.187 0 0 0-.511-2.436c-.179 12.807-11.545 24.381-27.078 26.758-16.989 2.6-32.521-6.792-34.69-20.975-1.07-6.996 1.315-13.849 6.042-19.312-8.688 6.516-13.609 16.33-12.066 26.414 2.408 15.746 19.651 26.171 38.514 23.286 18.861-2.884 32.198-17.988 29.789-33.735z"/><path fill="#DC5147" d="M1206.011 280.56c-.719-1.024-1.509-1.963-2.627-2.722-.074-.05-.151-.1-.229-.15-.047-.029-.091-.061-.139-.089-1.813-1.128-4.642-2.02-8.964-1.594-10.022.987-37.827 6.617-46.26 9.504-8.433 2.887-8.266 8.839-8.266 8.839-.215 4.834 1.78 13.166 2.714 17.762.935 4.598 3.527 13.809 3.527 13.809s3.384 8.387 6.687 10.657c.672.461 2.421-1.126 7.373-4.492 11.472-1.521 39.474-7.164 45.787-9.685 0 0 7.108-2.042 6.938-10.044 0 0-.843-7.867-2.094-14.028-.188-.921-1.25-6.065-2.396-10.652l1.104-1.078s-1.527-3.715-3.155-6.037z"/><path fill="#F9604B" d="M1209.348 286.97s-2.12-5.813-11.929-4.846c-10.025.987-37.828 6.616-46.26 9.503-8.432 2.886-8.266 8.84-8.266 8.84-.216 4.833 1.78 13.165 2.715 17.761.933 4.598 3.527 13.81 3.527 13.81 2.964 7.437 10.309 6.543 10.309 6.543 6.933-.255 42.338-7.189 49.535-10.063 0 0 7.109-2.043 6.939-10.046 0 0-.846-7.868-2.096-14.026-.303-1.505-2.941-14.268-4.474-17.476zm4.407 17.28z"/><path fill="#FFF" d="M1169.12 299.786c-1.326-.447-2.184.31-1.903 1.679l4.323 21.293c.28 1.371 1.362 1.731 2.408.803l16.172-14.358c1.044-.929.818-2.054-.511-2.502l-20.489-6.915z"/><path fill="#F8CA7E" d="M1227.647 367.968c-.724-1.06-3.685-4.778-7.056-1.604-4.283 4.038-42.555 40.479-42.555 40.479l40.535 62.331s2.756 3.079 7.335.056c4.581-3.024 49.542-31.681 49.542-31.681s6.806-4.462 3.141-10.853c-3.667-6.392-20.816-34.045-20.816-34.045s-2.635-4.844-6.819-2.083c-.582.384-2.381 1.496-3.999 2.536-1.781 1.147-2.599.108-3.809-1.63-5.465-7.856-14.071-21.417-15.499-23.506z"/><path fill="#F2BC62" d="M1226.769 366.836c-.723-1.06-3.684-4.779-7.055-1.603-4.284 4.038-42.554 40.48-42.554 40.48l40.534 62.329s2.756 3.081 7.334.056c4.58-3.024 49.543-31.679 49.543-31.679s6.805-4.463 3.14-10.854c-3.666-6.393-20.814-34.045-20.814-34.045s-2.634-4.843-6.819-2.083c-.585.385-2.382 1.495-4.001 2.536-1.782 1.147-2.596.109-3.806-1.63-5.47-7.855-14.076-21.418-15.502-23.507z"/><path fill="#FFA7BD" d="M1250.555 364.409c-3.055-11.409-13.104-8.304-12.055 3.091 1.372 14.902-.055 24.482-3.461 29.389-4.706 6.778-2.813 11.572.961 12.111 3.5.5 8-4.333 8-13.333 0-6.313.236-13.203 4.066-17.188 3.83-3.985 3.991-8.46 2.489-14.07z"/><path fill="#F49BB4" d="M1250.555 364.409c-1.877-7.008-6.39-8.533-9.351-6.03 4.13-.712 6.504 2.083 7.796 6.288 1.646 5.356-.433 10.167-4.076 13.823-3.644 3.657-2.448 11.2-2.257 17.177.272 8.521-5.223 11.932-8.678 11.353a4.668 4.668 0 0 1-1.227-.383c.631 1.325 1.793 2.158 3.236 2.364 3.5.5 8-4.333 8-13.333 0-6.313.236-13.203 4.066-17.188 3.832-3.985 3.993-8.461 2.491-14.071z"/><path fill="#F8CA7E" d="M1224.525 465.801c7.551-12.438 19.502-31.592 19.502-31.592s3.993-6.571-.644-13.775l-22.776-36.205s-1.345-1.935-1.486-4.389c-.144-2.454 1.476-5.292-1.33-10.027-2.809-4.737-11.937-18.959-12.874-20.326-1.079-1.568-1.904-2.535-3.286-2.354l-1.859.244.055 1.223c-.816.935-1.752 2.353-2.879 4.415-4.726 8.664-22.529 41.217-22.529 41.217s-3.661 4.051.826 11.134c4.485 7.077 40.031 62.924 40.031 62.924s.289.404.799.85l.122.901 2.218.247-.003-.026c1.631.222 3.77-.599 6.113-4.461z"/><path fill="#FDD899" d="M1202.449 349.646c-2.11-3.068-3.367-4.076-7.604 3.69-4.728 8.662-22.266 40.729-22.266 40.729s-3.143 5.209 1.346 12.29c4.485 7.079 39.511 61.768 39.511 61.768s3.365 6.901 11.152-5.393c7.787-12.293 17.339-28.199 17.339-28.199s3.993-6.57-.643-13.776l-22.779-36.203s-1.342-1.936-1.486-4.389c-.145-2.456 1.478-5.294-1.331-10.03-2.806-4.734-12.3-19.122-13.239-20.487z"/><path fill="#E4A445" d="M800.146 331.881s-8.446-2.372-13.146 3.084l65.479 21.826s7.577-7.275 15.459-5.002l-67.792-19.908z"/><path fill="#DAD7D7" d="M804.478 373.043s14.082-34.664-4.332-41.163c0 0 62.336 17.635 67.793 19.909 5.455 2.273 20.613 29.86-.606 55.929l-62.855-34.675z"/><path fill="#FFF" d="M807.234 372.251s11.442-31.223-2.956-38.802c0 0 55.013 16.624 62.067 18.794 5.911 1.819 18.644 27.283.683 51.837l-59.794-31.829z"/><path fill="#F8D896" d="M815.192 336.633s28.494 8.488 46.835 14.247c11.595 14.096 1.591 36.377 1.591 36.377l-43.576-21.977c.001 0 6.367-20.008-4.85-28.647z"/><path fill="#FCB57C" d="M863.619 387.257l-19.931-31.072 18.49-5.153c.001-.001 11.369 12.58 1.441 36.225z"/><ellipse transform="rotate(50.898 1164.342 482.78)" fill="#6CB0AC" cx="1164.318" cy="482.798" rx="28.116" ry="21.75"/><path fill="#6CB0AC" d="M1160.4 450.425s-5.161 1.454-10.104 5.96c-4.941 4.506-7.632 9.014-7.632 9.014l27.947 43.246s9.046-.486 14.719-4.36c8.94-6.105 10.104-12.72 10.104-12.72l-35.034-41.14z"/><ellipse transform="rotate(50.898 1173.392 474.928)" fill="#8CC4BA" cx="1173.368" cy="474.948" rx="28.116" ry="21.75"/><ellipse transform="rotate(50.898 1173.413 474.967)" fill="#FFF" cx="1173.374" cy="474.969" rx="23.052" ry="17.833"/><path fill="#DAD7D7" d="M1172.742 475.296c-.009-.391.293-.636.674-.546l15.382 3.883c.38.089.697.479.707.871.01.391-.292.636-.673.546l-15.383-3.884c-.379-.088-.695-.478-.707-.87z"/><path fill="#DAD7D7" d="M1187.185 463.717c-8.029-9.88-20.734-12.854-28.379-6.642-.309.251-.584.53-.865.803 7.722-4.916 19.479-1.75 27.063 7.583 7.707 9.481 8.284 21.86 1.565 28.335.451-.288.893-.599 1.314-.941 7.645-6.212 7.332-19.259-.698-29.138z"/><path fill="#4B5659" d="M1173.162 457.899c.618.145 1.133.776 1.146 1.412l.293 13.675c.017.635-.475 1.032-1.093.888-.618-.146-1.133-.777-1.146-1.412l-.292-13.675c-.016-.635.473-1.034 1.092-.888z"/><path fill="#4B5659" d="M1158.34 478.328c-.364-.926 0-1.806.816-1.965l13.267-2.607c.813-.16 1.771.46 2.134 1.386.364.926-.002 1.806-.814 1.967l-13.27 2.605c-.814.16-1.771-.46-2.133-1.386z"/><ellipse transform="rotate(50.898 1172.962 475.332)" fill="#3F484C" cx="1172.937" cy="475.35" rx="3.246" ry="2.511"/><path fill="#3F484C" d="M1171.457 472.393l-.586.465 4.034 5.082.523-.413z"/><ellipse transform="rotate(50.889 1173.37 475.03)" fill="#475155" cx="1173.324" cy="475.008" rx="3.247" ry="2.511"/><path fill="#F9604B" d="M1173.07 474.969c-.011-.391.292-.636.674-.546l15.381 3.883c.38.089.697.479.707.871s-.292.636-.674.546l-15.381-3.884a.966.966 0 0 1-.707-.87z"/><ellipse transform="rotate(50.876 1173.33 475.005)" fill="#F9604B" cx="1173.335" cy="474.981" rx="1.595" ry="1.233"/></g><g fill="#FDD496"><circle cx="935" cy="606.667" r="6.941"/><circle cx="991.5" cy="580.75" r="3.759"/><circle cx="1090.833" cy="708.083" r="3.759"/><circle cx="920.583" cy="588.829" r="2.498"/><circle cx="1106.501" cy="691.666" r="2.498"/></g></svg>