<svg xmlns="http://www.w3.org/2000/svg" width="1920" height="1080"><path fill="#FFEBCB" d="M1261.21 553.5c0 59.83-17.439 115.58-47.52 162.45a302.38 302.38 0 0 1-51.4 60.71 301.36 301.36 0 0 1-39.54 30.34c-46.931 30.2-102.79 47.71-162.75 47.71S844.18 837.2 797.25 807c-1.03-.66-2.06-1.33-3.08-2a303.898 303.898 0 0 1-38.83-30.5 299.737 299.737 0 0 1-18.43-18.62c-2.05-2.25-4.061-4.54-6.04-6.86a272.21 272.21 0 0 1-6.35-7.68c-41.141-51.5-65.73-116.8-65.73-187.84 0-166.36 134.86-301.21 301.21-301.21 166.36 0 301.21 134.85 301.21 301.21z"/><path fill="#FEDCA3" d="M1213.69 715.95a302.788 302.788 0 0 1-90.94 91.05h-325.5a303.052 303.052 0 0 1-72.729-65.66l27.869-25.13s6.051-6.06 13.75-1.65c7.711 4.4 24.08 13.48 27.521 15.4 3.44 1.93 33.149 16.37 36.45 13.07 3.31-3.3 111.85-148.16 111.85-148.16s3.311-4.61 8.66-.41c5.09 3.99 80.479 85.01 80.479 85.01s34.262 14.45 40.45 15.28c6.19.82 40.44 7.42 40.44 7.42s16.51-3.71 17.34-4.95c.819-1.238 6.25-13.68 9.899-17.33 3-3 7.899-7.83 10.319-10.729 1.08-1.3 5.57 1.03 5.57 1.03l10.72 8.26s15.28 15.06 21.891 19.6c6.601 4.54 15.681 9.7 17.739 10.932 1.122.667 4.122 3.347 8.222 6.967z"/><path fill="#FEE3B7" d="M873.998 720.059c14.856-3.853 58.33-15.407 64.933-23.111 6.604-7.704 31.834-31.631 36.786-36.033 4.952-4.401.287-4.889-9.271-2.487-7.021 1.765-42.921 9.906-46.224 9.906-3.302 0 1.101-6.604 7.704-12.104 5.849-4.875 31.126-19.687 35.674-48.632-6.875-7.188-11.8-12.219-12.976-13.139-5.357-4.199-8.667.412-8.667.412s-83.495 111.434-106.25 141.057c-2.339 3.207 5.229-2.05 9.452-3.981 9.089-4.166 21.487-9.983 28.839-11.888zm190.203 47.422c1.712 1.878 3.916 2.053 5.681.378 4.688-4.444 14.067-13.404 20.046-19.522 8.231-8.425 15.894-21.969 24.828-33.906 10.785-14.406 28.464-43.333 33.128-45.677 4.664-2.346-.764 6.228 1.73 8.089 2.495 1.861 8.344 7.686 8.816 10.954.476 3.269-3.761 23.899.289 24.98 2.437.648 6.502-1.354 9.351-3.05 1.891-1.124 4.018.503 4.888 3.939 1.451 5.735 3.179 13.748 2.064 15.648-1.784 3.04-38.922 32.536-72.008 52.835-28.553 17.516-25.118 13.707-29.532 10.097-2.005-1.64-12.304-4.104-23.572-1.64-9.203 2.013-44.286 9.201-55.214 11.503-5.176 1.089-8.107-1.339-4.026-3.451 15.601-8.075 41.149-19.495 57.516-26.169 9.277-3.781 14.527-6.639 16.015-5.008zM755.34 774.5a299.737 299.737 0 0 1-18.43-18.62c7.02 1.22 19.93 3 22.01 4.28 2.3 1.42 2.02 4.8-3.58 14.34zm63.55-19.84c-10.609-5.65-47.06-21.57-53.1-24.73-4.64-2.43-10.79-5.88-13.061-6.09-2.27-.2-18.779 19.61-20.64 22.29-.55.8-.979 1.82-1.22 2.89a272.21 272.21 0 0 1-6.35-7.68l27.869-25.13s4.16-4.16 9.971-3.07c2.13.69 2.66 1.341 3.569 2.41 6.62 7.771 52.54 37.65 54.5 38.82 1.442.87 1.012 1.65-1.538.29z"/><path fill="#D1B184" d="M1162.29 776.66a301.36 301.36 0 0 1-39.54 30.34c-46.93 30.2-102.79 47.71-162.75 47.71S844.18 837.2 797.25 807c-1.03-.66-2.06-1.33-3.08-2v-4.17s34.12-17.17 46.79-15.83c12.67 1.33 21.33.66 28.67-2.67 7.33-3.33 50.7-20.66 64.22-41.17 19.33-16.76 40.36-25.76 45.11-26.5 2.42-.78 5.45.398 8.04-.66 9.021-3.7 20.34-12.15 33.29-12.67 16.67-.67 72-2.67 84 4 4.359 2.42 12.92 6.6 18.21 12.67 9 10.33 18.399 22.05 21.79 28 5.34 9.33 16 27.33 16 27.33l2 3.33z"/><path fill="#C9A67D" d="M936.128 846.314c25.266-4.232 50.243-9.924 75.013-16.291a1745.46 1745.46 0 0 0 18.536-4.898l9.233-2.489 4.596-1.208c1.535-.418 3.183-.842 4.742-1.316a294.669 294.669 0 0 0 18.591-6.35 133.951 133.951 0 0 0 9.039-3.787c1.476-.7 2.949-1.404 4.4-2.164a138.967 138.967 0 0 0 4.362-2.406l.454-.263.535-.511c1.261-1.202 2.479-2.441 3.811-3.587 1.282-1.186 2.658-2.286 4.008-3.413 1.396-1.076 2.765-2.188 4.215-3.208 1.419-1.058 2.896-2.045 4.354-3.06 1.485-.979 2.959-1.979 4.487-2.905 1.51-.952 3.052-1.861 4.602-2.761 1.557-.889 3.118-1.77 4.704-2.614a186.794 186.794 0 0 1 4.776-2.513c1.611-.806 3.221-1.617 4.858-2.379 1.627-.78 3.277-1.517 4.919-2.275a246.783 246.783 0 0 1 10.007-4.235 240.853 240.853 0 0 1 10.176-3.875 245.894 245.894 0 0 1 5.15-1.757l.245-.081c-1.197-2.031-2.55-4.33-3.938-6.697-1.281.337-2.559.684-3.833 1.038a249.924 249.924 0 0 0-10.771 3.305c-1.781.594-3.55 1.232-5.315 1.879a258.516 258.516 0 0 0-5.275 2.007 174.03 174.03 0 0 0-5.221 2.17c-1.736.736-3.451 1.527-5.17 2.313a187.327 187.327 0 0 0-5.111 2.468c-1.696.841-3.364 1.749-5.032 2.651-1.663.919-3.32 1.852-4.954 2.833-1.647.954-3.253 1.992-4.869 3.013-1.602 1.049-3.19 2.114-4.742 3.25-1.574 1.095-3.085 2.298-4.617 3.466-1.494 1.227-3.007 2.426-4.446 3.731-1.298 1.104-2.524 2.304-3.765 3.485.156-.094.325-.19.478-.283l-.989.772c.172-.162.342-.326.513-.489-1.114.67-2.31 1.365-3.484 2.026-1.345.774-2.685 1.573-4.046 2.331-2.699 1.561-5.407 3.122-8.149 4.619-5.464 3.038-11.151 5.669-17.026 7.587-1.479.483-2.917.884-4.449 1.334l-4.635 1.316-9.194 2.673a1692.687 1692.687 0 0 1-18.367 5.241c-24.521 6.817-49.233 12.969-74.225 17.646a614.621 614.621 0 0 1-18.798 3.125 473.372 473.372 0 0 1-18.889 2.38 332.28 332.28 0 0 1-3.476.327 299.587 299.587 0 0 0 14.241 2.808c2.92-.335 5.837-.689 8.75-1.075a617.908 617.908 0 0 0 18.991-2.904z"/><path fill="#D4B589" d="M1104.295 708.664c-12-6.667-67.333-4.666-84-4-6.117.244-23.688 20.574-29.295 22.67-9.672 3.616-6.553-10.181-12.038-9.336-4.714.727-25.407 9.416-44.587 26.044-.833.722-2.785 3.972-3.045 4.844-.553 1.852-1.431 3.597-2.548 5.236-7.607 11.16-25.938 20.124-28.781 21.546-8 4-22.667 9.333-30 12.666s-16.372 1.33-29.039-.003S796 800.25 796 800.25c-3.628 1.003-6.606 21.87 38 27.084 25.667 3 40.333 10.667 48.667 12.667 1.692.406 7.829 1.325 11.333-.667 31.667-18 73.333-29 73.333-29 5.313-2.017 23.885-4.547 31.628-5.003 11.333-.667 32.666-8.667 38-12.667 5.333-4 39.005-13.234 46.743-14.244 9.767-1.273 19.703-6.333 12.707-9.363-3.799-1.847-10.256-2.244-10.256-2.244s-92.798 1.028-93.406-5.063c-.667-6.667 44.648-4.387 67.545-7.752 27.205-3.998 50.667-9.333 58-14 2.737-1.742 7.182-8.356 8.372-15.331 1.136-5.168-17.069-13.058-22.371-16.003z"/><path fill="#E4C9A1" d="M795.628 799.664s32.667-16 45.333-14.667 21.706 3.336 29.039.003 22-8.666 30-12.666c2.845-1.422 21.174-10.386 28.781-21.546 1.118-1.642 1.784-3.463 2.548-5.236.92-2.135 2.212-4.122 3.045-4.844 19.18-16.628 39.874-25.317 44.587-26.044 5.485-.845 2.366 12.952 12.038 9.336 5.607-2.096 23.178-22.426 29.295-22.67 16.667-.666 72.622-2.663 84.622 4.004 5.302 2.945 20.25 11.333 19.115 16.501-1.191 6.975-3 13.087-5.737 14.829-7.333 4.667-35.333 9.333-58 14s-64 2.666-63.333 9.333c.666 6.667 75.354 5.112 88.205 6.67 16.5 2 4.333 6.583-7.167 8.083-7.738 1.01-35.705 10.58-41.038 14.58-5.334 4-26.667 12-38 12.667-7.743.456-17.351 3.711-22.662 5.728 0 0-68.633 18.275-82.633 26.275-3.5 2-9.643 1.073-11.333.667C874 832.667 859.667 827 834 824c-44.606-5.214-42-23.333-38.372-24.336z"/><path fill="#D4B589" d="M919.375 781.507c5.75 5.118-7.103 11.776-13.375 12.108-16.667.881-20 1.156-30.167 2.91-8.324 1.437-29.054 2.428-29.583-3.538-.161-1.808-.036-8.18 21.5-8.862 28.75-.913 47.25-8 51.625-2.618zm172.764-43.007c-9.041.835-35.487 2.917-53.487 2.917-10.014 0-14.559-1.75-16.47-4.5 0 0-.312-3.666 6.985-4.416s28.629-3.397 35.667-3.334c46.003.417 46.248 7.583 27.305 9.333z"/><path fill="#CEAC83" d="M1086.625 759.625c-.737 1.105.125 1.625 2.75 1.5s7.75.75 10.125-.75-1.082-3.834-4.666-3.542c-4.243.346-7.209 1.292-8.209 2.792z"/><path fill="#DE82A1" d="M1104.334 465.333c-7.01 8.761-12.289 16.302-16.598 22.715-8.808 13.105-8.403 20.618-20.736 25.952-15.664 6.774-33.07-2.58-36.75 2.75-7.25 10.5-11.25 12.5-24.5 13.25-14.85.84-14.431 11.398-22.75 21.5-7 8.5-28 4-43.013 17.267-5.959 5.267-7.428 9.87-28.487 15.233-21.062 5.359-35 11.5-50 18-11.729 5.083-9.485-5.989.5-15 20.5-18.5 31.5-7.5 39-25 7.385-17.232 12.154-29.431 35-29 9.653.182 18.021-6.766 22-10 8-6.5 13.239-9.969 24.711-6.424 1.959.604 6.031 1.785 9.289 1.924 5.813.249 9.25-1.5 10.75-4.5s4.033-6.958 12.917-9.333c33.667-9 53.555-29.957 61.333-38.333 17.333-18.667 33.667-8.917 27.334-1.001z"/><path fill="#D3789F" d="M1104.334 465.333c-7.01 8.761-12.289 16.302-16.598 22.715-8.808 13.105-8.403 20.618-20.736 25.952-15.664 6.774-33.07-2.58-36.75 2.75-7.25 10.5-11.25 12.5-24.5 13.25-14.85.84-14.431 11.398-22.75 21.5-7 8.5-28 4-43.013 17.267-5.959 5.267-7.428 9.87-28.487 15.233-21.062 5.359-35 11.5-50 18-6.279 2.721-8.55.811-7.776-2.934 1.283.466 3.342.205 6.276-1.066 15-6.5 28.938-12.641 50-18 21.06-5.363 22.528-9.968 28.487-15.233C953.5 551.5 974.5 556 981.5 547.5c8.319-10.102 7.9-20.66 22.75-21.5 13.25-.75 17.25-2.75 24.5-13.25 3.68-5.33 21.086 4.024 36.75-2.75 0 0 6.5-1 12.5-13.5s27.668-35.333 26.334-31.167z"/><path fill="#8B5FA5" d="M1060.201 489.779c-7.129 7.266-8.683 9.141-12.914 11.315-7.05 3.628-14.729 4.678-18.108 7.865-4.711 4.444-1.746 10.616-3.529 12.594-1.07 1.188-3.499 2.6-7.473 3.93-13.669 4.579-17.688 4.952-21.224 6.027-4.187 1.272-5.776 5.313 3.896 4.695 16.563-1.062 28.297-2.504 44.409-17.739 4.593-4.341 11.465-1.435 18.475-8.35 17.447-17.214 3.858-27.869-3.532-20.337z"/><path fill="#8457A2" d="M1065.059 487.362c5.521 1.563 8.486 8.424-2.659 19.422-7.009 6.915-13.882 4.008-18.474 8.35-16.113 15.235-27.846 16.678-44.409 17.739-2.142.137-3.729.045-4.86-.194-2.041 1.662-1.346 4.011 6.193 3.528 16.563-1.063 28.296-2.504 44.409-17.739 4.592-4.341 11.465-1.435 18.475-8.35 13.971-13.788 8.037-23.357 1.325-22.756z"/><g fill="#D4B589"><circle cx="841" cy="774.667" r="4.583"/><circle cx="841.5" cy="761.666" r="1.693"/><circle cx="823.334" cy="760.332" r="1.481"/><circle cx="1021" cy="718.999" r="3.917"/><circle cx="1013.999" cy="710.186" r="1.815"/><circle cx="1095" cy="696.168" r="1.815"/></g><path fill="#995D48" d="M887 291s18 3.5 30.5-13 51.475-48.032 57-52.5c7.833-6.333 1.166-18.5-10-16-13.959 3.125-66.75 41.5-81 56.25-1.252 1.296-18 20.75 3.5 25.25z"/><path fill="#995D48" d="M963.166 227.333s8.959 2.417 17.959-4.333c3.288-2.466 4.907-4.833 7.208-7.5 3.086-3.579 6.334-7.167 6.334-7.167l-12.5-15s-19.667 16-23.001 17.667c-3.333 1.667-9.166 13.333 4 16.333z"/><path fill="#874F44" d="M991.765 210.188s5.756-2.869 6.821-3.021c1.067-.152 8.009-.326 11.323-2.841 1.869-1.417 2.162-5.64-1.19-5.334-3.353.305-5.297.418-8.061.647-3.036.252-5.261.667-7.772 1.924-2.688 1.344-4.369 3.248-4.369 3.248"/><path fill="#995D48" d="M991.878 210.524s5.393-4.256 6.439-4.405c1.045-.149 7.672-.075 10.92-2.539 1.831-1.389 1.902-3.92-1.381-3.622-3.285.299-5.189.411-7.897.635-2.975.247-4.59.512-7.019 1.811a671.815 671.815 0 0 1-4.761 2.521"/><path fill="#874F44" d="M990.009 207.087s5.956-2.97 7.063-3.127c1.104-.158 8.288-.337 11.721-2.94 1.934-1.468 2.237-5.838-1.232-5.522-3.471.316-5.482.433-8.344.67-3.144.261-5.443.691-8.047 1.992-2.783 1.391-4.521 3.362-4.521 3.362"/><path fill="#995D48" d="M990.125 207.436s5.583-4.406 6.666-4.561 7.94-.078 11.305-2.628c1.896-1.438 1.97-4.058-1.431-3.749-3.401.309-5.372.425-8.174.657-3.081.255-4.752.53-7.266 1.875-2.494 1.333-4.928 2.608-4.928 2.608"/><path fill="#874F44" d="M988.087 203.74s6.159-3.071 7.302-3.234 8.571-.348 12.12-3.04c2-1.518 2.314-6.038-1.273-5.71-3.59.327-5.67.448-8.629.693-3.25.27-5.629.714-8.32 2.06-2.877 1.438-4.676 3.477-4.676 3.477"/><path fill="#995D48" d="M988.206 204.1s5.773-4.556 6.895-4.716c1.119-.16 8.213-.08 11.689-2.718 1.959-1.487 2.037-4.196-1.479-3.876-3.517.32-5.555.439-8.452.679-3.187.264-4.914.548-7.514 1.938-2.577 1.379-5.096 2.698-5.096 2.698"/><path fill="#874F44" d="M985 200.125s6.422-3.202 7.613-3.372c1.189-.17 8.937-.363 12.637-3.17 2.085-1.583 2.412-6.294-1.329-5.954-3.742.341-5.911.467-8.995.723-3.389.281-5.87.745-8.676 2.147-3 1.5-4.875 3.625-4.875 3.625"/><path fill="#995D48" d="M985.125 200.5s6.021-4.75 7.188-4.917c1.166-.167 8.563-.083 12.188-2.833 2.043-1.55 2.124-4.375-1.542-4.042s-5.791.458-8.813.708c-3.32.275-5.123.571-7.832 2.021-2.688 1.438-5.313 2.813-5.313 2.813"/><path fill="#874F44" d="M970.5 222.625s7.75 0 12.75-4.25 9.144-6.428 10-7c1.875-1.25.865-5.422-3.5-5.708-5.083-.333-7.833 2.583-11.917 3.167"/><path fill="#995D48" d="M968.75 222.5s7.75 0 12.75-4.25 9.144-6.428 10-7c1.875-1.25 1.625-4.625-2.75-4.625-3.011 0-8.25 2.625-11.5 2.125M883 268.5s19.25-2.75 19.5 16.75c.225 17.506 10.317 24.607 12 28.75 6.5 16-5.167 37.667-28.833 26.333C876.993 336.18 870 312 870.333 300.667 870.75 286.531 876.5 268.5 883 268.5z"/><path fill="#DC5147" d="M870.089 303.169c.036-2.669 4.28-16.407 20.211-16.169 0 0 11.949 1.625 14.199 9 0 0 3.923 10.811 6.5 15.75 3 5.75 3.078 26.755-8.097 32.318-8.902 4.432-33.383 1.901-32.813-40.899z"/><path fill="#F6765A" d="M870.34 309.955c.04-2.966 4.16-21.83 22.285-18.83 0 0 8.125 1.125 12.146 5.61.354-.298.229-.86.229-.86-.141-.46-.603-1.146-.813-1.563-3.166-6.256-13.887-7.313-13.887-7.313-15.932-.238-20.176 13.5-20.211 16.169-.019 1.426-1 4.62-.964 5.956.04 1.497.5 1.875 1.208 2.516 0-.557 0-1.115.007-1.685z"/><path fill="#A86346" d="M862 621c-8.88 15.37-11.827 69.83-8.667 106 3 34.334 15.667 34 15.667 34s14 1 13.667-19c-.3-17.997 3.359-71.366 16.333-116 4.167-14.333-23.955-27.579-37-5z"/><path fill="#57424E" d="M866.5 611.75c-3.112 3.4-9.5 18.25-12.167 35.583-2.509 16.307-3.167 52.001-3 53.834s-.667 4.833 16.333 6.166c7.01.55 17.5-.833 17.833-4.666 0 0 .167-16 9-54.167 2.224-9.61 5.5-20.5 7.25-29.5 2.833-14.565-21.749-22-35.249-7.25z"/><path fill="#57424E" d="M877.5 454s-30.167 7.667-26.5 48.667c3.124 34.936 8.333 47 10 82.333.942 19.979-2.667 34.333 4 44s29 16.5 36-7.5S924 540 931 512s-15-68.5-53.5-58z"/><path fill="#3A4247" d="M888.867 751.625s-2.584-3.922-2.977-6.645c-.392-2.723-.923-4.666-5.555-5.264-4.632-.597-12.553-1.228-13.397 1.672-.848 2.9 2.836 10.958 5.172 13.148 2.336 2.193 18.811.835 16.757-2.911z"/><path fill="#A86346" d="M862.333 733.333S857 736 856 742s-4.166 35-4.333 37S854 786.001 872 785.667s28-2.333 34-2 10.667-4 11-5.667.25-5.5-3.333-6.333c-5.458-1.269-23.667-9.668-26-13.334S882.5 746.75 882.5 742.75s-6.167-14.751-20.167-9.417z"/><path fill="#CEC1C3" d="M919.375 778.5c1.25 8.5-7.103 11.365-13.375 11.334-16.667-.083-20 0-30.167 1.166-8.324.955-26.471.497-27-5.5-.161-1.815-.083-4.625.917-5.625 0 0 1.589-4.063 23.125-3.5 28.75.75 45.5-1 46.5 2.125z"/><path fill="none" stroke="#3A4247" stroke-width="2" stroke-miterlimit="10" d="M887 756.71s2-15.96 9.625-19.585c3.635-1.729 5.902 1.833 4.125 6.375-1.819 4.65-6.187 10.345-9.19 12.233C900.5 749.75 915 749 911.25 755c-3.396 5.434-14.806 5.293-14.806 5.293"/><path fill="#3A4247" d="M852.375 746.875c1.211-1.548 4.875-2.375 7.875-2.375 3.813 0 7.503.875 8.938 2.188 2.938 2.688 5.5 3.625 7.063 3.938 1.822.364 4.027.582 5.917-1.208 2.375-2.25 3.261-4.489 4.083-3.667 1.75 1.75 4.986 7.75 15.023 11.75s18.977 6.75 18.977 16.75-7.977 12.282-14.25 12.251c-16.667-.083-20 0-30.167 1.166-8.324.955-26.471.497-27-5.5-.5-5.666 2.042-29.542 2.042-29.542s.374-4.313 1.499-5.751z"/><path fill="#F6765A" d="M859.651 748.5c5.599.25 9.129 1.926 11.224 3.125 4.292 2.458 6.796 2.771 7.958 2.875 2.833.25 5.167-.583 6.667-2 1.408-1.33 2.25-2.75 2.625-4.458-.443-.649-1.019-1.354-1.458-1.908-.667-.842-1.236-.737-1.746-.252-.673.642-1.32 1.837-2.672 3.118-1.89 1.79-3.511 1.781-5.333 1.417-1.563-.313-3.938-1.188-7.917-4-1.588-1.122-4.938-1.917-8.75-1.917-3 0-6.664.827-7.875 2.375-.571.729-.948 2.198-1.182 3.47 2.064-1.256 5.519-1.976 8.459-1.845z"/><path fill="#AA918B" d="M849.375 768.25s11.958-1.584 20.625 2.083S882.375 787 882.375 787s8.417-.489 13.292-.333c10.375.333 13.75-.416 13.75-.416s6.333-14.417 5.417-22.5l-1.917-1.167s-2.167 13.333-5.833 13.249c-1.85-.042-3.375-1.041-4.042-1.458-.521-.326-1.03-.919-.542-1.708 3.042-4.917 4.833-9.25 5.333-12.5l-2.917-1.25s-4.368 13.533-9 12.084c-1.333-.417-1.917-.917-3.167-1.668-1.424-.855-1.334-1.765-.833-2.417.833-1.084 4.333-5.249 6.25-10.832-1.25-.584-4.417-2.584-4.417-2.584s-8.25 15-13.583 12.333-6.917-6.208-20.167-7.167c-5.977-.433-8.752.539-9.977 1.132-.683.331-1.264 3.235-1.273 5.077-.012 2.205.626 3.375.626 3.375z"/><path fill="#644A51" d="M877 445.667s-20 12.667-24 34.667.667 40.666 23.333 41.333S920.5 529.333 936.5 532s35.166-12.333 36.5-25.667S961.667 465 943.667 457 892.333 434.333 877 445.667z"/><path fill="#A86346" d="M1052.5 708.5s8.5-3.5 7.5-23c-1.079-21.039-4-82.5-3-118.5.237-8.541-19.5-22-31-4.5-9.068 13.801-5 84 6.5 131.5 0 0 3 19 20 14.5z"/><path fill="#644A51" d="M905.062 447.443C885 458.333 877.013 505.975 909 523c41.333 22 102.027 57.73 102.027 57.73s21.146 11.848 35.646 7.274c12.723-4.012 15.557-28.631 4.096-40.188-9.016-9.097-86.614-90.681-86.614-90.681s-30.724-25.092-59.093-9.692z"/><path fill="#644A51" d="M1014.333 581.666s2 3.999 2 12.666c.001 28.668 7 63.167 7.667 65.168.437 1.308 7.39 3.98 17.25 3.25 9-.667 17-4.5 17.083-7.751.094-3.664-.665-64.665.001-77.332s-1.333-24.668-6.667-28.668-40.001 6.667-37.334 32.667z"/><path fill="#3A4247" d="M1066.667 693.5s-2.833-3.334-3.833-6.667-16-4.834-17.167.5-.333 12.167-.333 12.167 16 3.833 21.333-6z"/><path fill="#A86346" d="M1035.75 682.25s-2.75 3.75-3.25 9.5.25 23.75-.25 28 1.25 12.25 10.5 12.25 35-.25 40 0 21.25-1 23.25-4.25-4.25-9.5-20.5-12.5c-2.96-.547-11-5.75-13.75-10.5s-12.139-19.294-13.75-23.25c-2.75-6.75-15.5-6.75-22.25.75z"/><path fill="#CEC1C3" d="M1107.5 727c1 9.5-6.063 9.521-13.5 10.5-9.5 1.25-33.75.75-51.75.75-10.013 0-13.5-1.75-13.75-4.5 0 0-2.25-6.5 5.5-7.25s41.25.75 48.25.75 16.5-3.75 25.25-.25z"/><path fill="none" stroke="#3A4247" stroke-width="2" stroke-linecap="round" stroke-linejoin="round" stroke-miterlimit="10" d="M1070.25 702.5s-5.748-12.904 0-17.375c3.375-2.625 6.625 2.375 6.75 8.875.078 4.079-.873 7.643-1.5 9-2 4.333 7.667 7.667 15.25-.833"/><path fill="#3A4247" d="M1029.25 697.75c.75-5.5 14.238-4.398 18.5-1.5 9.375 6.375 12.313-1.063 14.813-4 .924-1.086 2.463-1.407 3.938.063 6.527 6.508 10.833 10.688 18.75 13.938 11.702 4.803 21.227 7.025 22.25 16.75 1 9.5-6.064 9.521-13.5 10.5-9.5 1.25-33.75.75-51.75.75-10.013 0-13.5-1.75-13.75-4.5s-.001-26.501.749-32.001z"/><path fill="#AA918B" d="M1028.583 707.625s10.25-2.125 20.25 1.375 13.692 2.932 16.417 1.25c5.875-3.625 9.188-10.5 9.188-10.5l4.563 3.375s-1.75 4.25-8.833 12.209c-1.67 1.877 2.196 5.041 4.958 5.041 3.833 0 11.042-13.708 11.042-13.708l4.5 1.75s-1.167 4.333-6.667 12.458c-1.179 1.741-1.291 2.979-.5 3.625 2.75 2.25 6.25 2.375 7.5.75 2.48-3.226 6.375-14.125 6.375-14.125l2.875 1.375s.5 9-9.375 21.25c0 0-10.625.625-17.375.625-5.521 0-17.75-.125-17.75-.125s-3.886-8.323-8.417-13.583c-3.438-3.992-13.666-5.667-18.833-5.667 0 0-.958-.541-.708-4.291.174-2.619.79-3.084.79-3.084z"/><path fill="#F6765A" d="M1046.333 700.333s8.168 3.501 11.334 1.334 7.667-8.5 7.667-8.5.478-.54.813-1.154c-1.363-1.095-2.734-.762-3.584.237-2.5 2.938-5.438 10.375-14.813 4-1.313-.893-3.502-1.615-5.925-2.027-5.439-.924-12.057-.276-12.575 3.527a31.637 31.637 0 0 0-.173 1.699c1.661-.335 11.616-2.165 17.256.884z"/><path fill="#A86346" d="M900 273.333s.667 20.333-8.667 24.667 24.083 8.417 36.417 4.75c0 0-2.863-1.823-3.5-5.75-.75-4.625 0-11.625 1.5-18L900 273.333"/><path fill="#935845" d="M923.992 291.349c.139-3.838.787-8.22 1.758-12.349L900 273.333s.046 1.467-.063 3.687c6.056 7.621 15.899 12 24.055 14.329z"/><path fill="#E7D8D8" d="M929.911 303.896c.338 3.901-8.209 6.037-19.088 4.768-10.881-1.27-19.975-5.46-20.312-9.362-.339-3.901 8.207-6.037 19.089-4.768 10.879 1.269 19.973 5.461 20.311 9.362z"/><path fill="#F9604B" d="M891.5 297s-21 2-19.5 33c1.343 27.757-3 71-14 108.667-5 15.833-6.333 25.667-2 30.333 8.342-.043 22.544-.32 43.667 6 31.75 9.5 51.333 8.667 76.333-2.833 0 0-2.25-2.417-3.333-5.5-4.324-7.856-12.542-28.277-7-73 1.887-15.222 11.306-16.008 10.667-31.333-.287-6.898-2.688-10.829-6.334-15.333-5.666-7-9.147-10.608-15.333-21-8.333-14-17.667-22-26.167-24.5-10.113-2.976-16.667-6.501-37-4.501z"/><path fill="#DC5147" d="M965.667 393.667c.197-1.593.48-3.021.823-4.331-14.271-9.304-20.688-19.161-28.99-32.835-5.544-9.131-14-22.5-16.5-18 0 0-4.917 7.333.333 27.833 3.296 12.87 15.825 41.154 17.167 59.667 2.5 34.5-1.5 50.5-4.237 55.461 14.397.489 29.396-2.5 43.987-9.211 0 0-3.998-4.829-7.5-16.25-4.354-14.199-8.154-37.549-5.083-62.334z"/><path fill="#3A4247" d="M970.167 445.333c.263-1.384.083-6.5-3.917-6.5-19.678 0-32.083-7-36.75-9.833-3.667 3.167-6.5 11-3.851 18.161 11.185 8.339 38.018 10.006 44.851 8.672 3.632-.708-.596-9.116-.333-10.5z"/><path fill="#A86346" d="M959.128 393.84c-5.971 5.144-5.465 13.206-4.671 25.345.772 11.859 3.334 28.57 2.838 40.606-.546 13.249 18.568 16.848 23.264-11.689 3.857-23.435 3.328-45.605-2.302-52.971-5.629-7.365-12.164-7.29-19.129-1.291z"/><path fill="#995D48" d="M970.623 463.293s11.19 1.845 12.792 4.458c2.375 3.875 1 9.583 1 9.583s-4.459-4.875-8.459-5.208"/><path fill="#A86346" d="M970.915 464.417s11.001 1.833 12.167 4.667 1.479 9.479 1.479 9.479l-2.438-2.5s-1.875-2.479-5.875-2.813"/><path fill="#995D48" d="M973.707 466.709s11.19 1.845 12.792 4.458c2.375 3.875 1 9.583 1 9.583s-4.459-4.875-8.459-5.208"/><path fill="#A86346" d="M973.999 467.834s11.001 1.833 12.167 4.667 1.479 9.479 1.479 9.479l-2.438-2.5s-1.875-2.479-5.875-2.813"/><path fill="#995D48" d="M976.541 469.626s11.19 1.845 12.792 4.458c2.375 3.875 1 9.583 1 9.583s-4.459-4.875-8.459-5.208"/><path fill="#A86346" d="M976.833 470.75s11.001 1.833 12.167 4.667 1.479 9.479 1.479 9.479l-2.438-2.5s-1.875-2.479-5.875-2.813"/><path fill="#995D48" d="M979.375 472.542s11.19 1.845 12.792 4.458c2.375 3.875 1 9.583 1 9.583s-4.459-4.875-8.459-5.208"/><path fill="#A86346" d="M979.667 473.667s11.001 1.833 12.167 4.667 1.479 9.479 1.479 9.479l-2.438-2.5S989 482.834 985 482.5"/><path fill="#A86346" d="M957.167 458.167c-2.52 8.278-.839 12.602 2 15.833 2.839 3.23 1.833 9.25 9.667 11.167 6.332 1.549 11.541-4.236 18.729-2.042s-1.159-6.196-3.938-9.5c-.471-.559-4-3.625-5.625-16.875-.562-4.575-17.333-10.083-20.833 1.417z"/><ellipse transform="rotate(-111.057 949.013 364.322)" fill="#B03B41" cx="949.008" cy="364.31" rx="10.816" ry="18.971"/><path fill="#A86346" d="M914.142 315.49c-3.272 4.615-2.791 17.06 9.795 38.116 12.041 20.14 20.383 38.142 28.877 55.081 6.686 13.334 30.803 10.563 26.681-11.846-4.972-27.008-26.007-69.44-36.938-80.095-14.324-13.96-25.145-5.872-28.415-1.256z"/><path fill="#F9604B" d="M918.5 310.75s-13.233 5.525-3.25 27.25c10.417 22.667 15.75 32.125 15.75 32.125s-.375-13.375 16.625-17.75c6.353-1.635 15.375-1.375 19 5 0 0-11.625-23.375-14.125-28.875s-16-26-34-17.75z"/><path fill="#F6765A" d="M946.225 346.625c-12.846 3.306-18.911 12.875-19.13 16.063-.109 1.595.866 3.453 1.87 4.914.502.73 1.535 4.607 3.077 4.982-.875-1.25-1.042-2.458-1.042-2.458s-.375-13.375 16.625-17.75c6.353-1.635 15.375-1.375 19 5 0 0-.792-7.125-4.958-9.375-3.352-1.811-10.87-2.553-15.442-1.376z"/><path fill="#2E373E" d="M958.333 215.333s1.167 6.166-4.833 8.833l-7.833-10.5 12.666 1.667"/><path fill="#453446" d="M954 264.5s-7.125 4.125-5.125 14.375c0 0-10.125-4.75-10.5-13.25-.347-7.867 2.5-6.875 4.5-5.75.924.52 8.625 4.125 11.125 4.625z"/><path fill="#FFF" d="M954.598 264.847s-.866 2.109-2.098 2.32c-2.774.475-7.844-1.866-8.479-2.823-1.021-1.532-.166-3.498-.166-3.498l10.743 4.001z"/><path fill="#985271" d="M937.5 267c1.063-.443 14.125 3.25 12.5 12.875-1.188 7.037-9.49 2.229-12.75-4-1.586-3.029-1.25-8.25.25-8.875z"/><path fill="#A86346" d="M956 247.667c-.813-1.423-.5-15.794-.5-17.167 0-18.156-14.719-32.875-32.875-32.875S889.75 212.344 889.75 230.5c0 2.942.392 5.791 1.117 8.504.352 1.789 3.825 17.768 8.133 29.496 3 8.167 11.185 13.647 26.667 18.167 9.708 2.833 18.011 3.683 19.667 2.5 2.333-1.667 6-10.5 6-10.5-7.132-2.897-9.161-5.541-9.833-9-.837-4.301.881-9.064 2.875-7.792C950.25 265.625 955 265 955 265l3.5-6.333c4.5-1.5 4.834-5.333 4.834-5.333S957.333 250 956 247.667z"/><path fill="#2E373E" d="M962.25 191.125c-4.462-1.798-8-1.625-8-1.625s-5.583-10.5-20.583-8.167c0 0-2.717-2.794-7.417-4.333-7.25-2.375-13.417-1.833-21.75 2.167 0 0-22.833-6.834-29.833 8.5 0 0-5.396 1.113-9.07 5.307.116-1.044.704-2.279 2.137-3.692.655-.647-2.67-.159-5.055 1.097-3.635 1.914-5.388 6.765-2.464 10.653-3.261.854-9.438 3.698-12.381 13.136-4 12.833 7.167 21.667 7.167 21.667s-4 8-.667 17C857.505 261.396 867 263.5 867 263.5s-.167 14.833 16.5 13.5c0 0 .887 2.07 5.042 3.85-.67.566-1.804.916-3.158 1.013-1.251.089-.19 1.295 1.85 1.708 7.046 1.423 17.218-2.667 19.072-10.674l-.02.006c.542-1.249 2.197-5.886.214-12.402 0 0 11.167-10 3.833-20.667 0 0 16.01 1.502 19.5-12.167 2-7.833 4.833-10.167 4.833-10.167s10.833 5.333 19.167-2c0 0 7.139 1.567 12.542-4.875 4.334-5.167 4.25-16.125-4.125-19.5zm-13.927 47.856s-1.797.123-1.67 2.86c.126 2.72.207 4.095.32 5.441.127 1.528 2.459 2.446 3.217.058.604-1.907.69-4.627.35-6.046-.374-1.554-1.278-2.387-2.217-2.313z"/><path fill="#2E373E" d="M939.417 231.833c1.25-.667 4.542-3.542 9.167-5.167 0 0 1.146-.354 1.583-.917s.996-1.823-.146-2.313c-1.021-.438-4.25-.875-7.75 1.313-1.077.673-2.677 2.649-3.125 3.813-1.25 3.251-.358 3.607.271 3.271z"/><path fill="#A86346" d="M917.5 242.875s-1.769-7.026-9.333-6.042c-5.125.667-8.667 6.792-7.417 13.917s7.125 14.25 11 13.125"/><path fill="#995D48" d="M915.125 248.75c-.25-2.625-1.783-7.026-6.125-6.417-4.75.667-3.375 13.542 1.333 15.667 5.192 2.343 4.999-7.077 4.792-9.25z"/><path fill="#995D48" d="M907.875 240.938s.182-.081.516-.146a4.633 4.633 0 0 1 1.405-.061c.294.022.612.071.941.163.333.081.67.222 1.017.377.333.183.69.362.998.63.334.236.614.542.889.855.279.308.473.681.686 1.024.177.362.306.74.435 1.094.08.369.141.727.188 1.062.038.336.002.659-.007.949.003.579-.179 1.049-.264 1.369-.102.321-.179.497-.179.497s-.092-.182-.219-.486c-.14-.302-.249-.736-.476-1.209-.108-.237-.197-.497-.317-.753a12.46 12.46 0 0 1-.382-.786c-.163-.248-.31-.509-.461-.767-.197-.226-.329-.504-.543-.717-.373-.471-.821-.875-1.271-1.254-.237-.171-.461-.362-.698-.512-.231-.158-.457-.316-.678-.445a24.88 24.88 0 0 0-1.118-.638c-.285-.159-.462-.246-.462-.246z"/><path fill="#3A4247" d="M909.447 338.407s7.239-11.783 18.219-17.407c8.097-4.146 19.603-3.866 24.667 1.417 0 0 .775-.767.333-2.75-.633-2.834-3.459-8.304-7.333-9.333-1.684-.448-1.833-.5-3.417-2.667-1.397-1.912-3.264-2.618-6.697-3.036-6.553-.798-22.866 2.285-36.438 13.618 0 .001 9.115 4.897 10.666 20.158z"/><path fill="#353D43" d="M941.375 308.5c-3.875-.75-9.728-.916-15.375 2.125-3.25 1.75.185 2.975 2.75 2.5 3.375-.625 7.625-2.375 11.75-2.75 3.151-.287 2.813-1.5.875-1.875z"/><path fill="#3A4247" d="M895 295.125s-8.5 2.625-15 15.875c0 0-9.25-.25-16.5 2.25 0 0 3.75-14 16.667-18.417 0 0 9.083-2.625 14.833.292z"/><path fill="#3A4247" d="M872.49 311.477s-17.238 4.613-24.4 10.927c-6.118 5.392-6.56 11.771-7.243 17.399-1.052 8.66.323 38.055 1.294 49.062.685 7.748 2.271 55.032 5.944 59.401 3.675 4.37 30.832 15.067 46.667 14.567 8.247-.26 24.272-3.399 30.1-6.313 5.695-2.848 10.521-4.6 12.303-15.538 2-12.286-4.992-33.274-10.359-55.681-6.795-28.368-12.785-52.874-14.486-57.315-2.016-5.262-5.666-9.63-13.839-13.839-7.22-3.716-19.992-4.127-25.981-2.67z"/><path fill="#6CB0AC" d="M867.75 311.5s-17.75 4.75-25.125 11.25c-6.3 5.552-6.754 12.122-7.458 17.917-1.083 8.917-2.667 45-1.667 56.333.704 7.978-2 47 9.121 55.5 4.671 3.57 37.069 15.215 48.052 15 8.494-.167 24.994-3.5 30.994-6.5 5.864-2.932 10.833-4.737 12.667-16 2.06-12.65-5.14-34.262-10.667-57.333-6.997-29.211-13.164-54.592-14.917-59.167-2.075-5.417-5.833-9.917-14.25-14.25-7.432-3.827-20.583-4.25-26.75-2.75z"/><path fill="#CEC1C3" d="M856 337s-3.458-1.083-6.833-2.333c-3.833 12.667-.352 27.833-.352 27.833l7.023 1.667C853.167 350.333 856 337 856 337z"/><path fill="#353D43" d="M856.853 361.574c-.334-1.169-1.334-1.844-8.031-3.31-2.392-.522-2.885-.193-3.172.179-1.991 2.579-2.898 13.636-2.898 13.636l19.564 6.106c-.003.001-4.448-13.065-5.463-16.611z"/><path fill="#7CBAB3" d="M826.75 381.125c.528-3.732 1.968-9.333 6.69-11.172 4.722-1.839 11.26 1.379 21.066 4.598s17.11 7.357 20.743 20.693c3.632 13.335 5.5 58.756 5.5 58.756s2 5.5-8 5.5c-4.359 0-23.75-7-33.25-12.5-4.419-2.559-11.274-5.107-12.5-17-1.249-12.125-2.124-35.625-.249-48.875z"/><path fill="#3A4247" d="M852.187 453.425c-.188-.055-.396-.122-.628-.188v-.012a.894.894 0 0 1-.208-.065h-.012c-.748-.242-2.521-.833-3.357-1.187l-.021-.011c-.616-.274-2.073-1.111-2.546-1.419-.209-.143-.671-.649-.825-1.045-1.496-3.707-8.954-23.65-5.73-42.89 1.242-7.414 2.893-12.508 3.85-21.309a77.58 77.58 0 0 0 .462-9.35c-.011-.848.957-.506.957-.506l1.92.891 2.188.726 1.795.581s1.188.342 1.299 1.419c.242 2.311.285 7.888-1.837 17.237-1.496 6.611-4.346 13.333-3.245 28.733.55 7.82 1.881 16.061 6.512 27.633.14.343.031.938-.574.762z"/><path fill="#CEC1C3" d="M850.688 452.954v.011l-.209-.077h-.012l-2.486-.913-.021-.011c-2.475-6.688-9.339-27.522-6.38-45.167.473-2.827 1.012-5.356 1.529-7.788.847-3.96 1.716-8.042 2.31-13.464.374-3.443.583-7.128.627-9.207l2.188.727a122.95 122.95 0 0 1-.628 8.723c-.604 5.534-1.484 9.669-2.343 13.674-.517 2.42-1.044 4.917-1.518 7.7-3.233 19.303 6.029 43.482 6.943 45.792z"/><path fill="#3A4247" d="M871.821 459.5s3.461-.014 3.875-6c.554-8 1.554-24.25-6.539-60.667-1.71-7.697-5.226-9.897-9.533-12.208-4.895-2.625-11.625-5.25-16.375-6.5-3.25-.855-12.417-2.5-14.75 1.292-.75-1.083 3.875-8.042 11.599-6.583 10.187 1.923 26.651 6.417 32.651 16.167 1.729 2.807 4.572 16.307 6.25 32.25 1 9.5 3 29 2.75 32s2.001 12.999-9.928 10.249"/><path fill="#3A4247" d="M846 322.875c2.25.125 8.565 1.602 10.625 2.25 12.713 4 30.243 9.625 33.875 22.625s5.75 32.75 6.5 45.5c.737 12.526 5.125 66.813 3.375 72.375-.545 1.733-3.201 1.904-5.188 2.063-2.222.178-3.125-.25-3.125-.25s2.037-3.438 1.675-6.938c-.363-3.5-2.72-54.786-3.986-69.75-1.354-16-4-39.5-10.5-46-7.938-7.939-25.375-14.75-38.625-15.75-2.146-.161-2.438.188-3.292 1.167 0 0 .811-2.813 4.082-6.38.431-.47 3.04-.998 4.584-.912z"/><path fill="#353D43" d="M842.549 329.156s2.845 3.185 3.285 7.678c.625 6.375 9.854 8.675 16 4.833 4-2.5 13-.667 13-.667s-5.264-4.12-13.833-7.5c-5.191-2.048-13.001-4.333-18.452-4.344z"/><path fill="#CEC1C3" d="M915.583 436.792l1.081 8.577s13.919-2.827 18.169-9.202c.838-1.257-.667-10.292-1.667-8.917s-10.583 7.917-17.583 9.542z"/><path fill="#353D43" d="M906.947 437.438l-2.54.816c-.526.168-.478.796-.464.962l.87 10.083c.012.127.043.518.289.625l.728.543.188-.741 1.924-.618s.621-.177.574-.776c-.022-.299-.061-.971.064-1.404.127-.441.42-.665.657-.741.867-.277 2.104-.676 2.292-.735.185-.061.656-.229.902.188.293.497.477.939.602 1.186.086.167.138.337.243.417v.002l.032.022c.007.005.011.013.019.016l.792.604.212-.875 1.906-.612s.499-.115.428-1.026l-.695-7.837.486-2.006-.921-.684-.001.004c-.144-.088-.285-.033-.285-.033s-2.415.775-2.725.876c-.311.1-.28.214-.388.728-.033.162-.156.972-.306 1.51-.152.554-.729.68-.915.739l-2.292.736a.59.59 0 0 1-.629-.158l.293-1.159-.853-.623-.002.005c-.195-.135-.485-.034-.485-.034z"/><path fill="#3A4247" d="M909.454 440.017c-.235.075-.549.049-.737-.293-.185-.332-.252-.995-.276-1.294-.045-.6-.665-.378-.665-.378l-2.539.817c-.526.168-.478.796-.464.963l.869 10.082c.014.167.063.794.588.625.32-.104 2.539-.816 2.539-.816s.623-.176.574-.776c-.021-.3-.06-.971.065-1.403.127-.442.42-.665.655-.741.867-.278 2.105-.677 2.293-.735.185-.061.656-.229.902.188.292.497.476.94.602 1.186.132.258.169.549.479.449l2.725-.876s.5-.114.429-1.025l-.854-9.849c-.07-.911-.562-.708-.562-.708s-2.416.777-2.728.876c-.309.101-.278.217-.387.729-.034.162-.157.973-.304 1.511-.153.552-.73.679-.916.738-.185.056-1.422.45-2.288.73z"/><path fill="#CEC1C3" d="M904.125 439.917c-2.125.208-4.135-.125-4.135-.125s-.47.313-.25 4.594c.219 4.281.844 4.615.844 4.615 2 .75 4.167.083 4.167.083s.286-.034.104-1.771c-.104-1-.271-3.111-.271-4.271-.001-3.376-.459-3.125-.459-3.125z"/><path fill="#353D43" d="M894.418 313.845s-.692-1.18-2.063-2.135c-1.976-1.377-4.067-1.358-4.922-.896-1.642.888-3.695.829-8.936 7.439-2.258 2.848-6.309 7.222-9.577 4.11-3.27-3.113-2.838-7.53-1.735-9.458 1.422-2.487 5.564-2.094 5.564-2.094s-1.878-.934-2.877-.937c-1.186-.003-2.261.305-3.811 1.123-1.611.849-4.049.538-3.854 5.724.195 5.253 2.11 9.896 7.134 11.392 3.643 1.082 9.037-.658 12.825-4.781 3.791-4.121 8.292-10.193 12.252-9.487z"/><path d="M799.322 586.076s-1.03-.3-1.898-.508c-1.125-.271-1.077-.607-1.077-.607s-2.097-4.395-6.007-4.465a6.964 6.964 0 0 0-2.924.59 36.205 36.205 0 0 1 1.471-3.654c3.722-8 6.355-12.703 2.855-19.994-3.116-6.491-5.872-17.652-7.659-17.461-1.788.19-.027 10.312-.779 11.748-.749 1.438-2.775 4.014-2.855 7.012-.042 1.623-.34 1.837-.617 2.531-.57 1.424-1.338 2.617-1.617 6.24-.077.995-.518 2.168-1.132 3.66-1.777-9.003-1.513-12.091-6.745-15.54-5.35-3.53-31.63-21.037-32.645-19.823-2.56 3.066 5.815 9.882 5.815 9.882s-.791 7.488 5.816 12.189c0 0 3.25 19.802 12.112 24.447 6.088 3.191 7.713 7.564 7.62 10.65-.354.257-.712.511-1.069.766-2.388.195-12.638.934-20.389-.207-5.968-.877-1.884 3.569 1.298 5.192 2.128 1.086.048 5.052 4.415 5.714 4.367.661 2.527 1.85 7.01.454 5.875-1.826 9.348-4.088 11.007-5.383 6.33-.308 11.632-1.943 14.264-3.641 2.063-1.33 3.591-3.181 4.399-4.998 3.603-.879 6.711-3.298 6.711-3.298l2.62-1.496zm-88.672 26.047c-.841.057-.882-.188-.882-.188s-2.418-2.602-5.154-1.799a5.111 5.111 0 0 0-1.855 1.004c.226-.456.44-.896.63-1.29.844-1.744 1.231-3.3-.79-4.41a42.123 42.123 0 0 1-1.248-.728c-.246-.216-.578-.418-1.008-.604-3.292-1.985-8.738-5.317-11.488-6.441-.609-.25-.368 1.361 1.365 2.432.687.424.606.877.763 1.504.079.317.177.669.311 1.032-9.106-.806-21.783-1.231-23.565-.55-2.181.833 5.385 3.033 5.385 3.033s-1.346 1.68 2.961 3.447c1.465 2.84 3.988 3.985 8.052 5.311 3.706 1.208 5.441 3.29 6.211 4.62l-.244.151a302.012 302.012 0 0 1-5.381 3.285c-2.241.188-8.867.65-13.938.063-5.243-.606-.671 2.408.024 2.681.696.271-1.501 1.313-1.086 2.563.107.322 1.113 1.537 1.856 2.021.487 2.132 3.208.677 9.739-.995 2.02-.518 3.763-.992 5.271-1.425 4.279-.125 9.439-.88 11.566-1.726 2.598-1.033 5.691-4.202 7.072-7.008 3.035-1.074 5.367-4.43 5.367-4.43l1.498-1.612c.002 0-.781.015-1.432.059zm467.545-309.182c-8.833 0-26.613-1.59-38.412-5.738-5.686-1.999-9.348-.542-12.451.399-1.676.508-3.058.319-3.987.04a8.7 8.7 0 0 0 .035-.679c.436-.778.96-1.209 2.01-1.635 2.919-1.182 4.442-2.884 4.442-2.884l2.899-1.656s-1.142-.334-2.102-.564c-1.244-.301-1.189-.671-1.189-.671s-2.319-4.861-6.646-4.938c-4.321-.078-6.841 3.454-6.841 3.454s-1.235 1.787-3.973 2.915c-.311.056-.627.126-.948.205-1.588-.596-5.077-2.21-6.256-5.244-1.546-3.973-1.986-7.95-6.623-11.481-4.637-3.531-30.156-20.611-37.75-31.789-3.923-5.773-3.534 3.091-1.104 7.065 0 0-.439 11.259 11.038 17.882 0 0-1.323 13.194 9.526 20.362.809.534 2.4 2.258 2.545 3.473.332 2.812 2.679 8.04 14.587 11.817 0 0-.382.851-.748 1.329-1.349 1.764-2.702 3.137-4.142 4.453-5.511.612-14.061 1.474-19.756 1.626-12.521.337-11.604 3.671-9.354 5.921.809.81 1.667 2.179 1.667 3.418 0 3 2.223 4.611 7.75 5.332 3.097.404 1.468.394.416 1.5-2.375 2.5 8.429 4.828 14.292 1.125 6.388-4.033 10.423-7.983 12.939-10.931a120.99 120.99 0 0 0 8.483-3.467c7.851 5.08 15.962-.042 23.729-.042 12.555 1.939 11.305-.686 18.305-2.061 1.016-.199 1.172-.198 2.446-.146 7.337.307 11.471-1.562 14.637-3.562 1.24-.784 1.26-.854 3.024-.854 5.747.001 16.344-3.974 7.512-3.974zm70.456-66.88c-15.937-18.463-18.676-37.479-27.811-39.868-10.982-2.873-16.619-1.289-26.955-3.36-2.072-.416-3.46-.838-4.402-1.218.313-.097.64-.188 1.002-.278 3.717-.922 5.842-2.708 5.842-2.708l3.775-1.494s-1.315-.599-2.433-1.041c-1.444-.576-1.317-1.012-1.317-1.012s-1.955-6.25-7.146-7.086c-5.188-.838-8.827 2.981-8.827 2.981s-.871 1.545-3.021 2.63a20.281 20.281 0 0 1-2.139-2.055c-6.063-6.692-9.391-15.851-10.598-22.554-1.907-10.602 3.325-20.738-7.261-28.914-5.793-4.475-25.66-14.249-42.233-27.812-3.755-3.074-5.634-.355-1.473 5.187 3.874 5.159 5.771 18.695 12.026 23.042-4.007 11.639 2.306 13.977 1.796 21.415-.188 2.786.783 9.746 4.13 15.578 2.545 4.438 7.626 7.979 7.823 9.955.611 6.077 4.854 8.771 11.738 12.649 4.895 2.756 5.506 6.566 5.232 9.139a721.67 721.67 0 0 1-2.531 2.402c-4.148 2.235-19.977 9.961-37.78 8.3-9.925-.926-2.358 6.238 3.188 8.25 3.712 1.346 2.332 7.457 9.621 7.092 1.248-.063.877.946 1.238 1.861.619 1.563 2.331 2.939 10.348-1.15 6.868-3.505 12.344-8.215 16.069-12 6.605-1.14 13.447-3.387 18.613-6.529 3.404.538 8.17 2.109 10.688 4.508 2.578 3.141 12.091 5.38 14.428 5.257 1.074-.057 2.527 1.823 5.104 3.228 3.025 1.648 7.371 2.865 11.101 2.816 6.819 3.518 11.143 6.288 17.961 8.007 6.242 1.574 8.188 3.366 11.656 6.61 3.471 3.244 6.474 2.721 2.548-1.828z" fill="#FDD899"/><path fill="#FFA7BD" d="M949.034 612.441s-1.428 5.505 12.036 3.077c13.464-2.429 35.044-7.247 43.261-8.591 17.919-2.929 48.377-17.159 49.539-28.325 1.162-11.168-19.62-8.104-34.174-.401-13.78 7.292-22.946 14.549-33.696 18.049-18.281 5.952-36.569 10.46-36.966 16.191z"/><path fill="#F49BB4" d="M1052.537 573.928v.01c-1.162 11.166-31.62 25.396-49.539 28.325-8.217 1.344-25.164 5.388-38.629 7.815-9.048 1.631-11.368-.319-11.918-1.775-2.082 1.331-3.317 2.696-3.417 4.14 0 0-1.428 5.505 12.036 3.077 13.464-2.429 35.044-7.248 43.261-8.591 17.919-2.929 48.377-17.159 49.539-28.325.208-1.999-.297-3.535-1.333-4.676z"/><path fill="#DE82A1" d="M998 565.75s-6.784 2.579-7.631 6.433c-.847 3.854 7.415 1.145 11.077.334 7.429-1.642 9.209-3.395 8.906-5.961-.227-1.931-6.828-3.148-12.352-.806z"/><path fill="#D3789F" d="M1002.196 570.642c-3.567.789-11.476 3.363-11.102-.064-.34.507-.603 1.041-.727 1.605-.848 3.854 7.415 1.145 11.077.334 6.721-1.484 8.812-3.063 8.926-5.251-1.099 1.283-3.536 2.351-8.174 3.376z"/><path fill="#FFA7BD" d="M918.418 621.642c-.057 1.512 1.32 2.51 5.082 1.483 5.5-1.5 11.818-1.203 13.785-3.775 1.966-2.571.84-5.475-4.285-6.126-4.024-.512-14.375 2.901-14.582 8.418z"/><path fill="#F49BB4" d="M937.587 615.269c.288.919.013 1.609-.462 2.231-1.806 2.363-7.962 1.744-13.014 3.121-3.456.941-4.72.025-4.668-1.362.007-.177.05-.347.079-.519-.658.883-1.064 1.854-1.104 2.9-.057 1.512 1.32 2.51 5.082 1.483 5.5-1.5 11.817-1.203 13.785-3.775 1.071-1.401 1.216-2.899.302-4.079z"/><path fill="#DE82A1" d="M961 350.75c.136 1.762 11.081 2.367 19.579 4.649C1027.5 368 1023 386.5 1048.5 412c15.344 15.344 37.24 20.059 39.394 31.013 1.293 6.573-2.227 12.654-12.894 25.987-10.073 12.591-2.082 12.457 3.5 11.5 17.5-3 23.5-11.833 23.5-11.833S1120.333 449 1119 435c-1.399-14.695-16.75-31.25-56-39.75-3.419-.74-10.255-2.602-13.25-3.5-5.646-1.693-9.797-4.877-8.942-7.944 1.061-3.803 2.843-8.565-7.444-16.991C1026.935 361.548 1003 348 980.5 346c-11.629-1.034-19.75 1.5-19.5 4.75z"/><path fill="#D3789F" d="M1075 469c10.667-13.333 14.187-19.414 12.894-25.987-2.152-10.954-24.05-15.669-39.394-31.013-25.5-25.5-21-44-67.921-56.601-8.498-2.282-19.443-2.888-19.579-4.649-.192-2.502 4.591-4.573 12.104-4.924-3.328.913-5.229 2.331-5.104 3.924.136 1.762 11.081 2.367 19.579 4.649C1034.5 367 1030 385.5 1055.5 411c15.344 15.344 37.24 20.059 39.394 31.013 0 0 2.606 11.987-19.894 26.987z"/><path fill="#8B5FA5" d="M1020.985 376.196c-.557 1.12 1.126 2.188 7.007 8.549 7.263 7.854 5.416 22.354 20.028 31.019 12.021 7.127 22.857 6.998 32.332 25.726 5.712 11.288 21.442 7.234 17.281-10.847-4.982-21.657-28.89-25.957-34.068-27.268-22.359-5.66-18.854-14.689-32.309-23.819-5.041-3.421-9.49-4.929-10.271-3.36z"/><path fill="#8457A2" d="M1081.687 436.822c-9.475-18.728-20.311-18.599-32.332-25.726-14.612-8.663-12.767-23.163-20.028-31.019a234.794 234.794 0 0 0-3.294-3.487c-2.62-1.151-4.558-1.38-5.046-.396-.557 1.12 1.126 2.188 7.007 8.549 7.263 7.854 5.416 22.354 20.029 31.019 12.021 7.127 22.856 6.998 32.332 25.726 4.791 9.472 16.634 8.137 17.863-3.219-3.505 6.835-12.505 6.512-16.531-1.447z"/><path fill="#FFA7BD" d="M949.499 356.907c-.641 1.72-.582 4.093 3.626 3.593 5.608-.667 9.448-.124 14.042.583 9.221 1.419 16.167.75 15.583-3.958-.435-3.499-6.625-6.5-16.394-6.67-6.837-.12-15.356 2.42-16.857 6.452z"/><path fill="#F49BB4" d="M982.75 357.125c-.258-2.081-2.565-3.981-6.44-5.219 1.818 1.01 2.893 2.246 3.056 3.562.53 4.272-5.772 4.879-14.14 3.592-4.169-.642-7.653-1.134-12.741-.529-1.811.215-2.768-.159-3.22-.774-.28 1.549.316 3.165 3.86 2.744 5.608-.667 9.448-.124 14.042.583 9.221 1.418 16.167.749 15.583-3.959z"/><path fill="#FFA7BD" d="M997.833 360.25s-7.561-4.208-9.875 0c-1.375 2.5 1.436 3.791 4.375 4.625 2.477.702 4.814 1.68 6.5 2.125 3.688.975 4-3.75-1-6.75z"/><path fill="#F49BB4" d="M999.333 361.313c1.046 2.178.8 4.704-1.625 4.063-1.686-.445-4.023-1.423-6.5-2.125-1.319-.374-2.655-.771-3.552-1.317.364 1.443 2.482 2.32 4.677 2.942 2.477.702 4.814 1.68 6.5 2.125 3.017.797 4.063-2.501.5-5.688z"/><path fill="#8B5FA5" d="M1074.89 476.646c-1.168.757-1.972 3.224.001 4.943 1.971 1.716 2.251 4.491 4.882 4.223 1.73-.177 1.272-5.348-.087-7.555-1.357-2.204-3.846-2.226-4.796-1.611z"/><path fill="#8457A2" d="M1079.771 483.313c-2.63.27-2.91-2.506-4.881-4.222a3.524 3.524 0 0 1-.936-1.257c-.461 1.087-.4 2.592.936 3.757 1.971 1.716 2.251 4.491 4.881 4.222 1.032-.104 1.282-1.985 1.031-3.954-.147.822-.474 1.397-1.031 1.454z"/><path fill="#DE82A1" d="M1059.278 838.288c-4.188-3.277-7.61-4.622-38.944-1.288-18.481 1.967-61.334 6.667-85.69-1.018-13.68-4.315-31.644-17.648-58.977-20.982-16.307-1.989-36.686 2.232-50-8-7.583-5.827-18.111-23.829-41.167-25.75-8.231-.686-16.212 2.083-24.25 3.25-7.585 1.102-15.083.875-27.427-8.207-28.249-20.783-23.768-47.452-10.305-57.916s62.297-20.688 59.7-29.61c-2.596-8.921-25.249-9.738-27.336-19.917-1.883-9.183 9.458-15.502 21.291-22.869 15.493-9.646 44.355-21.324 32.826-27.646-13.668-7.495-52.007 3.35-76 19.334-12.285 8.186-20.667 21.333-9.906 37.22 7.849 11.587 13.906 14.446 7.013 18.177-9.156 4.953-4.191-5.134-17.44-3.396-40.667 5.333-63.469 44.391-62.479 71.888C652 812 697.469 832.64 731.833 841.124c26.5 6.543 45.833.543 45.833-4.124 0-5.977 16-10.666 39.216-4.396 10.385 2.806 36.989 9.732 61.508 19.892 24.519 10.157 61.943 23.84 96.365 14.229 9.979-2.784 30.511-13.64 50.244-16.39 26.72-3.725 42.001-6.001 34.279-12.047z"/><path fill="#D3789F" d="M1059.278 838.288c-1.036-.812-2.026-1.503-3.402-2.035 5.457 4.748-6.323 7.457-27.543 10.414-19.732 2.75-48.933 11.938-58.91 14.724-34.422 9.61-71.848-4.071-96.365-14.229-24.519-10.158-51.123-17.086-61.508-19.891-23.216-6.271-39.216-1.58-39.216 4.396 0 4.667-19.333 10.667-45.833 4.124-18.976-4.686-41.335-13.08-57.863-28.15 16.797 18.473 42.09 28.272 63.196 33.483 26.5 6.543 45.833.543 45.833-4.124 0-5.977 16-10.666 39.216-4.396 10.386 2.806 36.989 9.732 61.509 19.892 24.518 10.157 61.942 23.84 96.364 14.229 9.979-2.784 30.511-13.64 50.244-16.39 26.719-3.725 42-6.001 34.278-12.047zm-336.789-71.326c-16.477-18.766-11.476-39.643.031-48.585 13.463-10.464 62.296-20.688 59.699-29.61-.681-2.339-2.747-4.118-5.453-5.658.038.108.088.215.12.325 2.597 8.922-46.235 19.146-59.7 29.61-12.609 9.8-17.427 33.937 5.303 53.918zm48.352-126.316c-11.833 7.367-23.174 13.688-21.291 22.869.592 2.888 2.84 5.021 5.814 6.8a7.349 7.349 0 0 1-.481-1.467c-1.883-9.183 9.458-15.502 21.291-22.87 15.493-9.646 44.355-21.323 32.826-27.646 1 3.667-.641 4.663-7 8.417-7.365 4.349-24.435 9.711-31.159 13.897zM875.667 815c-16.307-1.989-36.686 2.232-50-8-3.914-3.008-8.619-9.258-15.42-14.867l-.497-.133s8.25 8.5 12.25 17.25 8.75 13.5 30 8.5c11.138-2.621 20.659-1.866 27.01-2.279a100.002 100.002 0 0 0-3.343-.471z"/><path fill="#DE82A1" d="M1072.682 840.132c-.671-3.243 4.703-10.175 16.733-9.395 12.034.777 20.221 4.083 31.537-.307 15.411-5.977 26.329-4.388 32.917-.421 6.425 3.868 7.962 9.892-4.51 7.119-10.837-2.408-22.582 2.287-28.869 2.771-9.009.691-16.261 4.504-27.945 5.772-8.621.94-18.477 1.159-19.863-5.539z"/><path fill="#D3789F" d="M1157.258 832.712c-.778 1.253-3.473 1.752-8.876.551-10.536-2.341-21.956 2.225-28.068 2.695-8.759.673-15.812 4.379-27.172 5.613-8.317.902-17.807 1.11-19.271-5.248-1.009 1.396-1.4 2.786-1.188 3.809 1.387 6.698 11.241 6.479 19.862 5.543 11.686-1.27 18.938-5.081 27.945-5.772 6.287-.484 18.033-5.181 28.869-2.771 9.775 2.17 10.943-1.06 7.899-4.42z"/><path fill="#8B5FA5" d="M660.167 758.959c1.5 52.708 46.5 67.708 74.5 74.708 32.216 8.054 50.872.988 67.248 8.867 16.373 7.883 72.833 25.483 123.164 25.974 7.959.076 26.314-1.54 33.344-3.229 13.677-3.293 10.396-7.278 4.884-6.871-29.194 2.156-37.052 2.456-65.022-6.963-12.582-4.237-12.726-6.02-25.87-18.676-13.196-12.706-38.072-15.9-48.229-12.885-4.72 1.403-8.503 3.061-13.172-.336-25.95-18.872-29.941 4.32-52.744-12.892-9.312-7.028-17.653-7.158-28.643-7.755 0 0-32.294.766-37.294-16.568s-8.973-18.043-14.667-21.667c-11-7-6-24.75 6-40.5 11.144-14.623-24.999-.499-23.499 38.793z"/><path fill="#8457A2" d="M965.224 858.449c-.417.109-.849.22-1.302.329-7.028 1.688-25.384 3.306-33.343 3.229-50.331-.489-106.792-18.091-123.164-25.974-16.376-7.879-35.032-.813-67.248-8.867-28-7-76.167-18.459-77.667-71.167-.532-13.938 6.839-28.243 11.989-35.688-7.195 6.902-15.038 19.911-14.322 38.646 1.5 52.708 46.5 67.708 74.5 74.708 32.216 8.054 50.872.988 67.248 8.867 16.373 7.883 72.833 25.483 123.164 25.974 7.959.076 26.314-1.54 33.344-3.229 11.983-2.883 10.948-6.3 6.801-6.828z"/><path fill="#8457A2" d="M729.627 798.902s-32.294.766-37.294-16.568c-.824-2.855-1.619-5.252-2.398-7.292.549 2.386 2.194 9.739 2.815 14.708.75 6 8.5 13 20.75 11.5 7.758-.95 16.214-1.797 23.408-1.911-2.316-.182-4.725-.298-7.281-.437zm34.956 14.265c2.25 2.917 6.75 4 11.833 1.667 1.391-.639 3.708-1.459 5.975-2.159-6.26 1.138-12.411 2.026-22-4.495l-.224-.013s1.256.902 4.416 5zm44.917 7.5c2.167 2.834 6.333 5.834 11.5 2.834 3.429-1.99 10.25-4.543 19.958-4.168-9.583-1.541-15.219.09-16.771.552-4.721 1.403-8.504 3.061-13.173-.336-2.655-1.932-5.079-3.417-7.318-4.556l-.195.008c-.001 0 3.832 2.832 5.999 5.666z"/><path fill="#FFA7BD" d="M727 785.333c-14.667-12-16.667-25-11.299-27.641 6.082-2.992 17.689 10.351 23.551 16.375 5.86 6.024 12.614 8.823 20.485 7.86 6.686-.82 13.71 1.889 18.346 4.735 2.378 1.46 14.417 8.003 21.584 11.67s24.667 8.834 23.667 13c-.333 1.386-5.356.799-8.909-.286-6.721-2.054-17.529-7.097-34.758-9.714-12.678-1.924-36.848-3.056-52.667-15.999z"/><path fill="#F49BB4" d="M820.993 808.013a27.405 27.405 0 0 1-4.568-.965c-6.721-2.054-17.529-7.097-34.758-9.714-12.678-1.926-36.848-3.058-52.667-16.001-10.554-8.636-14.548-17.788-13.959-23.226-4.501 3.375-2.062 15.754 11.959 27.226 15.819 12.943 39.989 14.075 52.667 16.001 17.229 2.617 28.037 7.66 34.758 9.714 3.551 1.085 8.576 1.672 8.909.286.253-1.057-.687-2.177-2.341-3.321z"/></svg>