<svg xmlns="http://www.w3.org/2000/svg" xmlns:xlink="http://www.w3.org/1999/xlink" viewBox="0 0 1920 1080"><style>.st0{fill:#f4e8d8}.st1{fill:#c83f37}.st2{fill:#1d2436}.st3{fill:#273150}.st4{fill:#465788}.st5{fill:#f2a62f}.st6{fill:#13161f}.st7{fill:#ec6043}.st8{fill:#ec5e4d}.st9{fill:#f6be4a}.st10{fill:#f6874e}.st11,.st12{fill:#972a27}.st12{opacity:.5}.st14{fill:#29ace4}.st15{fill:#ce6d3e}.st17{fill:#624873}.st18{fill:#3d4c6d}.st21{fill:#f5bf4e}.st23{fill:none;stroke-miterlimit:10;stroke:#f4e8d8;stroke-width:6}.st27{opacity:.5;fill:#29ace4}.st28,.st30{fill:#9a6ea7}.st30,.st31{opacity:.5}.st31{fill:#f6be4a}.st33,.st35{stroke:#f6be4a;stroke-linecap:round;stroke-linejoin:round}.st33{fill:none;stroke-miterlimit:10;stroke-width:8}.st35{stroke-width:7}.st35,.st36,.st38{fill:none;stroke-miterlimit:10}.st36{stroke-linecap:round;stroke-linejoin:round;stroke:#29ace4;stroke-width:7}.st38{stroke:#f4e8d8;stroke-width:3}</style><g id="bg"><path class="st0" d="M476.08 805.53s-2.43-37.73 23.12-54.76c25.56-17.04 34.07 3.65 34.07 3.65s7.93-50.07 48.09-52.5c40.16-2.43 57.79 31.81 57.79 31.81s44.52-37.45 52.33 4.87c7.8 42.32-202.02 90.06-251.91 101.01-49.9 10.94 36.51-34.08 36.51-34.08zm46.77 178.72c58.55 1.58 158.24-18.99 273.76-77.54 99.24-50.3 117.1-83.87 117.1-83.87l-107.6 42.73s80.7-52.22 92.57-87.82c11.87-35.6-168.16 105.93-266.64 152.7-63.3 30.07-109.19 53.8-109.19 53.8zm547.51-39.95c52.65-24.63 125.62-55.81 137.97-70.39 18.61-21.97 51.07-71.06 77.54-89.06 76.6-52.1 80.21 15.65 80.21 15.65s9.84-25.52 33.51-51.07c-16.27-20.5-43.13-33.82-75.72-34.26-76.29-1.03-113.51 92.22-113.51 92.22s-1.77-71.47-78.37-19.37c-26.47 18-93.27 70.44-67.16 151.15.9 2.77 1.39 2.12 5.53 5.13z"/><path class="st0" d="M1551.55 866.24c49-68.97 4.07-140.56-72.22-141.58-76.29-1.03-113.51 92.22-113.51 92.22s-1.77-71.47-78.37-19.37c-26.47 18-58.92 67.09-77.54 89.06-20.07 23.7-261.4 109.55-261.4 109.55s485.98 34.88 603.04-129.88z"/></g><g id="right_arm"><path class="st1" d="M876.91 464.03c-1.77-7.26-14.7-14.14-17.01-15.16-2.31-1.02-7.18.88-10.15 5.85-6.6 11.07-67.47 29.38-80.32 36.78-12.84 7.4-18.36 58.42 14.93 46.44 65.33-23.5 78.6-30.34 92.55-40.09 18.27-12.76 4.75-14.3 0-33.82z"/><path class="st2" d="M958.01 398.76s-3.16-8.7-18.99-1.58-51.43 37.98-60.13 41.14c-8.7 3.16-17.8 5.34-17.8 11.67 0 4.42 5.67 6.13 12 21.56 5.33 12.99 12.56 20.84 20.84 16.62 25.84-13.19 82.28-64.88 64.08-89.41z"/></g><g id="Layer_11"><path class="st3" d="M895.11 612.78s-54.2 42.33-67.25 58.95c-13.05 16.62-20.18 1.19-34.42 30.86-14.24 29.67-42.33 98.11-54.2 99.3-11.87 1.19-29.67-7.12-32.04 17.8-2.37 24.92 41.54 65.27 59.34 72.4 17.8 7.12 36.79-7.12 42.73-37.98 5.93-30.86 34.42-67.91 47.47-89.27 13.05-21.36 11.6-27.96 21.76-34.55 20.15-13.09 55.55-35.86 105.63-79.52 46.28-40.36-30.87-98.52-89.02-37.99z"/><path class="st4" d="M827.86 671.73c-14.29 15.57-20.18 1.19-34.42 30.86-14.24 29.67-46.84 92.84-27.69 91.78 7.12-.4 62.9-11.87 75.96-33.23 13.05-21.36 29.01-38.51 39.16-45.1 9.66-6.27 10.68-51.96 10.68-51.96-15.3-6.86-47.47-10.03-63.69 7.65z"/><path class="st5" d="M1107.55 642.45c.17 8.83-32.81 21.85-81.49 3.16-48.68-18.68-26.53-77.63 22.15-58.95 48.68 18.69 59.08 42.08 59.34 55.79z"/><path class="st3" d="M1093.33 633.25c-3.68 32.57-62.01 22.87-119.89 16.32-57.89-6.55-93.42-7.47-89.74-40.03s53.6-53.66 111.49-47.11c57.88 6.54 101.83 38.25 98.14 70.82z"/><path class="st4" d="M1026.85 597.35s-28.09 12.13-38.77 47.74c-10.68 35.6-10.29 48.79-17.41 65.41-7.12 16.62-23.74 89.8-33.23 114.73s-3.53 9.55-14.24 21.36c-30.86 34.02 31.38 75.69 31.38 75.69s32.08 40.91 49.71 24c19.38-18.59 13.85-32.44 13.85-45.1 0-12.66 16.1-89.48 20.04-108.4 1.32-6.33 4.22-6.86 6.86-14.24 2.64-7.38-1.32-21.23-1.32-24.79s25.29-63.61 40.09-92.31c39.17-75.96-56.96-64.09-56.96-64.09z"/><path class="st3" d="M1015.77 599.73s-18.2 9.89-28.88 45.49-9.1 48.66-16.22 65.27c-3.9 9.11 27.69-39.56 48.26-47.47 12.87-4.95 26.05-6.67 40.35-6.33 9.25.22 21.89 9.76 21.89 9.76 13.64-24.64 15.8-41.89 8.97-52.09-16.42-24.51-74.37-14.63-74.37-14.63zm-91.54 282.72c-3.98-13.82-9.62-13.42 2.33-19.76 8.7-5.23 48.79 11.81 48.79 11.81s-2.11-8.34.88-14.33c0 0 56.95 40.6 31.55 76.32-27.72 38.99-79.11-38.61-83.55-54.04z"/><path class="st6" d="M755.23 940.92c10.33-6.96 35.72-31.69 33.07-50.43s-16.28-35.17-26.75-36.15c-10.47-.98-13.06-15.75-33.25-35.24s-50.8-31.15-69.73-17.07c-16.24 12.08-21.39 40.2 3.14 65.12 12.72 12.93 20.13 24.61 28.55 36.58 30.47 43.34 54.64 44.15 64.97 37.19z"/><path class="st7" d="M755.23 940.92c18.05-14.17 12.61-31.4-33.84-77.7-12.72-36.7-45.21-67.73-65.14-55.24-15.9 9.96-15.5 41.61 3.87 60.75 15.09 14.91 21.49 22.84 30.13 35 30.21 42.49 51.81 47.53 64.98 37.19z"/><path class="st6" d="M978.98 977.53s29.04-31.23 27.56-48.66c-1.04-12.27-11.78-30.93-20.04-36-3.48-2.13-7.04.9-11.87-4.75-18.59-21.76-49.85-46.29-79.91-29.67-24.82 13.72-14.95 39.47-2.73 54.55 12.22 15.08 28.43 29.25 34.2 37.02 20.57 27.69 38.15 37.4 52.79 27.51z"/><path class="st7" d="M973.84 981.11s29.27-8.72-24.57-69.2c-28.72-57.38-56.13-53.85-67.21-42.38-8.35 8.65-4.78 30.53 10.27 48.5 15.05 17.96 29.56 28.3 34.04 34.58 18.84 26.45 31.63 31.52 47.47 28.5z"/><path class="st3" d="M989.66 683.59c3.16-4.75 26.11-21.36 53.8-15.82 0 0-51.43 22.95-64.09 30.86-12.66 7.91 7.12-10.29 10.29-15.04zm-15.82 40.36s8.31 5.93 22.55-1.19l-6.73 11.08s5.54 5.54 16.22 1.98c10.68-3.57-18.59 34.81-32.04-11.87zm84.92-70.42c13.38 7.71 10.55 31.19 3.69 52.81l22.15-47.01s-39.23-13.52-25.84-5.8z"/><path class="st4" d="M838.93 764.3s-39.84 54.97-80.44 46.18l80.44-46.18z"/><path class="st3" d="M800.56 697.84s15.03 2.37 22.15-1.58c7.12-3.96-3.96 10.29-3.96 10.29s7.91 15.03-6.33 8.7-11.86-17.41-11.86-17.41z"/></g><g id="torso"><path class="st8" d="M889.44 565.44s11.08 12.66 34.81 16.35 73.85-145.58 60.13-168.26c-13.71-22.68-71.74 22.15-88.62 62.24-16.87 40.09-6.32 89.67-6.32 89.67z"/><path class="st0" d="M1081.04 600.12s6.2 12.79 13.85 15.43c1.95 1.14 17.27.13 28.22-4.48 10.95-4.62 15.16-10.15 31.52-10.95 16.35-.79 37.58 1.45 49.19-8.57 11.6-10.02-3.43-11.87-8.97-12.4-2.74-.26-13.71 7.91-18.86 7.91-15.25 0-46.68 8.31-60.53 15.43-9.15 4.71-31.32-6.37-34.42-2.37z"/><path class="st8" d="M1175.59 551.46c29.8 5.8 42.2 12.13 34.29 30.59-5.04 11.75-38.89 13.74-52.09 11.74-16.48-2.51-30.2 11.74-57.63 17.8-13.66 3.02-21.1-3.43-22.68-20.57-1.18-12.78 11.03-52.85 33.49-60.4 20.42-6.85 50.44 18.08 64.62 20.84z"/><path class="st9" d="M1085 395.59s-26.11-15.43-67.65-11.87c-41.54 3.56-55.15 7.38-62.77 24.53-6.33 14.24 2.24 63.3-3.69 98.9-4.02 24.13-32.44 45.89-41.93 74.37 0 0 42.01 35.78 117.63 27.16 41.67-4.75 79.91 28.22 80.97 33.76 1.27-5.52 1.37-17.68 2.37-74.77 1.16-65.94 4.97-159.35-24.93-172.08z"/><path class="st5" d="M1049.4 389.66c-18.99-1.19-34.02-49.45-13.85 119.08 3.75 31.31-121.71 58.14-126.59 72.79 0 0 42.01 35.78 117.63 27.16 41.67-4.75 79.91 28.22 80.97 33.76 1.27-5.52 1.37-17.68 2.37-74.77 1.16-65.95-41.55-176.83-60.53-178.02z"/><path class="st10" d="M1000.69 385.2s-16.04 11.73-13.54 27.72c2.5 15.99 38.95 4.8 49.11-10.13s-21-23.46-35.57-17.59z"/><path class="st11" d="M982.14 391.24c3.16 2.9-15.68 44.83-54.2 79.78-28.48 25.85-33.76 56.44-25.85 76.48 8.51 21.55 13.19 25.45 18.2 31.91 5.04 6.51-30.61-8.51-32.97-12.13-7.91-12.13-21.79-81.7 19.52-124.48 14.77-15.3 14.77-36.92 28.22-44.84 13.46-7.91 43.92-9.62 47.08-6.72z"/><path class="st12" d="M982.14 391.24c3.16 2.9-15.68 44.83-54.2 79.78-28.48 25.85-33.76 56.44-25.85 76.48 8.51 21.55 13.19 25.45 18.2 31.91 5.04 6.51-30.61-8.51-32.97-12.13-7.91-12.13-13.35-71.15 27.96-113.93 14.77-15.3 6.33-47.47 19.78-55.38 13.46-7.92 43.92-9.63 47.08-6.73z"/><path class="st0" d="M888.78 568.74s-.66 4.88 1.98 7.52 16.22 8.84 27.16 9.49c0 0 6.86-4.48-.79-5.8-7.65-1.32-28.35-11.21-28.35-11.21zm98.77-181.06c-3.38-3.76-13.95-3.68-23.21.35-7.83 3.41-10.15 18.85-18.24 36.03-5.81 12.33-13.94 36.94-28.18 57.51-7.83 11.31 18.99 10.02 58.08-65.04 6.87-13.18 13.77-26.38 11.55-28.85z"/><path d="M1003.11 383.33c-17.41 9.89-16.22 68.44-7.91 69.63 8.31 1.19 49.85-33.63 45.49-63.69" fill="none" stroke="#913636" stroke-miterlimit="10"/><ellipse transform="rotate(-80.125 994.195 458.287)" class="st14" cx="994.21" cy="458.3" rx="6.13" ry="2.97"/><path class="st0" d="M987.55 387.68c-3.38-3.76-13.95-3.68-23.21.35-7.83 3.41-10.15 18.85-18.24 36.03-3.12 6.63 5.05 2.65 15.07-4.73-3.92 10.4-3.96 10.29-3.96 10.29 11.35-8.65 30.96-41.25 30.34-41.94z"/></g><g id="neck"><path class="st10" d="M997.73 367.19s2.33 18.45 2.93 29c.6 10.55 7.38 9.99 16.4 8.9 9.03-1.09 18.07 2.04 20.27-12.74 2.2-14.78 6.06-39.58-1.86-43.24-7.91-3.66-38.38-.91-37.74 18.08z"/><path class="st15" d="M1013.4 365.53c2.03 14.31 21.52 38.2 23.74 28.09 2.22-10.11 5.8-39.77 1.38-42.92-6.75-4.83-27.16.52-25.12 14.83z"/></g><g id="jacket"><path class="st11" d="M1041.88 396.91s-.79 77.8 11.87 101.54c12.66 23.74 47.87 26.51 63.3 79.12 6.86 23.39 19.78-11.87 55.38-12.66 15.66-.35 25.42 5.25 29.54 6.59 9 2.95-4.64 20.88 2.37 16.88 27.69-15.82-2.64-32.81-4.75-40.09-2.9-10.02-8.97-44.57-33.76-50.9-26.11-6.67-48.79-51.16-54.33-67.78s-6.33-34.02-25.32-40.35-41.14-7.38-44.3 7.65z"/><path class="st12" d="M1041.88 396.91s-.79 77.8 11.87 101.54c12.66 23.74 15.78 45.82 69.63 56.18 20.57 3.96 11.87-63.3 6.33-79.91s-24.53-79.12-43.52-85.45-41.15-7.39-44.31 7.64z"/><path class="st0" d="M1129.57 583.37s5.01 3.82 7.78 4.48c4.1.98 15.82-13.45 30.07-16.09 14.24-2.64 31.7-1.62 35.6 3.96 3.3 4.71-2.9 13.98-11.34 16.62-3.24 1.01 3.28 2.64 6.59 2.11 6.92-1.12 16.88-12.4 10.29-20.84-5.38-6.88-19.52-10.02-35.34-9.23-13.74.69-26.24 6.86-43.65 18.99zm-55.25-195.69c1.98-4.75-21.36-10.55-32.44-6.59-11.08 3.96-13.45 61.98 3.16 93.63 11.35 21.62 7.42-20 12.26-53.01 2.25-15.31 15.04-29.28 17.02-34.03z"/><path class="st0" d="M1074.32 387.68c1.98-4.75-21.36-10.55-32.44-6.59 3.16 10.55 10.58 73.63 15.43 40.62 2.24-15.31 15.03-29.28 17.01-34.03z"/><path d="M1174.8 518.23s-25.32-7.12-41.14 7.91" fill="none" stroke="#f4e8d8" stroke-width="4" stroke-miterlimit="10"/></g><path class="st17" d="M701.66 485.79l136.48 83.08c-26.23-57.71-84.92-163.64-98.18-187.44-1.07-1.93-3.9-1.76-4.72.29-9.18 22.74-25.66 90.62-25.66 90.62l-7.92 13.45z" id="folder_1_"/><g id="head"><path class="st2" d="M1081.19 294c-5.84 39.64-32.65 57.59-53.36 65.69-20.71 8.1-66.88-20.67-72.84-55-7.39-34.71-12.16-52.99 44.27-65 56.44-12.01 87.1 19.21 81.93 54.31z"/><path class="st18" d="M1074.18 297.14c-4.96 33.67-53.59 24.37-53.59 24.37-9.84-2.56-43.66-9.28-50.65-27.87-5.97-15.89-13.72-33.84 34.21-44.04 43.86-9.34 74.42 17.73 70.03 47.54z"/><path class="st2" d="M1068.2 314.08s4.3-10.69.89-22.66c0 0 14.67 4.16-.89 22.66z"/><path class="st15" d="M982.03 271.17s-24.13-8.89-29.12-3.27-4.72 81.14 4.9 99.72c9.62 18.58 69.93 7.79 85.09-5.55 3.53-3.1 11.07-18.29 13.16-37.05 1.25-5.77-13.14-16.6-23.75-29.19s-50.28-24.66-50.28-24.66z"/><path class="st10" d="M1047.39 335.6c-1.31 34.54-26.49 40.19-52.33 41.74-25.84 1.54-37.02-5.68-41.23-36.14-4.35-31.43 5.64-51.66 31.48-53.2 25.83-1.56 60.19 15.91 62.08 47.6z"/><path d="M1007.01 319.93c.3 4.98-1.92 7.3-4.41 7.45-2.49.15-4.3-1.93-4.6-6.91-.3-4.98 1.48-9.13 3.97-9.28 2.49-.15 4.74 3.76 5.04 8.74zm-37.83 1.35c.28 4.67-1.8 6.85-4.14 6.99-2.34.14-4.04-1.81-4.32-6.49-.28-4.67 1.39-8.58 3.73-8.72 2.33-.13 4.45 3.55 4.73 8.22z" fill="#34273a"/><path d="M1009.12 308.24s-3.99-7.19-10.49-5.24m-32.11 2.55s-7.7-.55-9.5 5.55" fill="none" stroke="#34273a" stroke-linecap="round" stroke-linejoin="round" stroke-miterlimit="10"/><ellipse transform="rotate(-75.345 1051.525 319.926)" class="st10" cx="1051.55" cy="319.94" rx="20.7" ry="11.92"/><path class="st2" d="M1014.36 256.5c-19.66 24.04-56.81 32.01-73.23 31.97-14.47-.03.41-38.84 25.78-48.68 25.37-9.83 55.22 7.21 47.45 16.71z"/><path class="st18" d="M1012.86 249.77c6 4.17 3.53 16.21-6.59 21.48-17.46 9.1-52.56 15.14-59.65 15.48-13.4.64-1.4-24.91 16.85-35.48 20.49-11.86 43.39-5.65 49.39-1.48z"/><path class="st2" d="M984.26 271.28s-17.14 9.85-30.61 15.34c0 0 35.64-3.18 30.61-15.34z"/><path class="st18" d="M1034.76 285.08s-2.56 28.35 1.13 36.64l8.18 12.28 1.83-40.54-11.14-8.38z"/></g><g id="stuff"><path class="st21" d="M746.89 480.38l85.05-10.81s-21.1-67.65-89.93-99.3c-99.98-45.97-178.48 58.22-199.38 72.79-26.11 18.2-49.85 21.36-99.69 11.87 0 0-40.35 73.58-77.54 94.95 0 0 45.1 9.61 105.23 0 54.73-8.74 85.03-31.14 134.51-95.74 28.48-37.18 142.54-49.71 141.75 26.24z"/><path class="st0" d="M439.51 469.18s-36.92 55.38-49.58 68.84c0 0 67.2 2.67 103.65-4.75 46.68-9.49 99.44-95.78 136.88-115.52 43.52-22.95 108.36-7.44 121.85 25.32 11.08 26.9 12 35.21 12 35.21l55.78-7.65s-39.3-111.43-146.9-98.77c-55.32 6.51-104.44 64.88-133.71 87.03-29.29 22.15-62 18.2-99.97 10.29z"/><path d="M509.4 462.85l-24.53 77.53m89.14-113.67l-2.9 59.08m63.3-52.22l-7.12-50.64m71.2-15.03l-15.03 51.43m59.34 18.2l34.02-37.98m-18.98 73.58l55.38-30.86" fill="none" stroke="#f5bf4e" stroke-width="3" stroke-miterlimit="10"/><path class="st23" d="M382.8 543.55c1.02.23 2.34.48 3.93.73"/><path d="M396.77 545.54c30.37 3.05 95.54 3.98 130.82-20.19 42.73-29.27 66.46-88.62 117.89-105.23 27.15-8.77 75.64-13.19 97.32 22.95 5.78 10.67 8.6 21.04 9.97 28.09" fill="none" stroke="#f4e8d8" stroke-width="6" stroke-miterlimit="10" stroke-dasharray="8.0965,10.1206"/><path class="st23" d="M753.59 476.15c.34 2.52.42 3.98.42 3.98"/><path d="M826.67 467.2s-47.51-109.31-140.84-102.46c-86.24 6.33-131.34 91.78-170.11 101.27-33.93 8.31-75.96-4.75-75.96-4.75" fill="none" stroke="#f4e8d8" stroke-width="5" stroke-miterlimit="10" stroke-dasharray="8,10"/><path d="M542.63 443.07c-26.11 18.2-49.85 21.36-99.69 11.87 0 0-40.35 73.58-77.54 94.95 0 0 45.1 9.61 105.23 0 54.73-8.74 85.03-31.14 134.51-95.74-62.51 15.82-62.51-11.08-62.51-11.08z" opacity=".5" fill="#f5bf4e"/><ellipse class="st14" cx="566.36" cy="307.77" rx="40.9" ry="40.35"/><path class="st9" d="M584.42 297.63l-8.07 30.99c-.82 3.15-5.05 3.74-6.69.93l-22.92-39.07c-1.65-2.81.92-6.21 4.08-5.39l30.99 8.07a3.67 3.67 0 0 1 2.61 4.47z"/><path class="st27" d="M601.97 302.23c0 18.54-68.04 18.54-68.04 0s15.23-33.56 34.02-33.56c18.78 0 34.02 15.02 34.02 33.56z"/><path class="st28" d="M668.43 299.26s29.26 17.55 36.28 29.26l47.98-39.79-36.28-46.81s-39.79 53.83-47.98 57.34z"/><path class="st17" d="M716.41 241.92c5.07 7.41-2.43 51.46-2.43 51.46a7.845 7.845 0 0 1-6.93 6.66l-38.62-.78 47.98-57.34z"/><path d="M711.73 276.25l32.77 3.12m-46.03 19.11l1.69 24.06" fill="none" stroke="#624873" stroke-miterlimit="10"/><path class="st30" d="M674.15 293.28l64.11-22.24-21.98-27.96c0 .01-33.03 41.75-42.13 50.2z"/><path class="st9" d="M829.08 150.63l-32.02 23.23c-9.9 7.18-12.11 21.04-4.92 30.94l23.23 32.02c2.72 3.74 6.39 6.39 10.44 7.84.05.02.08.05.13.07l25.54 8.89c1.8.63 3.56-1.03 3.05-2.87l-3.5-12.42 27.31-19.81c9.9-7.18 12.11-21.04 4.92-30.94l-23.23-32.02c-7.19-9.91-21.05-12.11-30.95-4.93z"/><path transform="rotate(-35.96 829.14 183.871)" class="st0" d="M800.6 179.12h56.97v9.49H800.6z"/><path transform="rotate(-35.96 837.504 195.4)" class="st0" d="M808.96 190.65h56.97v9.49h-56.97z"/><path transform="rotate(-35.96 845.868 206.928)" class="st0" d="M817.32 202.18h56.97v9.49h-56.97z"/><path class="st31" d="M829.4 156.78L800 178.11c-9.09 6.6 85.74 21.68 79.14 12.59l-21.33-29.4c-6.6-9.1-19.32-11.12-28.41-4.52z"/><path class="st9" d="M1180.07 141.38l-123.99-25.06c-.82-.17-1.75.8-2.08 2.14l-17.76 72.63c-.33 1.34.05 2.62.85 2.86l121.03 35.7c1.03.31 2.18-.69 2.56-2.22l20.62-82.87c.38-1.55-.17-2.97-1.23-3.18z"/><path class="st4" d="M1181.48 135.44l-123.99-25.06c-.82-.17-1.74.8-2.07 2.14l-17.76 72.63c-.33 1.34.05 2.62.85 2.86l121.03 35.7c1.03.31 2.18-.69 2.56-2.22l20.62-82.87c.37-1.55-.18-2.97-1.24-3.18z"/><path class="st8" d="M1101.19 139.9l23.37 26.12c.73.81.32 2.45-.7 2.83l-32.81 12.2c-.9.33-1.63-.66-1.34-1.82l9.44-38.34c.29-1.16 1.4-1.7 2.04-.99z"/><path d="M1177.75 136.85l-108.33-21.89c-.71-.14-1.52.69-1.81 1.87l90.96 97.14c.9.27 1.91-.6 2.24-1.94l18.01-72.41c.34-1.34-.14-2.59-1.07-2.77z" opacity=".5" fill="#465788"/><path class="st9" d="M1245.98 208.7c-1.05 4.26-6.14 6.61-11.26 5.29-5.03-1.3-8.23-5.66-7.23-9.78 1-4.12 5.86-6.55 10.95-5.4 5.18 1.18 8.6 5.62 7.54 9.89zm33.72 8.08c-1.18 4.56-6.51 7.12-11.81 5.75-5.2-1.34-8.43-5.96-7.32-10.36 1.11-4.41 6.2-7.05 11.46-5.87 5.37 1.2 8.85 5.91 7.67 10.48z"/><path class="st33" d="M1242.33 208.47l12.09-43.63 32.7 5.04-10.84 44.17"/><path class="st9" d="M1323.31 180.95c1.84 3.45-.56 8.26-5.27 10.71-4.62 2.4-9.75 1.61-11.55-1.71-1.8-3.33.39-8.05 4.96-10.57 4.67-2.58 10.01-1.89 11.86 1.57z"/><path class="st33" d="M1341.57 158.25c1.29-7.77-12.35-19.53-12.35-19.53l-9.88 44.95"/><path class="st8" d="M919.8 165.14c-4.02 17.64 6.29 34 22.42 37.9 15.82 3.83 33.41-5.28 40.1-21.56 7.34-17.88-.88-37.91-19.43-43.2-18.99-5.41-38.65 7.41-43.09 26.86z"/><path class="st0" d="M936.07 155.83c10.28-9.92 17.72 4.73 18.63 6.65 1.88-1.16 16.48-9.68 19.14 3.54 3.91 19.42-25.33 26.29-28.7 27.02l-.04.14s-.04-.04-.12-.1c-.1.02-.16.03-.16.03l.04-.14c-2.47-2.19-24.21-22.27-8.79-37.14z"/></g><g id="folder"><path class="st10" d="M971.21 566.61c4.12-5-1.88-7.82-20.03-7.56-7.41.11-14.26 1.9-23.96-.21-6.31-1.37-13.78-.08-10.85 5.9 2.46 5 4.88 10.39 16.3 10.05 3.09-.09 13.85.36 19.83.89 5.69.51 16.02-5.8 18.71-9.07z"/><path class="st28" d="M701.66 485.79l94.95 172.48 27.3-6.33 130.95-5.54-25.32-70.02c5.13-1.28 8.09-6.65 6.43-11.67l-32.7-93.52a14.636 14.636 0 0 0-15.82-9.93l-185.79 24.53z"/><path class="st0" d="M812.04 587.54s-12.78-13.49-20.24-7.46c-7.46 6.04-4.26 17.76 2.49 24.86 6.75 7.1 18.43 13.17 25.92 5.68 8.87-8.88-8.17-23.08-8.17-23.08z"/><path class="st21" d="M821.53 520.87c-5.89 6.66-17.18 52.47-21.76 61.71-7.52 15.16 5.93 26.51 16.22 19.78 9.35-6.11 54.2-15.43 62.51-23.74 3.42-3.42 15.43-15.03-3.56-40.35-19.52-26.01-44.31-27.69-53.41-17.4z"/><ellipse transform="rotate(-45.001 850.537 547.93)" class="st0" cx="850.54" cy="547.92" rx="20.84" ry="35.36"/><defs><ellipse id="SVGID_1_" transform="rotate(-45.001 847.02 550.553)" cx="847.02" cy="550.54" rx="16.56" ry="31.24"/></defs><clipPath id="SVGID_2_"><use xlink:href="#SVGID_1_" overflow="visible"/></clipPath><ellipse transform="rotate(-45.001 839.007 561.305)" cx="839.01" cy="561.29" rx="11.81" ry="8.6" clip-path="url(#SVGID_2_)" fill="#465788"/><path class="st30" d="M728.82 482.7s190.29 75.82 195.76 77.83c5.47 2.01 0 0 0 0 4.4-1.1 6.95-5.71 5.53-10.02l-28.1-80.34c-1.89-5.74-7.6-9.32-13.59-8.53l-159.6 21.06z"/></g><g id="left_arm"><path class="st2" d="M1069.84 520.6c-4.48-13.19-.53-53.08-.53-88.09 0-20.57 14.13-38.71 26.37-36.4 19.52 3.69 23.74 22.15 27.43 45.89 5.2 33.45 7.17 83.63-4.88 109.45-11.08 23.75-43.91-17.66-48.39-30.85z"/><path class="st2" d="M1069.84 520.6c-4.48-13.19-.53-53.08-.53-88.09 0-20.57 14.13-38.71 26.37-36.4 19.52 3.69-8.44 31.12-4.75 54.86 5.2 33.45 18.9 49.09 6.86 74.9-11.08 23.75-23.47 7.92-27.95-5.27z"/><path class="st1" d="M1094.63 518.49c-8.44-6.33-22.07-9.35-28.48-5.27-6.35 4.04-7.81 7.47-7.81 7.47s-11.93.45-21 8.34c-8.99 7.82-58.88 13.19-65.28 26.79-6.5 13.81-12.14 42.88 16.85 48.66 32.5 6.49 38.26-8.46 50.87-11.62 12.99-3.25 63.82-23.67 74.11-38.24 6.32-8.96-4.87-25.33-19.26-36.13z"/><path class="st11" d="M1094.63 518.49c-3.82-2.86 11.99 24.18-14.77 43.25-6.03 4.3-20.4 5.7-28.48 9.49-35.37 16.6-75.39 30.66-62.47 33.24 32.5 6.49 38.26-8.46 50.87-11.62 12.99-3.25 63.82-23.67 74.11-38.24 6.32-8.95-4.87-25.32-19.26-36.12z"/><path class="st11" d="M972.78 556.74c9.49-7.91 19.78-7.12 27.96 10.81 0 0 2.37-10.55 7.65.53 6.25 13.13.37 36.44-15.82 36.66-19.53.26-25.26-43.45-19.79-48z"/><path class="st0" d="M986.89 606c-10.3 1.72-20.55-8.65-23.04-22.52-2.39-13.26 3.15-25.36 12.5-27.6 9.6-2.3 20.17 6.48 23.51 20.23 3.49 14.43-2.37 28.12-12.97 29.89z"/><path class="st11" d="M982.24 601.62c-6.03.79-12.79-7.75-15.13-18.65-2.25-10.47.37-19.58 5.88-20.74 5.63-1.18 12.45 6.29 15.22 17.12 2.88 11.29.2 21.47-5.97 22.27z"/><path class="st10" d="M984.52 600.91l-17.54 9.89s-15.56 12.13-24.53 11.6-24.12-.09-28.62-1.71c-10.22-3.69-1.58-7.38-1.58-7.38s-5.47 2.04-11.21.46c-4.07-1.12-7.67-7.99-.4-8.9l5.6-.86s-16.15 2.11-16.95-5.14c-.57-5.24 4.22-6.33 14.24-5.8s31.12-7.98 34.81-9.03c3.69-1.05 10.73-10.56 19.38-18.86 19.02-18.2 39.65 22.87 26.8 35.73z"/><path class="st10" d="M954.45 580.93s2.97-8.51-.4-10.09c-3.36-1.58-13.78 7.52-20.11 9.1s-33.89.4-39.43 1.58-5.14 6.33 0 7.91 14.84 2.57 26.11 1.38c15.89-1.66 13.97-2.21 33.83-9.88z"/><path class="st11" d="M1058.33 520.69s15.59.7 23.51 6.64c7.91 5.93-4.92-16.92-23.51-6.64z"/><path class="st11" d="M1057.7 522.58s18.59 8.7 23.34 27.69c0 0 4.75-14.64-4.75-20.97-9.49-6.32-17.8-9.09-18.59-6.72z"/></g><g id="stuff_1_"><path class="st35" d="M777.62 251.59s80.7 37.98 80.7 158.24"/><path class="st36" d="M758.63 262.67s36.4 12.66 44.31 39.56"/><circle class="st14" cx="813.22" cy="320.82" r="5.93"/><path class="st36" d="M957.42 533.44s116.51-111.34 230.83-73.76"/><path class="st35" d="M1265.19 526.88s-80.3-86.82-175.02-40.57"/><circle class="st14" cx="1214.36" cy="465.62" r="5.93"/><path class="st8" d="M1210.91 258.74c-23.6-11.92-52.39-2.46-64.31 21.14-5.51 10.9-6.44 22.91-3.54 33.86.01.03.01.05.01.08.02.08.04.16.06.23.03.1.05.19.08.29 5.6 20.66 16.54 51.42 21.36 52.11 7.29 1.04 40-16.13 50.47-24.6a47.716 47.716 0 0 0 17.01-18.78c11.92-23.61 2.46-52.4-21.14-64.33z"/><circle class="st0" cx="1189.32" cy="301.47" r="36.48"/><path d="M1146.59 279.88c-5.51 10.9-6.44 22.91-3.54 33.86.01.03.01.05.01.08.02.08.04.16.06.23.03.1.05.19.08.29 5.6 20.66 16.54 51.42 21.36 52.11 4.28.61 72.68-38.87 45.78-85.55s-58.82-10.77-63.75-1.02z" opacity=".5" fill="#ec5e4d"/><path class="st9" d="M1239.68 584.69s53.01-24.13 82.29-60.13c0 0 83.87 0 100.48.79 0 0-27.69 76.75-79.12 117.1 0 0-61.71 12.66-103.65-57.76z"/><path class="st28" d="M1334 534.69s-16.47 14.92-30.3 26.99c-12.84 11.21-33.51 26.03-41.86 31.4 0 0 17.55 15.89 31.65 18.25 24.92 4.18 41.93-9.23 41.93-9.23l-11.34-31.06 24.79-13.22-14.87-23.13zm33.58 29.56l1.91-4.06c1.47-3.12 5.69-5.39 9.99-5.07 5.01.37 8.32 4.04 6.53 8.21l-2.33 5.45c-1.87 4.36-7.72 6.12-12.26 4.17-3.86-1.64-5.35-5.47-3.84-8.7z"/><path class="st31" d="M1239.68 584.69s53.01-24.13 82.29-60.13c0 0 66.86.79 83.47 1.58 0 0-109.19 103.26-165.76 58.55z"/><path transform="rotate(16.458 705.311 170.845)" class="st0" d="M689.36 154.96h31.68v31.68h-31.68z"/><path transform="rotate(45.001 885.274 288.027)" class="st38" d="M862.89 265.66h44.76v44.76h-44.76z"/><path transform="rotate(65.411 1209.319 680.933)" class="st0" d="M1182.71 654.37h53.19v53.19h-53.19z"/><path transform="rotate(65.411 1174.102 657.788)" class="st0" d="M1151.52 635.25h45.14v45.14h-45.14z"/><path transform="rotate(62.769 669.007 536.585)" class="st38" d="M645.82 513.41h46.43v46.43h-46.43z"/><path transform="rotate(62.769 1351.736 274.331)" class="st38" d="M1320.87 243.42h61.89v61.89h-61.89z"/><path transform="rotate(62.769 1387.377 291.315)" class="st0" d="M1364.24 268.14h46.43v46.43h-46.43z"/><path transform="rotate(62.769 635.173 533.283)" class="st0" d="M617.87 515.99h34.67v34.67h-34.67z"/><path class="st1" d="M1341.7 365.18l-15.58 56.95-62.56-3.01c-11.32 31.13 13.13 57.12 48.92 57.17 36.42.04 65.61-22.79 73.85-54.86 7.8-30.38-11.28-57.1-44.63-56.25z"/><path d="M1336.58 361.1l-14.73 53.85-59.16-2.84c-10.7 29.44 7.35 51.42 41.05 54.55 35.64 3.3 69.44-25.75 77.23-56.07 7.38-28.73-12.85-50.29-44.39-49.49z" fill="#29abe3"/><path class="st27" d="M1308.79 414.33l-46.1-2.21c-10.7 29.44 7.35 51.42 41.05 54.55 22.98 2.13 45.2-9.2 60.17-25.64-34.03-.6-55.12-26.7-55.12-26.7z"/><path class="st8" d="M1253.48 407.56l-1.98-7.52 79.36-54.5s1.13 4.16 1.98 7.52l-15.62 55.98-63.74-1.48z"/><path class="st9" d="M1251.5 400.05c11.06-29.84 46.13-53.59 79.36-54.5l-15.88 57.47-63.48-2.97z"/><path class="st31" d="M1251.5 400.05c5.6-15.12 17.37-28.68 31.95-38.49-2.63 26.92 20.08 40.93 20.08 40.93l-52.03-2.44z"/></g></svg>