<svg xmlns="http://www.w3.org/2000/svg" viewBox="0 0 1920 1080" style="max-width: 100%; max-height: 320px;"><style>.st0{fill:#f4e8d8}.st2{fill:#bb83c3}.st7{fill:#1d2436}.st8{fill:#c93f37}.st9{fill:#f6874e}.st10{fill:#ce6d3e}.st11{fill:#102441}.st15{opacity:.5;fill:#ec5e4d}.st17{fill:#f7d04c}.st18{fill:#ec5e4d}.st19{fill:none;stroke:#903636;stroke-miterlimit:10}.st24{fill:#903636}.st27{fill:none;stroke:#ec5e4d;stroke-miterlimit:10}</style><g id="bg"><path class="st0" d="M669.52 511.3S636.95 364.84 531.1 338.46c-78.67-19.61-78.67 46.85-78.67 46.85s-113.42-80.24-166.15 14.24 515.08 226 515.08 226L669.52 511.3zm913.68 42.66s6.98-180.52-178.95-258.85c-138.88-58.51-203.78-48.5-303.1-50.22-93.11-1.61-39.64-123.92 35.1-122.25 77.06 1.72 102.64 76.9 103.42 73.57 2.33-10.01 36.57-29.66 73.82-19.33 49.66 13.77 71.92 78.34 78.77 95.56 0 0 99.81 26.81 157.54 136.89 50.58 96.41 33.4 144.63 33.4 144.63zm-29.97 257.72s-.86-8.99 17.12-10.27c17.98-1.28 26.26 4.57 26.26 4.57s4.57-18.27 28.97-5.42c24.4 12.84 16.7 33.39 16.7 33.39 41.1-.86 101.89 55.65-37.67 111.31 0 0 73.61-59.09 24.83-107.03-32.82-32.26-76.21-26.55-76.21-26.55zm-635.57 77.63s-203.53-30.32-234.26-67.26c-21.57-25.93-77.95-54.86-94.63-49.13-6.42.97 38.47-17.46 4.25-35.33-33.25-17.36-79.41-10.87-79.41-10.87s34.89-39.83-8.69-62.53c-41.94-21.86-83.43 19.13-81.44 53.22 1.74 29.83 105.08 92.84 221.25 134.2 116.93 41.62 272.93 37.7 272.93 37.7z"></path><path d="M1525.41 826.23c0 64.19-52.04 116.23-116.23 116.23s-116.23-52.04-116.23-116.23c0-33.47 11.49-64.94 33.82-86.48 11.99-11.56 51.69-29.64 82.41-29.75 56.72-.21 77.27 30.18 85.46 37.45 21.06 18.71 30.77 48.39 30.77 78.78z" fill="#866694"></path><path class="st2" d="M1458.59 760.98s-14.43 16.45-.86 32.96c6.77 8.24 14.57 8.26 21.27 5.58 3.8-1.52 7.02-5.02 7.27-8.58.35-4.84-4.75-6.86-4.75-6.86s3.38 10.91-6.87 11.98c-7.29.76-14.66-1.7-18.58-12.38-3.5-9.55 2.52-22.7 2.52-22.7zm-66.53 80.05s14.99 11.12 14.02 27.07c0 0 10.15-24.65-14.02-27.07z"></path><path d="M1366.92 842s-13.54 7.25-16.92 13.54c-3.38 6.28-4.83 18.85-2.9 27.56 1.93 8.7 12.72 9.69 15.62 10.17s28.38 1.43 31.28 1.43 15.47-9.67 15.47-9.67-2.9 9.19-10.64 13.05-34.81-.48-37.23-.48c-2.42 0-14.99-8.7-19.34-11.6-4.35-2.9-.48-23.21 1.45-29.97s13.06-14.03 23.21-14.03zm145.46 32.8c-2.42 0-15.51-6.46-19.86-9.36-4.35-2.9-.48-23.21 1.45-29.97s13.05-14.02 23.21-14.02c0 0-13.54 7.25-16.92 13.54-3.38 6.28-6.6 23.6-5.02 27.55 1.41 3.52 10.15 8.18 12.13 9.1 1.98.92 5.01 3.16 5.01 3.16z" fill="#b981c1"></path><path class="st2" d="M1343.43 743.85s10.7 4.71 12.84 9.85c2.14 5.14 7.26 20.36-.88 24.64-8.13 4.28-21.07 5.7-22.35.99-1.28-4.71-.75-8.51-.75-8.51s-3 3.42-1.71 8.99c1.28 5.57 5.99 5.14 16.27 3.85 10.27-1.28 15.41-2.57 17.12-9.42 1.71-6.85-3-17.12-4.28-21.83-1.28-4.71-8.56-9.41-16.26-8.56zm20.86-16.14c-.49 0-.95.06-1.4.17 1.77.86 2.99 2.58 2.99 4.57 0 2.4-1.76 4.4-4.13 4.98.76.37 1.63.58 2.55.58 3.06 0 5.54-2.31 5.54-5.16-.01-2.83-2.49-5.14-5.55-5.14zm43.91 188.42c-2.91 0-5.29-2.09-5.52-4.75-.27.61-.42 1.27-.42 1.96 0 2.85 2.48 5.16 5.54 5.16s5.54-2.31 5.54-5.16c0-.14-.01-.27-.02-.41-.82 1.88-2.8 3.2-5.12 3.2zm94.51-114.26c-.99-2.75.19-5.7 2.64-6.8-.68-.05-1.37.03-2.04.27-2.68.97-4.01 4.08-2.97 6.96 1.04 2.88 4.05 4.42 6.73 3.46.12-.04.22-.11.33-.16-2.02-.16-3.91-1.57-4.69-3.73zm-46.64 62.72c-8.77-2.22-14.11-12.7-14.26-21.04-.93 1.66-1.51 3.58-1.65 5.72-.57 8.76 6.44 17.75 15.65 20.08 9.22 2.33 17.15-2.88 17.73-11.64.03-.43.02-.85.02-1.28-2.88 5.13-10.52 9.92-17.49 8.16zm-47.45 64.33c.01.12.04.23.04.35 0 2.37-2.06 4.29-4.61 4.29-1.71 0-3.18-.87-3.98-2.16.2 2.2 2.15 3.94 4.57 3.94 2.55 0 4.61-1.92 4.61-4.29 0-.78-.24-1.5-.63-2.13zm-31.93-1.52c-6.44 0-11.65-4.86-11.65-10.85 0-3.27 1.56-6.19 4.01-8.18-5.07 1.17-8.84 5.43-8.84 10.52 0 5.99 5.22 10.85 11.65 10.85 2.93 0 5.59-1.01 7.64-2.67-.9.2-1.84.33-2.81.33zm19.33-190.79c-.88 4.18-4.83 7.33-9.57 7.33-4.97 0-9.06-3.46-9.67-7.92-1.74 4.89 1.01 10.41 6.24 12.42 5.3 2.04 11.14-.32 13.03-5.25.83-2.18.76-4.49-.03-6.58zm77.58 150.6c4.32-2.29 9.08-1.95 11.24 1.03 2.26 3.12.89 8.04-3.02 11.47 5.37-2.23 9.3-7.71 8.8-12.36-.51-4.72-5.37-6.79-10.87-4.62-2.42.94-4.56 2.56-6.15 4.48zm-38.88-161.23c2.95-1.32 6.65-.3 8.76 2.61 2.21 3.05 1.91 7.09-.56 9.46 3.77-1.11 5.94-5.25 4.84-9.35-1.11-4.16-5.15-6.69-9.02-5.66-1.7.45-3.09 1.52-4.02 2.94z"></path><path d="M1517.9 837.7c0 47.1-38.18 85.29-85.29 85.29s-79.39-16.97-79.39-64.07c0-24.56 19.1-71.88 35.49-87.69 8.8-8.48 36.61-18.09 59.15-18.09 24.8 0 46.88 18.33 52.89 23.66 15.47 13.73 17.15 38.6 17.15 60.9z" opacity=".5" fill="#866694"></path><path d="M1417.83 643.35c-1.17 14.3-6.19 75.87-7.07 87.33-.09 1.23.78 2.42 1.99 2.72 1.27.31 2.43-.49 2.57-1.78l9.3-87.51c.19-1.8-1.22-3.42-2.85-3.27l-1.8.16c-1.15.1-2.04 1.08-2.14 2.35z" fill="#48598b"></path><path d="M1423.15 642.15s11.17-1.28 25.63-4.28c17.14-3.56 33.41-8.47 41.72-10.45 5.82-1.39-19.75 29.96-27.16 37.85l4.74 9.36-47.62 6.25 2.69-38.73z" fill="#29ace4"></path><path class="st0" d="M1196.67 913.75s101.73 19.39 131.33 12.34c29.59-7.05-7.95-36.33 26.78-48.07 17.29-5.85 23.21 21.58 23.21 21.58s27.97-8.05 29.56 24.93c0 0 49.42 9.08 48.42 25.3-1.02 16.31-103.51 53.48-259.3-36.08zm1.24-25.87s-30.88-23.78-11.99-36.82c24.83-17.12 48.8-18.84 76.2-30.82 0 0-173.86 31.35-64.21 67.64zm-144.97-177.33c4.62 2.2 10.97-14.76-10.98-27.15-12.05-6.81-30.46 2.7-30.46 2.7s31.68-21.71 9.79-29.63c-18.16-6.57-43.69-3.76-58.86 2.93-2.54-6.91-5.95-13.04-10.4-14.98-11.88-5.21-24.41 13.93-11.85 25.54 4.64 4.29 9.7 7.42 14.25 9.67.45.35.93.71 1.46 1.06 31.52 21.2 133.6 61.58 164.66 56.93-68.95-24.5-67.61-27.07-67.61-27.07zM1548.8 349.1s130 123.24 50.09 287.32c0-.01 102.07-175.16-50.09-287.32z"></path></g><g id="pilot_x5F_arm"><path class="st7" d="M829.56 369.11l-32.54-30.25-20.23-1.11c0-.01 12.24 34.5 52.77 31.36z"></path><path class="st8" d="M786.89 305.46s-10.42 8.85-10.1 32.28c0 0 5.2 5.16 8.82 4.54 6.68-1.15 11.86-1.03 11.42-3.42-.68-3.68 5.71-25.69 1.43-28.68-4.29-3-11.57-4.72-11.57-4.72z" style="fill: rgb(25, 118, 210);"></path><ellipse class="st0" cx="793.17" cy="310.31" rx="8.99" ry="7.14"></ellipse><path class="st9" d="M787.7 309.74s-1.93-6.55 2.7-11.18c4.62-4.62 13.87-10.41 19.27-12.72 5.4-2.31 6.55 6.55.77 10.02-5.78 3.47-5.78 5.78-5.78 5.78s5.78.39 1.93 3.85-5.4 8.09-11.18 8.09-7.71-3.84-7.71-3.84z"></path><path class="st10" d="M792.45 309.36s3.34-4.62 2.31-8.99c-1.03-4.37 10.02-7.71 10.02-7.71s-8.48 3.85-8.48 6.68 1.81 7.45-3.85 10.02z"></path></g><g id="pilot_head"><path class="st11" d="M861.9 325.85c0 11.13-10.38 20.15-23.18 20.15s-21.57-10.98-21.57-22.1c0-11.13 8.76-18.2 21.57-18.2s23.18 9.02 23.18 20.15z"></path><path class="st10" d="M834.06 336.95s3.74 15.11 4.16 16.61c1.43 5.05 15.48 4.83 15.5 0 .01-1.71-1.53-20.04-1.53-20.04l-18.13 3.43z"></path><path class="st10" d="M840.21 303.54s-19.5.29-21.65 2.05c-2.15 1.76-.99 27.3 3.03 34.76 3.66 6.81 24.19 6.63 31.24 4.17 4.92-1.72 4.61-24.29 4.3-29.06-.32-4.76-16.92-11.92-16.92-11.92z"></path><path class="st9" d="M854.09 333.51c-.94 4.72-9.39 12.97-18.91 12.03-9.52-.94-15.01-5.42-14.84-16.22.18-11.15 9.92-10.8 19.44-9.86 9.52.95 15.4 2.96 14.31 14.05z"></path><path d="M855.42 308.79s-2.58 10.2-1.72 13.44l2.27 4.96L859 312.5l-3.58-3.71z" fill="#3d4c6d"></path><path class="st8" d="M845.31 291.97c-6.89-.18-14.94 1.89-18.84 4.13-9.1 5.23-13.69 14.87-12.84 27.05 1.17 16.86 2.36 18.64 9.63 21.58 3.28 1.33 10.79 2.85 10.53 1.61 0 0-10.96-2.9-12.29-7.36-1.39-4.67-2.44-11.19-.97-11.82 4.74-2.04 5.89-7.58 7.84-8.33 1.94-.75 4.18 5.27 7.05 6.06 4.65 1.28 14.83-3.96 17.02-5.88 0 0 4.28 9.17 3.79 15.1-.43 5.26.51 2.41-8.79 7.3-7.29 3.83 25.09 4.2 21.82-22.32-3.11-15.9-13.07-26.83-23.95-27.12z" style="fill: rgb(25, 118, 210);"></path><path class="st11" d="M821.51 327.77c4.77-1.16 5.33-7.89 7.18-8.6 1.85-.71 3.98 5.02 6.71 5.76 4.42 1.22 15.7-4.47 16.57-5.97.87-1.5 1.56-3.64 1.15-5.26-1.4-5.58-4.87-8.5-9.21-9.79-3.99-1.19-9.04 4.01-13.58 4.79-4.69.81-8.58-2.93-11.68-.48-2.84 2.25-4.75 5.5-5.24 10.33-.21 2.04-.17 3.95.08 5.71.17 1.2.91 2.25 2 2.77 1.53.74 3.64 1.32 6.02.74z"></path><path d="M821.51 327.77c4.77-1.16 5.33-7.89 7.18-8.6 1.85-.71 3.98 5.02 6.71 5.76 3.43.94 10.75-2.28 14.84-4.63.92-2.48 1.16-5.09.42-7.75-1.26-4.54-4.31-6.86-8.13-7.85-4.55-1.19-7.83 4.05-12.81 5.07-3.21.66-7.29-2.38-9.57-1.27-3.76 1.84-5.42 5.31-6.02 11.03-.18 1.7-.21 3.31-.12 4.82.08 1.3.87 2.46 2.08 2.95 1.46.6 3.34.98 5.42.47z" fill="#feed7f"></path></g><g id="torso"><path class="st0" d="M824.2 357.49c-2.11-9.06 17.62-22.01 33.83-19.42 16.21 2.59 31.72 38.19 31.72 38.19s-63.44-9.71-65.55-18.77z"></path><path class="st8" d="M829.44 358.21c-.19-9.27 20.84-18.2 37.05-15.61 16.21 2.59 31.72 38.19 31.72 38.19s-68.07 11.08-68.77-22.58z" style="fill: rgb(25, 118, 210);"></path><path class="st7" d="M844.67 360.58c1.17-9.21 5.61-20.57 21.82-17.98s31.72 38.19 31.72 38.19-57.06 7.63-53.54-20.21z"></path></g><g id="plane"><path d="M678.21 444.19c-20.92.78-126.36 30.56-181.86 39.93-6.78 1.15-9.57 5.85-4.21 9.42 17.69 11.79 50.09 32.55 67.91 38.66 20.22 6.93 181.17-11.47 250.26-11.35 8.76.02 10.87-7.24 3.05-10.47l-129.32-65.16c-1.79-.74-3.84-1.1-5.83-1.03z" fill="#b9392e" style="fill: rgb(25, 118, 210);"></path><path class="st15" d="M678.21 444.19c-20.92.78-86.49 31.43-100.62 53.26-14.13 21.83-35.36 28.64-17.54 34.75 20.22 6.93 181.17-11.47 250.26-11.35 8.76.02 10.87-7.24 3.05-10.47l-129.32-65.16c-1.79-.74-3.84-1.1-5.83-1.03z" style="fill: rgb(33, 150, 243);"></path><path d="M717.58 523.99l-36.82-24.26c-5.38-2.96-9.18-4.37-15.13-2.85l-63.64 10.03c-4.74 1.21-5.54 7.6-1.25 9.94l18.94 14.28m-27.11 1.43l-74.49-50.52" fill="none" stroke="#f6874e" stroke-miterlimit="10"></path><path class="st17" d="M685.27 434.75c-21.08 1.21-131.23 28.46-188.6 43.01-7.01 1.78-10.74 9.09-6.09 14.64 0 0 210.2-39.87 203.02-44.89l-2.7-11.16a8.82 8.82 0 0 0-5.63-1.6zm400.07 2.64c-4.59 1.84-5.27 12.3-.87 16 11.05 9.31 4.76 6.88 22.85 21.23 25.22 20.02 160.37-15.45 185.46-21.3 25.09-5.85-15.47-58.92-37.12-55.3-21.65 3.62-65.02 9.78-97.93 16.64-20 4.18-57.41 16.73-72.39 22.73z" style="fill: rgb(187, 222, 251);"></path><path class="st18" d="M1083.76 442.91c-4.62 1.72-6.01 7.44-2.29 12.19 8.92 11.37 15.51 19.96 21.6 24.74 25.33 19.88 160.37-15.45 185.46-21.3 25.09-5.85-8.74-59.88-40.03-54.57-25.01 4.25-57.63 9.72-90.54 16.59-19.99 4.17-59.55 16.89-74.2 22.35z" style="fill: rgb(33, 150, 243);"></path><path class="st15" d="M1103.07 479.84c25.33 19.88 160.37-15.45 185.46-21.3 25.09-5.85-8.74-59.88-40.03-54.57-8.83 1.5.06 18.9-43.27 47.94-40.36 27.05-106.1 24.84-102.16 27.93z" style="fill: rgb(33, 150, 243);"></path><path class="st19" d="M1230.28 471.68l-17.79-23.87c-1.81-2.43-.39-5.87 2.75-6.65l36.68-9.12c1.82-.45 3.73.15 4.82 1.53l21.56 27.09m-162.81 23.72l-8.67-12.23c-2.35-3.15-.51-7.61 3.57-8.62l33.85-8.41c2.36-.59 4.83.2 6.26 1.98l21.02 26.41"></path><path d="M936.27 329.2s-124.43-136.87-283.42 13.83l235.03 52.54 48.39-66.37z" opacity=".48" fill="#edc331"></path><path d="M936.49 328.56s-124.43-136.87-283.42 13.83" fill="none" stroke="#f7d04c" stroke-miterlimit="10"></path><path d="M930.77 330.49s-115.59-127.15-263.28 12.84c0 0 96.32-57.79 146.41-52.66 50.09 5.14 116.87 39.82 116.87 39.82z" opacity=".5" fill="#fcea7d" style="fill: rgb(187, 222, 251);"></path><path d="M804.91 277.66c-39.77 1.04-86.7 17.61-137.42 65.68l95.04-21.83 42.38-43.85z" fill="#fff"></path><path class="st24" d="M1123.42 548.82c-23.12 110.45-212.44 79.17-353.16 37.25S530.15 467.68 554.5 397s148.21-79.13 288.93-37.22 291.21 135.44 279.99 189.04z" style="fill: rgb(14, 87, 159);"></path><path class="st17" d="M1120.85 545.4c-23.12 110.45-212.44 79.17-353.16 37.25-140.72-41.92-240.12-118.4-215.76-189.08 24.36-70.68 148.21-79.13 288.93-37.22s291.21 135.45 279.99 189.05z" style="fill: rgb(187, 222, 251);"></path><path class="st24" d="M1123.42 548.82c-23.12 110.45-212.44 79.17-353.16 37.25S530.15 467.68 554.5 397s148.21-79.13 288.93-37.22 291.21 135.44 279.99 189.04z" style="fill: rgb(14, 87, 159);"></path><path d="M929.77 317.93l-2.85.57s-21.69 33.39-65.79 44.38c0 0 6.85 10.42 36.82 5.85s31.82-50.8 31.82-50.8z" fill="#f5854d" style="fill: rgb(33, 150, 243);"></path><path class="st24" d="M861.28 364.88c-10.04 1.93-8.2 12.98.16 18.86 53.1 37.34 156.49 119.2 183.92 140.97 49.8 39.53 97.14 49.04 114.02 16.41 14.73-28.48 35.87-68.41 34.24-74.52l-3.36-12.64c-1.54-5.77-7.23-9.41-13.11-8.38l-12.96 2.26c-.92.16-1.81.43-2.67.81-4.9 2.16-22.75 10.04-34.96 15.42-26.81 11.79-42.67 2.85-70.92-26.69-28.25-29.54-125.86-119.44-125.86-119.44s-25.91 38.77-68.5 46.94z" style="fill: rgb(14, 87, 159);"></path><path d="M862.99 363.74s12.13 48.95-37.53 88.33" fill="none" stroke="#f5854d" stroke-miterlimit="10"></path><path class="st27" d="M970.59 356.18s54.8 71.49-21.83 147.27"></path><path class="st18" d="M1065.82 447.49c.96 4.65 1.49 9.38 1.75 14.12.26 4.74.25 9.5-.05 14.24-.63 9.48-2.4 18.9-5.53 27.9-1.58 4.49-3.46 8.88-5.68 13.1-2.31 4.17-4.85 8.22-7.78 11.98-5.89 7.5-13.04 13.97-20.97 19.18l-.06-.08c7.59-5.67 14.55-12.18 20.24-19.71 2.9-3.72 5.41-7.72 7.7-11.84 2.26-4.14 4.17-8.46 5.8-12.9 3.2-8.89 5.06-18.24 5.79-27.67.37-4.72.44-9.46.25-14.19-.2-4.73-.66-9.46-1.55-14.11l.09-.02z" style="fill: rgb(33, 150, 243);"></path><path class="st27" d="M1067.09 478.47l-77.67-59.15"></path><path class="st18" d="M1063.12 468.68c.18.66-.15 1.27-.83 1.27-.77 0-1.49-.76-1.49-1.55 0-.67.53-1.02 1.12-.89.54.11 1.05.6 1.2 1.17zm.21-17.41c.18.66-.15 1.27-.83 1.27-.77 0-1.49-.76-1.49-1.55 0-.67.53-1.02 1.12-.89.54.11 1.05.6 1.2 1.17zm9.2 8.3c.18.66-.15 1.27-.83 1.27-.77 0-1.49-.76-1.49-1.55 0-.67.53-1.02 1.12-.89.54.11 1.05.6 1.2 1.17zm.65 15.48c.18.66-.15 1.27-.83 1.27-.77 0-1.49-.76-1.49-1.55 0-.67.53-1.02 1.12-.89.53.11 1.04.6 1.2 1.17zm-1.18 10.49c.18.66-.15 1.27-.83 1.27-.77 0-1.49-.76-1.49-1.55 0-.67.53-1.02 1.12-.89.54.11 1.04.6 1.2 1.17zm-9.21-7.06c.18.66-.15 1.27-.83 1.27-.77 0-1.49-.76-1.49-1.55 0-.67.53-1.02 1.12-.89.54.1 1.05.6 1.2 1.17zm6.54 20.81c.18.66-.15 1.27-.83 1.27-.77 0-1.49-.76-1.49-1.55 0-.67.53-1.02 1.12-.89.53.1 1.04.6 1.2 1.17zm-9.21-7.06c.18.66-.15 1.27-.83 1.27-.77 0-1.49-.76-1.49-1.55 0-.67.53-1.02 1.12-.89.54.1 1.05.6 1.2 1.17zm1.72 27.02c.18.66-.15 1.27-.83 1.27-.77 0-1.49-.76-1.49-1.55 0-.67.53-1.02 1.12-.89.53.11 1.04.6 1.2 1.17zm-9.21-7.06c.18.66-.15 1.27-.83 1.27-.77 0-1.49-.76-1.49-1.55 0-.67.53-1.02 1.12-.89.54.1 1.05.6 1.2 1.17zm-.21 21.62c.18.66-.15 1.27-.83 1.27-.77 0-1.49-.76-1.49-1.55 0-.67.53-1.02 1.12-.89.53.1 1.04.6 1.2 1.17zm-9.21-7.07c.18.66-.15 1.27-.83 1.27-.77 0-1.49-.76-1.49-1.55 0-.67.53-1.02 1.12-.89.54.11 1.05.6 1.2 1.17zm-4.06 19.48c.18.66-.15 1.27-.83 1.27-.77 0-1.49-.76-1.49-1.55 0-.67.53-1.02 1.12-.89.53.11 1.04.6 1.2 1.17zm-9.21-7.06c.18.66-.15 1.27-.83 1.27-.77 0-1.49-.76-1.49-1.55 0-.67.53-1.02 1.12-.89.54.1 1.05.6 1.2 1.17zm-71.65-35.63c.18.66-.15 1.27-.83 1.27-.77 0-1.49-.76-1.49-1.55 0-.67.53-1.02 1.12-.89.54.11 1.05.6 1.2 1.17zm-10.82-6.47c.18.66-.15 1.27-.83 1.27-.77 0-1.49-.76-1.49-1.55 0-.67.53-1.02 1.12-.89.53.11 1.04.6 1.2 1.17zm26.94-13.72c.18.66-.15 1.27-.83 1.27-.77 0-1.49-.76-1.49-1.55 0-.67.53-1.02 1.12-.89.54.11 1.05.6 1.2 1.17zm-10.82-6.47c.18.66-.15 1.27-.83 1.27-.77 0-1.49-.76-1.49-1.55 0-.67.53-1.02 1.12-.89.53.11 1.04.6 1.2 1.17zm20.82-11.65c.18.66-.15 1.27-.83 1.27-.77 0-1.49-.76-1.49-1.55 0-.67.53-1.02 1.12-.89.53.1 1.04.6 1.2 1.17zm-10.83-6.47c.18.66-.15 1.27-.83 1.27-.77 0-1.49-.76-1.49-1.55 0-.67.53-1.02 1.12-.89.54.1 1.05.6 1.2 1.17zm19.6-12.37c.18.66-.15 1.27-.83 1.27-.77 0-1.49-.76-1.49-1.55 0-.67.53-1.02 1.12-.89.54.11 1.05.6 1.2 1.17zm-10.82-6.47c.18.66-.15 1.27-.83 1.27-.77 0-1.49-.76-1.49-1.55 0-.67.53-1.02 1.12-.89.53.11 1.04.6 1.2 1.17z" style="fill: rgb(33, 150, 243);"></path><path d="M1082.42 597.61c-6.43 30.56-81.77 33.5-166.78 21.42-49.23-7-101.32-19.83-146.15-33.18-122.24-36.41-225.7-107.47-208.13-156.82s183.03-36.31 294.58 25.54c171.99 95.36 233.29 110.69 226.48 143.04z" fill="#273150"></path><path d="M1015.54 595.06c85.62 37.9-44.92 39.48-170.25 10.85-25.71-5.87-51.07-12.7-75.03-19.83-75.16-22.39-181.12-72.36-204.23-127.16-16.26-38.53-8.37-121.09 232.95-45.92 49.49 15.42 68.75-40.15 93.14-32.89 58.41 17.4 97.73 41.14 83.18 68.54-21.19 39.88-51.41 105.84 40.24 146.41z" opacity=".5" fill="#903636" style="fill: rgb(14, 87, 159);"></path><ellipse class="st18" cx="870.27" cy="374.01" rx="1.43" ry="1.57" style="fill: rgb(33, 150, 243);"></ellipse><ellipse class="st18" cx="857.71" cy="373.59" rx="1.43" ry="1.57" style="fill: rgb(33, 150, 243);"></ellipse><ellipse class="st18" cx="848.86" cy="436.38" rx="1.43" ry="1.57" style="fill: rgb(33, 150, 243);"></ellipse><ellipse class="st18" cx="865.2" cy="405.98" rx="1.43" ry="1.57" style="fill: rgb(33, 150, 243);"></ellipse><ellipse class="st18" cx="853.71" cy="404.41" rx="1.43" ry="1.57" style="fill: rgb(33, 150, 243);"></ellipse><ellipse class="st18" cx="836.3" cy="435.95" rx="1.43" ry="1.57" style="fill: rgb(33, 150, 243);"></ellipse><path class="st19" d="M819.75 599.91s80.39-27.31 87.9-36.53c6.28-7.71-68.09-37.45-98.74-46.97-7.46-2.31-12.97-2.4-19.98 1.02l-94.75 41.1"></path><path class="st18" d="M892.12 380.11a15.826 15.826 0 0 0-11.34 10.15c-2.09 5.91-2.35 7.19 1.19 12.15 6.42 8.99 73.21 35.96 89.9 41.1 14.29 4.4 201.12-52.65 254.72-71.92 3.42-.86 7.1-8.4 1.92-13.2-13.6-12.58-39.06-33.87-51.15-36.46-16.2-3.47-240.87 47.95-285.24 58.18z" style="fill: rgb(33, 150, 243);"></path><path class="st17" d="M888.53 380.94a8.692 8.692 0 0 0-5.98 4.91c-2.62 5.82-5.11 10.22-.58 16.56 4.48 6.27 250.64-56.33 291.44-67.76 4.36-1.22 7.23-5.62 6.2-10.03-.32-1.37-.99-2.42-2.25-2.69-16.7-3.58-254.95 51.18-288.83 59.01z" style="fill: rgb(187, 222, 251);"></path><path class="st15" d="M962.88 374.16c-32.11 3.42-80.29 11-82.1 16.1-2.09 5.91-2.35 7.19 1.19 12.15 6.42 8.99 73.21 35.96 89.9 41.1 14.29 4.4 201.12-52.65 254.72-71.92 3.42-.86 7.1-8.4 1.92-13.2-9.65-8.93-53.51 27.35-141.05 42.31-26.68 4.56-76.36.64-101.89-19.12-8.85-6.85-14.81-6.44-22.69-7.42z" style="fill: rgb(33, 150, 243);"></path><path d="M1149.53 396.42l-28.25-17.34c-5.38-2.96-8.02-1.51-13.97.01l-64.81 16.52c-4.74 1.21-5.54 7.6-1.25 9.94l30.51 14.28m-30.11-51.24l34.25 17.98m48.38-38.95l55.65 38.52m-214.91 1.72l61.65 44.52" stroke="#e7b748" fill="none" stroke-miterlimit="10"></path><path class="st18" d="M1178.9 445.12l-16.95 2.67s-38.89 19.12-56.22 21.69c0 0 33.47 12.78 75.07-19.98 1.99-1.57.61-4.77-1.9-4.38z" style="fill: rgb(33, 150, 243);"></path></g><g id="wind"><path class="st0" d="M771.72 481.75s-106.18.54-108.63 127.34 161.87 202.1 258.04 213.76c0 0-144.86-46.59-202.89-117.3s-70.62-180.05 53.48-223.8z"></path><path class="st0" d="M808.8 678.98s35.97 110.03 279.21 151.05c-.01 0-272.86-7.17-279.21-151.05zM970.84 481.9s153.36 104.59 337.04 158.31c133 38.9-108.06-59.48-125.18-72.45s2.79-46.98-35.58-62.18-82.99 4.6-82.99 4.6 14.65-12.64-7.05-26.95c-21.7-14.31-73.04-12.4-86.24-1.33z"></path></g><path class="st17" d="M734.16 192.98s-5.6 54.65-41.99 55.45c0 0 39.2 14.61 36.4 56.18 0 0 2.8-36.82 36.4-56.18-.01 0-33.61-13.88-30.81-55.45zm30.96 133.97s-3.14 30.61-23.52 31.05c0 0 21.95 8.18 20.38 31.46 0 0 1.57-20.62 20.38-31.46 0 0-18.81-7.77-17.24-31.05zm729.79 323.81s-2.3 22.42-17.23 22.75c0 0 16.08 5.99 14.93 23.05 0 0 1.15-15.11 14.93-23.05 0 0-13.78-5.7-12.63-22.75zm20.04-37.98s-2.89 28.18-21.66 28.59c0 0 20.21 7.53 18.77 28.97 0 0 1.44-18.99 18.77-28.97 0 0-17.32-7.15-15.88-28.59z" id="extra" style="fill: rgb(187, 222, 251);"></path></svg>