<svg xmlns="http://www.w3.org/2000/svg" viewBox="0 0 60 60"><path d="M53.566 44.783l-9.552-4.776A3.644 3.644 0 0 1 42 36.748V33c.268-.305.576-.698.904-1.162a21.964 21.964 0 0 0 2.969-5.984C47.098 25.477 48 24.345 48 23v-4c0-.88-.391-1.667-1-2.217V11s1.187-9-11-9c-12.188 0-11 9-11 9v5.783c-.609.55-1 1.337-1 2.217v4a3 3 0 0 0 1.383 2.517C26.382 29.869 29 33 29 33v3.655c0 1.333-.728 2.56-1.899 3.198L18.18 44.72A8.02 8.02 0 0 0 14 51.761V55h44v-3.043a8.022 8.022 0 0 0-4.434-7.174z" fill="#8697cb"/><path d="M18.18 44.72l5.946-3.243c-.034-.033-.005-.043.065-.036l2.91-1.587A3.643 3.643 0 0 0 29 36.655V33s-1.062-1.275-2.092-3.323l-.001-.003a20.31 20.31 0 0 1-.399-.844l-.054-.121a18.523 18.523 0 0 1-.386-.944l-.023-.065a18.79 18.79 0 0 1-.306-.896l-.077-.251a16.731 16.731 0 0 1-.278-1.038A2.992 2.992 0 0 1 24 23v-4c0-.88.391-1.667 1-2.217v-5.648C23.587 10.039 21.397 9 18 9 8.437 9 8 17 8 17v4.995c-.526.475-1 1.154-1 1.914v3.455c0 .911.479 1.711 1.194 2.174C9.057 33.296 11.955 36 11.955 36v3.157a3.146 3.146 0 0 1-1.64 2.762L3.61 46.122A6.928 6.928 0 0 0 0 52.203V55h14v-3.239a8.02 8.02 0 0 1 4.18-7.041z" fill="#556080"/><circle cx="48" cy="46" r="12" fill="#26b999"/><path d="M54.571 40.179a.999.999 0 0 0-1.392.25l-5.596 8.04-3.949-3.242a.999.999 0 1 0-1.268 1.546l4.786 3.929a1.003 1.003 0 0 0 1.455-.201l6.214-8.929a1.002 1.002 0 0 0-.25-1.393z" fill="#fff"/></svg>