<svg xmlns="http://www.w3.org/2000/svg" viewBox="0 0 463 463" style="max-width:100%;max-height:320px"><g fill="#727272"><path d="M453.774 387.168L304.433 237.826a31.315 31.315 0 0 0-14.951-8.351l73.38-73.38c.085-.085.349-.132.669-.049 27.27 6.953 56.362-.697 75.919-19.974a79.366 79.366 0 0 0 23.515-51.368c.433-6.586-3.157-12.596-9.145-15.31-5.915-2.679-12.709-1.438-17.312 3.165l-25.227 25.227-36.258-9.715-9.715-36.258 25.226-25.226c4.603-4.603 5.845-11.399 3.165-17.316-2.711-5.983-8.721-9.552-15.293-9.144a79.413 79.413 0 0 0-50.972 23.103c-19.911 19.911-27.805 49.237-20.602 76.535.086.327.042.595-.044.68l-97.868 97.867L62.478 51.872c4.346-8.787 2.886-19.741-4.42-27.047a7.456 7.456 0 0 0-1.144-.938L22.974 1.261a7.5 7.5 0 0 0-9.464.936L2.197 13.511a7.498 7.498 0 0 0-.937 9.463l22.627 33.941c.274.411.588.794.937 1.144 4.582 4.581 10.599 6.871 16.617 6.871 3.58 0 7.153-.83 10.43-2.452L198.313 208.92l-98.078 98.078c-.085.085-.348.132-.67.049-27.275-6.955-56.364.699-75.919 19.975A79.368 79.368 0 0 0 .13 378.39c-.432 6.587 3.158 12.597 9.147 15.311 5.914 2.679 12.708 1.436 17.31-3.166l25.227-25.227 36.257 9.716 9.715 36.257-25.225 25.225c-4.603 4.603-5.845 11.4-3.165 17.316 2.564 5.661 8.073 9.179 14.229 9.178.352 0 .708-.012 1.063-.034a79.406 79.406 0 0 0 50.972-23.102c19.91-19.911 27.805-49.237 20.602-76.536-.086-.326-.042-.594.044-.679l73.153-73.153c1.332 5.609 4.186 10.758 8.365 14.938l149.341 149.342c6.141 6.141 14.207 9.211 22.273 9.211s16.133-3.07 22.274-9.211l22.059-22.06c5.95-5.949 9.226-13.859 9.226-22.274.003-8.415-3.273-16.325-9.223-22.274zM35.891 47.88l-18.74-28.11 2.618-2.618 28.11 18.739c2.879 3.336 2.737 8.396-.428 11.561-3.165 3.165-8.225 3.307-11.56.428zm223.994 189.946l-22.059 22.06c-.214.214-.416.435-.622.653l-6.046-6.045a8.446 8.446 0 0 1-2.49-6.012c0-1.964.664-3.824 1.882-5.331l12.602-12.602a8.434 8.434 0 0 1 5.329-1.881c2.27 0 4.404.884 6.01 2.49l6.046 6.046-.011.011c-.213.204-.431.401-.641.611zm57.509-126.772c3.87-3.87 5.38-9.662 3.941-15.114-5.846-22.155.555-45.951 16.705-62.101a64.409 64.409 0 0 1 41.345-18.741c.197-.016.471-.031.65.364.129.284.049.363-.108.521L351.64 44.269a7.5 7.5 0 0 0-1.941 7.245l11.957 44.623a7.501 7.501 0 0 0 5.304 5.303l44.623 11.956a7.498 7.498 0 0 0 7.244-1.94l28.289-28.288c.162-.163.236-.235.514-.109.401.182.382.46.369.664a64.372 64.372 0 0 1-19.077 41.667c-15.837 15.61-39.471 21.788-61.683 16.122-5.492-1.398-11.092.087-14.982 3.977l-81.11 81.11-6.046-6.045a23.465 23.465 0 0 0-7.081-4.868l81.606-81.606a7.5 7.5 0 0 0-10.606-10.607l-97.506 97.434-11.984-11.984 97.864-97.869zM145.701 352.042c-3.87 3.87-5.38 9.662-3.941 15.113 5.846 22.156-.555 45.952-16.705 62.102a64.398 64.398 0 0 1-41.346 18.74c-.197.016-.469.032-.649-.364-.128-.283-.049-.362.108-.52l28.287-28.287a7.5 7.5 0 0 0 1.941-7.245l-11.957-44.622a7.502 7.502 0 0 0-5.303-5.303l-44.622-11.957a7.496 7.496 0 0 0-7.245 1.94l-28.29 28.289c-.161.16-.234.235-.513.109-.401-.182-.382-.473-.37-.665a64.383 64.383 0 0 1 19.078-41.668c15.835-15.609 39.471-21.788 61.682-16.122 5.494 1.4 11.094-.086 14.983-3.977l98.079-98.079 11.984 11.984-97.434 97.506a7.5 7.5 0 0 0 10.606 10.607l81.606-81.606a23.487 23.487 0 0 0 4.868 7.082l6.046 6.046-80.893 80.897zm297.467 69.066l-22.059 22.06c-6.433 6.433-16.901 6.435-23.334 0L248.433 293.826a16.39 16.39 0 0 1-4.833-11.666c0-4.256 1.613-8.254 4.527-11.331l22.694-22.693a16.442 16.442 0 0 1 11.338-4.528c4.225 0 8.451 1.608 11.667 4.825l149.341 149.342A16.39 16.39 0 0 1 448 409.441a16.39 16.39 0 0 1-4.832 11.667z"/><path d="M281.182 270.576a7.501 7.501 0 0 0-10.606 10.607L409.51 420.118c1.464 1.464 3.384 2.196 5.303 2.196s3.839-.732 5.303-2.196a7.5 7.5 0 0 0 0-10.607L281.182 270.576z"/></g></svg>