<svg xmlns="http://www.w3.org/2000/svg" viewBox="0 0 463 463" style="max-width:100%;max-height:320px"><path d="M372.96 351.135l-57.626-14.407-17.293-17.293c-3.015-3.015-7.027-4.516-11.042-4.498V300.99a111.45 111.45 0 0 0 7.633-5.868c3.103-.62 24.419-5.017 46.099-12.908C374.557 269.903 391 255.931 391 239.5c0-95.671-22.196-164.244-65.971-203.814C290.68 4.636 251.687 0 231.5 0s-59.18 4.636-93.529 35.686C94.196 75.256 72 143.829 72 239.5c0 16.431 16.443 30.403 50.268 42.714 21.68 7.891 42.996 12.288 46.099 12.908A111.696 111.696 0 0 0 176 300.99v13.947c-4.015-.018-8.027 1.483-11.042 4.498l-17.293 17.293-57.625 14.407A55.418 55.418 0 0 0 48 404.977V439.5c0 12.958 10.542 23.5 23.5 23.5h320c12.958 0 23.5-10.542 23.5-23.5v-34.523a55.418 55.418 0 0 0-42.04-53.842zm-85.525-21.093l14.269 14.269-31.396 43.955a.47.47 0 0 1-.339.205c-.215.029-.335-.068-.381-.104l-26.331-21.065 43.499-37.285a.499.499 0 0 1 .679.025zM135 183.5c0-17.563 3.139-35.005 9.123-50.918 16.925 7.965 45.096 16.976 78.009 24.844 37.496 8.964 75.55 15.121 105.763 17.162.063 3.542.106 7.37.106 8.912 0 36.161-12.824 68.649-33.089 90.755-7.551.032-15.91-1.141-25.054-3.524a23.4 23.4 0 0 0 1.143-7.231c0-12.958-10.542-23.5-23.5-23.5S224 250.542 224 263.5s10.542 23.5 23.5 23.5c4.526 0 8.756-1.29 12.346-3.516 6.848 2.078 13.389 3.595 19.617 4.551C265.326 298.188 248.946 304 231.5 304c-53.21 0-96.5-54.056-96.5-120.5zM123.25 216H111.5a.5.5 0 0 1-.5-.5v-40a.5.5 0 0 1 .5-.5h8.724a162.662 162.662 0 0 0-.224 8.5c0 11.2 1.132 22.084 3.25 32.5zm199.857 50.168a40.084 40.084 0 0 1-5.446 3.241c7.711-11.401 13.919-24.355 18.262-38.409h7.165c-1.692 9.501-6.481 25.583-19.981 35.168zM352 215.5a.5.5 0 0 1-.5.5h-11.75a163.093 163.093 0 0 0 3.25-32.5c0-1.355-.036-4.767-.092-8.2h8.592a.5.5 0 0 1 .5.5v39.7zM247.5 272c-4.687 0-8.5-3.813-8.5-8.5s3.813-8.5 8.5-8.5 8.5 3.813 8.5 8.5-3.813 8.5-8.5 8.5zM87 239.5c0-91.251 20.533-156.08 61.029-192.687C178.651 19.133 213.47 15 231.5 15s52.849 4.133 83.471 31.813C355.467 83.42 376 148.249 376 239.5c0 8.45-12.953 17.141-30.169 24.528 8.776-12.748 11.71-27.022 12.683-34.723 5.028-2.565 8.486-7.783 8.486-13.804v-39.7c0-8.547-6.953-15.5-15.5-15.5h-14.22a7.53 7.53 0 0 0-1.717-.292c-64.854-3.111-162.853-27.611-191.483-44.33a7.5 7.5 0 0 0-10.632 3.421c-5.702 12.782-9.649 26.635-11.73 40.9H111.5c-8.547 0-15.5 6.953-15.5 15.5v40c0 8.547 6.953 15.5 15.5 15.5h15.577c5.096 16.491 12.764 31.464 22.409 44.194C119.157 266.731 87 252.815 87 239.5zM231.5 319c14.28 0 27.94-3.283 40.5-9.255v13.162l-40.5 34.714-40.5-34.713v-13.162c12.56 5.971 26.22 9.254 40.5 9.254zm-55.935 11.042a.5.5 0 0 1 .679-.026l43.499 37.285-26.331 21.065a.467.467 0 0 1-.382.105.467.467 0 0 1-.338-.205l-31.396-43.956 14.269-14.268zm-81.888 35.645l54.688-13.672 32.122 44.971a15.569 15.569 0 0 0 10.482 6.343 15.27 15.27 0 0 0 2.11.146c3.5 0 6.947-1.19 9.703-3.395L224 383.105V423.5a7.5 7.5 0 0 0 15 0v-40.395l21.218 16.975a15.57 15.57 0 0 0 11.813 3.248 15.569 15.569 0 0 0 10.482-6.343l32.122-44.97 54.688 13.672a40.76 40.76 0 0 1 4.691 1.482l-28.858 34.63a39.571 39.571 0 0 0-9.155 25.287V448H127v-20.915a39.571 39.571 0 0 0-9.155-25.287l-28.858-34.63a40.874 40.874 0 0 1 4.69-1.481zM63 439.5v-34.523a40.432 40.432 0 0 1 13.1-29.842l30.222 36.266a24.549 24.549 0 0 1 5.679 15.685V448H71.5c-4.687 0-8.5-3.813-8.5-8.5zm337 0c0 4.687-3.813 8.5-8.5 8.5H351v-20.915c0-5.72 2.017-11.29 5.679-15.685l30.222-36.266a40.436 40.436 0 0 1 13.1 29.842V439.5z" fill="#727272"/></svg>