<svg xmlns="http://www.w3.org/2000/svg" viewBox="0 0 465.063 465.063" style="max-width:100%;max-height:320px"><g fill="#727272"><path d="M300.859 125.413l-39.633-5.759-17.725-35.913c-2.076-4.206-6.279-6.819-10.97-6.819s-8.894 2.613-10.97 6.819l-17.725 35.913-39.633 5.759c-4.642.675-8.426 3.865-9.875 8.326s-.264 9.266 3.095 12.541l28.679 27.953-6.77 39.474a12.156 12.156 0 0 0 4.867 11.965 12.188 12.188 0 0 0 7.179 2.349c1.943 0 3.898-.469 5.704-1.418l35.448-18.636 35.447 18.635a12.157 12.157 0 0 0 12.884-.93 12.156 12.156 0 0 0 4.867-11.965l-6.77-39.474 28.679-27.954c3.358-3.274 4.544-8.079 3.095-12.54s-5.231-7.651-9.873-8.326zm-35.192 40.831a7.498 7.498 0 0 0-2.156 6.639l6.488 37.834-33.977-17.862a7.504 7.504 0 0 0-6.98 0l-33.977 17.862 6.488-37.834a7.501 7.501 0 0 0-2.156-6.639l-27.488-26.793 37.987-5.52a7.496 7.496 0 0 0 5.647-4.103l16.988-34.422 16.988 34.422a7.5 7.5 0 0 0 5.647 4.103l37.987 5.52-27.486 26.793z"/><path d="M232.532 32c-70.304 0-127.5 57.196-127.5 127.5S162.228 287 232.532 287s127.5-57.196 127.5-127.5S302.835 32 232.532 32zm0 240c-62.032 0-112.5-50.468-112.5-112.5S170.5 47 232.532 47s112.5 50.468 112.5 112.5S294.564 272 232.532 272z"/><path d="M406.833 413.017L347.548 269.89c27.534-28.677 44.484-67.59 44.484-110.39 0-87.948-71.552-159.5-159.5-159.5s-159.5 71.552-159.5 159.5c0 42.8 16.949 81.713 44.484 110.39L58.23 413.017c-2.327 5.616-1.226 11.895 2.874 16.384 4.099 4.489 10.249 6.157 16.058 4.346L114.54 422.1l18.196 34.667c2.712 5.167 7.912 8.297 13.696 8.297.242 0 .485-.005.729-.017 6.073-.275 11.292-3.936 13.618-9.553l56.83-137.198c4.914.458 9.89.704 14.922.704s10.008-.245 14.922-.704l56.83 137.198c2.326 5.617 7.545 9.277 13.618 9.553.244.012.487.017.729.017 5.783 0 10.985-3.131 13.696-8.297l18.196-34.667 37.379 11.646c5.809 1.812 11.958.142 16.057-4.346 4.101-4.489 5.203-10.767 2.875-16.383zm-259.911 36.737c-.058.138-.122.294-.44.309-.314.021-.396-.135-.465-.267l-21.101-40.201a7.496 7.496 0 0 0-8.872-3.675L72.7 419.426c-.143.043-.306.094-.52-.141s-.149-.391-.093-.528l57.106-137.865a160.137 160.137 0 0 0 27.822 19.066l-33.422 80.689a7.498 7.498 0 0 0 4.059 9.799 7.45 7.45 0 0 0 2.867.573 7.504 7.504 0 0 0 6.932-4.632l33.104-79.921a158.144 158.144 0 0 0 31.725 9.644l-55.358 133.644zM88.032 159.5c0-79.678 64.822-144.5 144.5-144.5s144.5 64.822 144.5 144.5S312.209 304 232.532 304s-144.5-64.822-144.5-144.5zm304.851 259.785c-.216.234-.376.184-.519.141l-43.346-13.506a7.494 7.494 0 0 0-8.872 3.675l-21.101 40.201c-.069.132-.167.279-.465.267-.318-.015-.383-.171-.44-.309L262.783 316.11a158.144 158.144 0 0 0 31.725-9.644l33.104 79.921a7.5 7.5 0 1 0 13.858-5.74l-33.422-80.689a160.193 160.193 0 0 0 27.822-19.066l57.106 137.865c.057.138.121.294-.093.528z"/></g></svg>