<svg xmlns="http://www.w3.org/2000/svg" viewBox="0 0 463 463" style="max-width:100%;max-height:320px"><g fill="#727272"><path d="M395.195 67.805C351.471 24.08 293.336 0 231.5 0S111.529 24.08 67.805 67.805 0 169.664 0 231.5s24.08 119.971 67.805 163.695S169.664 463 231.5 463s119.971-24.08 163.695-67.805S463 293.336 463 231.5s-24.08-119.971-67.805-163.695zm-10.606 316.784C343.697 425.48 289.329 448 231.5 448s-112.197-22.52-153.089-63.411C37.52 343.697 15 289.329 15 231.5S37.52 119.303 78.411 78.411C119.303 37.52 173.671 15 231.5 15s112.197 22.52 153.089 63.411C425.48 119.303 448 173.671 448 231.5s-22.52 112.197-63.411 153.089z"/><path d="M231.5 40C125.907 40 40 125.906 40 231.5S125.907 423 231.5 423 423 337.094 423 231.5 337.093 40 231.5 40zm94.639 340.42l-4.144-7.178a7.5 7.5 0 0 0-12.99 7.5l4.153 7.194C290.81 399.648 265.662 406.709 239 407.83V383.5c0-4.143-3.358-7.5-7.5-7.5s-7.5 3.357-7.5 7.5v24.33c-26.662-1.121-51.811-8.181-74.158-19.894l4.153-7.193a7.5 7.5 0 0 0-12.99-7.5l-4.144 7.177a177.898 177.898 0 0 1-54.28-54.281l7.177-4.144a7.5 7.5 0 0 0-7.5-12.99l-7.193 4.153C63.352 290.81 56.291 265.662 55.17 239H79.5c4.142 0 7.5-3.357 7.5-7.5s-3.358-7.5-7.5-7.5H55.17c1.121-26.662 8.181-51.81 19.894-74.158l7.193 4.153a7.497 7.497 0 0 0 10.245-2.745 7.5 7.5 0 0 0-2.745-10.245l-7.177-4.144a177.912 177.912 0 0 1 54.281-54.281l4.144 7.178a7.497 7.497 0 0 0 10.245 2.745 7.5 7.5 0 0 0 2.745-10.245l-4.153-7.193C172.19 63.352 197.338 56.291 224 55.17V79.5c0 4.143 3.358 7.5 7.5 7.5s7.5-3.357 7.5-7.5V55.17c26.661 1.121 51.81 8.181 74.157 19.894l-4.153 7.194a7.5 7.5 0 1 0 12.99 7.5l4.144-7.178a177.912 177.912 0 0 1 54.281 54.281l-7.178 4.144a7.5 7.5 0 0 0 7.5 12.99l7.194-4.154c11.713 22.348 18.774 47.496 19.894 74.158H383.5c-4.142 0-7.5 3.357-7.5 7.5s3.358 7.5 7.5 7.5h24.33c-1.121 26.662-8.181 51.81-19.894 74.158l-7.194-4.154a7.5 7.5 0 0 0-7.5 12.99l7.178 4.144a177.886 177.886 0 0 1-54.281 54.283z"/><path d="M258.431 247.824A31.3 31.3 0 0 0 263 231.5c0-14.785-10.241-27.216-24-30.591V175.5c0-4.143-3.358-7.5-7.5-7.5s-7.5 3.357-7.5 7.5v25.409a31.317 31.317 0 0 0-8.824 3.659l-50.373-50.372a7.501 7.501 0 0 0-10.606 10.607l50.372 50.372A31.315 31.315 0 0 0 200 231.5c0 14.785 10.241 27.216 24 30.591V351.5c0 4.143 3.358 7.5 7.5 7.5s7.5-3.357 7.5-7.5v-89.409a31.317 31.317 0 0 0 8.824-3.659l10.372 10.372c1.464 1.464 3.384 2.196 5.303 2.196s3.839-.732 5.303-2.196a7.5 7.5 0 0 0 0-10.607l-10.371-10.373zM215 231.5c0-9.098 7.402-16.5 16.5-16.5s16.5 7.402 16.5 16.5-7.402 16.5-16.5 16.5-16.5-7.402-16.5-16.5z"/></g></svg>